<?xml version="1.0" encoding="utf-8" standalone="no"?>
<!DOCTYPE svg PUBLIC "-//W3C//DTD SVG 1.1//EN"
  "http://www.w3.org/Graphics/SVG/1.1/DTD/svg11.dtd">
<svg xmlns:xlink="http://www.w3.org/1999/xlink" width="666.584334pt" height="808.696969pt" viewBox="0 0 666.584334 808.696969" xmlns="http://www.w3.org/2000/svg" version="1.1">
 <metadata>
  <rdf:RDF xmlns:dc="http://purl.org/dc/elements/1.1/" xmlns:cc="http://creativecommons.org/ns#" xmlns:rdf="http://www.w3.org/1999/02/22-rdf-syntax-ns#">
   <cc:Work>
    <dc:type rdf:resource="http://purl.org/dc/dcmitype/StillImage"/>
    <dc:date>2024-03-05T11:32:44.259878</dc:date>
    <dc:format>image/svg+xml</dc:format>
    <dc:creator>
     <cc:Agent>
      <dc:title>Matplotlib v3.7.1, https://matplotlib.org/</dc:title>
     </cc:Agent>
    </dc:creator>
   </cc:Work>
  </rdf:RDF>
 </metadata>
 <defs>
  <style type="text/css">*{stroke-linejoin: round; stroke-linecap: butt}</style>
 </defs>
 <g id="figure_1">
  <g id="patch_1">
   <path d="M 0 808.696969 
L 666.584334 808.696969 
L 666.584334 0 
L 0 0 
z
" style="fill: #ffffff"/>
  </g>
  <g id="axes_1">
   <g id="patch_2">
    <path d="M 111.691563 350.406 
L 639.523166 350.406 
L 639.523166 7.2 
L 111.691563 7.2 
z
" style="fill: #eaeaf2"/>
   </g>
   <g id="matplotlib.axis_1">
    <g id="xtick_1">
     <g id="line2d_1">
      <path d="M 135.683908 350.406 
L 135.683908 7.2 
" clip-path="url(#pa323d75910)" style="fill: none; stroke: #ffffff; stroke-width: 2; stroke-linecap: round"/>
     </g>
    </g>
    <g id="xtick_2">
     <g id="line2d_2">
      <path d="M 302.298576 350.406 
L 302.298576 7.2 
" clip-path="url(#pa323d75910)" style="fill: none; stroke: #ffffff; stroke-width: 2; stroke-linecap: round"/>
     </g>
    </g>
    <g id="xtick_3">
     <g id="line2d_3">
      <path d="M 468.913244 350.406 
L 468.913244 7.2 
" clip-path="url(#pa323d75910)" style="fill: none; stroke: #ffffff; stroke-width: 2; stroke-linecap: round"/>
     </g>
    </g>
    <g id="xtick_4">
     <g id="line2d_4">
      <path d="M 635.527913 350.406 
L 635.527913 7.2 
" clip-path="url(#pa323d75910)" style="fill: none; stroke: #ffffff; stroke-width: 2; stroke-linecap: round"/>
     </g>
    </g>
   </g>
   <g id="matplotlib.axis_2">
    <g id="ytick_1">
     <g id="line2d_5">
      <path d="M 111.691563 296.014927 
L 639.523166 296.014927 
" clip-path="url(#pa323d75910)" style="fill: none; stroke: #ffffff; stroke-width: 2; stroke-linecap: round"/>
     </g>
     <g id="text_1">
      <!-- −20 -->
      <g style="fill: #262626" transform="translate(47.678813 306.250598) scale(0.286 -0.286)">
       <defs>
        <path id="ArialMT-2212" d="M 3381 1997 
L 356 1997 
L 356 2522 
L 3381 2522 
L 3381 1997 
z
" transform="scale(0.015625)"/>
        <path id="ArialMT-32" d="M 3222 541 
L 3222 0 
L 194 0 
Q 188 203 259 391 
Q 375 700 629 1000 
Q 884 1300 1366 1694 
Q 2113 2306 2375 2664 
Q 2638 3022 2638 3341 
Q 2638 3675 2398 3904 
Q 2159 4134 1775 4134 
Q 1369 4134 1125 3890 
Q 881 3647 878 3216 
L 300 3275 
Q 359 3922 746 4261 
Q 1134 4600 1788 4600 
Q 2447 4600 2831 4234 
Q 3216 3869 3216 3328 
Q 3216 3053 3103 2787 
Q 2991 2522 2730 2228 
Q 2469 1934 1863 1422 
Q 1356 997 1212 845 
Q 1069 694 975 541 
L 3222 541 
z
" transform="scale(0.015625)"/>
        <path id="ArialMT-30" d="M 266 2259 
Q 266 3072 433 3567 
Q 600 4063 929 4331 
Q 1259 4600 1759 4600 
Q 2128 4600 2406 4451 
Q 2684 4303 2865 4023 
Q 3047 3744 3150 3342 
Q 3253 2941 3253 2259 
Q 3253 1453 3087 958 
Q 2922 463 2592 192 
Q 2263 -78 1759 -78 
Q 1097 -78 719 397 
Q 266 969 266 2259 
z
M 844 2259 
Q 844 1131 1108 757 
Q 1372 384 1759 384 
Q 2147 384 2411 759 
Q 2675 1134 2675 2259 
Q 2675 3391 2411 3762 
Q 2147 4134 1753 4134 
Q 1366 4134 1134 3806 
Q 844 3388 844 2259 
z
" transform="scale(0.015625)"/>
       </defs>
       <use xlink:href="#ArialMT-2212"/>
       <use xlink:href="#ArialMT-32" x="58.398438"/>
       <use xlink:href="#ArialMT-30" x="114.013672"/>
      </g>
     </g>
    </g>
    <g id="ytick_2">
     <g id="line2d_6">
      <path d="M 111.691563 237.408963 
L 639.523166 237.408963 
" clip-path="url(#pa323d75910)" style="fill: none; stroke: #ffffff; stroke-width: 2; stroke-linecap: round"/>
     </g>
     <g id="text_2">
      <!-- −10 -->
      <g style="fill: #262626" transform="translate(47.678813 247.644635) scale(0.286 -0.286)">
       <defs>
        <path id="ArialMT-31" d="M 2384 0 
L 1822 0 
L 1822 3584 
Q 1619 3391 1289 3197 
Q 959 3003 697 2906 
L 697 3450 
Q 1169 3672 1522 3987 
Q 1875 4303 2022 4600 
L 2384 4600 
L 2384 0 
z
" transform="scale(0.015625)"/>
       </defs>
       <use xlink:href="#ArialMT-2212"/>
       <use xlink:href="#ArialMT-31" x="58.398438"/>
       <use xlink:href="#ArialMT-30" x="114.013672"/>
      </g>
     </g>
    </g>
    <g id="ytick_3">
     <g id="line2d_7">
      <path d="M 111.691563 178.803 
L 639.523166 178.803 
" clip-path="url(#pa323d75910)" style="fill: none; stroke: #ffffff; stroke-width: 2; stroke-linecap: round"/>
     </g>
     <g id="text_3">
      <!-- 0 -->
      <g style="fill: #262626" transform="translate(80.287281 189.038672) scale(0.286 -0.286)">
       <use xlink:href="#ArialMT-30"/>
      </g>
     </g>
    </g>
    <g id="ytick_4">
     <g id="line2d_8">
      <path d="M 111.691563 120.197037 
L 639.523166 120.197037 
" clip-path="url(#pa323d75910)" style="fill: none; stroke: #ffffff; stroke-width: 2; stroke-linecap: round"/>
     </g>
     <g id="text_4">
      <!-- 10 -->
      <g style="fill: #262626" transform="translate(64.383 130.432709) scale(0.286 -0.286)">
       <use xlink:href="#ArialMT-31"/>
       <use xlink:href="#ArialMT-30" x="55.615234"/>
      </g>
     </g>
    </g>
    <g id="ytick_5">
     <g id="line2d_9">
      <path d="M 111.691563 61.591073 
L 639.523166 61.591073 
" clip-path="url(#pa323d75910)" style="fill: none; stroke: #ffffff; stroke-width: 2; stroke-linecap: round"/>
     </g>
     <g id="text_5">
      <!-- 20 -->
      <g style="fill: #262626" transform="translate(64.383 71.826745) scale(0.286 -0.286)">
       <use xlink:href="#ArialMT-32"/>
       <use xlink:href="#ArialMT-30" x="55.615234"/>
      </g>
     </g>
    </g>
    <g id="text_6">
     <!-- G [mT/m] -->
     <g style="fill: #262626" transform="translate(37.477813 243.789187) rotate(-90) scale(0.312 -0.312)">
      <defs>
       <path id="ArialMT-47" d="M 2638 1797 
L 2638 2334 
L 4578 2338 
L 4578 638 
Q 4131 281 3656 101 
Q 3181 -78 2681 -78 
Q 2006 -78 1454 211 
Q 903 500 622 1047 
Q 341 1594 341 2269 
Q 341 2938 620 3517 
Q 900 4097 1425 4378 
Q 1950 4659 2634 4659 
Q 3131 4659 3532 4498 
Q 3934 4338 4162 4050 
Q 4391 3763 4509 3300 
L 3963 3150 
Q 3859 3500 3706 3700 
Q 3553 3900 3268 4020 
Q 2984 4141 2638 4141 
Q 2222 4141 1919 4014 
Q 1616 3888 1430 3681 
Q 1244 3475 1141 3228 
Q 966 2803 966 2306 
Q 966 1694 1177 1281 
Q 1388 869 1791 669 
Q 2194 469 2647 469 
Q 3041 469 3416 620 
Q 3791 772 3984 944 
L 3984 1797 
L 2638 1797 
z
" transform="scale(0.015625)"/>
       <path id="ArialMT-20" transform="scale(0.015625)"/>
       <path id="ArialMT-5b" d="M 434 -1272 
L 434 4581 
L 1675 4581 
L 1675 4116 
L 997 4116 
L 997 -806 
L 1675 -806 
L 1675 -1272 
L 434 -1272 
z
" transform="scale(0.015625)"/>
       <path id="ArialMT-6d" d="M 422 0 
L 422 3319 
L 925 3319 
L 925 2853 
Q 1081 3097 1340 3245 
Q 1600 3394 1931 3394 
Q 2300 3394 2536 3241 
Q 2772 3088 2869 2813 
Q 3263 3394 3894 3394 
Q 4388 3394 4653 3120 
Q 4919 2847 4919 2278 
L 4919 0 
L 4359 0 
L 4359 2091 
Q 4359 2428 4304 2576 
Q 4250 2725 4106 2815 
Q 3963 2906 3769 2906 
Q 3419 2906 3187 2673 
Q 2956 2441 2956 1928 
L 2956 0 
L 2394 0 
L 2394 2156 
Q 2394 2531 2256 2718 
Q 2119 2906 1806 2906 
Q 1569 2906 1367 2781 
Q 1166 2656 1075 2415 
Q 984 2175 984 1722 
L 984 0 
L 422 0 
z
" transform="scale(0.015625)"/>
       <path id="ArialMT-54" d="M 1659 0 
L 1659 4041 
L 150 4041 
L 150 4581 
L 3781 4581 
L 3781 4041 
L 2266 4041 
L 2266 0 
L 1659 0 
z
" transform="scale(0.015625)"/>
       <path id="ArialMT-2f" d="M 0 -78 
L 1328 4659 
L 1778 4659 
L 453 -78 
L 0 -78 
z
" transform="scale(0.015625)"/>
       <path id="ArialMT-5d" d="M 1363 -1272 
L 122 -1272 
L 122 -806 
L 800 -806 
L 800 4116 
L 122 4116 
L 122 4581 
L 1363 4581 
L 1363 -1272 
z
" transform="scale(0.015625)"/>
      </defs>
      <use xlink:href="#ArialMT-47"/>
      <use xlink:href="#ArialMT-20" x="77.783203"/>
      <use xlink:href="#ArialMT-5b" x="105.566406"/>
      <use xlink:href="#ArialMT-6d" x="133.349609"/>
      <use xlink:href="#ArialMT-54" x="216.650391"/>
      <use xlink:href="#ArialMT-2f" x="277.734375"/>
      <use xlink:href="#ArialMT-6d" x="305.517578"/>
      <use xlink:href="#ArialMT-5d" x="388.818359"/>
     </g>
    </g>
   </g>
   <g id="line2d_10">
    <path d="M 135.683908 178.803 
L 153.401712 178.803 
L 153.541668 168.166451 
L 153.568327 168.166451 
L 153.691621 158.711739 
L 153.701618 158.711739 
L 153.824913 149.257032 
L 153.83491 149.257032 
L 153.958205 139.80232 
L 153.968202 139.80232 
L 154.091497 130.347607 
L 154.101494 130.347607 
L 154.224788 120.892895 
L 154.234785 120.892895 
L 154.35808 111.438182 
L 154.368077 111.438182 
L 154.491372 101.983475 
L 154.501369 101.983475 
L 154.624664 92.528763 
L 154.63466 92.528763 
L 154.757955 83.07405 
L 154.767952 83.07405 
L 154.891247 73.619338 
L 154.901244 73.619338 
L 155.024539 64.164637 
L 155.034536 64.164637 
L 155.157831 54.709919 
L 155.167827 54.709919 
L 155.291122 45.255206 
L 155.301119 45.255206 
L 155.424414 35.800494 
L 155.434411 35.800494 
L 155.557706 26.345781 
L 155.567703 26.345781 
L 155.681001 22.800273 
L 213.916159 22.800273 
L 214.056116 33.436821 
L 214.082774 33.436821 
L 214.206069 42.891534 
L 214.216066 42.891534 
L 214.339361 52.346246 
L 214.349358 52.346246 
L 214.472652 61.800947 
L 214.482649 61.800947 
L 214.605944 71.255666 
L 214.615941 71.255666 
L 214.739236 80.710378 
L 214.749233 80.710378 
L 214.872528 90.165091 
L 214.882524 90.165091 
L 215.005819 99.619803 
L 215.015816 99.619803 
L 215.139111 109.07451 
L 215.149108 109.07451 
L 215.272403 118.529222 
L 215.2824 118.529222 
L 215.405695 127.983935 
L 215.415691 127.983935 
L 215.538986 137.438647 
L 215.548983 137.438647 
L 215.672278 146.893348 
L 215.682275 146.893348 
L 215.80557 156.348067 
L 215.815567 156.348067 
L 215.938861 165.802779 
L 215.948858 165.802779 
L 216.072153 175.257492 
L 216.08215 175.257492 
L 216.205445 184.712192 
L 216.215442 184.712192 
L 216.338737 194.166905 
L 216.348734 194.166905 
L 216.472028 203.621606 
L 216.482025 203.621606 
L 216.60532 213.076324 
L 216.615317 213.076324 
L 216.738612 222.531037 
L 216.748609 222.531037 
L 216.871904 231.985749 
L 216.8819 231.985749 
L 217.005195 241.440462 
L 217.015192 241.440462 
L 217.138487 250.895168 
L 217.148484 250.895168 
L 217.271779 260.349881 
L 217.281776 260.349881 
L 217.405071 269.804593 
L 217.415067 269.804593 
L 217.538362 279.259306 
L 217.548359 279.259306 
L 217.671654 288.714007 
L 217.681651 288.714007 
L 217.804946 298.168725 
L 217.814943 298.168725 
L 217.938237 307.623438 
L 217.948234 307.623438 
L 218.071529 317.07815 
L 218.081526 317.07815 
L 218.204821 326.532863 
L 218.214818 326.532863 
L 218.33478 334.805727 
L 348.040967 334.805727 
L 348.180924 324.169179 
L 348.207582 324.169179 
L 348.330877 314.714466 
L 348.340874 314.714466 
L 348.464169 305.259754 
L 348.474165 305.259754 
L 348.59746 295.805053 
L 348.607457 295.805053 
L 348.730752 286.350334 
L 348.740749 286.350334 
L 348.864044 276.895622 
L 348.874041 276.895622 
L 348.997335 267.440909 
L 349.007332 267.440909 
L 349.130627 257.986197 
L 349.140624 257.986197 
L 349.263919 248.53149 
L 349.273916 248.53149 
L 349.397211 239.076778 
L 349.407208 239.076778 
L 349.530502 229.622065 
L 349.540499 229.622065 
L 349.663794 220.167353 
L 349.673791 220.167353 
L 349.797086 210.712652 
L 349.807083 210.712652 
L 349.930378 201.257933 
L 349.940374 201.257933 
L 350.063669 191.803221 
L 350.073666 191.803221 
L 350.196961 182.348508 
L 350.206958 182.348508 
L 350.320256 178.803 
L 382.463558 178.803 
L 382.603514 189.439549 
L 382.630172 189.439549 
L 382.753467 198.894261 
L 382.763464 198.894261 
L 382.886759 208.348968 
L 382.896756 208.348968 
L 383.020051 217.80368 
L 383.030048 217.80368 
L 383.153342 227.258393 
L 383.163339 227.258393 
L 383.286634 236.713105 
L 383.296631 236.713105 
L 383.419926 246.167818 
L 383.429923 246.167818 
L 383.553218 255.622525 
L 383.563215 255.622525 
L 383.686509 265.077237 
L 383.696506 265.077237 
L 383.819801 274.53195 
L 383.829798 274.53195 
L 383.953093 283.986662 
L 383.96309 283.986662 
L 384.086385 293.441363 
L 384.096381 293.441363 
L 384.219676 302.896081 
L 384.229673 302.896081 
L 384.352968 312.350794 
L 384.362965 312.350794 
L 384.48626 321.805506 
L 384.496257 321.805506 
L 384.619551 331.260219 
L 384.629548 331.260219 
L 384.742846 334.805727 
L 514.389052 334.805727 
L 514.529008 324.169179 
L 514.555667 324.169179 
L 514.678961 314.714466 
L 514.688958 314.714466 
L 514.812253 305.259754 
L 514.82225 305.259754 
L 514.945545 295.805053 
L 514.955542 295.805053 
L 515.078837 286.350334 
L 515.088834 286.350334 
L 515.212128 276.895622 
L 515.222125 276.895622 
L 515.34542 267.440909 
L 515.355417 267.440909 
L 515.478712 257.986197 
L 515.488709 257.986197 
L 515.612004 248.53149 
L 515.622 248.53149 
L 515.745295 239.076778 
L 515.755292 239.076778 
L 515.878587 229.622065 
L 515.888584 229.622065 
L 516.011879 220.167353 
L 516.021876 220.167353 
L 516.145171 210.712652 
L 516.155167 210.712652 
L 516.278462 201.257933 
L 516.288459 201.257933 
L 516.411754 191.803221 
L 516.421751 191.803221 
L 516.545046 182.348508 
L 516.555043 182.348508 
L 516.678337 172.893808 
L 516.688334 172.893808 
L 516.811629 163.439095 
L 516.821626 163.439095 
L 516.944921 153.984394 
L 516.954918 153.984394 
L 517.078213 144.529676 
L 517.08821 144.529676 
L 517.211504 135.074963 
L 517.221501 135.074963 
L 517.344796 125.620251 
L 517.354793 125.620251 
L 517.478088 116.165538 
L 517.488085 116.165538 
L 517.61138 106.710832 
L 517.621376 106.710832 
L 517.744671 97.256119 
L 517.754668 97.256119 
L 517.877963 87.801407 
L 517.88796 87.801407 
L 518.011255 78.346694 
L 518.021252 78.346694 
L 518.144547 68.891993 
L 518.154543 68.891993 
L 518.277838 59.437275 
L 518.287835 59.437275 
L 518.41113 49.982562 
L 518.421127 49.982562 
L 518.544422 40.52785 
L 518.554419 40.52785 
L 518.677713 31.073137 
L 518.68771 31.073137 
L 518.807673 22.800273 
L 577.102813 22.800273 
L 577.242769 33.436821 
L 577.269428 33.436821 
L 577.392723 42.891534 
L 577.402719 42.891534 
L 577.526014 52.346246 
L 577.536011 52.346246 
L 577.659306 61.800947 
L 577.669303 61.800947 
L 577.792598 71.255666 
L 577.802595 71.255666 
L 577.925889 80.710378 
L 577.935886 80.710378 
L 578.059181 90.165091 
L 578.069178 90.165091 
L 578.192473 99.619803 
L 578.20247 99.619803 
L 578.325765 109.07451 
L 578.335762 109.07451 
L 578.459056 118.529222 
L 578.469053 118.529222 
L 578.592348 127.983935 
L 578.602345 127.983935 
L 578.72564 137.438647 
L 578.735637 137.438647 
L 578.858932 146.893348 
L 578.868929 146.893348 
L 578.992223 156.348067 
L 579.00222 156.348067 
L 579.125515 165.802779 
L 579.135512 165.802779 
L 579.258807 175.257492 
L 579.268804 175.257492 
L 579.382102 178.803 
L 615.53082 178.803 
L 615.53082 178.803 
" clip-path="url(#pa323d75910)" style="fill: none; stroke: #808080; stroke-width: 5; stroke-linecap: round"/>
   </g>
   <g id="line2d_11">
    <path d="M 111.691563 178.803 
L 639.523166 178.803 
" clip-path="url(#pa323d75910)" style="fill: none; stroke: #1a1a1a; stroke-width: 3; stroke-linecap: round"/>
   </g>
   <g id="patch_3">
    <path d="M 111.691563 350.406 
L 111.691563 7.2 
" style="fill: none; stroke: #ffffff; stroke-width: 2.5; stroke-linejoin: miter; stroke-linecap: square"/>
   </g>
   <g id="patch_4">
    <path d="M 639.523166 350.406 
L 639.523166 7.2 
" style="fill: none; stroke: #ffffff; stroke-width: 2.5; stroke-linejoin: miter; stroke-linecap: square"/>
   </g>
   <g id="patch_5">
    <path d="M 111.691563 350.406 
L 639.523166 350.406 
" style="fill: none; stroke: #ffffff; stroke-width: 2.5; stroke-linejoin: miter; stroke-linecap: square"/>
   </g>
   <g id="patch_6">
    <path d="M 111.691563 7.2 
L 639.523166 7.2 
" style="fill: none; stroke: #ffffff; stroke-width: 2.5; stroke-linejoin: miter; stroke-linecap: square"/>
   </g>
   <g id="text_7">
    <g id="patch_7">
     <path d="M 417.438218 345.7457 
L 623.688218 345.7457 
Q 636.188218 345.7457 636.188218 333.2457 
L 636.188218 309.9957 
Q 636.188218 297.4957 623.688218 297.4957 
L 417.438218 297.4957 
Q 404.938218 297.4957 404.938218 309.9957 
L 404.938218 333.2457 
Q 404.938218 345.7457 417.438218 345.7457 
z
" style="fill: #eaeaf2; opacity: 0.9; stroke: #d3d3d3; stroke-width: 2; stroke-linejoin: miter"/>
    </g>
    <!-- $G_{max}$ = 26.6 mT/m -->
    <g style="fill: #262626" transform="translate(417.438218 328.27695) scale(0.25 -0.25)">
     <defs>
      <path id="DejaVuSans-Oblique-47" d="M 3494 697 
L 3738 1919 
L 2700 1919 
L 2797 2438 
L 4453 2438 
L 4050 384 
Q 3634 156 3143 32 
Q 2653 -91 2156 -91 
Q 1278 -91 783 396 
Q 288 884 288 1753 
Q 288 2475 589 3126 
Q 891 3778 1422 4213 
Q 1756 4484 2153 4617 
Q 2550 4750 3034 4750 
Q 3472 4750 3873 4639 
Q 4275 4528 4641 4306 
L 4513 3634 
Q 4231 3928 3853 4083 
Q 3475 4238 3047 4238 
Q 2550 4238 2172 4048 
Q 1794 3859 1497 3463 
Q 1244 3125 1098 2667 
Q 953 2209 953 1734 
Q 953 1081 1287 751 
Q 1622 422 2284 422 
Q 2616 422 2925 492 
Q 3234 563 3494 697 
z
" transform="scale(0.015625)"/>
      <path id="DejaVuSans-Oblique-6d" d="M 5747 2113 
L 5338 0 
L 4763 0 
L 5166 2094 
Q 5191 2228 5203 2325 
Q 5216 2422 5216 2491 
Q 5216 2772 5059 2928 
Q 4903 3084 4622 3084 
Q 4203 3084 3875 2770 
Q 3547 2456 3450 1953 
L 3066 0 
L 2491 0 
L 2900 2094 
Q 2925 2209 2937 2307 
Q 2950 2406 2950 2484 
Q 2950 2769 2794 2926 
Q 2638 3084 2363 3084 
Q 1938 3084 1609 2770 
Q 1281 2456 1184 1953 
L 800 0 
L 225 0 
L 909 3500 
L 1484 3500 
L 1375 2956 
Q 1609 3263 1923 3423 
Q 2238 3584 2597 3584 
Q 2978 3584 3223 3384 
Q 3469 3184 3519 2828 
Q 3781 3197 4126 3390 
Q 4472 3584 4856 3584 
Q 5306 3584 5551 3325 
Q 5797 3066 5797 2591 
Q 5797 2488 5784 2364 
Q 5772 2241 5747 2113 
z
" transform="scale(0.015625)"/>
      <path id="DejaVuSans-Oblique-61" d="M 3438 1997 
L 3047 0 
L 2472 0 
L 2578 531 
Q 2325 219 2001 64 
Q 1678 -91 1281 -91 
Q 834 -91 548 182 
Q 263 456 263 884 
Q 263 1497 752 1853 
Q 1241 2209 2100 2209 
L 2900 2209 
L 2931 2363 
Q 2938 2388 2941 2417 
Q 2944 2447 2944 2509 
Q 2944 2788 2717 2942 
Q 2491 3097 2081 3097 
Q 1800 3097 1504 3025 
Q 1209 2953 897 2809 
L 997 3341 
Q 1322 3463 1633 3523 
Q 1944 3584 2234 3584 
Q 2853 3584 3176 3315 
Q 3500 3047 3500 2534 
Q 3500 2431 3484 2292 
Q 3469 2153 3438 1997 
z
M 2816 1759 
L 2241 1759 
Q 1534 1759 1195 1570 
Q 856 1381 856 984 
Q 856 709 1029 553 
Q 1203 397 1509 397 
Q 1978 397 2328 733 
Q 2678 1069 2791 1631 
L 2816 1759 
z
" transform="scale(0.015625)"/>
      <path id="DejaVuSans-Oblique-78" d="M 3841 3500 
L 2234 1784 
L 3219 0 
L 2559 0 
L 1819 1388 
L 531 0 
L -166 0 
L 1556 1844 
L 641 3500 
L 1300 3500 
L 1972 2234 
L 3144 3500 
L 3841 3500 
z
" transform="scale(0.015625)"/>
      <path id="ArialMT-3d" d="M 3381 2694 
L 356 2694 
L 356 3219 
L 3381 3219 
L 3381 2694 
z
M 3381 1303 
L 356 1303 
L 356 1828 
L 3381 1828 
L 3381 1303 
z
" transform="scale(0.015625)"/>
      <path id="ArialMT-36" d="M 3184 3459 
L 2625 3416 
Q 2550 3747 2413 3897 
Q 2184 4138 1850 4138 
Q 1581 4138 1378 3988 
Q 1113 3794 959 3422 
Q 806 3050 800 2363 
Q 1003 2672 1297 2822 
Q 1591 2972 1913 2972 
Q 2475 2972 2870 2558 
Q 3266 2144 3266 1488 
Q 3266 1056 3080 686 
Q 2894 316 2569 119 
Q 2244 -78 1831 -78 
Q 1128 -78 684 439 
Q 241 956 241 2144 
Q 241 3472 731 4075 
Q 1159 4600 1884 4600 
Q 2425 4600 2770 4297 
Q 3116 3994 3184 3459 
z
M 888 1484 
Q 888 1194 1011 928 
Q 1134 663 1356 523 
Q 1578 384 1822 384 
Q 2178 384 2434 671 
Q 2691 959 2691 1453 
Q 2691 1928 2437 2201 
Q 2184 2475 1800 2475 
Q 1419 2475 1153 2201 
Q 888 1928 888 1484 
z
" transform="scale(0.015625)"/>
      <path id="ArialMT-2e" d="M 581 0 
L 581 641 
L 1222 641 
L 1222 0 
L 581 0 
z
" transform="scale(0.015625)"/>
     </defs>
     <use xlink:href="#DejaVuSans-Oblique-47" transform="translate(0 0.78125)"/>
     <use xlink:href="#DejaVuSans-Oblique-6d" transform="translate(77.490234 -15.625) scale(0.7)"/>
     <use xlink:href="#DejaVuSans-Oblique-61" transform="translate(145.678711 -15.625) scale(0.7)"/>
     <use xlink:href="#DejaVuSans-Oblique-78" transform="translate(188.574219 -15.625) scale(0.7)"/>
     <use xlink:href="#ArialMT-20" transform="translate(232.734375 0.78125)"/>
     <use xlink:href="#ArialMT-3d" transform="translate(260.517578 0.78125)"/>
     <use xlink:href="#ArialMT-20" transform="translate(318.916016 0.78125)"/>
     <use xlink:href="#ArialMT-32" transform="translate(346.699219 0.78125)"/>
     <use xlink:href="#ArialMT-36" transform="translate(402.314453 0.78125)"/>
     <use xlink:href="#ArialMT-2e" transform="translate(457.929688 0.78125)"/>
     <use xlink:href="#ArialMT-36" transform="translate(485.712891 0.78125)"/>
     <use xlink:href="#ArialMT-20" transform="translate(541.328125 0.78125)"/>
     <use xlink:href="#ArialMT-6d" transform="translate(569.111328 0.78125)"/>
     <use xlink:href="#ArialMT-54" transform="translate(652.412109 0.78125)"/>
     <use xlink:href="#ArialMT-2f" transform="translate(713.496094 0.78125)"/>
     <use xlink:href="#ArialMT-6d" transform="translate(741.279297 0.78125)"/>
    </g>
   </g>
  </g>
  <g id="axes_2">
   <g id="patch_8">
    <path d="M 111.691563 727.308 
L 639.523166 727.308 
L 639.523166 384.102 
L 111.691563 384.102 
z
" style="fill: #eaeaf2"/>
   </g>
   <g id="matplotlib.axis_3">
    <g id="xtick_5">
     <g id="line2d_12">
      <path d="M 135.683908 727.308 
L 135.683908 384.102 
" clip-path="url(#pa74b1fa838)" style="fill: none; stroke: #ffffff; stroke-width: 2; stroke-linecap: round"/>
     </g>
     <g id="text_8">
      <!-- 0 -->
      <g style="fill: #262626" transform="translate(127.731767 763.279344) scale(0.286 -0.286)">
       <use xlink:href="#ArialMT-30"/>
      </g>
     </g>
    </g>
    <g id="xtick_6">
     <g id="line2d_13">
      <path d="M 302.298576 727.308 
L 302.298576 384.102 
" clip-path="url(#pa74b1fa838)" style="fill: none; stroke: #ffffff; stroke-width: 2; stroke-linecap: round"/>
     </g>
     <g id="text_9">
      <!-- 50 -->
      <g style="fill: #262626" transform="translate(286.394295 763.279344) scale(0.286 -0.286)">
       <defs>
        <path id="ArialMT-35" d="M 266 1200 
L 856 1250 
Q 922 819 1161 601 
Q 1400 384 1738 384 
Q 2144 384 2425 690 
Q 2706 997 2706 1503 
Q 2706 1984 2436 2262 
Q 2166 2541 1728 2541 
Q 1456 2541 1237 2417 
Q 1019 2294 894 2097 
L 366 2166 
L 809 4519 
L 3088 4519 
L 3088 3981 
L 1259 3981 
L 1013 2750 
Q 1425 3038 1878 3038 
Q 2478 3038 2890 2622 
Q 3303 2206 3303 1553 
Q 3303 931 2941 478 
Q 2500 -78 1738 -78 
Q 1113 -78 717 272 
Q 322 622 266 1200 
z
" transform="scale(0.015625)"/>
       </defs>
       <use xlink:href="#ArialMT-35"/>
       <use xlink:href="#ArialMT-30" x="55.615234"/>
      </g>
     </g>
    </g>
    <g id="xtick_7">
     <g id="line2d_14">
      <path d="M 468.913244 727.308 
L 468.913244 384.102 
" clip-path="url(#pa74b1fa838)" style="fill: none; stroke: #ffffff; stroke-width: 2; stroke-linecap: round"/>
     </g>
     <g id="text_10">
      <!-- 100 -->
      <g style="fill: #262626" transform="translate(445.056823 763.279344) scale(0.286 -0.286)">
       <use xlink:href="#ArialMT-31"/>
       <use xlink:href="#ArialMT-30" x="55.615234"/>
       <use xlink:href="#ArialMT-30" x="111.230469"/>
      </g>
     </g>
    </g>
    <g id="xtick_8">
     <g id="line2d_15">
      <path d="M 635.527913 727.308 
L 635.527913 384.102 
" clip-path="url(#pa74b1fa838)" style="fill: none; stroke: #ffffff; stroke-width: 2; stroke-linecap: round"/>
     </g>
     <g id="text_11">
      <!-- 150 -->
      <g style="fill: #262626" transform="translate(611.671491 763.279344) scale(0.286 -0.286)">
       <use xlink:href="#ArialMT-31"/>
       <use xlink:href="#ArialMT-35" x="55.615234"/>
       <use xlink:href="#ArialMT-30" x="111.230469"/>
      </g>
     </g>
    </g>
    <g id="text_12">
     <!-- Time [ms] -->
     <g style="fill: #262626" transform="translate(307.732739 795.295969) scale(0.312 -0.312)">
      <defs>
       <path id="ArialMT-69" d="M 425 3934 
L 425 4581 
L 988 4581 
L 988 3934 
L 425 3934 
z
M 425 0 
L 425 3319 
L 988 3319 
L 988 0 
L 425 0 
z
" transform="scale(0.015625)"/>
       <path id="ArialMT-65" d="M 2694 1069 
L 3275 997 
Q 3138 488 2766 206 
Q 2394 -75 1816 -75 
Q 1088 -75 661 373 
Q 234 822 234 1631 
Q 234 2469 665 2931 
Q 1097 3394 1784 3394 
Q 2450 3394 2872 2941 
Q 3294 2488 3294 1666 
Q 3294 1616 3291 1516 
L 816 1516 
Q 847 969 1125 678 
Q 1403 388 1819 388 
Q 2128 388 2347 550 
Q 2566 713 2694 1069 
z
M 847 1978 
L 2700 1978 
Q 2663 2397 2488 2606 
Q 2219 2931 1791 2931 
Q 1403 2931 1139 2672 
Q 875 2413 847 1978 
z
" transform="scale(0.015625)"/>
       <path id="ArialMT-73" d="M 197 991 
L 753 1078 
Q 800 744 1014 566 
Q 1228 388 1613 388 
Q 2000 388 2187 545 
Q 2375 703 2375 916 
Q 2375 1106 2209 1216 
Q 2094 1291 1634 1406 
Q 1016 1563 777 1677 
Q 538 1791 414 1992 
Q 291 2194 291 2438 
Q 291 2659 392 2848 
Q 494 3038 669 3163 
Q 800 3259 1026 3326 
Q 1253 3394 1513 3394 
Q 1903 3394 2198 3281 
Q 2494 3169 2634 2976 
Q 2775 2784 2828 2463 
L 2278 2388 
Q 2241 2644 2061 2787 
Q 1881 2931 1553 2931 
Q 1166 2931 1000 2803 
Q 834 2675 834 2503 
Q 834 2394 903 2306 
Q 972 2216 1119 2156 
Q 1203 2125 1616 2013 
Q 2213 1853 2448 1751 
Q 2684 1650 2818 1456 
Q 2953 1263 2953 975 
Q 2953 694 2789 445 
Q 2625 197 2315 61 
Q 2006 -75 1616 -75 
Q 969 -75 630 194 
Q 291 463 197 991 
z
" transform="scale(0.015625)"/>
      </defs>
      <use xlink:href="#ArialMT-54"/>
      <use xlink:href="#ArialMT-69" x="57.333984"/>
      <use xlink:href="#ArialMT-6d" x="79.550781"/>
      <use xlink:href="#ArialMT-65" x="162.851562"/>
      <use xlink:href="#ArialMT-20" x="218.466797"/>
      <use xlink:href="#ArialMT-5b" x="246.25"/>
      <use xlink:href="#ArialMT-6d" x="274.033203"/>
      <use xlink:href="#ArialMT-73" x="357.333984"/>
      <use xlink:href="#ArialMT-5d" x="407.333984"/>
     </g>
    </g>
   </g>
   <g id="matplotlib.axis_4">
    <g id="ytick_6">
     <g id="line2d_16">
      <path d="M 111.691563 711.707727 
L 639.523166 711.707727 
" clip-path="url(#pa74b1fa838)" style="fill: none; stroke: #ffffff; stroke-width: 2; stroke-linecap: round"/>
     </g>
     <g id="text_13">
      <!-- −1.0 -->
      <g style="fill: #262626" transform="translate(39.733375 721.943399) scale(0.286 -0.286)">
       <use xlink:href="#ArialMT-2212"/>
       <use xlink:href="#ArialMT-31" x="58.398438"/>
       <use xlink:href="#ArialMT-2e" x="114.013672"/>
       <use xlink:href="#ArialMT-30" x="141.796875"/>
      </g>
     </g>
    </g>
    <g id="ytick_7">
     <g id="line2d_17">
      <path d="M 111.691563 633.706364 
L 639.523166 633.706364 
" clip-path="url(#pa74b1fa838)" style="fill: none; stroke: #ffffff; stroke-width: 2; stroke-linecap: round"/>
     </g>
     <g id="text_14">
      <!-- −0.5 -->
      <g style="fill: #262626" transform="translate(39.733375 643.942036) scale(0.286 -0.286)">
       <use xlink:href="#ArialMT-2212"/>
       <use xlink:href="#ArialMT-30" x="58.398438"/>
       <use xlink:href="#ArialMT-2e" x="114.013672"/>
       <use xlink:href="#ArialMT-35" x="141.796875"/>
      </g>
     </g>
    </g>
    <g id="ytick_8">
     <g id="line2d_18">
      <path d="M 111.691563 555.705 
L 639.523166 555.705 
" clip-path="url(#pa74b1fa838)" style="fill: none; stroke: #ffffff; stroke-width: 2; stroke-linecap: round"/>
     </g>
     <g id="text_15">
      <!-- 0.0 -->
      <g style="fill: #262626" transform="translate(56.437563 565.940672) scale(0.286 -0.286)">
       <use xlink:href="#ArialMT-30"/>
       <use xlink:href="#ArialMT-2e" x="55.615234"/>
       <use xlink:href="#ArialMT-30" x="83.398438"/>
      </g>
     </g>
    </g>
    <g id="ytick_9">
     <g id="line2d_19">
      <path d="M 111.691563 477.703636 
L 639.523166 477.703636 
" clip-path="url(#pa74b1fa838)" style="fill: none; stroke: #ffffff; stroke-width: 2; stroke-linecap: round"/>
     </g>
     <g id="text_16">
      <!-- 0.5 -->
      <g style="fill: #262626" transform="translate(56.437563 487.939308) scale(0.286 -0.286)">
       <use xlink:href="#ArialMT-30"/>
       <use xlink:href="#ArialMT-2e" x="55.615234"/>
       <use xlink:href="#ArialMT-35" x="83.398438"/>
      </g>
     </g>
    </g>
    <g id="ytick_10">
     <g id="line2d_20">
      <path d="M 111.691563 399.702273 
L 639.523166 399.702273 
" clip-path="url(#pa74b1fa838)" style="fill: none; stroke: #ffffff; stroke-width: 2; stroke-linecap: round"/>
     </g>
     <g id="text_17">
      <!-- 1.0 -->
      <g style="fill: #262626" transform="translate(56.437563 409.937945) scale(0.286 -0.286)">
       <use xlink:href="#ArialMT-31"/>
       <use xlink:href="#ArialMT-2e" x="55.615234"/>
       <use xlink:href="#ArialMT-30" x="83.398438"/>
      </g>
     </g>
    </g>
    <g id="text_18">
     <!-- Moments -->
     <g style="fill: #262626" transform="translate(29.532375 619.852687) rotate(-90) scale(0.312 -0.312)">
      <defs>
       <path id="ArialMT-4d" d="M 475 0 
L 475 4581 
L 1388 4581 
L 2472 1338 
Q 2622 884 2691 659 
Q 2769 909 2934 1394 
L 4031 4581 
L 4847 4581 
L 4847 0 
L 4263 0 
L 4263 3834 
L 2931 0 
L 2384 0 
L 1059 3900 
L 1059 0 
L 475 0 
z
" transform="scale(0.015625)"/>
       <path id="ArialMT-6f" d="M 213 1659 
Q 213 2581 725 3025 
Q 1153 3394 1769 3394 
Q 2453 3394 2887 2945 
Q 3322 2497 3322 1706 
Q 3322 1066 3130 698 
Q 2938 331 2570 128 
Q 2203 -75 1769 -75 
Q 1072 -75 642 372 
Q 213 819 213 1659 
z
M 791 1659 
Q 791 1022 1069 705 
Q 1347 388 1769 388 
Q 2188 388 2466 706 
Q 2744 1025 2744 1678 
Q 2744 2294 2464 2611 
Q 2184 2928 1769 2928 
Q 1347 2928 1069 2612 
Q 791 2297 791 1659 
z
" transform="scale(0.015625)"/>
       <path id="ArialMT-6e" d="M 422 0 
L 422 3319 
L 928 3319 
L 928 2847 
Q 1294 3394 1984 3394 
Q 2284 3394 2536 3286 
Q 2788 3178 2913 3003 
Q 3038 2828 3088 2588 
Q 3119 2431 3119 2041 
L 3119 0 
L 2556 0 
L 2556 2019 
Q 2556 2363 2490 2533 
Q 2425 2703 2258 2804 
Q 2091 2906 1866 2906 
Q 1506 2906 1245 2678 
Q 984 2450 984 1813 
L 984 0 
L 422 0 
z
" transform="scale(0.015625)"/>
       <path id="ArialMT-74" d="M 1650 503 
L 1731 6 
Q 1494 -44 1306 -44 
Q 1000 -44 831 53 
Q 663 150 594 308 
Q 525 466 525 972 
L 525 2881 
L 113 2881 
L 113 3319 
L 525 3319 
L 525 4141 
L 1084 4478 
L 1084 3319 
L 1650 3319 
L 1650 2881 
L 1084 2881 
L 1084 941 
Q 1084 700 1114 631 
Q 1144 563 1211 522 
Q 1278 481 1403 481 
Q 1497 481 1650 503 
z
" transform="scale(0.015625)"/>
      </defs>
      <use xlink:href="#ArialMT-4d"/>
      <use xlink:href="#ArialMT-6f" x="83.300781"/>
      <use xlink:href="#ArialMT-6d" x="138.916016"/>
      <use xlink:href="#ArialMT-65" x="222.216797"/>
      <use xlink:href="#ArialMT-6e" x="277.832031"/>
      <use xlink:href="#ArialMT-74" x="333.447266"/>
      <use xlink:href="#ArialMT-73" x="361.230469"/>
     </g>
    </g>
   </g>
   <g id="line2d_21">
    <path d="M 135.683908 555.705 
L 153.871565 555.595309 
L 154.381406 555.228183 
L 154.941231 554.527794 
L 155.591029 553.324392 
L 171.629357 518.28764 
L 214.649264 424.574383 
L 215.289064 423.845977 
L 215.83556 423.545747 
L 216.312078 423.525949 
L 216.775267 423.722996 
L 217.278443 424.17847 
L 217.844933 424.992245 
L 218.528053 426.374881 
L 348.774072 710.640047 
L 349.413872 711.368452 
L 349.960368 711.668682 
L 350.506864 711.707727 
L 382.933411 711.598036 
L 383.443252 711.230911 
L 384.003077 710.530521 
L 384.652874 709.327119 
L 400.691202 674.290368 
L 515.122156 424.574383 
L 515.761957 423.845977 
L 516.308453 423.545747 
L 516.784971 423.525949 
L 517.24816 423.722996 
L 517.751336 424.178469 
L 518.317826 424.992245 
L 519.000946 426.374881 
L 577.835918 554.637319 
L 578.475718 555.365725 
L 579.022214 555.665955 
L 579.56871 555.704945 
L 615.53082 555.704945 
L 615.53082 555.704945 
" clip-path="url(#pa74b1fa838)" style="fill: none; stroke: #4c72b0; stroke-width: 5; stroke-linecap: round"/>
   </g>
   <g id="line2d_22">
    <path d="M 135.683908 555.705 
L 155.424414 555.593945 
L 159.999653 554.963744 
L 165.991116 553.939109 
L 172.002573 552.685163 
L 178.034024 551.199647 
L 184.092134 549.478277 
L 190.183566 547.515744 
L 196.308321 545.308237 
L 202.469732 542.850528 
L 208.67113 540.136852 
L 215.449014 537.160582 
L 216.458699 537.123562 
L 217.441726 537.313632 
L 218.424752 537.730842 
L 224.746113 541.130885 
L 231.12079 544.81298 
L 237.552116 548.785634 
L 244.040091 553.055693 
L 250.588048 557.632456 
L 257.199318 562.525838 
L 263.877234 567.746374 
L 270.621796 573.302425 
L 277.439668 579.20835 
L 284.327518 585.470436 
L 291.292011 592.10423 
L 298.329815 599.116364 
L 305.447593 606.523615 
L 312.645347 614.336674 
L 319.923076 622.566355 
L 327.284112 631.227588 
L 334.728455 640.331892 
L 342.259438 649.895226 
L 349.07731 658.533529 
L 349.757098 658.873861 
L 350.390234 658.945143 
L 383.023383 658.83482 
L 383.593205 658.495464 
L 384.209679 657.868949 
L 384.986104 656.731661 
L 393.096906 643.865018 
L 401.301012 630.431327 
L 409.601755 616.410492 
L 417.995802 601.793337 
L 426.486485 586.559082 
L 435.073805 570.692316 
L 443.757762 554.17745 
L 452.538355 536.998722 
L 461.418917 519.133396 
L 470.396115 500.571781 
L 479.473282 481.290406 
L 488.650418 461.272229 
L 497.927523 440.500015 
L 507.307929 418.94859 
L 515.332091 400.556243 
L 515.925239 399.940479 
L 516.438412 399.714612 
L 516.891604 399.752211 
L 517.368122 400.03254 
L 517.88796 400.620114 
L 518.49777 401.685798 
L 519.467467 403.967094 
L 529.077801 427.349823 
L 538.791436 451.571534 
L 548.608372 476.651075 
L 558.52861 502.607495 
L 568.552148 529.460043 
L 578.082507 554.970655 
L 578.652329 555.641859 
L 579.128847 555.889339 
L 579.702002 555.908337 
L 615.53082 555.908337 
L 615.53082 555.908337 
" clip-path="url(#pa74b1fa838)" style="fill: none; stroke: #dd8452; stroke-width: 5; stroke-linecap: round"/>
   </g>
   <g id="line2d_23">
    <path d="M 135.683908 555.705 
L 166.28769 555.593907 
L 180.676533 555.27841 
L 192.899385 554.792055 
L 203.875959 554.135968 
L 214.016128 553.309584 
L 216.345401 553.215869 
L 218.521389 553.34797 
L 227.781832 554.423261 
L 236.59908 555.669324 
L 245.053109 557.087211 
L 253.203898 558.678479 
L 261.098101 560.445195 
L 268.76904 562.388865 
L 276.250039 564.513037 
L 283.564423 566.820466 
L 290.732186 569.314325 
L 297.76999 571.997942 
L 304.697827 574.87736 
L 311.525697 577.955877 
L 318.266926 581.23918 
L 324.931513 584.732467 
L 331.532786 588.443829 
L 338.074078 592.376739 
L 344.568718 596.541396 
L 349.170615 599.453791 
L 350.02035 599.626465 
L 351.753142 599.634172 
L 383.186665 599.523922 
L 383.916438 599.187488 
L 384.68953 598.581557 
L 391.017555 592.479746 
L 397.34558 586.067869 
L 403.673605 579.338243 
L 410.008295 572.275577 
L 416.349649 564.871122 
L 422.704332 557.107752 
L 429.072345 548.9755 
L 435.457019 540.459751 
L 441.861687 531.545007 
L 448.289681 522.214834 
L 454.741001 512.456955 
L 461.218979 502.25355 
L 467.723616 491.591313 
L 474.258243 480.450917 
L 480.826193 468.811903 
L 487.427466 456.658872 
L 494.062062 443.976128 
L 500.733314 430.740938 
L 507.44122 416.936252 
L 514.185782 402.544674 
L 515.125489 400.767163 
L 515.765289 400.040239 
L 516.308453 399.741554 
L 516.784971 399.721668 
L 517.244827 399.918418 
L 517.748004 400.377669 
L 518.314494 401.201569 
L 518.994281 402.600149 
L 525.805489 418.045571 
L 532.660016 434.143348 
L 539.554531 450.905638 
L 546.492366 468.360949 
L 553.473521 486.530547 
L 560.497995 505.436149 
L 567.569122 525.109355 
L 574.683568 545.564005 
L 577.88257 554.570834 
L 578.482382 555.477322 
L 578.978894 555.86128 
L 579.425422 555.932172 
L 615.53082 555.932172 
L 615.53082 555.932172 
" clip-path="url(#pa74b1fa838)" style="fill: none; stroke: #55a868; stroke-width: 5; stroke-linecap: round"/>
   </g>
   <g id="line2d_24">
    <path d="M 111.691563 555.705 
L 639.523166 555.705 
" clip-path="url(#pa74b1fa838)" style="fill: none; stroke: #1a1a1a; stroke-width: 3; stroke-linecap: round"/>
   </g>
   <g id="patch_9">
    <path d="M 111.691563 727.308 
L 111.691563 384.102 
" style="fill: none; stroke: #ffffff; stroke-width: 2.5; stroke-linejoin: miter; stroke-linecap: square"/>
   </g>
   <g id="patch_10">
    <path d="M 639.523166 727.308 
L 639.523166 384.102 
" style="fill: none; stroke: #ffffff; stroke-width: 2.5; stroke-linejoin: miter; stroke-linecap: square"/>
   </g>
   <g id="patch_11">
    <path d="M 111.691563 727.308 
L 639.523166 727.308 
" style="fill: none; stroke: #ffffff; stroke-width: 2.5; stroke-linejoin: miter; stroke-linecap: square"/>
   </g>
   <g id="patch_12">
    <path d="M 111.691563 384.102 
L 639.523166 384.102 
" style="fill: none; stroke: #ffffff; stroke-width: 2.5; stroke-linejoin: miter; stroke-linecap: square"/>
   </g>
   <g id="legend_1">
    <g id="patch_13">
     <path d="M 444.523166 714.808 
L 622.023166 714.808 
Q 627.023166 714.808 627.023166 709.808 
L 627.023166 606.218156 
Q 627.023166 601.218156 622.023166 601.218156 
L 444.523166 601.218156 
Q 439.523166 601.218156 439.523166 606.218156 
L 439.523166 709.808 
Q 439.523166 714.808 444.523166 714.808 
z
" style="fill: #eaeaf2; opacity: 0.8; stroke: #cccccc; stroke-width: 2; stroke-linejoin: miter"/>
    </g>
    <g id="line2d_25">
     <path d="M 449.523166 620.362687 
L 474.523166 620.362687 
L 499.523166 620.362687 
" style="fill: none; stroke: #4c72b0; stroke-width: 5; stroke-linecap: round"/>
    </g>
    <g id="text_19">
     <!-- $M_0$ -->
     <g style="fill: #262626" transform="translate(519.523166 629.112687) scale(0.25 -0.25)">
      <defs>
       <path id="DejaVuSans-Oblique-4d" d="M 1081 4666 
L 2028 4666 
L 2572 1522 
L 4378 4666 
L 5350 4666 
L 4441 0 
L 3828 0 
L 4622 4091 
L 2791 897 
L 2175 897 
L 1581 4103 
L 788 0 
L 172 0 
L 1081 4666 
z
" transform="scale(0.015625)"/>
       <path id="DejaVuSans-30" d="M 2034 4250 
Q 1547 4250 1301 3770 
Q 1056 3291 1056 2328 
Q 1056 1369 1301 889 
Q 1547 409 2034 409 
Q 2525 409 2770 889 
Q 3016 1369 3016 2328 
Q 3016 3291 2770 3770 
Q 2525 4250 2034 4250 
z
M 2034 4750 
Q 2819 4750 3233 4129 
Q 3647 3509 3647 2328 
Q 3647 1150 3233 529 
Q 2819 -91 2034 -91 
Q 1250 -91 836 529 
Q 422 1150 422 2328 
Q 422 3509 836 4129 
Q 1250 4750 2034 4750 
z
" transform="scale(0.015625)"/>
      </defs>
      <use xlink:href="#DejaVuSans-Oblique-4d" transform="translate(0 0.09375)"/>
      <use xlink:href="#DejaVuSans-30" transform="translate(86.279297 -16.3125) scale(0.7)"/>
     </g>
    </g>
    <g id="line2d_26">
     <path d="M 449.523166 655.725969 
L 474.523166 655.725969 
L 499.523166 655.725969 
" style="fill: none; stroke: #dd8452; stroke-width: 5; stroke-linecap: round"/>
    </g>
    <g id="text_20">
     <!-- $M_1$ -->
     <g style="fill: #262626" transform="translate(519.523166 664.475969) scale(0.25 -0.25)">
      <defs>
       <path id="DejaVuSans-31" d="M 794 531 
L 1825 531 
L 1825 4091 
L 703 3866 
L 703 4441 
L 1819 4666 
L 2450 4666 
L 2450 531 
L 3481 531 
L 3481 0 
L 794 0 
L 794 531 
z
" transform="scale(0.015625)"/>
      </defs>
      <use xlink:href="#DejaVuSans-Oblique-4d" transform="translate(0 0.09375)"/>
      <use xlink:href="#DejaVuSans-31" transform="translate(86.279297 -16.3125) scale(0.7)"/>
     </g>
    </g>
    <g id="line2d_27">
     <path d="M 449.523166 691.08925 
L 474.523166 691.08925 
L 499.523166 691.08925 
" style="fill: none; stroke: #55a868; stroke-width: 5; stroke-linecap: round"/>
    </g>
    <g id="text_21">
     <!-- $M_1+M_2$ -->
     <g style="fill: #262626" transform="translate(519.523166 699.83925) scale(0.25 -0.25)">
      <defs>
       <path id="DejaVuSans-2b" d="M 2944 4013 
L 2944 2272 
L 4684 2272 
L 4684 1741 
L 2944 1741 
L 2944 0 
L 2419 0 
L 2419 1741 
L 678 1741 
L 678 2272 
L 2419 2272 
L 2419 4013 
L 2944 4013 
z
" transform="scale(0.015625)"/>
       <path id="DejaVuSans-32" d="M 1228 531 
L 3431 531 
L 3431 0 
L 469 0 
L 469 531 
Q 828 903 1448 1529 
Q 2069 2156 2228 2338 
Q 2531 2678 2651 2914 
Q 2772 3150 2772 3378 
Q 2772 3750 2511 3984 
Q 2250 4219 1831 4219 
Q 1534 4219 1204 4116 
Q 875 4013 500 3803 
L 500 4441 
Q 881 4594 1212 4672 
Q 1544 4750 1819 4750 
Q 2544 4750 2975 4387 
Q 3406 4025 3406 3419 
Q 3406 3131 3298 2873 
Q 3191 2616 2906 2266 
Q 2828 2175 2409 1742 
Q 1991 1309 1228 531 
z
" transform="scale(0.015625)"/>
      </defs>
      <use xlink:href="#DejaVuSans-Oblique-4d" transform="translate(0 0.09375)"/>
      <use xlink:href="#DejaVuSans-31" transform="translate(86.279297 -16.3125) scale(0.7)"/>
      <use xlink:href="#DejaVuSans-2b" transform="translate(153.032227 0.09375)"/>
      <use xlink:href="#DejaVuSans-Oblique-4d" transform="translate(256.303711 0.09375)"/>
      <use xlink:href="#DejaVuSans-32" transform="translate(342.583008 -16.3125) scale(0.7)"/>
     </g>
    </g>
   </g>
  </g>
 </g>
 <defs>
  <clipPath id="pa323d75910">
   <rect x="111.691563" y="7.2" width="527.831603" height="343.206"/>
  </clipPath>
  <clipPath id="pa74b1fa838">
   <rect x="111.691563" y="384.102" width="527.831603" height="343.206"/>
  </clipPath>
 </defs>
</svg>
