<?xml version="1.0" encoding="utf-8" standalone="no"?>
<!DOCTYPE svg PUBLIC "-//W3C//DTD SVG 1.1//EN"
  "http://www.w3.org/Graphics/SVG/1.1/DTD/svg11.dtd">
<svg xmlns:xlink="http://www.w3.org/1999/xlink" width="666.374562pt" height="807.239909pt" viewBox="0 0 666.374562 807.239909" xmlns="http://www.w3.org/2000/svg" version="1.1">
 <metadata>
  <rdf:RDF xmlns:dc="http://purl.org/dc/elements/1.1/" xmlns:cc="http://creativecommons.org/ns#" xmlns:rdf="http://www.w3.org/1999/02/22-rdf-syntax-ns#">
   <cc:Work>
    <dc:type rdf:resource="http://purl.org/dc/dcmitype/StillImage"/>
    <dc:date>2024-03-05T11:35:29.155401</dc:date>
    <dc:format>image/svg+xml</dc:format>
    <dc:creator>
     <cc:Agent>
      <dc:title>Matplotlib v3.7.1, https://matplotlib.org/</dc:title>
     </cc:Agent>
    </dc:creator>
   </cc:Work>
  </rdf:RDF>
 </metadata>
 <defs>
  <style type="text/css">*{stroke-linejoin: round; stroke-linecap: butt}</style>
 </defs>
 <g id="figure_1">
  <g id="patch_1">
   <path d="M 0 807.239909 
L 666.374562 807.239909 
L 666.374562 0 
L 0 0 
z
" style="fill: #ffffff"/>
  </g>
  <g id="axes_1">
   <g id="patch_2">
    <path d="M 111.691563 345.948941 
L 659.174563 345.948941 
L 659.174563 7.2 
L 111.691563 7.2 
z
" style="fill: #eaeaf2"/>
   </g>
   <g id="matplotlib.axis_1">
    <g id="xtick_1">
     <g id="line2d_1">
      <path d="M 136.577153 345.948941 
L 136.577153 7.2 
" clip-path="url(#p192a273326)" style="fill: none; stroke: #ffffff; stroke-width: 2; stroke-linecap: round"/>
     </g>
    </g>
    <g id="xtick_2">
     <g id="line2d_2">
      <path d="M 269.302075 345.948941 
L 269.302075 7.2 
" clip-path="url(#p192a273326)" style="fill: none; stroke: #ffffff; stroke-width: 2; stroke-linecap: round"/>
     </g>
    </g>
    <g id="xtick_3">
     <g id="line2d_3">
      <path d="M 402.026996 345.948941 
L 402.026996 7.2 
" clip-path="url(#p192a273326)" style="fill: none; stroke: #ffffff; stroke-width: 2; stroke-linecap: round"/>
     </g>
    </g>
    <g id="xtick_4">
     <g id="line2d_4">
      <path d="M 534.751917 345.948941 
L 534.751917 7.2 
" clip-path="url(#p192a273326)" style="fill: none; stroke: #ffffff; stroke-width: 2; stroke-linecap: round"/>
     </g>
    </g>
   </g>
   <g id="matplotlib.axis_2">
    <g id="ytick_1">
     <g id="line2d_5">
      <path d="M 111.691563 335.04654 
L 659.174563 335.04654 
" clip-path="url(#p192a273326)" style="fill: none; stroke: #ffffff; stroke-width: 2; stroke-linecap: round"/>
     </g>
     <g id="text_1">
      <!-- −40 -->
      <g style="fill: #262626" transform="translate(47.678813 345.282211) scale(0.286 -0.286)">
       <defs>
        <path id="ArialMT-2212" d="M 3381 1997 
L 356 1997 
L 356 2522 
L 3381 2522 
L 3381 1997 
z
" transform="scale(0.015625)"/>
        <path id="ArialMT-34" d="M 2069 0 
L 2069 1097 
L 81 1097 
L 81 1613 
L 2172 4581 
L 2631 4581 
L 2631 1613 
L 3250 1613 
L 3250 1097 
L 2631 1097 
L 2631 0 
L 2069 0 
z
M 2069 1613 
L 2069 3678 
L 634 1613 
L 2069 1613 
z
" transform="scale(0.015625)"/>
        <path id="ArialMT-30" d="M 266 2259 
Q 266 3072 433 3567 
Q 600 4063 929 4331 
Q 1259 4600 1759 4600 
Q 2128 4600 2406 4451 
Q 2684 4303 2865 4023 
Q 3047 3744 3150 3342 
Q 3253 2941 3253 2259 
Q 3253 1453 3087 958 
Q 2922 463 2592 192 
Q 2263 -78 1759 -78 
Q 1097 -78 719 397 
Q 266 969 266 2259 
z
M 844 2259 
Q 844 1131 1108 757 
Q 1372 384 1759 384 
Q 2147 384 2411 759 
Q 2675 1134 2675 2259 
Q 2675 3391 2411 3762 
Q 2147 4134 1753 4134 
Q 1366 4134 1134 3806 
Q 844 3388 844 2259 
z
" transform="scale(0.015625)"/>
       </defs>
       <use xlink:href="#ArialMT-2212"/>
       <use xlink:href="#ArialMT-34" x="58.398438"/>
       <use xlink:href="#ArialMT-30" x="114.013672"/>
      </g>
     </g>
    </g>
    <g id="ytick_2">
     <g id="line2d_6">
      <path d="M 111.691563 255.810505 
L 659.174563 255.810505 
" clip-path="url(#p192a273326)" style="fill: none; stroke: #ffffff; stroke-width: 2; stroke-linecap: round"/>
     </g>
     <g id="text_2">
      <!-- −20 -->
      <g style="fill: #262626" transform="translate(47.678813 266.046177) scale(0.286 -0.286)">
       <defs>
        <path id="ArialMT-32" d="M 3222 541 
L 3222 0 
L 194 0 
Q 188 203 259 391 
Q 375 700 629 1000 
Q 884 1300 1366 1694 
Q 2113 2306 2375 2664 
Q 2638 3022 2638 3341 
Q 2638 3675 2398 3904 
Q 2159 4134 1775 4134 
Q 1369 4134 1125 3890 
Q 881 3647 878 3216 
L 300 3275 
Q 359 3922 746 4261 
Q 1134 4600 1788 4600 
Q 2447 4600 2831 4234 
Q 3216 3869 3216 3328 
Q 3216 3053 3103 2787 
Q 2991 2522 2730 2228 
Q 2469 1934 1863 1422 
Q 1356 997 1212 845 
Q 1069 694 975 541 
L 3222 541 
z
" transform="scale(0.015625)"/>
       </defs>
       <use xlink:href="#ArialMT-2212"/>
       <use xlink:href="#ArialMT-32" x="58.398438"/>
       <use xlink:href="#ArialMT-30" x="114.013672"/>
      </g>
     </g>
    </g>
    <g id="ytick_3">
     <g id="line2d_7">
      <path d="M 111.691563 176.57447 
L 659.174563 176.57447 
" clip-path="url(#p192a273326)" style="fill: none; stroke: #ffffff; stroke-width: 2; stroke-linecap: round"/>
     </g>
     <g id="text_3">
      <!-- 0 -->
      <g style="fill: #262626" transform="translate(80.287281 186.810142) scale(0.286 -0.286)">
       <use xlink:href="#ArialMT-30"/>
      </g>
     </g>
    </g>
    <g id="ytick_4">
     <g id="line2d_8">
      <path d="M 111.691563 97.338436 
L 659.174563 97.338436 
" clip-path="url(#p192a273326)" style="fill: none; stroke: #ffffff; stroke-width: 2; stroke-linecap: round"/>
     </g>
     <g id="text_4">
      <!-- 20 -->
      <g style="fill: #262626" transform="translate(64.383 107.574107) scale(0.286 -0.286)">
       <use xlink:href="#ArialMT-32"/>
       <use xlink:href="#ArialMT-30" x="55.615234"/>
      </g>
     </g>
    </g>
    <g id="ytick_5">
     <g id="line2d_9">
      <path d="M 111.691563 18.102401 
L 659.174563 18.102401 
" clip-path="url(#p192a273326)" style="fill: none; stroke: #ffffff; stroke-width: 2; stroke-linecap: round"/>
     </g>
     <g id="text_5">
      <!-- 40 -->
      <g style="fill: #262626" transform="translate(64.383 28.338073) scale(0.286 -0.286)">
       <use xlink:href="#ArialMT-34"/>
       <use xlink:href="#ArialMT-30" x="55.615234"/>
      </g>
     </g>
    </g>
    <g id="text_6">
     <!-- G [mT/m] -->
     <g style="fill: #262626" transform="translate(37.477813 241.560658) rotate(-90) scale(0.312 -0.312)">
      <defs>
       <path id="ArialMT-47" d="M 2638 1797 
L 2638 2334 
L 4578 2338 
L 4578 638 
Q 4131 281 3656 101 
Q 3181 -78 2681 -78 
Q 2006 -78 1454 211 
Q 903 500 622 1047 
Q 341 1594 341 2269 
Q 341 2938 620 3517 
Q 900 4097 1425 4378 
Q 1950 4659 2634 4659 
Q 3131 4659 3532 4498 
Q 3934 4338 4162 4050 
Q 4391 3763 4509 3300 
L 3963 3150 
Q 3859 3500 3706 3700 
Q 3553 3900 3268 4020 
Q 2984 4141 2638 4141 
Q 2222 4141 1919 4014 
Q 1616 3888 1430 3681 
Q 1244 3475 1141 3228 
Q 966 2803 966 2306 
Q 966 1694 1177 1281 
Q 1388 869 1791 669 
Q 2194 469 2647 469 
Q 3041 469 3416 620 
Q 3791 772 3984 944 
L 3984 1797 
L 2638 1797 
z
" transform="scale(0.015625)"/>
       <path id="ArialMT-20" transform="scale(0.015625)"/>
       <path id="ArialMT-5b" d="M 434 -1272 
L 434 4581 
L 1675 4581 
L 1675 4116 
L 997 4116 
L 997 -806 
L 1675 -806 
L 1675 -1272 
L 434 -1272 
z
" transform="scale(0.015625)"/>
       <path id="ArialMT-6d" d="M 422 0 
L 422 3319 
L 925 3319 
L 925 2853 
Q 1081 3097 1340 3245 
Q 1600 3394 1931 3394 
Q 2300 3394 2536 3241 
Q 2772 3088 2869 2813 
Q 3263 3394 3894 3394 
Q 4388 3394 4653 3120 
Q 4919 2847 4919 2278 
L 4919 0 
L 4359 0 
L 4359 2091 
Q 4359 2428 4304 2576 
Q 4250 2725 4106 2815 
Q 3963 2906 3769 2906 
Q 3419 2906 3187 2673 
Q 2956 2441 2956 1928 
L 2956 0 
L 2394 0 
L 2394 2156 
Q 2394 2531 2256 2718 
Q 2119 2906 1806 2906 
Q 1569 2906 1367 2781 
Q 1166 2656 1075 2415 
Q 984 2175 984 1722 
L 984 0 
L 422 0 
z
" transform="scale(0.015625)"/>
       <path id="ArialMT-54" d="M 1659 0 
L 1659 4041 
L 150 4041 
L 150 4581 
L 3781 4581 
L 3781 4041 
L 2266 4041 
L 2266 0 
L 1659 0 
z
" transform="scale(0.015625)"/>
       <path id="ArialMT-2f" d="M 0 -78 
L 1328 4659 
L 1778 4659 
L 453 -78 
L 0 -78 
z
" transform="scale(0.015625)"/>
       <path id="ArialMT-5d" d="M 1363 -1272 
L 122 -1272 
L 122 -806 
L 800 -806 
L 800 4116 
L 122 4116 
L 122 4581 
L 1363 4581 
L 1363 -1272 
z
" transform="scale(0.015625)"/>
      </defs>
      <use xlink:href="#ArialMT-47"/>
      <use xlink:href="#ArialMT-20" x="77.783203"/>
      <use xlink:href="#ArialMT-5b" x="105.566406"/>
      <use xlink:href="#ArialMT-6d" x="133.349609"/>
      <use xlink:href="#ArialMT-54" x="216.650391"/>
      <use xlink:href="#ArialMT-2f" x="277.734375"/>
      <use xlink:href="#ArialMT-6d" x="305.517578"/>
      <use xlink:href="#ArialMT-5d" x="388.818359"/>
     </g>
    </g>
   </g>
   <g id="line2d_10">
    <path d="M 136.577153 176.57447 
L 170.4021 176.57447 
L 170.528188 173.074999 
L 170.534824 173.074999 
L 170.654277 168.409034 
L 170.667549 168.409034 
L 170.787002 163.74307 
L 170.800274 163.74307 
L 170.919727 159.077113 
L 170.932999 159.077113 
L 171.052452 154.411145 
L 171.065724 154.411145 
L 171.185177 149.745181 
L 171.198449 149.745181 
L 171.317902 145.079216 
L 171.331174 145.079216 
L 171.450626 140.413252 
L 171.463899 140.413252 
L 171.583351 135.747287 
L 171.596624 135.747287 
L 171.716076 131.081331 
L 171.729349 131.081331 
L 171.848801 126.415362 
L 171.862074 126.415362 
L 171.981526 121.749398 
L 171.994799 121.749398 
L 172.114251 117.083433 
L 172.127524 117.083433 
L 172.246976 112.417469 
L 172.260248 112.417469 
L 172.379701 107.751509 
L 172.392973 107.751509 
L 172.512426 103.085544 
L 172.525698 103.085544 
L 172.645151 98.41958 
L 172.658423 98.41958 
L 172.777876 93.753615 
L 172.791148 93.753615 
L 172.910601 89.087651 
L 172.923873 89.087651 
L 173.043326 84.421686 
L 173.056598 84.421686 
L 173.17605 79.755726 
L 173.189323 79.755726 
L 173.308775 75.089761 
L 173.322048 75.089761 
L 173.4415 70.423797 
L 173.454773 70.423797 
L 173.574225 65.757832 
L 173.587498 65.757832 
L 173.70695 61.091868 
L 173.720223 61.091868 
L 173.839675 56.425904 
L 173.852948 56.425904 
L 173.9724 51.759943 
L 173.985672 51.759943 
L 174.105125 47.093979 
L 174.118397 47.093979 
L 174.23785 42.428014 
L 174.251122 42.428014 
L 174.370575 37.76205 
L 174.383847 37.76205 
L 174.5033 33.096085 
L 174.516572 33.096085 
L 174.636025 28.430121 
L 174.649297 28.430121 
L 174.768749 23.76416 
L 174.782022 23.76416 
L 174.894838 22.597679 
L 247.979816 22.597679 
L 248.105905 26.09715 
L 248.112541 26.09715 
L 248.231993 30.763115 
L 248.245266 30.763115 
L 248.364718 35.429079 
L 248.377991 35.429079 
L 248.497443 40.095044 
L 248.510716 40.095044 
L 248.630168 44.761 
L 248.643441 44.761 
L 248.762893 49.426969 
L 248.776166 49.426969 
L 248.895618 54.092933 
L 248.90889 54.092933 
L 249.028343 58.758898 
L 249.041615 58.758898 
L 249.161068 63.424862 
L 249.17434 63.424862 
L 249.293793 68.090823 
L 249.307065 68.090823 
L 249.426518 72.756787 
L 249.43979 72.756787 
L 249.559243 77.422751 
L 249.572515 77.422751 
L 249.691967 82.088716 
L 249.70524 82.088716 
L 249.824692 86.75468 
L 249.837965 86.75468 
L 249.957417 91.420645 
L 249.97069 91.420645 
L 250.090142 96.086605 
L 250.103415 96.086605 
L 250.222867 100.75257 
L 250.23614 100.75257 
L 250.355592 105.418534 
L 250.368865 105.418534 
L 250.488317 110.084499 
L 250.50159 110.084499 
L 250.621042 114.750463 
L 250.634314 114.750463 
L 250.753767 119.416428 
L 250.767039 119.416428 
L 250.886492 124.082388 
L 250.899764 124.082388 
L 251.019217 128.748353 
L 251.032489 128.748353 
L 251.151942 133.414317 
L 251.165214 133.414317 
L 251.284667 138.080281 
L 251.297939 138.080281 
L 251.417391 142.746246 
L 251.430664 142.746246 
L 251.550116 147.41221 
L 251.563389 147.41221 
L 251.682841 152.078171 
L 251.696114 152.078171 
L 251.815566 156.744135 
L 251.828839 156.744135 
L 251.948291 161.4101 
L 251.961564 161.4101 
L 252.081016 166.076064 
L 252.094289 166.076064 
L 252.213741 170.742029 
L 252.227013 170.742029 
L 252.346466 175.407993 
L 252.359738 175.407993 
L 252.479191 180.073942 
L 252.492463 180.073942 
L 252.611916 184.739906 
L 252.625188 184.739906 
L 252.744641 189.405871 
L 252.757913 189.405871 
L 252.877366 194.071827 
L 252.890638 194.071827 
L 253.010091 198.737795 
L 253.023363 198.737795 
L 253.142815 203.40376 
L 253.156088 203.40376 
L 253.27554 208.069724 
L 253.288813 208.069724 
L 253.408265 212.735689 
L 253.421538 212.735689 
L 253.54099 217.401653 
L 253.554263 217.401653 
L 253.673715 222.06761 
L 253.686988 222.06761 
L 253.80644 226.733578 
L 253.819713 226.733578 
L 253.939165 231.399543 
L 253.952437 231.399543 
L 254.07189 236.065507 
L 254.085162 236.065507 
L 254.204615 240.731472 
L 254.217887 240.731472 
L 254.33734 245.397436 
L 254.350612 245.397436 
L 254.470065 250.063393 
L 254.483337 250.063393 
L 254.60279 254.729361 
L 254.616062 254.729361 
L 254.735514 259.395325 
L 254.748787 259.395325 
L 254.868239 264.06129 
L 254.881512 264.06129 
L 255.000964 268.727254 
L 255.014237 268.727254 
L 255.133689 273.393219 
L 255.146962 273.393219 
L 255.266414 278.059175 
L 255.279687 278.059175 
L 255.399139 282.725144 
L 255.412412 282.725144 
L 255.531864 287.391108 
L 255.545137 287.391108 
L 255.664589 292.057073 
L 255.677861 292.057073 
L 255.797314 296.723037 
L 255.810586 296.723037 
L 255.930039 301.389001 
L 255.943311 301.389001 
L 256.062764 306.054958 
L 256.076036 306.054958 
L 256.195489 310.720926 
L 256.208761 310.720926 
L 256.328214 315.386891 
L 256.341486 315.386891 
L 256.460938 320.052855 
L 256.474211 320.052855 
L 256.593663 324.71882 
L 256.606936 324.71882 
L 256.726388 329.384784 
L 256.739661 329.384784 
L 256.852477 330.551261 
L 329.937455 330.551261 
L 330.063544 327.05179 
L 330.07018 327.05179 
L 330.189632 322.385826 
L 330.202905 322.385826 
L 330.322357 317.719861 
L 330.33563 317.719861 
L 330.455082 313.053897 
L 330.468355 313.053897 
L 330.587807 308.38794 
L 330.601079 308.38794 
L 330.720532 303.721972 
L 330.733804 303.721972 
L 330.853257 299.056007 
L 330.866529 299.056007 
L 330.985982 294.390043 
L 330.999254 294.390043 
L 331.118707 289.724078 
L 331.131979 289.724078 
L 331.251432 285.058118 
L 331.264704 285.058118 
L 331.384156 280.392154 
L 331.397429 280.392154 
L 331.516881 275.726189 
L 331.530154 275.726189 
L 331.649606 271.060225 
L 331.662879 271.060225 
L 331.782331 266.39426 
L 331.795604 266.39426 
L 331.915056 261.728296 
L 331.928329 261.728296 
L 332.047781 257.062335 
L 332.061054 257.062335 
L 332.180506 252.396371 
L 332.193778 252.396371 
L 332.313231 247.730406 
L 332.326503 247.730406 
L 332.445956 243.064442 
L 332.459228 243.064442 
L 332.578681 238.398477 
L 332.591953 238.398477 
L 332.711406 233.732513 
L 332.724678 233.732513 
L 332.844131 229.066552 
L 332.857403 229.066552 
L 332.976856 224.400588 
L 332.990128 224.400588 
L 333.10958 219.734624 
L 333.122853 219.734624 
L 333.242305 215.068659 
L 333.255578 215.068659 
L 333.37503 210.402695 
L 333.388303 210.402695 
L 333.507755 205.73673 
L 333.521028 205.73673 
L 333.64048 201.07077 
L 333.653753 201.07077 
L 333.773205 196.404805 
L 333.786478 196.404805 
L 333.90593 191.738841 
L 333.919202 191.738841 
L 334.038655 187.072876 
L 334.051927 187.072876 
L 334.17138 182.406912 
L 334.184652 182.406912 
L 334.304105 177.740948 
L 334.310741 177.740948 
L 334.423557 176.57447 
L 411.15847 176.57447 
L 411.165107 177.803916 
L 411.238105 173.074999 
L 411.244742 173.074999 
L 411.297832 173.074999 
L 411.417284 168.409034 
L 411.430556 168.409034 
L 411.550009 163.74307 
L 411.563281 163.74307 
L 411.682734 159.077113 
L 411.696006 159.077113 
L 411.815459 154.411145 
L 411.828731 154.411145 
L 411.948184 149.745181 
L 411.961456 149.745181 
L 412.080909 145.079216 
L 412.094181 145.079216 
L 412.213633 140.413252 
L 412.226906 140.413252 
L 412.346358 135.747287 
L 412.359631 135.747287 
L 412.479083 131.081331 
L 412.492356 131.081331 
L 412.611808 126.415362 
L 412.625081 126.415362 
L 412.744533 121.749398 
L 412.757806 121.749398 
L 412.877258 117.083433 
L 412.890531 117.083433 
L 413.009983 112.417469 
L 413.023255 112.417469 
L 413.142708 107.751505 
L 413.15598 107.751505 
L 413.275433 103.085548 
L 413.288705 103.085548 
L 413.408158 98.41958 
L 413.42143 98.41958 
L 413.540883 93.753615 
L 413.554155 93.753615 
L 413.673608 89.087651 
L 413.68688 89.087651 
L 413.806333 84.421686 
L 413.819605 84.421686 
L 413.939057 79.755722 
L 413.95233 79.755722 
L 414.071782 75.089765 
L 414.085055 75.089765 
L 414.204507 70.423797 
L 414.21778 70.423797 
L 414.337232 65.757832 
L 414.350505 65.757832 
L 414.469957 61.091868 
L 414.48323 61.091868 
L 414.602682 56.425904 
L 414.615955 56.425904 
L 414.735407 51.759939 
L 414.748679 51.759939 
L 414.868132 47.093983 
L 414.881404 47.093983 
L 415.000857 42.428014 
L 415.014129 42.428014 
L 415.133582 37.76205 
L 415.146854 37.76205 
L 415.266307 33.096085 
L 415.279579 33.096085 
L 415.399032 28.430121 
L 415.412304 28.430121 
L 415.531757 23.764156 
L 415.545029 23.764156 
L 415.657845 22.597679 
L 488.742823 22.597679 
L 488.868912 26.09715 
L 488.875548 26.09715 
L 488.995 30.763115 
L 489.008273 30.763115 
L 489.127725 35.429079 
L 489.140998 35.429079 
L 489.26045 40.095044 
L 489.273723 40.095044 
L 489.393175 44.761 
L 489.406448 44.761 
L 489.5259 49.426969 
L 489.539173 49.426969 
L 489.658625 54.092933 
L 489.671897 54.092933 
L 489.79135 58.758898 
L 489.804622 58.758898 
L 489.924075 63.424862 
L 489.937347 63.424862 
L 490.0568 68.090823 
L 490.070072 68.090823 
L 490.189525 72.756787 
L 490.202797 72.756787 
L 490.32225 77.422751 
L 490.335522 77.422751 
L 490.454975 82.088716 
L 490.468247 82.088716 
L 490.587699 86.75468 
L 490.600972 86.75468 
L 490.720424 91.420645 
L 490.733697 91.420645 
L 490.853149 96.086605 
L 490.866422 96.086605 
L 490.985874 100.75257 
L 490.999147 100.75257 
L 491.118599 105.418534 
L 491.131872 105.418534 
L 491.251324 110.084499 
L 491.264597 110.084499 
L 491.384049 114.750463 
L 491.397321 114.750463 
L 491.516774 119.416428 
L 491.530046 119.416428 
L 491.649499 124.082388 
L 491.662771 124.082388 
L 491.782224 128.748353 
L 491.795496 128.748353 
L 491.914949 133.414317 
L 491.928221 133.414317 
L 492.047674 138.080281 
L 492.060946 138.080281 
L 492.180398 142.746246 
L 492.193671 142.746246 
L 492.313123 147.41221 
L 492.326396 147.41221 
L 492.445848 152.078171 
L 492.459121 152.078171 
L 492.578573 156.744135 
L 492.591846 156.744135 
L 492.711298 161.4101 
L 492.724571 161.4101 
L 492.844023 166.076064 
L 492.857296 166.076064 
L 492.976748 170.742029 
L 492.990021 170.742029 
L 493.109473 175.407993 
L 493.122745 175.407993 
L 493.242198 180.073942 
L 493.25547 180.073942 
L 493.374923 184.739906 
L 493.388195 184.739906 
L 493.507648 189.405871 
L 493.52092 189.405871 
L 493.640373 194.071827 
L 493.653645 194.071827 
L 493.773098 198.737795 
L 493.78637 198.737795 
L 493.905822 203.40376 
L 493.919095 203.40376 
L 494.038547 208.069724 
L 494.05182 208.069724 
L 494.171272 212.735689 
L 494.184545 212.735689 
L 494.303997 217.401653 
L 494.31727 217.401653 
L 494.436722 222.06761 
L 494.449995 222.06761 
L 494.569447 226.733578 
L 494.58272 226.733578 
L 494.702172 231.399543 
L 494.715444 231.399543 
L 494.834897 236.065507 
L 494.848169 236.065507 
L 494.967622 240.731472 
L 494.980894 240.731472 
L 495.100347 245.397436 
L 495.113619 245.397436 
L 495.233072 250.063393 
L 495.246344 250.063393 
L 495.365797 254.729361 
L 495.379069 254.729361 
L 495.498522 259.395325 
L 495.511794 259.395325 
L 495.631246 264.06129 
L 495.644519 264.06129 
L 495.763971 268.727254 
L 495.777244 268.727254 
L 495.896696 273.393219 
L 495.909969 273.393219 
L 496.029421 278.059175 
L 496.042694 278.059175 
L 496.162146 282.725144 
L 496.175419 282.725144 
L 496.294871 287.391108 
L 496.308144 287.391108 
L 496.427596 292.057073 
L 496.440868 292.057073 
L 496.560321 296.723037 
L 496.573593 296.723037 
L 496.693046 301.389001 
L 496.706318 301.389001 
L 496.825771 306.054958 
L 496.839043 306.054958 
L 496.958496 310.720926 
L 496.971768 310.720926 
L 497.091221 315.386891 
L 497.104493 315.386891 
L 497.223945 320.052855 
L 497.237218 320.052855 
L 497.35667 324.71882 
L 497.369943 324.71882 
L 497.489395 329.384784 
L 497.502668 329.384784 
L 497.615484 330.551261 
L 570.700462 330.551261 
L 570.826551 327.05179 
L 570.833187 327.05179 
L 570.952639 322.385826 
L 570.965912 322.385826 
L 571.085364 317.719861 
L 571.098637 317.719861 
L 571.218089 313.053897 
L 571.231362 313.053897 
L 571.350814 308.38794 
L 571.364086 308.38794 
L 571.483539 303.721972 
L 571.496811 303.721972 
L 571.616264 299.056007 
L 571.629536 299.056007 
L 571.748989 294.390043 
L 571.762261 294.390043 
L 571.881714 289.724078 
L 571.894986 289.724078 
L 572.014439 285.058118 
L 572.027711 285.058118 
L 572.147163 280.392154 
L 572.160436 280.392154 
L 572.279888 275.726189 
L 572.293161 275.726189 
L 572.412613 271.060225 
L 572.425886 271.060225 
L 572.545338 266.39426 
L 572.558611 266.39426 
L 572.678063 261.728296 
L 572.691336 261.728296 
L 572.810788 257.062335 
L 572.824061 257.062335 
L 572.943513 252.396371 
L 572.956786 252.396371 
L 573.076238 247.730406 
L 573.08951 247.730406 
L 573.208963 243.064442 
L 573.222235 243.064442 
L 573.341688 238.398477 
L 573.35496 238.398477 
L 573.474413 233.732513 
L 573.487685 233.732513 
L 573.607138 229.066552 
L 573.62041 229.066552 
L 573.739863 224.400588 
L 573.753135 224.400588 
L 573.872587 219.734624 
L 573.88586 219.734624 
L 574.005312 215.068659 
L 574.018585 215.068659 
L 574.138037 210.402695 
L 574.15131 210.402695 
L 574.270762 205.73673 
L 574.284035 205.73673 
L 574.403487 201.07077 
L 574.41676 201.07077 
L 574.536212 196.404805 
L 574.549485 196.404805 
L 574.668937 191.738841 
L 574.682209 191.738841 
L 574.801662 187.072876 
L 574.814934 187.072876 
L 574.934387 182.406912 
L 574.947659 182.406912 
L 575.067112 177.740948 
L 575.073748 177.740948 
L 575.186564 176.57447 
L 634.288972 176.57447 
L 634.288972 176.57447 
" clip-path="url(#p192a273326)" style="fill: none; stroke: #808080; stroke-width: 5; stroke-linecap: round"/>
   </g>
   <g id="line2d_11">
    <path d="M 111.691563 176.57447 
L 659.174563 176.57447 
" clip-path="url(#p192a273326)" style="fill: none; stroke: #1a1a1a; stroke-width: 3; stroke-linecap: round"/>
   </g>
   <g id="patch_3">
    <path d="M 111.691563 345.948941 
L 111.691563 7.2 
" style="fill: none; stroke: #ffffff; stroke-width: 2.5; stroke-linejoin: miter; stroke-linecap: square"/>
   </g>
   <g id="patch_4">
    <path d="M 659.174563 345.948941 
L 659.174563 7.2 
" style="fill: none; stroke: #ffffff; stroke-width: 2.5; stroke-linejoin: miter; stroke-linecap: square"/>
   </g>
   <g id="patch_5">
    <path d="M 111.691563 345.948941 
L 659.174563 345.948941 
" style="fill: none; stroke: #ffffff; stroke-width: 2.5; stroke-linejoin: miter; stroke-linecap: square"/>
   </g>
   <g id="patch_6">
    <path d="M 111.691563 7.2 
L 659.174563 7.2 
" style="fill: none; stroke: #ffffff; stroke-width: 2.5; stroke-linejoin: miter; stroke-linecap: square"/>
   </g>
   <g id="text_7">
    <g id="patch_7">
     <path d="M 436.500073 341.511494 
L 642.750073 341.511494 
Q 655.250073 341.511494 655.250073 329.011494 
L 655.250073 305.761494 
Q 655.250073 293.261494 642.750073 293.261494 
L 436.500073 293.261494 
Q 424.000073 293.261494 424.000073 305.761494 
L 424.000073 329.011494 
Q 424.000073 341.511494 436.500073 341.511494 
z
" style="fill: #eaeaf2; opacity: 0.9; stroke: #d3d3d3; stroke-width: 2; stroke-linejoin: miter"/>
    </g>
    <!-- $G_{max}$ = 38.9 mT/m -->
    <g style="fill: #262626" transform="translate(436.500073 324.042744) scale(0.25 -0.25)">
     <defs>
      <path id="DejaVuSans-Oblique-47" d="M 3494 697 
L 3738 1919 
L 2700 1919 
L 2797 2438 
L 4453 2438 
L 4050 384 
Q 3634 156 3143 32 
Q 2653 -91 2156 -91 
Q 1278 -91 783 396 
Q 288 884 288 1753 
Q 288 2475 589 3126 
Q 891 3778 1422 4213 
Q 1756 4484 2153 4617 
Q 2550 4750 3034 4750 
Q 3472 4750 3873 4639 
Q 4275 4528 4641 4306 
L 4513 3634 
Q 4231 3928 3853 4083 
Q 3475 4238 3047 4238 
Q 2550 4238 2172 4048 
Q 1794 3859 1497 3463 
Q 1244 3125 1098 2667 
Q 953 2209 953 1734 
Q 953 1081 1287 751 
Q 1622 422 2284 422 
Q 2616 422 2925 492 
Q 3234 563 3494 697 
z
" transform="scale(0.015625)"/>
      <path id="DejaVuSans-Oblique-6d" d="M 5747 2113 
L 5338 0 
L 4763 0 
L 5166 2094 
Q 5191 2228 5203 2325 
Q 5216 2422 5216 2491 
Q 5216 2772 5059 2928 
Q 4903 3084 4622 3084 
Q 4203 3084 3875 2770 
Q 3547 2456 3450 1953 
L 3066 0 
L 2491 0 
L 2900 2094 
Q 2925 2209 2937 2307 
Q 2950 2406 2950 2484 
Q 2950 2769 2794 2926 
Q 2638 3084 2363 3084 
Q 1938 3084 1609 2770 
Q 1281 2456 1184 1953 
L 800 0 
L 225 0 
L 909 3500 
L 1484 3500 
L 1375 2956 
Q 1609 3263 1923 3423 
Q 2238 3584 2597 3584 
Q 2978 3584 3223 3384 
Q 3469 3184 3519 2828 
Q 3781 3197 4126 3390 
Q 4472 3584 4856 3584 
Q 5306 3584 5551 3325 
Q 5797 3066 5797 2591 
Q 5797 2488 5784 2364 
Q 5772 2241 5747 2113 
z
" transform="scale(0.015625)"/>
      <path id="DejaVuSans-Oblique-61" d="M 3438 1997 
L 3047 0 
L 2472 0 
L 2578 531 
Q 2325 219 2001 64 
Q 1678 -91 1281 -91 
Q 834 -91 548 182 
Q 263 456 263 884 
Q 263 1497 752 1853 
Q 1241 2209 2100 2209 
L 2900 2209 
L 2931 2363 
Q 2938 2388 2941 2417 
Q 2944 2447 2944 2509 
Q 2944 2788 2717 2942 
Q 2491 3097 2081 3097 
Q 1800 3097 1504 3025 
Q 1209 2953 897 2809 
L 997 3341 
Q 1322 3463 1633 3523 
Q 1944 3584 2234 3584 
Q 2853 3584 3176 3315 
Q 3500 3047 3500 2534 
Q 3500 2431 3484 2292 
Q 3469 2153 3438 1997 
z
M 2816 1759 
L 2241 1759 
Q 1534 1759 1195 1570 
Q 856 1381 856 984 
Q 856 709 1029 553 
Q 1203 397 1509 397 
Q 1978 397 2328 733 
Q 2678 1069 2791 1631 
L 2816 1759 
z
" transform="scale(0.015625)"/>
      <path id="DejaVuSans-Oblique-78" d="M 3841 3500 
L 2234 1784 
L 3219 0 
L 2559 0 
L 1819 1388 
L 531 0 
L -166 0 
L 1556 1844 
L 641 3500 
L 1300 3500 
L 1972 2234 
L 3144 3500 
L 3841 3500 
z
" transform="scale(0.015625)"/>
      <path id="ArialMT-3d" d="M 3381 2694 
L 356 2694 
L 356 3219 
L 3381 3219 
L 3381 2694 
z
M 3381 1303 
L 356 1303 
L 356 1828 
L 3381 1828 
L 3381 1303 
z
" transform="scale(0.015625)"/>
      <path id="ArialMT-33" d="M 269 1209 
L 831 1284 
Q 928 806 1161 595 
Q 1394 384 1728 384 
Q 2125 384 2398 659 
Q 2672 934 2672 1341 
Q 2672 1728 2419 1979 
Q 2166 2231 1775 2231 
Q 1616 2231 1378 2169 
L 1441 2663 
Q 1497 2656 1531 2656 
Q 1891 2656 2178 2843 
Q 2466 3031 2466 3422 
Q 2466 3731 2256 3934 
Q 2047 4138 1716 4138 
Q 1388 4138 1169 3931 
Q 950 3725 888 3313 
L 325 3413 
Q 428 3978 793 4289 
Q 1159 4600 1703 4600 
Q 2078 4600 2393 4439 
Q 2709 4278 2876 4000 
Q 3044 3722 3044 3409 
Q 3044 3113 2884 2869 
Q 2725 2625 2413 2481 
Q 2819 2388 3044 2092 
Q 3269 1797 3269 1353 
Q 3269 753 2831 336 
Q 2394 -81 1725 -81 
Q 1122 -81 723 278 
Q 325 638 269 1209 
z
" transform="scale(0.015625)"/>
      <path id="ArialMT-38" d="M 1131 2484 
Q 781 2613 612 2850 
Q 444 3088 444 3419 
Q 444 3919 803 4259 
Q 1163 4600 1759 4600 
Q 2359 4600 2725 4251 
Q 3091 3903 3091 3403 
Q 3091 3084 2923 2848 
Q 2756 2613 2416 2484 
Q 2838 2347 3058 2040 
Q 3278 1734 3278 1309 
Q 3278 722 2862 322 
Q 2447 -78 1769 -78 
Q 1091 -78 675 323 
Q 259 725 259 1325 
Q 259 1772 486 2073 
Q 713 2375 1131 2484 
z
M 1019 3438 
Q 1019 3113 1228 2906 
Q 1438 2700 1772 2700 
Q 2097 2700 2305 2904 
Q 2513 3109 2513 3406 
Q 2513 3716 2298 3927 
Q 2084 4138 1766 4138 
Q 1444 4138 1231 3931 
Q 1019 3725 1019 3438 
z
M 838 1322 
Q 838 1081 952 856 
Q 1066 631 1291 507 
Q 1516 384 1775 384 
Q 2178 384 2440 643 
Q 2703 903 2703 1303 
Q 2703 1709 2433 1975 
Q 2163 2241 1756 2241 
Q 1359 2241 1098 1978 
Q 838 1716 838 1322 
z
" transform="scale(0.015625)"/>
      <path id="ArialMT-2e" d="M 581 0 
L 581 641 
L 1222 641 
L 1222 0 
L 581 0 
z
" transform="scale(0.015625)"/>
      <path id="ArialMT-39" d="M 350 1059 
L 891 1109 
Q 959 728 1153 556 
Q 1347 384 1650 384 
Q 1909 384 2104 503 
Q 2300 622 2425 820 
Q 2550 1019 2634 1356 
Q 2719 1694 2719 2044 
Q 2719 2081 2716 2156 
Q 2547 1888 2255 1720 
Q 1963 1553 1622 1553 
Q 1053 1553 659 1965 
Q 266 2378 266 3053 
Q 266 3750 677 4175 
Q 1088 4600 1706 4600 
Q 2153 4600 2523 4359 
Q 2894 4119 3086 3673 
Q 3278 3228 3278 2384 
Q 3278 1506 3087 986 
Q 2897 466 2520 194 
Q 2144 -78 1638 -78 
Q 1100 -78 759 220 
Q 419 519 350 1059 
z
M 2653 3081 
Q 2653 3566 2395 3850 
Q 2138 4134 1775 4134 
Q 1400 4134 1122 3828 
Q 844 3522 844 3034 
Q 844 2597 1108 2323 
Q 1372 2050 1759 2050 
Q 2150 2050 2401 2323 
Q 2653 2597 2653 3081 
z
" transform="scale(0.015625)"/>
     </defs>
     <use xlink:href="#DejaVuSans-Oblique-47" transform="translate(0 0.78125)"/>
     <use xlink:href="#DejaVuSans-Oblique-6d" transform="translate(77.490234 -15.625) scale(0.7)"/>
     <use xlink:href="#DejaVuSans-Oblique-61" transform="translate(145.678711 -15.625) scale(0.7)"/>
     <use xlink:href="#DejaVuSans-Oblique-78" transform="translate(188.574219 -15.625) scale(0.7)"/>
     <use xlink:href="#ArialMT-20" transform="translate(232.734375 0.78125)"/>
     <use xlink:href="#ArialMT-3d" transform="translate(260.517578 0.78125)"/>
     <use xlink:href="#ArialMT-20" transform="translate(318.916016 0.78125)"/>
     <use xlink:href="#ArialMT-33" transform="translate(346.699219 0.78125)"/>
     <use xlink:href="#ArialMT-38" transform="translate(402.314453 0.78125)"/>
     <use xlink:href="#ArialMT-2e" transform="translate(457.929688 0.78125)"/>
     <use xlink:href="#ArialMT-39" transform="translate(485.712891 0.78125)"/>
     <use xlink:href="#ArialMT-20" transform="translate(541.328125 0.78125)"/>
     <use xlink:href="#ArialMT-6d" transform="translate(569.111328 0.78125)"/>
     <use xlink:href="#ArialMT-54" transform="translate(652.412109 0.78125)"/>
     <use xlink:href="#ArialMT-2f" transform="translate(713.496094 0.78125)"/>
     <use xlink:href="#ArialMT-6d" transform="translate(741.279297 0.78125)"/>
    </g>
   </g>
  </g>
  <g id="axes_2">
   <g id="patch_8">
    <path d="M 111.691563 725.850941 
L 659.174563 725.850941 
L 659.174563 387.102 
L 111.691563 387.102 
z
" style="fill: #eaeaf2"/>
   </g>
   <g id="matplotlib.axis_3">
    <g id="xtick_5">
     <g id="line2d_12">
      <path d="M 136.577153 725.850941 
L 136.577153 387.102 
" clip-path="url(#p5573743cc4)" style="fill: none; stroke: #ffffff; stroke-width: 2; stroke-linecap: round"/>
     </g>
     <g id="text_8">
      <!-- 0 -->
      <g style="fill: #262626" transform="translate(128.625013 761.822284) scale(0.286 -0.286)">
       <use xlink:href="#ArialMT-30"/>
      </g>
     </g>
    </g>
    <g id="xtick_6">
     <g id="line2d_13">
      <path d="M 269.302075 725.850941 
L 269.302075 387.102 
" clip-path="url(#p5573743cc4)" style="fill: none; stroke: #ffffff; stroke-width: 2; stroke-linecap: round"/>
     </g>
     <g id="text_9">
      <!-- 20 -->
      <g style="fill: #262626" transform="translate(253.397793 761.822284) scale(0.286 -0.286)">
       <use xlink:href="#ArialMT-32"/>
       <use xlink:href="#ArialMT-30" x="55.615234"/>
      </g>
     </g>
    </g>
    <g id="xtick_7">
     <g id="line2d_14">
      <path d="M 402.026996 725.850941 
L 402.026996 387.102 
" clip-path="url(#p5573743cc4)" style="fill: none; stroke: #ffffff; stroke-width: 2; stroke-linecap: round"/>
     </g>
     <g id="text_10">
      <!-- 40 -->
      <g style="fill: #262626" transform="translate(386.122715 761.822284) scale(0.286 -0.286)">
       <use xlink:href="#ArialMT-34"/>
       <use xlink:href="#ArialMT-30" x="55.615234"/>
      </g>
     </g>
    </g>
    <g id="xtick_8">
     <g id="line2d_15">
      <path d="M 534.751917 725.850941 
L 534.751917 387.102 
" clip-path="url(#p5573743cc4)" style="fill: none; stroke: #ffffff; stroke-width: 2; stroke-linecap: round"/>
     </g>
     <g id="text_11">
      <!-- 60 -->
      <g style="fill: #262626" transform="translate(518.847636 761.822284) scale(0.286 -0.286)">
       <defs>
        <path id="ArialMT-36" d="M 3184 3459 
L 2625 3416 
Q 2550 3747 2413 3897 
Q 2184 4138 1850 4138 
Q 1581 4138 1378 3988 
Q 1113 3794 959 3422 
Q 806 3050 800 2363 
Q 1003 2672 1297 2822 
Q 1591 2972 1913 2972 
Q 2475 2972 2870 2558 
Q 3266 2144 3266 1488 
Q 3266 1056 3080 686 
Q 2894 316 2569 119 
Q 2244 -78 1831 -78 
Q 1128 -78 684 439 
Q 241 956 241 2144 
Q 241 3472 731 4075 
Q 1159 4600 1884 4600 
Q 2425 4600 2770 4297 
Q 3116 3994 3184 3459 
z
M 888 1484 
Q 888 1194 1011 928 
Q 1134 663 1356 523 
Q 1578 384 1822 384 
Q 2178 384 2434 671 
Q 2691 959 2691 1453 
Q 2691 1928 2437 2201 
Q 2184 2475 1800 2475 
Q 1419 2475 1153 2201 
Q 888 1928 888 1484 
z
" transform="scale(0.015625)"/>
       </defs>
       <use xlink:href="#ArialMT-36"/>
       <use xlink:href="#ArialMT-30" x="55.615234"/>
      </g>
     </g>
    </g>
    <g id="text_12">
     <!-- Time [ms] -->
     <g style="fill: #262626" transform="translate(317.558438 793.838909) scale(0.312 -0.312)">
      <defs>
       <path id="ArialMT-69" d="M 425 3934 
L 425 4581 
L 988 4581 
L 988 3934 
L 425 3934 
z
M 425 0 
L 425 3319 
L 988 3319 
L 988 0 
L 425 0 
z
" transform="scale(0.015625)"/>
       <path id="ArialMT-65" d="M 2694 1069 
L 3275 997 
Q 3138 488 2766 206 
Q 2394 -75 1816 -75 
Q 1088 -75 661 373 
Q 234 822 234 1631 
Q 234 2469 665 2931 
Q 1097 3394 1784 3394 
Q 2450 3394 2872 2941 
Q 3294 2488 3294 1666 
Q 3294 1616 3291 1516 
L 816 1516 
Q 847 969 1125 678 
Q 1403 388 1819 388 
Q 2128 388 2347 550 
Q 2566 713 2694 1069 
z
M 847 1978 
L 2700 1978 
Q 2663 2397 2488 2606 
Q 2219 2931 1791 2931 
Q 1403 2931 1139 2672 
Q 875 2413 847 1978 
z
" transform="scale(0.015625)"/>
       <path id="ArialMT-73" d="M 197 991 
L 753 1078 
Q 800 744 1014 566 
Q 1228 388 1613 388 
Q 2000 388 2187 545 
Q 2375 703 2375 916 
Q 2375 1106 2209 1216 
Q 2094 1291 1634 1406 
Q 1016 1563 777 1677 
Q 538 1791 414 1992 
Q 291 2194 291 2438 
Q 291 2659 392 2848 
Q 494 3038 669 3163 
Q 800 3259 1026 3326 
Q 1253 3394 1513 3394 
Q 1903 3394 2198 3281 
Q 2494 3169 2634 2976 
Q 2775 2784 2828 2463 
L 2278 2388 
Q 2241 2644 2061 2787 
Q 1881 2931 1553 2931 
Q 1166 2931 1000 2803 
Q 834 2675 834 2503 
Q 834 2394 903 2306 
Q 972 2216 1119 2156 
Q 1203 2125 1616 2013 
Q 2213 1853 2448 1751 
Q 2684 1650 2818 1456 
Q 2953 1263 2953 975 
Q 2953 694 2789 445 
Q 2625 197 2315 61 
Q 2006 -75 1616 -75 
Q 969 -75 630 194 
Q 291 463 197 991 
z
" transform="scale(0.015625)"/>
      </defs>
      <use xlink:href="#ArialMT-54"/>
      <use xlink:href="#ArialMT-69" x="57.333984"/>
      <use xlink:href="#ArialMT-6d" x="79.550781"/>
      <use xlink:href="#ArialMT-65" x="162.851562"/>
      <use xlink:href="#ArialMT-20" x="218.466797"/>
      <use xlink:href="#ArialMT-5b" x="246.25"/>
      <use xlink:href="#ArialMT-6d" x="274.033203"/>
      <use xlink:href="#ArialMT-73" x="357.333984"/>
      <use xlink:href="#ArialMT-5d" x="407.333984"/>
     </g>
    </g>
   </g>
   <g id="matplotlib.axis_4">
    <g id="ytick_6">
     <g id="line2d_16">
      <path d="M 111.691563 710.453261 
L 659.174563 710.453261 
" clip-path="url(#p5573743cc4)" style="fill: none; stroke: #ffffff; stroke-width: 2; stroke-linecap: round"/>
     </g>
     <g id="text_13">
      <!-- −1.0 -->
      <g style="fill: #262626" transform="translate(39.733375 720.688933) scale(0.286 -0.286)">
       <defs>
        <path id="ArialMT-31" d="M 2384 0 
L 1822 0 
L 1822 3584 
Q 1619 3391 1289 3197 
Q 959 3003 697 2906 
L 697 3450 
Q 1169 3672 1522 3987 
Q 1875 4303 2022 4600 
L 2384 4600 
L 2384 0 
z
" transform="scale(0.015625)"/>
       </defs>
       <use xlink:href="#ArialMT-2212"/>
       <use xlink:href="#ArialMT-31" x="58.398438"/>
       <use xlink:href="#ArialMT-2e" x="114.013672"/>
       <use xlink:href="#ArialMT-30" x="141.796875"/>
      </g>
     </g>
    </g>
    <g id="ytick_7">
     <g id="line2d_17">
      <path d="M 111.691563 633.464866 
L 659.174563 633.464866 
" clip-path="url(#p5573743cc4)" style="fill: none; stroke: #ffffff; stroke-width: 2; stroke-linecap: round"/>
     </g>
     <g id="text_14">
      <!-- −0.5 -->
      <g style="fill: #262626" transform="translate(39.733375 643.700538) scale(0.286 -0.286)">
       <defs>
        <path id="ArialMT-35" d="M 266 1200 
L 856 1250 
Q 922 819 1161 601 
Q 1400 384 1738 384 
Q 2144 384 2425 690 
Q 2706 997 2706 1503 
Q 2706 1984 2436 2262 
Q 2166 2541 1728 2541 
Q 1456 2541 1237 2417 
Q 1019 2294 894 2097 
L 366 2166 
L 809 4519 
L 3088 4519 
L 3088 3981 
L 1259 3981 
L 1013 2750 
Q 1425 3038 1878 3038 
Q 2478 3038 2890 2622 
Q 3303 2206 3303 1553 
Q 3303 931 2941 478 
Q 2500 -78 1738 -78 
Q 1113 -78 717 272 
Q 322 622 266 1200 
z
" transform="scale(0.015625)"/>
       </defs>
       <use xlink:href="#ArialMT-2212"/>
       <use xlink:href="#ArialMT-30" x="58.398438"/>
       <use xlink:href="#ArialMT-2e" x="114.013672"/>
       <use xlink:href="#ArialMT-35" x="141.796875"/>
      </g>
     </g>
    </g>
    <g id="ytick_8">
     <g id="line2d_18">
      <path d="M 111.691563 556.47647 
L 659.174563 556.47647 
" clip-path="url(#p5573743cc4)" style="fill: none; stroke: #ffffff; stroke-width: 2; stroke-linecap: round"/>
     </g>
     <g id="text_15">
      <!-- 0.0 -->
      <g style="fill: #262626" transform="translate(56.437563 566.712142) scale(0.286 -0.286)">
       <use xlink:href="#ArialMT-30"/>
       <use xlink:href="#ArialMT-2e" x="55.615234"/>
       <use xlink:href="#ArialMT-30" x="83.398438"/>
      </g>
     </g>
    </g>
    <g id="ytick_9">
     <g id="line2d_19">
      <path d="M 111.691563 479.488075 
L 659.174563 479.488075 
" clip-path="url(#p5573743cc4)" style="fill: none; stroke: #ffffff; stroke-width: 2; stroke-linecap: round"/>
     </g>
     <g id="text_16">
      <!-- 0.5 -->
      <g style="fill: #262626" transform="translate(56.437563 489.723747) scale(0.286 -0.286)">
       <use xlink:href="#ArialMT-30"/>
       <use xlink:href="#ArialMT-2e" x="55.615234"/>
       <use xlink:href="#ArialMT-35" x="83.398438"/>
      </g>
     </g>
    </g>
    <g id="ytick_10">
     <g id="line2d_20">
      <path d="M 111.691563 402.499679 
L 659.174563 402.499679 
" clip-path="url(#p5573743cc4)" style="fill: none; stroke: #ffffff; stroke-width: 2; stroke-linecap: round"/>
     </g>
     <g id="text_17">
      <!-- 1.0 -->
      <g style="fill: #262626" transform="translate(56.437563 412.735351) scale(0.286 -0.286)">
       <use xlink:href="#ArialMT-31"/>
       <use xlink:href="#ArialMT-2e" x="55.615234"/>
       <use xlink:href="#ArialMT-30" x="83.398438"/>
      </g>
     </g>
    </g>
    <g id="text_18">
     <!-- Moments -->
     <g style="fill: #262626" transform="translate(29.532375 620.624158) rotate(-90) scale(0.312 -0.312)">
      <defs>
       <path id="ArialMT-4d" d="M 475 0 
L 475 4581 
L 1388 4581 
L 2472 1338 
Q 2622 884 2691 659 
Q 2769 909 2934 1394 
L 4031 4581 
L 4847 4581 
L 4847 0 
L 4263 0 
L 4263 3834 
L 2931 0 
L 2384 0 
L 1059 3900 
L 1059 0 
L 475 0 
z
" transform="scale(0.015625)"/>
       <path id="ArialMT-6f" d="M 213 1659 
Q 213 2581 725 3025 
Q 1153 3394 1769 3394 
Q 2453 3394 2887 2945 
Q 3322 2497 3322 1706 
Q 3322 1066 3130 698 
Q 2938 331 2570 128 
Q 2203 -75 1769 -75 
Q 1072 -75 642 372 
Q 213 819 213 1659 
z
M 791 1659 
Q 791 1022 1069 705 
Q 1347 388 1769 388 
Q 2188 388 2466 706 
Q 2744 1025 2744 1678 
Q 2744 2294 2464 2611 
Q 2184 2928 1769 2928 
Q 1347 2928 1069 2612 
Q 791 2297 791 1659 
z
" transform="scale(0.015625)"/>
       <path id="ArialMT-6e" d="M 422 0 
L 422 3319 
L 928 3319 
L 928 2847 
Q 1294 3394 1984 3394 
Q 2284 3394 2536 3286 
Q 2788 3178 2913 3003 
Q 3038 2828 3088 2588 
Q 3119 2431 3119 2041 
L 3119 0 
L 2556 0 
L 2556 2019 
Q 2556 2363 2490 2533 
Q 2425 2703 2258 2804 
Q 2091 2906 1866 2906 
Q 1506 2906 1245 2678 
Q 984 2450 984 1813 
L 984 0 
L 422 0 
z
" transform="scale(0.015625)"/>
       <path id="ArialMT-74" d="M 1650 503 
L 1731 6 
Q 1494 -44 1306 -44 
Q 1000 -44 831 53 
Q 663 150 594 308 
Q 525 466 525 972 
L 525 2881 
L 113 2881 
L 113 3319 
L 525 3319 
L 525 4141 
L 1084 4478 
L 1084 3319 
L 1650 3319 
L 1650 2881 
L 1084 2881 
L 1084 941 
Q 1084 700 1114 631 
Q 1144 563 1211 522 
Q 1278 481 1403 481 
Q 1497 481 1650 503 
z
" transform="scale(0.015625)"/>
      </defs>
      <use xlink:href="#ArialMT-4d"/>
      <use xlink:href="#ArialMT-6f" x="83.300781"/>
      <use xlink:href="#ArialMT-6d" x="138.916016"/>
      <use xlink:href="#ArialMT-65" x="222.216797"/>
      <use xlink:href="#ArialMT-6e" x="277.832031"/>
      <use xlink:href="#ArialMT-74" x="333.447266"/>
      <use xlink:href="#ArialMT-73" x="361.230469"/>
     </g>
    </g>
   </g>
   <g id="line2d_21">
    <path d="M 136.577153 556.47647 
L 171.098905 556.366207 
L 171.81562 556.023545 
L 172.592061 555.389808 
L 173.454773 554.365012 
L 174.403756 552.847975 
L 175.989819 549.732576 
L 249.021707 405.024548 
L 249.950781 403.81475 
L 250.786948 403.060373 
L 251.570025 402.641075 
L 252.313285 402.500378 
L 253.023363 402.599464 
L 253.773259 402.952605 
L 254.5497 403.586342 
L 255.412412 404.611137 
L 256.361395 406.128174 
L 257.947458 409.243573 
L 330.979345 553.951602 
L 331.90842 555.161399 
L 332.744587 555.915777 
L 333.527664 556.335075 
L 334.270924 556.475772 
L 341.696883 556.476371 
L 411.861912 556.586528 
L 412.578627 556.929191 
L 413.355068 557.562928 
L 414.21778 558.587724 
L 415.166763 560.104761 
L 416.752826 563.220159 
L 489.784714 707.928188 
L 490.713788 709.137986 
L 491.549955 709.892363 
L 492.333032 710.311661 
L 493.076292 710.452358 
L 493.78637 710.353271 
L 494.536266 710.000131 
L 495.312707 709.366394 
L 496.175419 708.341598 
L 497.124402 706.824561 
L 498.710465 703.709163 
L 571.742352 559.001134 
L 572.671427 557.791336 
L 573.507594 557.036959 
L 574.290671 556.617661 
L 575.033931 556.476964 
L 582.45989 556.476365 
L 634.288972 556.476365 
L 634.288972 556.476365 
" clip-path="url(#p5573743cc4)" style="fill: none; stroke: #4c72b0; stroke-width: 5; stroke-linecap: round"/>
   </g>
   <g id="line2d_22">
    <path d="M 136.577153 556.47647 
L 172.744694 556.365757 
L 174.974473 556.037853 
L 181.703627 554.634631 
L 188.459325 552.998449 
L 195.241569 551.126621 
L 202.050357 549.01645 
L 208.892327 546.662833 
L 215.774114 544.059745 
L 222.689082 541.205935 
L 229.650504 538.091799 
L 236.65838 534.712493 
L 243.71271 531.063141 
L 249.824692 527.918942 
L 251.158578 527.595557 
L 252.44601 527.501525 
L 253.746714 527.628967 
L 255.007601 527.970754 
L 256.28176 528.539073 
L 258.465085 529.841567 
L 265.68532 534.365863 
L 272.965282 539.191111 
L 280.304971 544.323823 
L 287.704385 549.770566 
L 295.170162 555.543215 
L 302.702301 561.649189 
L 310.307439 568.101733 
L 317.985576 574.909163 
L 325.736711 582.079873 
L 331.384156 587.261427 
L 332.459228 587.834924 
L 333.527664 588.15149 
L 334.589463 588.221588 
L 412.001274 588.331331 
L 412.844077 588.66465 
L 413.746606 589.271117 
L 414.662408 590.152204 
L 415.671118 591.431546 
L 424.411054 603.801336 
L 433.237261 616.680282 
L 442.156376 630.089913 
L 451.168398 644.042643 
L 460.273327 658.551011 
L 469.471164 673.62769 
L 478.761909 689.285479 
L 488.145561 705.537307 
L 489.811259 708.238442 
L 490.793423 709.355345 
L 491.636226 710.005224 
L 492.42594 710.354494 
L 493.175835 710.452545 
L 493.89255 710.332443 
L 494.63581 709.98655 
L 495.41225 709.383213 
L 496.268326 708.430388 
L 497.210673 707.030989 
L 499.048913 703.730335 
L 508.644925 686.133642 
L 518.333844 667.900119 
L 528.122307 649.00331 
L 538.010314 629.428621 
L 547.997864 609.161306 
L 558.084958 588.186476 
L 568.271596 566.48909 
L 571.788806 559.171001 
L 572.717881 557.866606 
L 573.554048 557.057277 
L 574.330488 556.616969 
L 575.007386 556.477779 
L 577.263709 556.476458 
L 634.288972 556.476458 
L 634.288972 556.476458 
" clip-path="url(#p5573743cc4)" style="fill: none; stroke: #dd8452; stroke-width: 5; stroke-linecap: round"/>
   </g>
   <g id="line2d_23">
    <path d="M 136.577153 556.47647 
L 177.164434 556.365465 
L 189.381763 555.918787 
L 200.258571 555.30187 
L 210.246121 554.515198 
L 219.583319 553.558806 
L 228.416163 552.432443 
L 236.850831 551.134196 
L 244.953688 549.663273 
L 250.634314 548.663412 
L 252.791094 548.59376 
L 254.835058 548.749793 
L 256.832568 549.125789 
L 264.304981 551.041493 
L 271.591579 553.138434 
L 278.712272 555.418436 
L 285.686966 557.884549 
L 292.542208 560.544025 
L 299.284634 563.398042 
L 305.934153 566.454221 
L 312.4974 569.71553 
L 318.987649 573.188983 
L 325.411535 576.879149 
L 331.835421 580.569369 
L 333.10958 580.912472 
L 334.33065 581.020158 
L 412.041091 581.130764 
L 412.943621 581.47798 
L 413.839514 582.059868 
L 414.821678 582.972844 
L 415.963112 584.374749 
L 422.194548 592.665354 
L 428.445891 601.353993 
L 434.72378 610.462238 
L 441.021578 619.993003 
L 447.34592 629.969076 
L 453.696808 640.404057 
L 460.080876 651.323356 
L 466.498126 662.742437 
L 472.948557 674.677067 
L 479.43217 687.143326 
L 485.948963 700.15761 
L 489.943984 708.037647 
L 490.892967 709.260212 
L 491.722498 709.981316 
L 492.445848 710.342527 
L 493.122745 710.453261 
L 493.826188 710.332981 
L 494.509721 709.985369 
L 495.213163 709.387563 
L 496.009512 708.41515 
L 496.885497 706.979488 
L 497.914115 704.841494 
L 504.543725 690.14571 
L 511.213152 674.81758 
L 517.922397 658.83735 
L 524.671459 642.184853 
L 531.466975 624.822247 
L 538.302309 606.744561 
L 545.184096 587.911836 
L 552.112337 568.300249 
L 559.087031 547.885448 
L 566.10818 526.642542 
L 571.99453 508.892872 
L 572.863878 507.226636 
L 573.62041 506.217131 
L 574.317216 505.653652 
L 574.907842 505.451899 
L 575.916551 505.440785 
L 634.288972 505.440785 
L 634.288972 505.440785 
" clip-path="url(#p5573743cc4)" style="fill: none; stroke: #55a868; stroke-width: 5; stroke-linecap: round"/>
   </g>
   <g id="line2d_24">
    <path d="M 111.691563 556.47647 
L 659.174563 556.47647 
" clip-path="url(#p5573743cc4)" style="fill: none; stroke: #1a1a1a; stroke-width: 3; stroke-linecap: round"/>
   </g>
   <g id="patch_9">
    <path d="M 111.691563 725.850941 
L 111.691563 387.102 
" style="fill: none; stroke: #ffffff; stroke-width: 2.5; stroke-linejoin: miter; stroke-linecap: square"/>
   </g>
   <g id="patch_10">
    <path d="M 659.174563 725.850941 
L 659.174563 387.102 
" style="fill: none; stroke: #ffffff; stroke-width: 2.5; stroke-linejoin: miter; stroke-linecap: square"/>
   </g>
   <g id="patch_11">
    <path d="M 111.691563 725.850941 
L 659.174563 725.850941 
" style="fill: none; stroke: #ffffff; stroke-width: 2.5; stroke-linejoin: miter; stroke-linecap: square"/>
   </g>
   <g id="patch_12">
    <path d="M 111.691563 387.102 
L 659.174563 387.102 
" style="fill: none; stroke: #ffffff; stroke-width: 2.5; stroke-linejoin: miter; stroke-linecap: square"/>
   </g>
   <g id="legend_1">
    <g id="patch_13">
     <path d="M 464.174563 713.350941 
L 641.674563 713.350941 
Q 646.674563 713.350941 646.674563 708.350941 
L 646.674563 604.761097 
Q 646.674563 599.761097 641.674563 599.761097 
L 464.174563 599.761097 
Q 459.174563 599.761097 459.174563 604.761097 
L 459.174563 708.350941 
Q 459.174563 713.350941 464.174563 713.350941 
z
" style="fill: #eaeaf2; opacity: 0.8; stroke: #cccccc; stroke-width: 2; stroke-linejoin: miter"/>
    </g>
    <g id="line2d_25">
     <path d="M 469.174563 618.905628 
L 494.174563 618.905628 
L 519.174563 618.905628 
" style="fill: none; stroke: #4c72b0; stroke-width: 5; stroke-linecap: round"/>
    </g>
    <g id="text_19">
     <!-- $M_0$ -->
     <g style="fill: #262626" transform="translate(539.174563 627.655628) scale(0.25 -0.25)">
      <defs>
       <path id="DejaVuSans-Oblique-4d" d="M 1081 4666 
L 2028 4666 
L 2572 1522 
L 4378 4666 
L 5350 4666 
L 4441 0 
L 3828 0 
L 4622 4091 
L 2791 897 
L 2175 897 
L 1581 4103 
L 788 0 
L 172 0 
L 1081 4666 
z
" transform="scale(0.015625)"/>
       <path id="DejaVuSans-30" d="M 2034 4250 
Q 1547 4250 1301 3770 
Q 1056 3291 1056 2328 
Q 1056 1369 1301 889 
Q 1547 409 2034 409 
Q 2525 409 2770 889 
Q 3016 1369 3016 2328 
Q 3016 3291 2770 3770 
Q 2525 4250 2034 4250 
z
M 2034 4750 
Q 2819 4750 3233 4129 
Q 3647 3509 3647 2328 
Q 3647 1150 3233 529 
Q 2819 -91 2034 -91 
Q 1250 -91 836 529 
Q 422 1150 422 2328 
Q 422 3509 836 4129 
Q 1250 4750 2034 4750 
z
" transform="scale(0.015625)"/>
      </defs>
      <use xlink:href="#DejaVuSans-Oblique-4d" transform="translate(0 0.09375)"/>
      <use xlink:href="#DejaVuSans-30" transform="translate(86.279297 -16.3125) scale(0.7)"/>
     </g>
    </g>
    <g id="line2d_26">
     <path d="M 469.174563 654.268909 
L 494.174563 654.268909 
L 519.174563 654.268909 
" style="fill: none; stroke: #dd8452; stroke-width: 5; stroke-linecap: round"/>
    </g>
    <g id="text_20">
     <!-- $M_1$ -->
     <g style="fill: #262626" transform="translate(539.174563 663.018909) scale(0.25 -0.25)">
      <defs>
       <path id="DejaVuSans-31" d="M 794 531 
L 1825 531 
L 1825 4091 
L 703 3866 
L 703 4441 
L 1819 4666 
L 2450 4666 
L 2450 531 
L 3481 531 
L 3481 0 
L 794 0 
L 794 531 
z
" transform="scale(0.015625)"/>
      </defs>
      <use xlink:href="#DejaVuSans-Oblique-4d" transform="translate(0 0.09375)"/>
      <use xlink:href="#DejaVuSans-31" transform="translate(86.279297 -16.3125) scale(0.7)"/>
     </g>
    </g>
    <g id="line2d_27">
     <path d="M 469.174563 689.632191 
L 494.174563 689.632191 
L 519.174563 689.632191 
" style="fill: none; stroke: #55a868; stroke-width: 5; stroke-linecap: round"/>
    </g>
    <g id="text_21">
     <!-- $M_1+M_2$ -->
     <g style="fill: #262626" transform="translate(539.174563 698.382191) scale(0.25 -0.25)">
      <defs>
       <path id="DejaVuSans-2b" d="M 2944 4013 
L 2944 2272 
L 4684 2272 
L 4684 1741 
L 2944 1741 
L 2944 0 
L 2419 0 
L 2419 1741 
L 678 1741 
L 678 2272 
L 2419 2272 
L 2419 4013 
L 2944 4013 
z
" transform="scale(0.015625)"/>
       <path id="DejaVuSans-32" d="M 1228 531 
L 3431 531 
L 3431 0 
L 469 0 
L 469 531 
Q 828 903 1448 1529 
Q 2069 2156 2228 2338 
Q 2531 2678 2651 2914 
Q 2772 3150 2772 3378 
Q 2772 3750 2511 3984 
Q 2250 4219 1831 4219 
Q 1534 4219 1204 4116 
Q 875 4013 500 3803 
L 500 4441 
Q 881 4594 1212 4672 
Q 1544 4750 1819 4750 
Q 2544 4750 2975 4387 
Q 3406 4025 3406 3419 
Q 3406 3131 3298 2873 
Q 3191 2616 2906 2266 
Q 2828 2175 2409 1742 
Q 1991 1309 1228 531 
z
" transform="scale(0.015625)"/>
      </defs>
      <use xlink:href="#DejaVuSans-Oblique-4d" transform="translate(0 0.09375)"/>
      <use xlink:href="#DejaVuSans-31" transform="translate(86.279297 -16.3125) scale(0.7)"/>
      <use xlink:href="#DejaVuSans-2b" transform="translate(153.032227 0.09375)"/>
      <use xlink:href="#DejaVuSans-Oblique-4d" transform="translate(256.303711 0.09375)"/>
      <use xlink:href="#DejaVuSans-32" transform="translate(342.583008 -16.3125) scale(0.7)"/>
     </g>
    </g>
   </g>
  </g>
 </g>
 <defs>
  <clipPath id="p192a273326">
   <rect x="111.691563" y="7.2" width="547.483" height="338.748941"/>
  </clipPath>
  <clipPath id="p5573743cc4">
   <rect x="111.691563" y="387.102" width="547.483" height="338.748941"/>
  </clipPath>
 </defs>
</svg>
