<?xml version="1.0" encoding="utf-8" standalone="no"?>
<!DOCTYPE svg PUBLIC "-//W3C//DTD SVG 1.1//EN"
  "http://www.w3.org/Graphics/SVG/1.1/DTD/svg11.dtd">
<svg xmlns:xlink="http://www.w3.org/1999/xlink" width="663.481188pt" height="806.986054pt" viewBox="0 0 663.481188 806.986054" xmlns="http://www.w3.org/2000/svg" version="1.1">
 <metadata>
  <rdf:RDF xmlns:dc="http://purl.org/dc/elements/1.1/" xmlns:cc="http://creativecommons.org/ns#" xmlns:rdf="http://www.w3.org/1999/02/22-rdf-syntax-ns#">
   <cc:Work>
    <dc:type rdf:resource="http://purl.org/dc/dcmitype/StillImage"/>
    <dc:date>2024-03-05T16:45:50.597124</dc:date>
    <dc:format>image/svg+xml</dc:format>
    <dc:creator>
     <cc:Agent>
      <dc:title>Matplotlib v3.7.1, https://matplotlib.org/</dc:title>
     </cc:Agent>
    </dc:creator>
   </cc:Work>
  </rdf:RDF>
 </metadata>
 <defs>
  <style type="text/css">*{stroke-linejoin: round; stroke-linecap: butt}</style>
 </defs>
 <g id="figure_1">
  <g id="patch_1">
   <path d="M -0 806.986054 
L 663.481188 806.986054 
L 663.481188 0 
L -0 0 
z
" style="fill: #ffffff"/>
  </g>
  <g id="axes_1">
   <g id="patch_2">
    <path d="M 112.798188 345.695085 
L 656.281188 345.695085 
L 656.281188 9.429345 
L 112.798188 9.429345 
z
" style="fill: #eaeaf2"/>
   </g>
   <g id="matplotlib.axis_1">
    <g id="xtick_1">
     <g id="line2d_1">
      <path d="M 137.50196 345.695085 
L 137.50196 9.429345 
" clip-path="url(#p6a369a2be4)" style="fill: none; stroke: #ffffff; stroke-width: 2; stroke-linecap: round"/>
     </g>
    </g>
    <g id="xtick_2">
     <g id="line2d_2">
      <path d="M 242.626634 345.695085 
L 242.626634 9.429345 
" clip-path="url(#p6a369a2be4)" style="fill: none; stroke: #ffffff; stroke-width: 2; stroke-linecap: round"/>
     </g>
    </g>
    <g id="xtick_3">
     <g id="line2d_3">
      <path d="M 347.751308 345.695085 
L 347.751308 9.429345 
" clip-path="url(#p6a369a2be4)" style="fill: none; stroke: #ffffff; stroke-width: 2; stroke-linecap: round"/>
     </g>
    </g>
    <g id="xtick_4">
     <g id="line2d_4">
      <path d="M 452.875982 345.695085 
L 452.875982 9.429345 
" clip-path="url(#p6a369a2be4)" style="fill: none; stroke: #ffffff; stroke-width: 2; stroke-linecap: round"/>
     </g>
    </g>
    <g id="xtick_5">
     <g id="line2d_5">
      <path d="M 558.000656 345.695085 
L 558.000656 9.429345 
" clip-path="url(#p6a369a2be4)" style="fill: none; stroke: #ffffff; stroke-width: 2; stroke-linecap: round"/>
     </g>
    </g>
   </g>
   <g id="matplotlib.axis_2">
    <g id="ytick_1">
     <g id="line2d_6">
      <path d="M 112.798188 337.688758 
L 656.281188 337.688758 
" clip-path="url(#p6a369a2be4)" style="fill: none; stroke: #ffffff; stroke-width: 2; stroke-linecap: round"/>
     </g>
     <g id="text_1">
      <!-- −40 -->
      <g style="fill: #262626" transform="translate(48.785438 347.92443) scale(0.286 -0.286)">
       <defs>
        <path id="ArialMT-2212" d="M 3381 1997 
L 356 1997 
L 356 2522 
L 3381 2522 
L 3381 1997 
z
" transform="scale(0.015625)"/>
        <path id="ArialMT-34" d="M 2069 0 
L 2069 1097 
L 81 1097 
L 81 1613 
L 2172 4581 
L 2631 4581 
L 2631 1613 
L 3250 1613 
L 3250 1097 
L 2631 1097 
L 2631 0 
L 2069 0 
z
M 2069 1613 
L 2069 3678 
L 634 1613 
L 2069 1613 
z
" transform="scale(0.015625)"/>
        <path id="ArialMT-30" d="M 266 2259 
Q 266 3072 433 3567 
Q 600 4063 929 4331 
Q 1259 4600 1759 4600 
Q 2128 4600 2406 4451 
Q 2684 4303 2865 4023 
Q 3047 3744 3150 3342 
Q 3253 2941 3253 2259 
Q 3253 1453 3087 958 
Q 2922 463 2592 192 
Q 2263 -78 1759 -78 
Q 1097 -78 719 397 
Q 266 969 266 2259 
z
M 844 2259 
Q 844 1131 1108 757 
Q 1372 384 1759 384 
Q 2147 384 2411 759 
Q 2675 1134 2675 2259 
Q 2675 3391 2411 3762 
Q 2147 4134 1753 4134 
Q 1366 4134 1134 3806 
Q 844 3388 844 2259 
z
" transform="scale(0.015625)"/>
       </defs>
       <use xlink:href="#ArialMT-2212"/>
       <use xlink:href="#ArialMT-34" x="58.398438"/>
       <use xlink:href="#ArialMT-30" x="114.013672"/>
      </g>
     </g>
    </g>
    <g id="ytick_2">
     <g id="line2d_7">
      <path d="M 112.798188 257.625486 
L 656.281188 257.625486 
" clip-path="url(#p6a369a2be4)" style="fill: none; stroke: #ffffff; stroke-width: 2; stroke-linecap: round"/>
     </g>
     <g id="text_2">
      <!-- −20 -->
      <g style="fill: #262626" transform="translate(48.785438 267.861158) scale(0.286 -0.286)">
       <defs>
        <path id="ArialMT-32" d="M 3222 541 
L 3222 0 
L 194 0 
Q 188 203 259 391 
Q 375 700 629 1000 
Q 884 1300 1366 1694 
Q 2113 2306 2375 2664 
Q 2638 3022 2638 3341 
Q 2638 3675 2398 3904 
Q 2159 4134 1775 4134 
Q 1369 4134 1125 3890 
Q 881 3647 878 3216 
L 300 3275 
Q 359 3922 746 4261 
Q 1134 4600 1788 4600 
Q 2447 4600 2831 4234 
Q 3216 3869 3216 3328 
Q 3216 3053 3103 2787 
Q 2991 2522 2730 2228 
Q 2469 1934 1863 1422 
Q 1356 997 1212 845 
Q 1069 694 975 541 
L 3222 541 
z
" transform="scale(0.015625)"/>
       </defs>
       <use xlink:href="#ArialMT-2212"/>
       <use xlink:href="#ArialMT-32" x="58.398438"/>
       <use xlink:href="#ArialMT-30" x="114.013672"/>
      </g>
     </g>
    </g>
    <g id="ytick_3">
     <g id="line2d_8">
      <path d="M 112.798188 177.562215 
L 656.281188 177.562215 
" clip-path="url(#p6a369a2be4)" style="fill: none; stroke: #ffffff; stroke-width: 2; stroke-linecap: round"/>
     </g>
     <g id="text_3">
      <!-- 0 -->
      <g style="fill: #262626" transform="translate(81.393906 187.797887) scale(0.286 -0.286)">
       <use xlink:href="#ArialMT-30"/>
      </g>
     </g>
    </g>
    <g id="ytick_4">
     <g id="line2d_9">
      <path d="M 112.798188 97.498943 
L 656.281188 97.498943 
" clip-path="url(#p6a369a2be4)" style="fill: none; stroke: #ffffff; stroke-width: 2; stroke-linecap: round"/>
     </g>
     <g id="text_4">
      <!-- 20 -->
      <g style="fill: #262626" transform="translate(65.489625 107.734615) scale(0.286 -0.286)">
       <use xlink:href="#ArialMT-32"/>
       <use xlink:href="#ArialMT-30" x="55.615234"/>
      </g>
     </g>
    </g>
    <g id="ytick_5">
     <g id="line2d_10">
      <path d="M 112.798188 17.435672 
L 656.281188 17.435672 
" clip-path="url(#p6a369a2be4)" style="fill: none; stroke: #ffffff; stroke-width: 2; stroke-linecap: round"/>
     </g>
     <g id="text_5">
      <!-- 40 -->
      <g style="fill: #262626" transform="translate(65.489625 27.671344) scale(0.286 -0.286)">
       <use xlink:href="#ArialMT-34"/>
       <use xlink:href="#ArialMT-30" x="55.615234"/>
      </g>
     </g>
    </g>
    <g id="text_6">
     <!-- G(t) [mT/m] -->
     <g style="fill: #262626" transform="translate(38.218812 257.270902) rotate(-90) scale(0.312 -0.312)">
      <defs>
       <path id="ArialMT-47" d="M 2638 1797 
L 2638 2334 
L 4578 2338 
L 4578 638 
Q 4131 281 3656 101 
Q 3181 -78 2681 -78 
Q 2006 -78 1454 211 
Q 903 500 622 1047 
Q 341 1594 341 2269 
Q 341 2938 620 3517 
Q 900 4097 1425 4378 
Q 1950 4659 2634 4659 
Q 3131 4659 3532 4498 
Q 3934 4338 4162 4050 
Q 4391 3763 4509 3300 
L 3963 3150 
Q 3859 3500 3706 3700 
Q 3553 3900 3268 4020 
Q 2984 4141 2638 4141 
Q 2222 4141 1919 4014 
Q 1616 3888 1430 3681 
Q 1244 3475 1141 3228 
Q 966 2803 966 2306 
Q 966 1694 1177 1281 
Q 1388 869 1791 669 
Q 2194 469 2647 469 
Q 3041 469 3416 620 
Q 3791 772 3984 944 
L 3984 1797 
L 2638 1797 
z
" transform="scale(0.015625)"/>
       <path id="ArialMT-28" d="M 1497 -1347 
Q 1031 -759 709 28 
Q 388 816 388 1659 
Q 388 2403 628 3084 
Q 909 3875 1497 4659 
L 1900 4659 
Q 1522 4009 1400 3731 
Q 1209 3300 1100 2831 
Q 966 2247 966 1656 
Q 966 153 1900 -1347 
L 1497 -1347 
z
" transform="scale(0.015625)"/>
       <path id="ArialMT-74" d="M 1650 503 
L 1731 6 
Q 1494 -44 1306 -44 
Q 1000 -44 831 53 
Q 663 150 594 308 
Q 525 466 525 972 
L 525 2881 
L 113 2881 
L 113 3319 
L 525 3319 
L 525 4141 
L 1084 4478 
L 1084 3319 
L 1650 3319 
L 1650 2881 
L 1084 2881 
L 1084 941 
Q 1084 700 1114 631 
Q 1144 563 1211 522 
Q 1278 481 1403 481 
Q 1497 481 1650 503 
z
" transform="scale(0.015625)"/>
       <path id="ArialMT-29" d="M 791 -1347 
L 388 -1347 
Q 1322 153 1322 1656 
Q 1322 2244 1188 2822 
Q 1081 3291 891 3722 
Q 769 4003 388 4659 
L 791 4659 
Q 1378 3875 1659 3084 
Q 1900 2403 1900 1659 
Q 1900 816 1576 28 
Q 1253 -759 791 -1347 
z
" transform="scale(0.015625)"/>
       <path id="ArialMT-20" transform="scale(0.015625)"/>
       <path id="ArialMT-5b" d="M 434 -1272 
L 434 4581 
L 1675 4581 
L 1675 4116 
L 997 4116 
L 997 -806 
L 1675 -806 
L 1675 -1272 
L 434 -1272 
z
" transform="scale(0.015625)"/>
       <path id="ArialMT-6d" d="M 422 0 
L 422 3319 
L 925 3319 
L 925 2853 
Q 1081 3097 1340 3245 
Q 1600 3394 1931 3394 
Q 2300 3394 2536 3241 
Q 2772 3088 2869 2813 
Q 3263 3394 3894 3394 
Q 4388 3394 4653 3120 
Q 4919 2847 4919 2278 
L 4919 0 
L 4359 0 
L 4359 2091 
Q 4359 2428 4304 2576 
Q 4250 2725 4106 2815 
Q 3963 2906 3769 2906 
Q 3419 2906 3187 2673 
Q 2956 2441 2956 1928 
L 2956 0 
L 2394 0 
L 2394 2156 
Q 2394 2531 2256 2718 
Q 2119 2906 1806 2906 
Q 1569 2906 1367 2781 
Q 1166 2656 1075 2415 
Q 984 2175 984 1722 
L 984 0 
L 422 0 
z
" transform="scale(0.015625)"/>
       <path id="ArialMT-54" d="M 1659 0 
L 1659 4041 
L 150 4041 
L 150 4581 
L 3781 4581 
L 3781 4041 
L 2266 4041 
L 2266 0 
L 1659 0 
z
" transform="scale(0.015625)"/>
       <path id="ArialMT-2f" d="M 0 -78 
L 1328 4659 
L 1778 4659 
L 453 -78 
L 0 -78 
z
" transform="scale(0.015625)"/>
       <path id="ArialMT-5d" d="M 1363 -1272 
L 122 -1272 
L 122 -806 
L 800 -806 
L 800 4116 
L 122 4116 
L 122 4581 
L 1363 4581 
L 1363 -1272 
z
" transform="scale(0.015625)"/>
      </defs>
      <use xlink:href="#ArialMT-47"/>
      <use xlink:href="#ArialMT-28" x="77.783203"/>
      <use xlink:href="#ArialMT-74" x="111.083984"/>
      <use xlink:href="#ArialMT-29" x="138.867188"/>
      <use xlink:href="#ArialMT-20" x="172.167969"/>
      <use xlink:href="#ArialMT-5b" x="199.951172"/>
      <use xlink:href="#ArialMT-6d" x="227.734375"/>
      <use xlink:href="#ArialMT-54" x="311.035156"/>
      <use xlink:href="#ArialMT-2f" x="372.119141"/>
      <use xlink:href="#ArialMT-6d" x="399.902344"/>
      <use xlink:href="#ArialMT-5d" x="483.203125"/>
     </g>
    </g>
   </g>
   <g id="line2d_11">
    <path d="M 137.50196 177.562215 
L 191.073494 177.562215 
L 191.084006 174.245838 
L 191.094519 178.738801 
L 191.178619 178.738801 
L 191.189131 178.738801 
L 191.315281 183.445152 
L 191.399381 183.445152 
L 191.52553 188.151503 
L 191.60963 188.151503 
L 191.735779 192.857855 
L 191.819879 192.857855 
L 191.946029 197.564202 
L 192.030129 197.564202 
L 192.156278 202.270557 
L 192.240378 202.270557 
L 192.366528 206.9769 
L 192.450627 206.9769 
L 192.576777 211.683256 
L 192.660877 211.683256 
L 192.787026 216.389607 
L 192.871126 216.389607 
L 192.997276 221.095958 
L 193.081375 221.095958 
L 193.207525 225.802309 
L 193.291625 225.802309 
L 193.417774 230.508661 
L 193.501874 230.508661 
L 193.628024 235.215012 
L 193.712123 235.215012 
L 193.838273 239.921359 
L 193.922373 239.921359 
L 194.048522 244.627711 
L 194.132622 244.627711 
L 194.258772 249.334062 
L 194.342871 249.334062 
L 194.469021 254.040413 
L 194.553121 254.040413 
L 194.67927 258.746764 
L 194.76337 258.746764 
L 194.88952 263.453116 
L 194.973619 263.453116 
L 195.099769 268.159467 
L 195.183869 268.159467 
L 195.310018 272.865818 
L 195.394118 272.865818 
L 195.520268 277.572162 
L 195.604367 277.572162 
L 195.730517 282.278517 
L 195.814617 282.278517 
L 195.940766 286.984868 
L 196.024866 286.984868 
L 196.151016 291.691219 
L 196.235115 291.691219 
L 196.361265 296.397571 
L 196.445365 296.397571 
L 196.571514 301.103922 
L 196.655614 301.103922 
L 196.781764 305.810273 
L 196.865864 305.810273 
L 196.992013 310.516621 
L 197.076113 310.516621 
L 197.202262 315.222972 
L 197.286362 315.222972 
L 197.412512 319.929323 
L 197.496612 319.929323 
L 197.622761 324.635674 
L 197.706861 324.635674 
L 197.833011 329.342026 
L 197.91711 329.342026 
L 198.04326 332.871779 
L 315.76187 332.871779 
L 315.898532 329.342014 
L 315.972119 329.342014 
L 316.098269 324.635662 
L 316.182368 324.635662 
L 316.308518 319.929311 
L 316.392618 319.929311 
L 316.518767 315.22296 
L 316.602867 315.22296 
L 316.729017 310.516609 
L 316.813116 310.516609 
L 316.939266 305.810265 
L 317.023366 305.810265 
L 317.149515 301.10391 
L 317.233615 301.10391 
L 317.359765 296.397559 
L 317.443864 296.397559 
L 317.570014 291.691207 
L 317.654114 291.691207 
L 317.780263 286.984856 
L 317.864363 286.984856 
L 317.990513 282.278505 
L 318.074612 282.278505 
L 318.200762 277.572154 
L 318.284862 277.572154 
L 318.411011 272.865806 
L 318.495111 272.865806 
L 318.621261 268.159455 
L 318.705361 268.159455 
L 318.83151 263.453104 
L 318.91561 263.453104 
L 319.041759 258.746752 
L 319.125859 258.746752 
L 319.252009 254.040401 
L 319.336109 254.040401 
L 319.462258 249.33405 
L 319.546358 249.33405 
L 319.672508 244.627699 
L 319.756607 244.627699 
L 319.882757 239.921347 
L 319.966857 239.921347 
L 320.093006 235.215 
L 320.177106 235.215 
L 320.303256 230.508649 
L 320.387355 230.508649 
L 320.513505 225.802297 
L 320.597605 225.802297 
L 320.723754 221.095946 
L 320.807854 221.095946 
L 320.934004 216.389595 
L 321.018103 216.389595 
L 321.144253 211.683244 
L 321.228353 211.683244 
L 321.354502 206.976892 
L 321.438602 206.976892 
L 321.564752 202.270541 
L 321.648851 202.270541 
L 321.775001 197.564198 
L 321.859101 197.564198 
L 321.98525 192.857843 
L 322.06935 192.857843 
L 322.1955 188.151491 
L 322.279599 188.151491 
L 322.405749 183.44514 
L 322.489849 183.44514 
L 322.615998 178.738789 
L 322.700098 178.738789 
L 322.815735 177.562215 
L 406.169089 177.562215 
L 406.305751 181.091976 
L 406.379338 181.091976 
L 406.505488 185.798328 
L 406.589588 185.798328 
L 406.715737 190.504679 
L 406.799837 190.504679 
L 406.925987 195.21103 
L 407.010087 195.21103 
L 407.136236 199.917373 
L 407.220336 199.917373 
L 407.346485 204.623729 
L 407.430585 204.623729 
L 407.556735 209.33008 
L 407.640835 209.33008 
L 407.766984 214.036431 
L 407.851084 214.036431 
L 407.977234 218.742783 
L 408.061333 218.742783 
L 408.187483 223.449134 
L 408.271583 223.449134 
L 408.397732 228.155485 
L 408.481832 228.155485 
L 408.607982 232.861836 
L 408.692081 232.861836 
L 408.818231 237.568188 
L 408.902331 237.568188 
L 409.02848 242.274531 
L 409.11258 242.274531 
L 409.23873 246.980886 
L 409.322829 246.980886 
L 409.448979 251.687238 
L 409.533079 251.687238 
L 409.659228 256.393589 
L 409.743328 256.393589 
L 409.869478 261.09994 
L 409.953577 261.09994 
L 410.079727 265.806291 
L 410.163827 265.806291 
L 410.289976 270.512643 
L 410.374076 270.512643 
L 410.500226 275.21899 
L 410.584325 275.21899 
L 410.710475 279.925341 
L 410.794575 279.925341 
L 410.920724 284.631693 
L 411.004824 284.631693 
L 411.130974 289.338044 
L 411.215073 289.338044 
L 411.341223 294.044395 
L 411.425323 294.044395 
L 411.551472 298.750746 
L 411.635572 298.750746 
L 411.761722 303.457098 
L 411.845822 303.457098 
L 411.971971 308.163449 
L 412.056071 308.163449 
L 412.18222 312.869792 
L 412.26632 312.869792 
L 412.39247 317.576147 
L 412.47657 317.576147 
L 412.602719 322.282499 
L 412.686819 322.282499 
L 412.812969 326.98885 
L 412.897068 326.98885 
L 413.023218 331.695201 
L 413.107318 331.695201 
L 413.222955 332.871779 
L 530.846952 332.871779 
L 530.983614 329.342014 
L 531.057202 329.342014 
L 531.183351 324.635662 
L 531.267451 324.635662 
L 531.393601 319.929311 
L 531.4777 319.929311 
L 531.60385 315.22296 
L 531.68795 315.22296 
L 531.814099 310.516609 
L 531.898199 310.516609 
L 532.024349 305.810265 
L 532.108448 305.810265 
L 532.234598 301.10391 
L 532.318698 301.10391 
L 532.444847 296.397559 
L 532.528947 296.397559 
L 532.655097 291.691207 
L 532.739196 291.691207 
L 532.865346 286.984856 
L 532.949446 286.984856 
L 533.075595 282.278505 
L 533.159695 282.278505 
L 533.285845 277.572154 
L 533.369944 277.572154 
L 533.496094 272.865806 
L 533.580194 272.865806 
L 533.706343 268.159455 
L 533.790443 268.159455 
L 533.916593 263.453104 
L 534.000693 263.453104 
L 534.126842 258.746752 
L 534.210942 258.746752 
L 534.337091 254.040401 
L 534.421191 254.040401 
L 534.547341 249.33405 
L 534.631441 249.33405 
L 534.75759 244.627699 
L 534.84169 244.627699 
L 534.96784 239.921347 
L 535.051939 239.921347 
L 535.178089 235.215 
L 535.262189 235.215 
L 535.388338 230.508649 
L 535.472438 230.508649 
L 535.598588 225.802297 
L 535.682687 225.802297 
L 535.808837 221.095946 
L 535.892937 221.095946 
L 536.019086 216.389595 
L 536.103186 216.389595 
L 536.229336 211.683244 
L 536.313435 211.683244 
L 536.439585 206.976892 
L 536.523685 206.976892 
L 536.649834 202.270541 
L 536.733934 202.270541 
L 536.860084 197.564198 
L 536.944183 197.564198 
L 537.070333 192.857843 
L 537.154433 192.857843 
L 537.280582 188.151491 
L 537.364682 188.151491 
L 537.490832 183.44514 
L 537.574931 183.44514 
L 537.701081 178.738789 
L 537.774668 178.738789 
L 537.890305 177.562215 
L 631.577415 177.562215 
L 631.577415 177.562215 
" clip-path="url(#p6a369a2be4)" style="fill: none; stroke: #808080; stroke-width: 5; stroke-linecap: round"/>
   </g>
   <g id="line2d_12">
    <path d="M 112.798188 177.562215 
L 656.281188 177.562215 
" clip-path="url(#p6a369a2be4)" style="fill: none; stroke: #000000; stroke-width: 3; stroke-linecap: round"/>
   </g>
   <g id="patch_3">
    <path d="M 112.798188 345.695085 
L 112.798188 9.429345 
" style="fill: none; stroke: #ffffff; stroke-width: 2.5; stroke-linejoin: miter; stroke-linecap: square"/>
   </g>
   <g id="patch_4">
    <path d="M 656.281188 345.695085 
L 656.281188 9.429345 
" style="fill: none; stroke: #ffffff; stroke-width: 2.5; stroke-linejoin: miter; stroke-linecap: square"/>
   </g>
   <g id="patch_5">
    <path d="M 112.798188 345.695085 
L 656.281188 345.695085 
" style="fill: none; stroke: #ffffff; stroke-width: 2.5; stroke-linejoin: miter; stroke-linecap: square"/>
   </g>
   <g id="patch_6">
    <path d="M 112.798188 9.429345 
L 656.281188 9.429345 
" style="fill: none; stroke: #ffffff; stroke-width: 2.5; stroke-linejoin: miter; stroke-linecap: square"/>
   </g>
   <g id="text_7">
    <g id="patch_7">
     <path d="M 433.726698 324.568511 
L 639.976698 324.568511 
Q 652.476698 324.568511 652.476698 312.068511 
L 652.476698 288.818511 
Q 652.476698 276.318511 639.976698 276.318511 
L 433.726698 276.318511 
Q 421.226698 276.318511 421.226698 288.818511 
L 421.226698 312.068511 
Q 421.226698 324.568511 433.726698 324.568511 
z
" style="fill: #eaeaf2; opacity: 0.9; stroke: #d3d3d3; stroke-width: 2; stroke-linejoin: miter"/>
    </g>
    <!-- $G_{max}$ = 38.8 mT/m -->
    <g style="fill: #262626" transform="translate(433.726698 307.099761) scale(0.25 -0.25)">
     <defs>
      <path id="DejaVuSans-Oblique-47" d="M 3494 697 
L 3738 1919 
L 2700 1919 
L 2797 2438 
L 4453 2438 
L 4050 384 
Q 3634 156 3143 32 
Q 2653 -91 2156 -91 
Q 1278 -91 783 396 
Q 288 884 288 1753 
Q 288 2475 589 3126 
Q 891 3778 1422 4213 
Q 1756 4484 2153 4617 
Q 2550 4750 3034 4750 
Q 3472 4750 3873 4639 
Q 4275 4528 4641 4306 
L 4513 3634 
Q 4231 3928 3853 4083 
Q 3475 4238 3047 4238 
Q 2550 4238 2172 4048 
Q 1794 3859 1497 3463 
Q 1244 3125 1098 2667 
Q 953 2209 953 1734 
Q 953 1081 1287 751 
Q 1622 422 2284 422 
Q 2616 422 2925 492 
Q 3234 563 3494 697 
z
" transform="scale(0.015625)"/>
      <path id="DejaVuSans-Oblique-6d" d="M 5747 2113 
L 5338 0 
L 4763 0 
L 5166 2094 
Q 5191 2228 5203 2325 
Q 5216 2422 5216 2491 
Q 5216 2772 5059 2928 
Q 4903 3084 4622 3084 
Q 4203 3084 3875 2770 
Q 3547 2456 3450 1953 
L 3066 0 
L 2491 0 
L 2900 2094 
Q 2925 2209 2937 2307 
Q 2950 2406 2950 2484 
Q 2950 2769 2794 2926 
Q 2638 3084 2363 3084 
Q 1938 3084 1609 2770 
Q 1281 2456 1184 1953 
L 800 0 
L 225 0 
L 909 3500 
L 1484 3500 
L 1375 2956 
Q 1609 3263 1923 3423 
Q 2238 3584 2597 3584 
Q 2978 3584 3223 3384 
Q 3469 3184 3519 2828 
Q 3781 3197 4126 3390 
Q 4472 3584 4856 3584 
Q 5306 3584 5551 3325 
Q 5797 3066 5797 2591 
Q 5797 2488 5784 2364 
Q 5772 2241 5747 2113 
z
" transform="scale(0.015625)"/>
      <path id="DejaVuSans-Oblique-61" d="M 3438 1997 
L 3047 0 
L 2472 0 
L 2578 531 
Q 2325 219 2001 64 
Q 1678 -91 1281 -91 
Q 834 -91 548 182 
Q 263 456 263 884 
Q 263 1497 752 1853 
Q 1241 2209 2100 2209 
L 2900 2209 
L 2931 2363 
Q 2938 2388 2941 2417 
Q 2944 2447 2944 2509 
Q 2944 2788 2717 2942 
Q 2491 3097 2081 3097 
Q 1800 3097 1504 3025 
Q 1209 2953 897 2809 
L 997 3341 
Q 1322 3463 1633 3523 
Q 1944 3584 2234 3584 
Q 2853 3584 3176 3315 
Q 3500 3047 3500 2534 
Q 3500 2431 3484 2292 
Q 3469 2153 3438 1997 
z
M 2816 1759 
L 2241 1759 
Q 1534 1759 1195 1570 
Q 856 1381 856 984 
Q 856 709 1029 553 
Q 1203 397 1509 397 
Q 1978 397 2328 733 
Q 2678 1069 2791 1631 
L 2816 1759 
z
" transform="scale(0.015625)"/>
      <path id="DejaVuSans-Oblique-78" d="M 3841 3500 
L 2234 1784 
L 3219 0 
L 2559 0 
L 1819 1388 
L 531 0 
L -166 0 
L 1556 1844 
L 641 3500 
L 1300 3500 
L 1972 2234 
L 3144 3500 
L 3841 3500 
z
" transform="scale(0.015625)"/>
      <path id="ArialMT-3d" d="M 3381 2694 
L 356 2694 
L 356 3219 
L 3381 3219 
L 3381 2694 
z
M 3381 1303 
L 356 1303 
L 356 1828 
L 3381 1828 
L 3381 1303 
z
" transform="scale(0.015625)"/>
      <path id="ArialMT-33" d="M 269 1209 
L 831 1284 
Q 928 806 1161 595 
Q 1394 384 1728 384 
Q 2125 384 2398 659 
Q 2672 934 2672 1341 
Q 2672 1728 2419 1979 
Q 2166 2231 1775 2231 
Q 1616 2231 1378 2169 
L 1441 2663 
Q 1497 2656 1531 2656 
Q 1891 2656 2178 2843 
Q 2466 3031 2466 3422 
Q 2466 3731 2256 3934 
Q 2047 4138 1716 4138 
Q 1388 4138 1169 3931 
Q 950 3725 888 3313 
L 325 3413 
Q 428 3978 793 4289 
Q 1159 4600 1703 4600 
Q 2078 4600 2393 4439 
Q 2709 4278 2876 4000 
Q 3044 3722 3044 3409 
Q 3044 3113 2884 2869 
Q 2725 2625 2413 2481 
Q 2819 2388 3044 2092 
Q 3269 1797 3269 1353 
Q 3269 753 2831 336 
Q 2394 -81 1725 -81 
Q 1122 -81 723 278 
Q 325 638 269 1209 
z
" transform="scale(0.015625)"/>
      <path id="ArialMT-38" d="M 1131 2484 
Q 781 2613 612 2850 
Q 444 3088 444 3419 
Q 444 3919 803 4259 
Q 1163 4600 1759 4600 
Q 2359 4600 2725 4251 
Q 3091 3903 3091 3403 
Q 3091 3084 2923 2848 
Q 2756 2613 2416 2484 
Q 2838 2347 3058 2040 
Q 3278 1734 3278 1309 
Q 3278 722 2862 322 
Q 2447 -78 1769 -78 
Q 1091 -78 675 323 
Q 259 725 259 1325 
Q 259 1772 486 2073 
Q 713 2375 1131 2484 
z
M 1019 3438 
Q 1019 3113 1228 2906 
Q 1438 2700 1772 2700 
Q 2097 2700 2305 2904 
Q 2513 3109 2513 3406 
Q 2513 3716 2298 3927 
Q 2084 4138 1766 4138 
Q 1444 4138 1231 3931 
Q 1019 3725 1019 3438 
z
M 838 1322 
Q 838 1081 952 856 
Q 1066 631 1291 507 
Q 1516 384 1775 384 
Q 2178 384 2440 643 
Q 2703 903 2703 1303 
Q 2703 1709 2433 1975 
Q 2163 2241 1756 2241 
Q 1359 2241 1098 1978 
Q 838 1716 838 1322 
z
" transform="scale(0.015625)"/>
      <path id="ArialMT-2e" d="M 581 0 
L 581 641 
L 1222 641 
L 1222 0 
L 581 0 
z
" transform="scale(0.015625)"/>
     </defs>
     <use xlink:href="#DejaVuSans-Oblique-47" transform="translate(0 0.78125)"/>
     <use xlink:href="#DejaVuSans-Oblique-6d" transform="translate(77.490234 -15.625) scale(0.7)"/>
     <use xlink:href="#DejaVuSans-Oblique-61" transform="translate(145.678711 -15.625) scale(0.7)"/>
     <use xlink:href="#DejaVuSans-Oblique-78" transform="translate(188.574219 -15.625) scale(0.7)"/>
     <use xlink:href="#ArialMT-20" transform="translate(232.734375 0.78125)"/>
     <use xlink:href="#ArialMT-3d" transform="translate(260.517578 0.78125)"/>
     <use xlink:href="#ArialMT-20" transform="translate(318.916016 0.78125)"/>
     <use xlink:href="#ArialMT-33" transform="translate(346.699219 0.78125)"/>
     <use xlink:href="#ArialMT-38" transform="translate(402.314453 0.78125)"/>
     <use xlink:href="#ArialMT-2e" transform="translate(457.929688 0.78125)"/>
     <use xlink:href="#ArialMT-38" transform="translate(485.712891 0.78125)"/>
     <use xlink:href="#ArialMT-20" transform="translate(541.328125 0.78125)"/>
     <use xlink:href="#ArialMT-6d" transform="translate(569.111328 0.78125)"/>
     <use xlink:href="#ArialMT-54" transform="translate(652.412109 0.78125)"/>
     <use xlink:href="#ArialMT-2f" transform="translate(713.496094 0.78125)"/>
     <use xlink:href="#ArialMT-6d" transform="translate(741.279297 0.78125)"/>
    </g>
   </g>
  </g>
  <g id="axes_2">
   <g id="patch_8">
    <path d="M 112.798188 725.597085 
L 656.281188 725.597085 
L 656.281188 389.331345 
L 112.798188 389.331345 
z
" style="fill: #eaeaf2"/>
   </g>
   <g id="matplotlib.axis_3">
    <g id="xtick_6">
     <g id="line2d_13">
      <path d="M 137.50196 725.597085 
L 137.50196 389.331345 
" clip-path="url(#p6affd94134)" style="fill: none; stroke: #ffffff; stroke-width: 2; stroke-linecap: round"/>
     </g>
     <g id="text_8">
      <!-- 0 -->
      <g style="fill: #262626" transform="translate(129.54982 761.568429) scale(0.286 -0.286)">
       <use xlink:href="#ArialMT-30"/>
      </g>
     </g>
    </g>
    <g id="xtick_7">
     <g id="line2d_14">
      <path d="M 242.626634 725.597085 
L 242.626634 389.331345 
" clip-path="url(#p6affd94134)" style="fill: none; stroke: #ffffff; stroke-width: 2; stroke-linecap: round"/>
     </g>
     <g id="text_9">
      <!-- 10 -->
      <g style="fill: #262626" transform="translate(226.722353 761.568429) scale(0.286 -0.286)">
       <defs>
        <path id="ArialMT-31" d="M 2384 0 
L 1822 0 
L 1822 3584 
Q 1619 3391 1289 3197 
Q 959 3003 697 2906 
L 697 3450 
Q 1169 3672 1522 3987 
Q 1875 4303 2022 4600 
L 2384 4600 
L 2384 0 
z
" transform="scale(0.015625)"/>
       </defs>
       <use xlink:href="#ArialMT-31"/>
       <use xlink:href="#ArialMT-30" x="55.615234"/>
      </g>
     </g>
    </g>
    <g id="xtick_8">
     <g id="line2d_15">
      <path d="M 347.751308 725.597085 
L 347.751308 389.331345 
" clip-path="url(#p6affd94134)" style="fill: none; stroke: #ffffff; stroke-width: 2; stroke-linecap: round"/>
     </g>
     <g id="text_10">
      <!-- 20 -->
      <g style="fill: #262626" transform="translate(331.847027 761.568429) scale(0.286 -0.286)">
       <use xlink:href="#ArialMT-32"/>
       <use xlink:href="#ArialMT-30" x="55.615234"/>
      </g>
     </g>
    </g>
    <g id="xtick_9">
     <g id="line2d_16">
      <path d="M 452.875982 725.597085 
L 452.875982 389.331345 
" clip-path="url(#p6affd94134)" style="fill: none; stroke: #ffffff; stroke-width: 2; stroke-linecap: round"/>
     </g>
     <g id="text_11">
      <!-- 30 -->
      <g style="fill: #262626" transform="translate(436.9717 761.568429) scale(0.286 -0.286)">
       <use xlink:href="#ArialMT-33"/>
       <use xlink:href="#ArialMT-30" x="55.615234"/>
      </g>
     </g>
    </g>
    <g id="xtick_10">
     <g id="line2d_17">
      <path d="M 558.000656 725.597085 
L 558.000656 389.331345 
" clip-path="url(#p6affd94134)" style="fill: none; stroke: #ffffff; stroke-width: 2; stroke-linecap: round"/>
     </g>
     <g id="text_12">
      <!-- 40 -->
      <g style="fill: #262626" transform="translate(542.096374 761.568429) scale(0.286 -0.286)">
       <use xlink:href="#ArialMT-34"/>
       <use xlink:href="#ArialMT-30" x="55.615234"/>
      </g>
     </g>
    </g>
    <g id="text_13">
     <!-- Time [ms] -->
     <g style="fill: #262626" transform="translate(316.665062 793.585054) scale(0.312 -0.312)">
      <defs>
       <path id="ArialMT-69" d="M 425 3934 
L 425 4581 
L 988 4581 
L 988 3934 
L 425 3934 
z
M 425 0 
L 425 3319 
L 988 3319 
L 988 0 
L 425 0 
z
" transform="scale(0.015625)"/>
       <path id="ArialMT-65" d="M 2694 1069 
L 3275 997 
Q 3138 488 2766 206 
Q 2394 -75 1816 -75 
Q 1088 -75 661 373 
Q 234 822 234 1631 
Q 234 2469 665 2931 
Q 1097 3394 1784 3394 
Q 2450 3394 2872 2941 
Q 3294 2488 3294 1666 
Q 3294 1616 3291 1516 
L 816 1516 
Q 847 969 1125 678 
Q 1403 388 1819 388 
Q 2128 388 2347 550 
Q 2566 713 2694 1069 
z
M 847 1978 
L 2700 1978 
Q 2663 2397 2488 2606 
Q 2219 2931 1791 2931 
Q 1403 2931 1139 2672 
Q 875 2413 847 1978 
z
" transform="scale(0.015625)"/>
       <path id="ArialMT-73" d="M 197 991 
L 753 1078 
Q 800 744 1014 566 
Q 1228 388 1613 388 
Q 2000 388 2187 545 
Q 2375 703 2375 916 
Q 2375 1106 2209 1216 
Q 2094 1291 1634 1406 
Q 1016 1563 777 1677 
Q 538 1791 414 1992 
Q 291 2194 291 2438 
Q 291 2659 392 2848 
Q 494 3038 669 3163 
Q 800 3259 1026 3326 
Q 1253 3394 1513 3394 
Q 1903 3394 2198 3281 
Q 2494 3169 2634 2976 
Q 2775 2784 2828 2463 
L 2278 2388 
Q 2241 2644 2061 2787 
Q 1881 2931 1553 2931 
Q 1166 2931 1000 2803 
Q 834 2675 834 2503 
Q 834 2394 903 2306 
Q 972 2216 1119 2156 
Q 1203 2125 1616 2013 
Q 2213 1853 2448 1751 
Q 2684 1650 2818 1456 
Q 2953 1263 2953 975 
Q 2953 694 2789 445 
Q 2625 197 2315 61 
Q 2006 -75 1616 -75 
Q 969 -75 630 194 
Q 291 463 197 991 
z
" transform="scale(0.015625)"/>
      </defs>
      <use xlink:href="#ArialMT-54"/>
      <use xlink:href="#ArialMT-69" x="57.333984"/>
      <use xlink:href="#ArialMT-6d" x="79.550781"/>
      <use xlink:href="#ArialMT-65" x="162.851562"/>
      <use xlink:href="#ArialMT-20" x="218.466797"/>
      <use xlink:href="#ArialMT-5b" x="246.25"/>
      <use xlink:href="#ArialMT-6d" x="274.033203"/>
      <use xlink:href="#ArialMT-73" x="357.333984"/>
      <use xlink:href="#ArialMT-5d" x="407.333984"/>
     </g>
    </g>
   </g>
   <g id="matplotlib.axis_4">
    <g id="ytick_6">
     <g id="line2d_18">
      <path d="M 112.798188 710.312279 
L 656.281188 710.312279 
" clip-path="url(#p6affd94134)" style="fill: none; stroke: #ffffff; stroke-width: 2; stroke-linecap: round"/>
     </g>
     <g id="text_14">
      <!-- −1.0 -->
      <g style="fill: #262626" transform="translate(40.84 720.54795) scale(0.286 -0.286)">
       <use xlink:href="#ArialMT-2212"/>
       <use xlink:href="#ArialMT-31" x="58.398438"/>
       <use xlink:href="#ArialMT-2e" x="114.013672"/>
       <use xlink:href="#ArialMT-30" x="141.796875"/>
      </g>
     </g>
    </g>
    <g id="ytick_7">
     <g id="line2d_19">
      <path d="M 112.798188 633.888247 
L 656.281188 633.888247 
" clip-path="url(#p6affd94134)" style="fill: none; stroke: #ffffff; stroke-width: 2; stroke-linecap: round"/>
     </g>
     <g id="text_15">
      <!-- −0.5 -->
      <g style="fill: #262626" transform="translate(40.84 644.123919) scale(0.286 -0.286)">
       <defs>
        <path id="ArialMT-35" d="M 266 1200 
L 856 1250 
Q 922 819 1161 601 
Q 1400 384 1738 384 
Q 2144 384 2425 690 
Q 2706 997 2706 1503 
Q 2706 1984 2436 2262 
Q 2166 2541 1728 2541 
Q 1456 2541 1237 2417 
Q 1019 2294 894 2097 
L 366 2166 
L 809 4519 
L 3088 4519 
L 3088 3981 
L 1259 3981 
L 1013 2750 
Q 1425 3038 1878 3038 
Q 2478 3038 2890 2622 
Q 3303 2206 3303 1553 
Q 3303 931 2941 478 
Q 2500 -78 1738 -78 
Q 1113 -78 717 272 
Q 322 622 266 1200 
z
" transform="scale(0.015625)"/>
       </defs>
       <use xlink:href="#ArialMT-2212"/>
       <use xlink:href="#ArialMT-30" x="58.398438"/>
       <use xlink:href="#ArialMT-2e" x="114.013672"/>
       <use xlink:href="#ArialMT-35" x="141.796875"/>
      </g>
     </g>
    </g>
    <g id="ytick_8">
     <g id="line2d_20">
      <path d="M 112.798188 557.464215 
L 656.281188 557.464215 
" clip-path="url(#p6affd94134)" style="fill: none; stroke: #ffffff; stroke-width: 2; stroke-linecap: round"/>
     </g>
     <g id="text_16">
      <!-- 0.0 -->
      <g style="fill: #262626" transform="translate(57.544188 567.699887) scale(0.286 -0.286)">
       <use xlink:href="#ArialMT-30"/>
       <use xlink:href="#ArialMT-2e" x="55.615234"/>
       <use xlink:href="#ArialMT-30" x="83.398438"/>
      </g>
     </g>
    </g>
    <g id="ytick_9">
     <g id="line2d_21">
      <path d="M 112.798188 481.040183 
L 656.281188 481.040183 
" clip-path="url(#p6affd94134)" style="fill: none; stroke: #ffffff; stroke-width: 2; stroke-linecap: round"/>
     </g>
     <g id="text_17">
      <!-- 0.5 -->
      <g style="fill: #262626" transform="translate(57.544188 491.275855) scale(0.286 -0.286)">
       <use xlink:href="#ArialMT-30"/>
       <use xlink:href="#ArialMT-2e" x="55.615234"/>
       <use xlink:href="#ArialMT-35" x="83.398438"/>
      </g>
     </g>
    </g>
    <g id="ytick_10">
     <g id="line2d_22">
      <path d="M 112.798188 404.616151 
L 656.281188 404.616151 
" clip-path="url(#p6affd94134)" style="fill: none; stroke: #ffffff; stroke-width: 2; stroke-linecap: round"/>
     </g>
     <g id="text_18">
      <!-- 1.0 -->
      <g style="fill: #262626" transform="translate(57.544188 414.851823) scale(0.286 -0.286)">
       <use xlink:href="#ArialMT-31"/>
       <use xlink:href="#ArialMT-2e" x="55.615234"/>
       <use xlink:href="#ArialMT-30" x="83.398438"/>
      </g>
     </g>
    </g>
    <g id="text_19">
     <!-- $M_n$(t) [AU] -->
     <g style="fill: #262626" transform="translate(29.976 627.820215) rotate(-90) scale(0.312 -0.312)">
      <defs>
       <path id="DejaVuSans-Oblique-4d" d="M 1081 4666 
L 2028 4666 
L 2572 1522 
L 4378 4666 
L 5350 4666 
L 4441 0 
L 3828 0 
L 4622 4091 
L 2791 897 
L 2175 897 
L 1581 4103 
L 788 0 
L 172 0 
L 1081 4666 
z
" transform="scale(0.015625)"/>
       <path id="DejaVuSans-Oblique-6e" d="M 3566 2113 
L 3156 0 
L 2578 0 
L 2988 2091 
Q 3016 2238 3031 2350 
Q 3047 2463 3047 2528 
Q 3047 2791 2881 2937 
Q 2716 3084 2419 3084 
Q 1956 3084 1622 2776 
Q 1288 2469 1184 1941 
L 800 0 
L 225 0 
L 903 3500 
L 1478 3500 
L 1363 2950 
Q 1603 3253 1940 3418 
Q 2278 3584 2650 3584 
Q 3113 3584 3367 3334 
Q 3622 3084 3622 2631 
Q 3622 2519 3608 2391 
Q 3594 2263 3566 2113 
z
" transform="scale(0.015625)"/>
       <path id="ArialMT-41" d="M -9 0 
L 1750 4581 
L 2403 4581 
L 4278 0 
L 3588 0 
L 3053 1388 
L 1138 1388 
L 634 0 
L -9 0 
z
M 1313 1881 
L 2866 1881 
L 2388 3150 
Q 2169 3728 2063 4100 
Q 1975 3659 1816 3225 
L 1313 1881 
z
" transform="scale(0.015625)"/>
       <path id="ArialMT-55" d="M 3500 4581 
L 4106 4581 
L 4106 1934 
Q 4106 1244 3950 837 
Q 3794 431 3386 176 
Q 2978 -78 2316 -78 
Q 1672 -78 1262 144 
Q 853 366 678 786 
Q 503 1206 503 1934 
L 503 4581 
L 1109 4581 
L 1109 1938 
Q 1109 1341 1220 1058 
Q 1331 775 1601 622 
Q 1872 469 2263 469 
Q 2931 469 3215 772 
Q 3500 1075 3500 1938 
L 3500 4581 
z
" transform="scale(0.015625)"/>
      </defs>
      <use xlink:href="#DejaVuSans-Oblique-4d" transform="translate(0 0.09375)"/>
      <use xlink:href="#DejaVuSans-Oblique-6e" transform="translate(86.279297 -16.3125) scale(0.7)"/>
      <use xlink:href="#ArialMT-28" transform="translate(133.378906 0.09375)"/>
      <use xlink:href="#ArialMT-74" transform="translate(166.679688 0.09375)"/>
      <use xlink:href="#ArialMT-29" transform="translate(194.462891 0.09375)"/>
      <use xlink:href="#ArialMT-20" transform="translate(227.763672 0.09375)"/>
      <use xlink:href="#ArialMT-5b" transform="translate(255.546875 0.09375)"/>
      <use xlink:href="#ArialMT-41" transform="translate(283.330078 0.09375)"/>
      <use xlink:href="#ArialMT-55" transform="translate(350.029297 0.09375)"/>
      <use xlink:href="#ArialMT-5d" transform="translate(422.246094 0.09375)"/>
     </g>
    </g>
   </g>
   <g id="line2d_23">
    <path d="M 137.50196 557.464215 
L 192.198328 557.573876 
L 193.31265 557.902903 
L 194.500558 558.495445 
L 195.709492 559.354138 
L 197.034063 560.591945 
L 198.432221 562.219508 
L 317.17054 707.61074 
L 318.505624 708.757844 
L 319.788145 709.562936 
L 320.997078 710.055891 
L 322.1114 710.281426 
L 323.499046 710.312279 
L 407.283411 710.202342 
L 408.397732 709.873315 
L 409.585641 709.280773 
L 410.794575 708.42208 
L 412.119146 707.184273 
L 413.517304 705.55671 
L 532.255623 560.165478 
L 533.590706 559.018374 
L 534.873227 558.213282 
L 536.082161 557.720327 
L 537.196483 557.494792 
L 538.584128 557.464037 
L 631.577415 557.464037 
L 631.577415 557.464037 
" clip-path="url(#p6affd94134)" style="fill: none; stroke: #1f77b4; stroke-width: 5; stroke-linecap: round"/>
   </g>
   <g id="line2d_24">
    <path d="M 137.50196 557.464215 
L 193.291625 557.574364 
L 195.478218 557.912436 
L 197.528149 558.451538 
L 201.165463 559.727721 
L 207.609605 562.184648 
L 214.085285 564.892036 
L 220.603015 567.858356 
L 227.173307 571.093668 
L 233.785649 574.598106 
L 240.450553 578.382595 
L 247.178532 582.459695 
L 253.959074 586.829685 
L 260.80269 591.506047 
L 267.709381 596.496163 
L 274.679147 601.807481 
L 281.711988 607.447518 
L 288.818416 613.432927 
L 295.998431 619.77265 
L 303.252033 626.475721 
L 310.579223 633.551267 
L 317.790776 640.510074 
L 319.178422 641.379597 
L 320.481968 641.939944 
L 321.690901 642.233921 
L 322.941885 642.31132 
L 407.167774 642.200673 
L 408.17697 641.864075 
L 409.259755 641.248775 
L 410.363564 640.349401 
L 411.467373 639.172339 
L 412.697331 637.53178 
L 415.115199 633.741594 
L 423.661835 620.009452 
L 432.303083 605.702012 
L 441.038943 590.805294 
L 449.869416 575.305164 
L 458.794501 559.187338 
L 467.814198 542.437375 
L 476.928507 525.040684 
L 486.147941 506.961629 
L 495.461987 488.205086 
L 504.870645 468.755987 
L 514.384428 448.576528 
L 523.992824 427.672766 
L 532.560484 409.065546 
L 533.737881 407.291574 
L 534.79964 406.074668 
L 535.766787 405.283842 
L 536.639322 404.831604 
L 537.522369 404.627775 
L 538.941552 404.616151 
L 631.577415 404.616151 
L 631.577415 404.616151 
" clip-path="url(#p6affd94134)" style="fill: none; stroke: #ff7f0e; stroke-width: 5; stroke-linecap: round"/>
   </g>
   <g id="line2d_25">
    <path d="M 137.50196 557.464215 
L 197.160213 557.575282 
L 206.064273 558.033259 
L 217.133901 558.798024 
L 227.467656 559.732466 
L 237.233738 560.836898 
L 246.547784 562.11246 
L 255.483382 563.559257 
L 264.103605 565.179023 
L 272.450504 566.97244 
L 280.566129 568.942462 
L 288.482017 571.091899 
L 296.219193 573.422354 
L 303.809194 575.940291 
L 311.262534 578.647003 
L 318.600236 581.311863 
L 320.639655 581.688446 
L 322.573949 581.817817 
L 333.990488 581.818366 
L 407.462123 581.708289 
L 408.776181 581.368463 
L 410.04819 580.816277 
L 411.341223 580.025516 
L 412.749894 578.895841 
L 415.399036 576.359914 
L 422.032402 569.771706 
L 428.665769 562.869044 
L 435.299136 555.644596 
L 441.943016 548.078795 
L 448.597407 540.162691 
L 455.262312 531.887261 
L 461.948241 523.229512 
L 468.644683 514.193014 
L 475.362149 504.753416 
L 482.100641 494.899544 
L 488.87067 484.603774 
L 495.661724 473.869647 
L 502.484315 462.667896 
L 509.338444 450.984681 
L 516.22411 438.805915 
L 523.141314 426.117257 
L 530.090055 412.904111 
L 532.213573 409.034342 
L 533.485582 407.258594 
L 534.641953 406.033841 
L 535.703712 405.240148 
L 536.681372 404.792418 
L 537.574931 404.622397 
L 540.139973 404.616151 
L 631.577415 404.616151 
L 631.577415 404.616151 
" clip-path="url(#p6affd94134)" style="fill: none; stroke: #2ca02c; stroke-width: 5; stroke-linecap: round"/>
   </g>
   <g id="line2d_26">
    <path d="M 112.798188 557.464215 
L 656.281188 557.464215 
" clip-path="url(#p6affd94134)" style="fill: none; stroke: #000000; stroke-width: 3; stroke-linecap: round"/>
   </g>
   <g id="patch_9">
    <path d="M 112.798188 725.597085 
L 112.798188 389.331345 
" style="fill: none; stroke: #ffffff; stroke-width: 2.5; stroke-linejoin: miter; stroke-linecap: square"/>
   </g>
   <g id="patch_10">
    <path d="M 656.281188 725.597085 
L 656.281188 389.331345 
" style="fill: none; stroke: #ffffff; stroke-width: 2.5; stroke-linejoin: miter; stroke-linecap: square"/>
   </g>
   <g id="patch_11">
    <path d="M 112.798188 725.597085 
L 656.281188 725.597085 
" style="fill: none; stroke: #ffffff; stroke-width: 2.5; stroke-linejoin: miter; stroke-linecap: square"/>
   </g>
   <g id="patch_12">
    <path d="M 112.798188 389.331345 
L 656.281188 389.331345 
" style="fill: none; stroke: #ffffff; stroke-width: 2.5; stroke-linejoin: miter; stroke-linecap: square"/>
   </g>
   <g id="legend_1">
    <g id="patch_13">
     <path d="M 525.281188 713.097085 
L 638.781188 713.097085 
Q 643.781188 713.097085 643.781188 708.097085 
L 643.781188 604.507241 
Q 643.781188 599.507241 638.781188 599.507241 
L 525.281188 599.507241 
Q 520.281188 599.507241 520.281188 604.507241 
L 520.281188 708.097085 
Q 520.281188 713.097085 525.281188 713.097085 
z
" style="fill: #eaeaf2; opacity: 0.8; stroke: #cccccc; stroke-width: 2; stroke-linejoin: miter"/>
    </g>
    <g id="line2d_27">
     <path d="M 530.281188 618.651772 
L 555.281188 618.651772 
L 580.281188 618.651772 
" style="fill: none; stroke: #1f77b4; stroke-width: 5; stroke-linecap: round"/>
    </g>
    <g id="text_20">
     <!-- $M_0$ -->
     <g style="fill: #262626" transform="translate(600.281188 627.401772) scale(0.25 -0.25)">
      <defs>
       <path id="DejaVuSans-30" d="M 2034 4250 
Q 1547 4250 1301 3770 
Q 1056 3291 1056 2328 
Q 1056 1369 1301 889 
Q 1547 409 2034 409 
Q 2525 409 2770 889 
Q 3016 1369 3016 2328 
Q 3016 3291 2770 3770 
Q 2525 4250 2034 4250 
z
M 2034 4750 
Q 2819 4750 3233 4129 
Q 3647 3509 3647 2328 
Q 3647 1150 3233 529 
Q 2819 -91 2034 -91 
Q 1250 -91 836 529 
Q 422 1150 422 2328 
Q 422 3509 836 4129 
Q 1250 4750 2034 4750 
z
" transform="scale(0.015625)"/>
      </defs>
      <use xlink:href="#DejaVuSans-Oblique-4d" transform="translate(0 0.09375)"/>
      <use xlink:href="#DejaVuSans-30" transform="translate(86.279297 -16.3125) scale(0.7)"/>
     </g>
    </g>
    <g id="line2d_28">
     <path d="M 530.281188 654.015054 
L 555.281188 654.015054 
L 580.281188 654.015054 
" style="fill: none; stroke: #ff7f0e; stroke-width: 5; stroke-linecap: round"/>
    </g>
    <g id="text_21">
     <!-- $M_1$ -->
     <g style="fill: #262626" transform="translate(600.281188 662.765054) scale(0.25 -0.25)">
      <defs>
       <path id="DejaVuSans-31" d="M 794 531 
L 1825 531 
L 1825 4091 
L 703 3866 
L 703 4441 
L 1819 4666 
L 2450 4666 
L 2450 531 
L 3481 531 
L 3481 0 
L 794 0 
L 794 531 
z
" transform="scale(0.015625)"/>
      </defs>
      <use xlink:href="#DejaVuSans-Oblique-4d" transform="translate(0 0.09375)"/>
      <use xlink:href="#DejaVuSans-31" transform="translate(86.279297 -16.3125) scale(0.7)"/>
     </g>
    </g>
    <g id="line2d_29">
     <path d="M 530.281188 689.378335 
L 555.281188 689.378335 
L 580.281188 689.378335 
" style="fill: none; stroke: #2ca02c; stroke-width: 5; stroke-linecap: round"/>
    </g>
    <g id="text_22">
     <!-- $M_2$ -->
     <g style="fill: #262626" transform="translate(600.281188 698.128335) scale(0.25 -0.25)">
      <defs>
       <path id="DejaVuSans-32" d="M 1228 531 
L 3431 531 
L 3431 0 
L 469 0 
L 469 531 
Q 828 903 1448 1529 
Q 2069 2156 2228 2338 
Q 2531 2678 2651 2914 
Q 2772 3150 2772 3378 
Q 2772 3750 2511 3984 
Q 2250 4219 1831 4219 
Q 1534 4219 1204 4116 
Q 875 4013 500 3803 
L 500 4441 
Q 881 4594 1212 4672 
Q 1544 4750 1819 4750 
Q 2544 4750 2975 4387 
Q 3406 4025 3406 3419 
Q 3406 3131 3298 2873 
Q 3191 2616 2906 2266 
Q 2828 2175 2409 1742 
Q 1991 1309 1228 531 
z
" transform="scale(0.015625)"/>
      </defs>
      <use xlink:href="#DejaVuSans-Oblique-4d" transform="translate(0 0.09375)"/>
      <use xlink:href="#DejaVuSans-32" transform="translate(86.279297 -16.3125) scale(0.7)"/>
     </g>
    </g>
   </g>
  </g>
 </g>
 <defs>
  <clipPath id="p6a369a2be4">
   <rect x="112.798188" y="9.429345" width="543.483" height="336.26574"/>
  </clipPath>
  <clipPath id="p6affd94134">
   <rect x="112.798188" y="389.331345" width="543.483" height="336.26574"/>
  </clipPath>
 </defs>
</svg>
