<?xml version="1.0" encoding="utf-8" standalone="no"?>
<!DOCTYPE svg PUBLIC "-//W3C//DTD SVG 1.1//EN"
  "http://www.w3.org/Graphics/SVG/1.1/DTD/svg11.dtd">
<svg xmlns:xlink="http://www.w3.org/1999/xlink" width="709.273187pt" height="851.960339pt" viewBox="0 0 709.273187 851.960339" xmlns="http://www.w3.org/2000/svg" version="1.1">
 <metadata>
  <rdf:RDF xmlns:dc="http://purl.org/dc/elements/1.1/" xmlns:cc="http://creativecommons.org/ns#" xmlns:rdf="http://www.w3.org/1999/02/22-rdf-syntax-ns#">
   <cc:Work>
    <dc:type rdf:resource="http://purl.org/dc/dcmitype/StillImage"/>
    <dc:date>2024-03-06T08:54:33.045212</dc:date>
    <dc:format>image/svg+xml</dc:format>
    <dc:creator>
     <cc:Agent>
      <dc:title>Matplotlib v3.7.1, https://matplotlib.org/</dc:title>
     </cc:Agent>
    </dc:creator>
   </cc:Work>
  </rdf:RDF>
 </metadata>
 <defs>
  <style type="text/css">*{stroke-linejoin: round; stroke-linecap: butt}</style>
 </defs>
 <g id="figure_1">
  <g id="patch_1">
   <path d="M 0 851.960339 
L 709.273187 851.960339 
L 709.273187 0 
L 0 0 
L 0 851.960339 
z
" style="fill: none"/>
  </g>
  <g id="axes_1">
   <g id="patch_2">
    <path d="M 112.798188 379.221371 
L 702.073188 379.221371 
L 702.073188 8.61163 
L 112.798188 8.61163 
z
" style="fill: #eaeaf2"/>
   </g>
   <g id="matplotlib.axis_1">
    <g id="xtick_1">
     <g id="line2d_1">
      <path d="M 139.583415 379.221371 
L 139.583415 8.61163 
" clip-path="url(#p3e19d6fc30)" style="fill: none; stroke: #ffffff; stroke-width: 2; stroke-linecap: round"/>
     </g>
    </g>
    <g id="xtick_2">
     <g id="line2d_2">
      <path d="M 282.439865 379.221371 
L 282.439865 8.61163 
" clip-path="url(#p3e19d6fc30)" style="fill: none; stroke: #ffffff; stroke-width: 2; stroke-linecap: round"/>
     </g>
    </g>
    <g id="xtick_3">
     <g id="line2d_3">
      <path d="M 425.296315 379.221371 
L 425.296315 8.61163 
" clip-path="url(#p3e19d6fc30)" style="fill: none; stroke: #ffffff; stroke-width: 2; stroke-linecap: round"/>
     </g>
    </g>
    <g id="xtick_4">
     <g id="line2d_4">
      <path d="M 568.152765 379.221371 
L 568.152765 8.61163 
" clip-path="url(#p3e19d6fc30)" style="fill: none; stroke: #ffffff; stroke-width: 2; stroke-linecap: round"/>
     </g>
    </g>
   </g>
   <g id="matplotlib.axis_2">
    <g id="ytick_1">
     <g id="line2d_5">
      <path d="M 112.798188 370.397329 
L 702.073188 370.397329 
" clip-path="url(#p3e19d6fc30)" style="fill: none; stroke: #ffffff; stroke-width: 2; stroke-linecap: round"/>
     </g>
     <g id="text_1">
      <!-- −40 -->
      <g style="fill: #262626" transform="translate(48.785438 380.633001) scale(0.286 -0.286)">
       <defs>
        <path id="ArialMT-2212" d="M 3381 1997 
L 356 1997 
L 356 2522 
L 3381 2522 
L 3381 1997 
z
" transform="scale(0.015625)"/>
        <path id="ArialMT-34" d="M 2069 0 
L 2069 1097 
L 81 1097 
L 81 1613 
L 2172 4581 
L 2631 4581 
L 2631 1613 
L 3250 1613 
L 3250 1097 
L 2631 1097 
L 2631 0 
L 2069 0 
z
M 2069 1613 
L 2069 3678 
L 634 1613 
L 2069 1613 
z
" transform="scale(0.015625)"/>
        <path id="ArialMT-30" d="M 266 2259 
Q 266 3072 433 3567 
Q 600 4063 929 4331 
Q 1259 4600 1759 4600 
Q 2128 4600 2406 4451 
Q 2684 4303 2865 4023 
Q 3047 3744 3150 3342 
Q 3253 2941 3253 2259 
Q 3253 1453 3087 958 
Q 2922 463 2592 192 
Q 2263 -78 1759 -78 
Q 1097 -78 719 397 
Q 266 969 266 2259 
z
M 844 2259 
Q 844 1131 1108 757 
Q 1372 384 1759 384 
Q 2147 384 2411 759 
Q 2675 1134 2675 2259 
Q 2675 3391 2411 3762 
Q 2147 4134 1753 4134 
Q 1366 4134 1134 3806 
Q 844 3388 844 2259 
z
" transform="scale(0.015625)"/>
       </defs>
       <use xlink:href="#ArialMT-2212"/>
       <use xlink:href="#ArialMT-34" x="58.398438"/>
       <use xlink:href="#ArialMT-30" x="114.013672"/>
      </g>
     </g>
    </g>
    <g id="ytick_2">
     <g id="line2d_6">
      <path d="M 112.798188 282.156915 
L 702.073188 282.156915 
" clip-path="url(#p3e19d6fc30)" style="fill: none; stroke: #ffffff; stroke-width: 2; stroke-linecap: round"/>
     </g>
     <g id="text_2">
      <!-- −20 -->
      <g style="fill: #262626" transform="translate(48.785438 292.392587) scale(0.286 -0.286)">
       <defs>
        <path id="ArialMT-32" d="M 3222 541 
L 3222 0 
L 194 0 
Q 188 203 259 391 
Q 375 700 629 1000 
Q 884 1300 1366 1694 
Q 2113 2306 2375 2664 
Q 2638 3022 2638 3341 
Q 2638 3675 2398 3904 
Q 2159 4134 1775 4134 
Q 1369 4134 1125 3890 
Q 881 3647 878 3216 
L 300 3275 
Q 359 3922 746 4261 
Q 1134 4600 1788 4600 
Q 2447 4600 2831 4234 
Q 3216 3869 3216 3328 
Q 3216 3053 3103 2787 
Q 2991 2522 2730 2228 
Q 2469 1934 1863 1422 
Q 1356 997 1212 845 
Q 1069 694 975 541 
L 3222 541 
z
" transform="scale(0.015625)"/>
       </defs>
       <use xlink:href="#ArialMT-2212"/>
       <use xlink:href="#ArialMT-32" x="58.398438"/>
       <use xlink:href="#ArialMT-30" x="114.013672"/>
      </g>
     </g>
    </g>
    <g id="ytick_3">
     <g id="line2d_7">
      <path d="M 112.798188 193.916501 
L 702.073188 193.916501 
" clip-path="url(#p3e19d6fc30)" style="fill: none; stroke: #ffffff; stroke-width: 2; stroke-linecap: round"/>
     </g>
     <g id="text_3">
      <!-- 0 -->
      <g style="fill: #262626" transform="translate(81.393906 204.152172) scale(0.286 -0.286)">
       <use xlink:href="#ArialMT-30"/>
      </g>
     </g>
    </g>
    <g id="ytick_4">
     <g id="line2d_8">
      <path d="M 112.798188 105.676086 
L 702.073188 105.676086 
" clip-path="url(#p3e19d6fc30)" style="fill: none; stroke: #ffffff; stroke-width: 2; stroke-linecap: round"/>
     </g>
     <g id="text_4">
      <!-- 20 -->
      <g style="fill: #262626" transform="translate(65.489625 115.911758) scale(0.286 -0.286)">
       <use xlink:href="#ArialMT-32"/>
       <use xlink:href="#ArialMT-30" x="55.615234"/>
      </g>
     </g>
    </g>
    <g id="ytick_5">
     <g id="line2d_9">
      <path d="M 112.798188 17.435672 
L 702.073188 17.435672 
" clip-path="url(#p3e19d6fc30)" style="fill: none; stroke: #ffffff; stroke-width: 2; stroke-linecap: round"/>
     </g>
     <g id="text_5">
      <!-- 40 -->
      <g style="fill: #262626" transform="translate(65.489625 27.671344) scale(0.286 -0.286)">
       <use xlink:href="#ArialMT-34"/>
       <use xlink:href="#ArialMT-30" x="55.615234"/>
      </g>
     </g>
    </g>
    <g id="text_6">
     <!-- G(t) [mT/m] -->
     <g style="fill: #262626" transform="translate(38.218812 273.625188) rotate(-90) scale(0.312 -0.312)">
      <defs>
       <path id="ArialMT-47" d="M 2638 1797 
L 2638 2334 
L 4578 2338 
L 4578 638 
Q 4131 281 3656 101 
Q 3181 -78 2681 -78 
Q 2006 -78 1454 211 
Q 903 500 622 1047 
Q 341 1594 341 2269 
Q 341 2938 620 3517 
Q 900 4097 1425 4378 
Q 1950 4659 2634 4659 
Q 3131 4659 3532 4498 
Q 3934 4338 4162 4050 
Q 4391 3763 4509 3300 
L 3963 3150 
Q 3859 3500 3706 3700 
Q 3553 3900 3268 4020 
Q 2984 4141 2638 4141 
Q 2222 4141 1919 4014 
Q 1616 3888 1430 3681 
Q 1244 3475 1141 3228 
Q 966 2803 966 2306 
Q 966 1694 1177 1281 
Q 1388 869 1791 669 
Q 2194 469 2647 469 
Q 3041 469 3416 620 
Q 3791 772 3984 944 
L 3984 1797 
L 2638 1797 
z
" transform="scale(0.015625)"/>
       <path id="ArialMT-28" d="M 1497 -1347 
Q 1031 -759 709 28 
Q 388 816 388 1659 
Q 388 2403 628 3084 
Q 909 3875 1497 4659 
L 1900 4659 
Q 1522 4009 1400 3731 
Q 1209 3300 1100 2831 
Q 966 2247 966 1656 
Q 966 153 1900 -1347 
L 1497 -1347 
z
" transform="scale(0.015625)"/>
       <path id="ArialMT-74" d="M 1650 503 
L 1731 6 
Q 1494 -44 1306 -44 
Q 1000 -44 831 53 
Q 663 150 594 308 
Q 525 466 525 972 
L 525 2881 
L 113 2881 
L 113 3319 
L 525 3319 
L 525 4141 
L 1084 4478 
L 1084 3319 
L 1650 3319 
L 1650 2881 
L 1084 2881 
L 1084 941 
Q 1084 700 1114 631 
Q 1144 563 1211 522 
Q 1278 481 1403 481 
Q 1497 481 1650 503 
z
" transform="scale(0.015625)"/>
       <path id="ArialMT-29" d="M 791 -1347 
L 388 -1347 
Q 1322 153 1322 1656 
Q 1322 2244 1188 2822 
Q 1081 3291 891 3722 
Q 769 4003 388 4659 
L 791 4659 
Q 1378 3875 1659 3084 
Q 1900 2403 1900 1659 
Q 1900 816 1576 28 
Q 1253 -759 791 -1347 
z
" transform="scale(0.015625)"/>
       <path id="ArialMT-20" transform="scale(0.015625)"/>
       <path id="ArialMT-5b" d="M 434 -1272 
L 434 4581 
L 1675 4581 
L 1675 4116 
L 997 4116 
L 997 -806 
L 1675 -806 
L 1675 -1272 
L 434 -1272 
z
" transform="scale(0.015625)"/>
       <path id="ArialMT-6d" d="M 422 0 
L 422 3319 
L 925 3319 
L 925 2853 
Q 1081 3097 1340 3245 
Q 1600 3394 1931 3394 
Q 2300 3394 2536 3241 
Q 2772 3088 2869 2813 
Q 3263 3394 3894 3394 
Q 4388 3394 4653 3120 
Q 4919 2847 4919 2278 
L 4919 0 
L 4359 0 
L 4359 2091 
Q 4359 2428 4304 2576 
Q 4250 2725 4106 2815 
Q 3963 2906 3769 2906 
Q 3419 2906 3187 2673 
Q 2956 2441 2956 1928 
L 2956 0 
L 2394 0 
L 2394 2156 
Q 2394 2531 2256 2718 
Q 2119 2906 1806 2906 
Q 1569 2906 1367 2781 
Q 1166 2656 1075 2415 
Q 984 2175 984 1722 
L 984 0 
L 422 0 
z
" transform="scale(0.015625)"/>
       <path id="ArialMT-54" d="M 1659 0 
L 1659 4041 
L 150 4041 
L 150 4581 
L 3781 4581 
L 3781 4041 
L 2266 4041 
L 2266 0 
L 1659 0 
z
" transform="scale(0.015625)"/>
       <path id="ArialMT-2f" d="M 0 -78 
L 1328 4659 
L 1778 4659 
L 453 -78 
L 0 -78 
z
" transform="scale(0.015625)"/>
       <path id="ArialMT-5d" d="M 1363 -1272 
L 122 -1272 
L 122 -806 
L 800 -806 
L 800 4116 
L 122 4116 
L 122 4581 
L 1363 4581 
L 1363 -1272 
z
" transform="scale(0.015625)"/>
      </defs>
      <use xlink:href="#ArialMT-47"/>
      <use xlink:href="#ArialMT-28" x="77.783203"/>
      <use xlink:href="#ArialMT-74" x="111.083984"/>
      <use xlink:href="#ArialMT-29" x="138.867188"/>
      <use xlink:href="#ArialMT-20" x="172.167969"/>
      <use xlink:href="#ArialMT-5b" x="199.951172"/>
      <use xlink:href="#ArialMT-6d" x="227.734375"/>
      <use xlink:href="#ArialMT-54" x="311.035156"/>
      <use xlink:href="#ArialMT-2f" x="372.119141"/>
      <use xlink:href="#ArialMT-6d" x="399.902344"/>
      <use xlink:href="#ArialMT-5d" x="483.203125"/>
     </g>
    </g>
   </g>
   <g id="line2d_10">
    <path d="M 139.583415 193.916501 
L 175.990381 193.916501 
L 176.118952 190.019349 
L 176.133238 190.019349 
L 176.254666 184.823145 
L 176.276094 184.823145 
L 176.397522 179.626941 
L 176.41895 179.626941 
L 176.540378 174.430745 
L 176.561807 174.430745 
L 176.683235 169.234536 
L 176.704663 169.234536 
L 176.826091 164.038332 
L 176.84752 164.038332 
L 176.968948 158.842127 
L 176.990376 158.842127 
L 177.111804 153.645923 
L 177.133233 153.645923 
L 177.254661 148.449718 
L 177.276089 148.449718 
L 177.397517 143.253523 
L 177.418946 143.253523 
L 177.540374 138.057314 
L 177.561802 138.057314 
L 177.68323 132.861109 
L 177.704659 132.861109 
L 177.826086 127.664905 
L 177.847515 127.664905 
L 177.968943 122.4687 
L 177.990371 122.4687 
L 178.111799 117.2725 
L 178.133228 117.2725 
L 178.254656 112.076296 
L 178.276084 112.076296 
L 178.397512 106.880091 
L 178.418941 106.880091 
L 178.540369 101.683887 
L 178.561797 101.683887 
L 178.683225 96.487682 
L 178.704654 96.487682 
L 178.826082 91.291478 
L 178.84751 91.291478 
L 178.968938 86.095278 
L 178.990367 86.095278 
L 179.111795 80.899074 
L 179.133223 80.899074 
L 179.254651 75.702869 
L 179.276079 75.702869 
L 179.397507 70.506665 
L 179.418936 70.506665 
L 179.540364 65.31046 
L 179.561792 65.31046 
L 179.68322 60.114256 
L 179.704649 60.114256 
L 179.826077 54.918056 
L 179.847505 54.918056 
L 179.968933 49.721851 
L 179.990362 49.721851 
L 180.11179 44.525647 
L 180.133218 44.525647 
L 180.254646 39.329442 
L 180.276075 39.329442 
L 180.397503 34.133238 
L 180.418931 34.133238 
L 180.540359 28.937033 
L 180.561788 28.937033 
L 180.683215 23.740833 
L 180.704644 23.740833 
L 180.818929 22.441793 
L 259.489976 22.441793 
L 259.618547 26.338944 
L 259.632833 26.338944 
L 259.754261 31.535149 
L 259.775689 31.535149 
L 259.897117 36.731353 
L 259.918546 36.731353 
L 260.039974 41.927558 
L 260.061402 41.927558 
L 260.18283 47.123753 
L 260.204259 47.123753 
L 260.325686 52.319962 
L 260.347115 52.319962 
L 260.468543 57.516167 
L 260.489971 57.516167 
L 260.611399 62.712371 
L 260.632828 62.712371 
L 260.754256 67.908576 
L 260.775684 67.908576 
L 260.897112 73.104776 
L 260.918541 73.104776 
L 261.039969 78.30098 
L 261.061397 78.30098 
L 261.182825 83.497185 
L 261.204254 83.497185 
L 261.325682 88.693389 
L 261.34711 88.693389 
L 261.468538 93.889593 
L 261.489967 93.889593 
L 261.611395 99.085798 
L 261.632823 99.085798 
L 261.754251 104.281998 
L 261.775679 104.281998 
L 261.897107 109.478202 
L 261.918536 109.478202 
L 262.039964 114.674407 
L 262.061392 114.674407 
L 262.18282 119.870611 
L 262.204249 119.870611 
L 262.325677 125.066816 
L 262.347105 125.066816 
L 262.468533 130.26302 
L 262.489962 130.26302 
L 262.61139 135.45922 
L 262.632818 135.45922 
L 262.754246 140.655425 
L 262.775675 140.655425 
L 262.897103 145.851629 
L 262.918531 145.851629 
L 263.039959 151.047834 
L 263.061388 151.047834 
L 263.182815 156.244038 
L 263.204244 156.244038 
L 263.325672 161.440243 
L 263.3471 161.440243 
L 263.468528 166.636443 
L 263.489957 166.636443 
L 263.611385 171.832647 
L 263.632813 171.832647 
L 263.754241 177.028852 
L 263.77567 177.028852 
L 263.897098 182.225056 
L 263.918526 182.225056 
L 264.039954 187.42126 
L 264.061383 187.42126 
L 264.182811 192.617465 
L 264.204239 192.617465 
L 264.325667 197.813652 
L 264.347096 197.813652 
L 264.468524 203.009856 
L 264.489952 203.009856 
L 264.61138 208.206061 
L 264.632808 208.206061 
L 264.754236 213.402256 
L 264.775665 213.402256 
L 264.897093 218.598465 
L 264.918521 218.598465 
L 265.039949 223.79467 
L 265.061378 223.79467 
L 265.182806 228.990874 
L 265.204234 228.990874 
L 265.325662 234.187078 
L 265.347091 234.187078 
L 265.468519 239.383283 
L 265.489947 239.383283 
L 265.611375 244.579479 
L 265.632804 244.579479 
L 265.754232 249.775687 
L 265.77566 249.775687 
L 265.897088 254.971892 
L 265.918517 254.971892 
L 266.039944 260.168096 
L 266.061373 260.168096 
L 266.182801 265.364301 
L 266.204229 265.364301 
L 266.325657 270.560505 
L 266.347086 270.560505 
L 266.468514 275.756701 
L 266.489942 275.756701 
L 266.61137 280.95291 
L 266.632799 280.95291 
L 266.754227 286.149114 
L 266.775655 286.149114 
L 266.897083 291.345319 
L 266.918512 291.345319 
L 267.03994 296.541523 
L 267.061368 296.541523 
L 267.182796 301.737728 
L 267.204225 301.737728 
L 267.325653 306.933923 
L 267.347081 306.933923 
L 267.468509 312.130132 
L 267.489937 312.130132 
L 267.611365 317.326337 
L 267.632794 317.326337 
L 267.754222 322.522541 
L 267.77565 322.522541 
L 267.897078 327.718745 
L 267.918507 327.718745 
L 268.039935 332.91495 
L 268.061363 332.91495 
L 268.182791 338.111146 
L 268.20422 338.111146 
L 268.325648 343.307354 
L 268.347076 343.307354 
L 268.468504 348.503559 
L 268.489933 348.503559 
L 268.611361 353.699763 
L 268.632789 353.699763 
L 268.754217 358.895968 
L 268.775646 358.895968 
L 268.897074 364.092172 
L 268.918502 364.092172 
L 269.032787 365.391208 
L 347.703834 365.391208 
L 347.832405 361.494057 
L 347.846691 361.494057 
L 347.968119 356.297852 
L 347.989547 356.297852 
L 348.110975 351.101648 
L 348.132404 351.101648 
L 348.253832 345.905443 
L 348.27526 345.905443 
L 348.396688 340.709248 
L 348.418117 340.709248 
L 348.539544 335.513039 
L 348.560973 335.513039 
L 348.682401 330.316834 
L 348.703829 330.316834 
L 348.825257 325.12063 
L 348.846686 325.12063 
L 348.968114 319.924426 
L 348.989542 319.924426 
L 349.11097 314.728225 
L 349.132399 314.728225 
L 349.253827 309.532021 
L 349.275255 309.532021 
L 349.396683 304.335817 
L 349.418112 304.335817 
L 349.53954 299.139612 
L 349.560968 299.139612 
L 349.682396 293.943408 
L 349.703825 293.943408 
L 349.825253 288.747203 
L 349.846681 288.747203 
L 349.968109 283.551003 
L 349.989537 283.551003 
L 350.110965 278.354799 
L 350.132394 278.354799 
L 350.253822 273.158594 
L 350.27525 273.158594 
L 350.396678 267.96239 
L 350.418107 267.96239 
L 350.539535 262.766185 
L 350.560963 262.766185 
L 350.682391 257.569981 
L 350.70382 257.569981 
L 350.825248 252.373781 
L 350.846676 252.373781 
L 350.968104 247.177576 
L 350.989533 247.177576 
L 351.110961 241.981372 
L 351.132389 241.981372 
L 351.253817 236.785167 
L 351.275246 236.785167 
L 351.396673 231.588963 
L 351.418102 231.588963 
L 351.53953 226.392759 
L 351.560958 226.392759 
L 351.682386 221.196559 
L 351.703815 221.196559 
L 351.825243 216.000354 
L 351.846671 216.000354 
L 351.968099 210.80415 
L 351.989528 210.80415 
L 352.110956 205.607945 
L 352.132384 205.607945 
L 352.253812 200.411741 
L 352.275241 200.411741 
L 352.396669 195.215536 
L 352.410954 195.215536 
L 352.525239 193.916501 
L 435.124839 193.916501 
L 435.131982 195.285661 
L 435.210553 190.019349 
L 435.274838 190.019349 
L 435.396266 184.823145 
L 435.417695 184.823145 
L 435.539123 179.626941 
L 435.560551 179.626941 
L 435.681979 174.430745 
L 435.703408 174.430745 
L 435.824836 169.234536 
L 435.846264 169.234536 
L 435.967692 164.038332 
L 435.98912 164.038332 
L 436.110548 158.842127 
L 436.131977 158.842127 
L 436.253405 153.645923 
L 436.274833 153.645923 
L 436.396261 148.449718 
L 436.41769 148.449718 
L 436.539118 143.253523 
L 436.560546 143.253523 
L 436.681974 138.057314 
L 436.703403 138.057314 
L 436.824831 132.861109 
L 436.846259 132.861109 
L 436.967687 127.664905 
L 436.989116 127.664905 
L 437.110544 122.4687 
L 437.131972 122.4687 
L 437.2534 117.272496 
L 437.274829 117.272496 
L 437.396257 112.0763 
L 437.417685 112.0763 
L 437.539113 106.880091 
L 437.560541 106.880091 
L 437.681969 101.683887 
L 437.703398 101.683887 
L 437.824826 96.487682 
L 437.846254 96.487682 
L 437.967682 91.291478 
L 437.989111 91.291478 
L 438.110539 86.095274 
L 438.131967 86.095274 
L 438.253395 80.899078 
L 438.274824 80.899078 
L 438.396252 75.702869 
L 438.41768 75.702869 
L 438.539108 70.506665 
L 438.560537 70.506665 
L 438.681965 65.31046 
L 438.703393 65.31046 
L 438.824821 60.114256 
L 438.846249 60.114256 
L 438.967677 54.918051 
L 438.989106 54.918051 
L 439.110534 49.721856 
L 439.131962 49.721856 
L 439.25339 44.525647 
L 439.274819 44.525647 
L 439.396247 39.329442 
L 439.417675 39.329442 
L 439.539103 34.133238 
L 439.560532 34.133238 
L 439.68196 28.937033 
L 439.703388 28.937033 
L 439.824816 23.740829 
L 439.846245 23.740829 
L 439.96053 22.441793 
L 518.631577 22.441793 
L 518.760148 26.338944 
L 518.774433 26.338944 
L 518.895861 31.535149 
L 518.91729 31.535149 
L 519.038718 36.731353 
L 519.060146 36.731353 
L 519.181574 41.927558 
L 519.203003 41.927558 
L 519.324431 47.123753 
L 519.345859 47.123753 
L 519.467287 52.319962 
L 519.488716 52.319962 
L 519.610144 57.516167 
L 519.631572 57.516167 
L 519.753 62.712371 
L 519.774429 62.712371 
L 519.895857 67.908576 
L 519.917285 67.908576 
L 520.038713 73.104776 
L 520.060141 73.104776 
L 520.181569 78.30098 
L 520.202998 78.30098 
L 520.324426 83.497185 
L 520.345854 83.497185 
L 520.467282 88.693389 
L 520.488711 88.693389 
L 520.610139 93.889593 
L 520.631567 93.889593 
L 520.752995 99.085798 
L 520.774424 99.085798 
L 520.895852 104.281998 
L 520.91728 104.281998 
L 521.038708 109.478202 
L 521.060137 109.478202 
L 521.181565 114.674407 
L 521.202993 114.674407 
L 521.324421 119.870611 
L 521.345849 119.870611 
L 521.467277 125.066816 
L 521.488706 125.066816 
L 521.610134 130.26302 
L 521.631562 130.26302 
L 521.75299 135.45922 
L 521.774419 135.45922 
L 521.895847 140.655425 
L 521.917275 140.655425 
L 522.038703 145.851629 
L 522.060132 145.851629 
L 522.18156 151.047834 
L 522.202988 151.047834 
L 522.324416 156.244038 
L 522.345845 156.244038 
L 522.467273 161.440243 
L 522.488701 161.440243 
L 522.610129 166.636443 
L 522.631558 166.636443 
L 522.752986 171.832647 
L 522.774414 171.832647 
L 522.895842 177.028852 
L 522.91727 177.028852 
L 523.038698 182.225056 
L 523.060127 182.225056 
L 523.181555 187.42126 
L 523.202983 187.42126 
L 523.324411 192.617465 
L 523.34584 192.617465 
L 523.467268 197.813652 
L 523.488696 197.813652 
L 523.610124 203.009856 
L 523.631553 203.009856 
L 523.752981 208.206061 
L 523.774409 208.206061 
L 523.895837 213.402256 
L 523.917266 213.402256 
L 524.038694 218.598465 
L 524.060122 218.598465 
L 524.18155 223.79467 
L 524.202978 223.79467 
L 524.324406 228.990874 
L 524.345835 228.990874 
L 524.467263 234.187078 
L 524.488691 234.187078 
L 524.610119 239.383283 
L 524.631548 239.383283 
L 524.752976 244.579479 
L 524.774404 244.579479 
L 524.895832 249.775687 
L 524.917261 249.775687 
L 525.038689 254.971892 
L 525.060117 254.971892 
L 525.181545 260.168096 
L 525.202974 260.168096 
L 525.324402 265.364301 
L 525.34583 265.364301 
L 525.467258 270.560505 
L 525.488687 270.560505 
L 525.610115 275.756701 
L 525.631543 275.756701 
L 525.752971 280.95291 
L 525.774399 280.95291 
L 525.895827 286.149114 
L 525.917256 286.149114 
L 526.038684 291.345319 
L 526.060112 291.345319 
L 526.18154 296.541523 
L 526.202969 296.541523 
L 526.324397 301.737728 
L 526.345825 301.737728 
L 526.467253 306.933923 
L 526.488682 306.933923 
L 526.61011 312.130132 
L 526.631538 312.130132 
L 526.752966 317.326337 
L 526.774395 317.326337 
L 526.895823 322.522541 
L 526.917251 322.522541 
L 527.038679 327.718745 
L 527.060107 327.718745 
L 527.181535 332.91495 
L 527.202964 332.91495 
L 527.324392 338.111146 
L 527.34582 338.111146 
L 527.467248 343.307354 
L 527.488677 343.307354 
L 527.610105 348.503559 
L 527.631533 348.503559 
L 527.752961 353.699763 
L 527.77439 353.699763 
L 527.895818 358.895968 
L 527.917246 358.895968 
L 528.038674 364.092172 
L 528.060103 364.092172 
L 528.174388 365.391208 
L 606.845435 365.391208 
L 606.974006 361.494057 
L 606.988291 361.494057 
L 607.109719 356.297852 
L 607.131148 356.297852 
L 607.252576 351.101648 
L 607.274004 351.101648 
L 607.395432 345.905443 
L 607.416861 345.905443 
L 607.538289 340.709248 
L 607.559717 340.709248 
L 607.681145 335.513039 
L 607.702574 335.513039 
L 607.824002 330.316834 
L 607.84543 330.316834 
L 607.966858 325.12063 
L 607.988287 325.12063 
L 608.109715 319.924426 
L 608.131143 319.924426 
L 608.252571 314.728225 
L 608.273999 314.728225 
L 608.395427 309.532021 
L 608.416856 309.532021 
L 608.538284 304.335817 
L 608.559712 304.335817 
L 608.68114 299.139612 
L 608.702569 299.139612 
L 608.823997 293.943408 
L 608.845425 293.943408 
L 608.966853 288.747203 
L 608.988282 288.747203 
L 609.10971 283.551003 
L 609.131138 283.551003 
L 609.252566 278.354799 
L 609.273995 278.354799 
L 609.395423 273.158594 
L 609.416851 273.158594 
L 609.538279 267.96239 
L 609.559707 267.96239 
L 609.681135 262.766185 
L 609.702564 262.766185 
L 609.823992 257.569981 
L 609.84542 257.569981 
L 609.966848 252.373781 
L 609.988277 252.373781 
L 610.109705 247.177576 
L 610.131133 247.177576 
L 610.252561 241.981372 
L 610.27399 241.981372 
L 610.395418 236.785167 
L 610.416846 236.785167 
L 610.538274 231.588963 
L 610.559703 231.588963 
L 610.681131 226.392759 
L 610.702559 226.392759 
L 610.823987 221.196559 
L 610.845416 221.196559 
L 610.966844 216.000354 
L 610.988272 216.000354 
L 611.1097 210.80415 
L 611.131128 210.80415 
L 611.252556 205.607945 
L 611.273985 205.607945 
L 611.395413 200.411741 
L 611.416841 200.411741 
L 611.538269 195.215536 
L 611.552555 195.215536 
L 611.66684 193.916501 
L 675.28796 193.916501 
L 675.28796 193.916501 
" clip-path="url(#p3e19d6fc30)" style="fill: none; stroke: #808080; stroke-width: 5; stroke-linecap: round"/>
   </g>
   <g id="line2d_11">
    <path d="M 112.798188 193.916501 
L 702.073188 193.916501 
" clip-path="url(#p3e19d6fc30)" style="fill: none; stroke: #000000; stroke-width: 3; stroke-linecap: round"/>
   </g>
   <g id="patch_3">
    <path d="M 112.798188 379.221371 
L 112.798188 8.61163 
" style="fill: none; stroke: #ffffff; stroke-width: 2.5; stroke-linejoin: miter; stroke-linecap: square"/>
   </g>
   <g id="patch_4">
    <path d="M 702.073188 379.221371 
L 702.073188 8.61163 
" style="fill: none; stroke: #ffffff; stroke-width: 2.5; stroke-linejoin: miter; stroke-linecap: square"/>
   </g>
   <g id="patch_5">
    <path d="M 112.798188 379.221371 
L 702.073187 379.221371 
" style="fill: none; stroke: #ffffff; stroke-width: 2.5; stroke-linejoin: miter; stroke-linecap: square"/>
   </g>
   <g id="patch_6">
    <path d="M 112.798188 8.61163 
L 702.073187 8.61163 
" style="fill: none; stroke: #ffffff; stroke-width: 2.5; stroke-linejoin: miter; stroke-linecap: square"/>
   </g>
   <g id="text_7">
    <g id="patch_7">
     <path d="M 478.144937 354.660397 
L 684.394937 354.660397 
Q 696.894937 354.660397 696.894937 342.160397 
L 696.894937 318.910397 
Q 696.894937 306.410397 684.394937 306.410397 
L 478.144937 306.410397 
Q 465.644937 306.410397 465.644937 318.910397 
L 465.644937 342.160397 
Q 465.644937 354.660397 478.144937 354.660397 
z
" style="fill: #eaeaf2; opacity: 0.9; stroke: #d3d3d3; stroke-width: 2; stroke-linejoin: miter"/>
    </g>
    <!-- $G_{max}$ = 38.9 mT/m -->
    <g style="fill: #262626" transform="translate(478.144937 337.191647) scale(0.25 -0.25)">
     <defs>
      <path id="DejaVuSans-Oblique-47" d="M 3494 697 
L 3738 1919 
L 2700 1919 
L 2797 2438 
L 4453 2438 
L 4050 384 
Q 3634 156 3143 32 
Q 2653 -91 2156 -91 
Q 1278 -91 783 396 
Q 288 884 288 1753 
Q 288 2475 589 3126 
Q 891 3778 1422 4213 
Q 1756 4484 2153 4617 
Q 2550 4750 3034 4750 
Q 3472 4750 3873 4639 
Q 4275 4528 4641 4306 
L 4513 3634 
Q 4231 3928 3853 4083 
Q 3475 4238 3047 4238 
Q 2550 4238 2172 4048 
Q 1794 3859 1497 3463 
Q 1244 3125 1098 2667 
Q 953 2209 953 1734 
Q 953 1081 1287 751 
Q 1622 422 2284 422 
Q 2616 422 2925 492 
Q 3234 563 3494 697 
z
" transform="scale(0.015625)"/>
      <path id="DejaVuSans-Oblique-6d" d="M 5747 2113 
L 5338 0 
L 4763 0 
L 5166 2094 
Q 5191 2228 5203 2325 
Q 5216 2422 5216 2491 
Q 5216 2772 5059 2928 
Q 4903 3084 4622 3084 
Q 4203 3084 3875 2770 
Q 3547 2456 3450 1953 
L 3066 0 
L 2491 0 
L 2900 2094 
Q 2925 2209 2937 2307 
Q 2950 2406 2950 2484 
Q 2950 2769 2794 2926 
Q 2638 3084 2363 3084 
Q 1938 3084 1609 2770 
Q 1281 2456 1184 1953 
L 800 0 
L 225 0 
L 909 3500 
L 1484 3500 
L 1375 2956 
Q 1609 3263 1923 3423 
Q 2238 3584 2597 3584 
Q 2978 3584 3223 3384 
Q 3469 3184 3519 2828 
Q 3781 3197 4126 3390 
Q 4472 3584 4856 3584 
Q 5306 3584 5551 3325 
Q 5797 3066 5797 2591 
Q 5797 2488 5784 2364 
Q 5772 2241 5747 2113 
z
" transform="scale(0.015625)"/>
      <path id="DejaVuSans-Oblique-61" d="M 3438 1997 
L 3047 0 
L 2472 0 
L 2578 531 
Q 2325 219 2001 64 
Q 1678 -91 1281 -91 
Q 834 -91 548 182 
Q 263 456 263 884 
Q 263 1497 752 1853 
Q 1241 2209 2100 2209 
L 2900 2209 
L 2931 2363 
Q 2938 2388 2941 2417 
Q 2944 2447 2944 2509 
Q 2944 2788 2717 2942 
Q 2491 3097 2081 3097 
Q 1800 3097 1504 3025 
Q 1209 2953 897 2809 
L 997 3341 
Q 1322 3463 1633 3523 
Q 1944 3584 2234 3584 
Q 2853 3584 3176 3315 
Q 3500 3047 3500 2534 
Q 3500 2431 3484 2292 
Q 3469 2153 3438 1997 
z
M 2816 1759 
L 2241 1759 
Q 1534 1759 1195 1570 
Q 856 1381 856 984 
Q 856 709 1029 553 
Q 1203 397 1509 397 
Q 1978 397 2328 733 
Q 2678 1069 2791 1631 
L 2816 1759 
z
" transform="scale(0.015625)"/>
      <path id="DejaVuSans-Oblique-78" d="M 3841 3500 
L 2234 1784 
L 3219 0 
L 2559 0 
L 1819 1388 
L 531 0 
L -166 0 
L 1556 1844 
L 641 3500 
L 1300 3500 
L 1972 2234 
L 3144 3500 
L 3841 3500 
z
" transform="scale(0.015625)"/>
      <path id="ArialMT-3d" d="M 3381 2694 
L 356 2694 
L 356 3219 
L 3381 3219 
L 3381 2694 
z
M 3381 1303 
L 356 1303 
L 356 1828 
L 3381 1828 
L 3381 1303 
z
" transform="scale(0.015625)"/>
      <path id="ArialMT-33" d="M 269 1209 
L 831 1284 
Q 928 806 1161 595 
Q 1394 384 1728 384 
Q 2125 384 2398 659 
Q 2672 934 2672 1341 
Q 2672 1728 2419 1979 
Q 2166 2231 1775 2231 
Q 1616 2231 1378 2169 
L 1441 2663 
Q 1497 2656 1531 2656 
Q 1891 2656 2178 2843 
Q 2466 3031 2466 3422 
Q 2466 3731 2256 3934 
Q 2047 4138 1716 4138 
Q 1388 4138 1169 3931 
Q 950 3725 888 3313 
L 325 3413 
Q 428 3978 793 4289 
Q 1159 4600 1703 4600 
Q 2078 4600 2393 4439 
Q 2709 4278 2876 4000 
Q 3044 3722 3044 3409 
Q 3044 3113 2884 2869 
Q 2725 2625 2413 2481 
Q 2819 2388 3044 2092 
Q 3269 1797 3269 1353 
Q 3269 753 2831 336 
Q 2394 -81 1725 -81 
Q 1122 -81 723 278 
Q 325 638 269 1209 
z
" transform="scale(0.015625)"/>
      <path id="ArialMT-38" d="M 1131 2484 
Q 781 2613 612 2850 
Q 444 3088 444 3419 
Q 444 3919 803 4259 
Q 1163 4600 1759 4600 
Q 2359 4600 2725 4251 
Q 3091 3903 3091 3403 
Q 3091 3084 2923 2848 
Q 2756 2613 2416 2484 
Q 2838 2347 3058 2040 
Q 3278 1734 3278 1309 
Q 3278 722 2862 322 
Q 2447 -78 1769 -78 
Q 1091 -78 675 323 
Q 259 725 259 1325 
Q 259 1772 486 2073 
Q 713 2375 1131 2484 
z
M 1019 3438 
Q 1019 3113 1228 2906 
Q 1438 2700 1772 2700 
Q 2097 2700 2305 2904 
Q 2513 3109 2513 3406 
Q 2513 3716 2298 3927 
Q 2084 4138 1766 4138 
Q 1444 4138 1231 3931 
Q 1019 3725 1019 3438 
z
M 838 1322 
Q 838 1081 952 856 
Q 1066 631 1291 507 
Q 1516 384 1775 384 
Q 2178 384 2440 643 
Q 2703 903 2703 1303 
Q 2703 1709 2433 1975 
Q 2163 2241 1756 2241 
Q 1359 2241 1098 1978 
Q 838 1716 838 1322 
z
" transform="scale(0.015625)"/>
      <path id="ArialMT-2e" d="M 581 0 
L 581 641 
L 1222 641 
L 1222 0 
L 581 0 
z
" transform="scale(0.015625)"/>
      <path id="ArialMT-39" d="M 350 1059 
L 891 1109 
Q 959 728 1153 556 
Q 1347 384 1650 384 
Q 1909 384 2104 503 
Q 2300 622 2425 820 
Q 2550 1019 2634 1356 
Q 2719 1694 2719 2044 
Q 2719 2081 2716 2156 
Q 2547 1888 2255 1720 
Q 1963 1553 1622 1553 
Q 1053 1553 659 1965 
Q 266 2378 266 3053 
Q 266 3750 677 4175 
Q 1088 4600 1706 4600 
Q 2153 4600 2523 4359 
Q 2894 4119 3086 3673 
Q 3278 3228 3278 2384 
Q 3278 1506 3087 986 
Q 2897 466 2520 194 
Q 2144 -78 1638 -78 
Q 1100 -78 759 220 
Q 419 519 350 1059 
z
M 2653 3081 
Q 2653 3566 2395 3850 
Q 2138 4134 1775 4134 
Q 1400 4134 1122 3828 
Q 844 3522 844 3034 
Q 844 2597 1108 2323 
Q 1372 2050 1759 2050 
Q 2150 2050 2401 2323 
Q 2653 2597 2653 3081 
z
" transform="scale(0.015625)"/>
     </defs>
     <use xlink:href="#DejaVuSans-Oblique-47" transform="translate(0 0.78125)"/>
     <use xlink:href="#DejaVuSans-Oblique-6d" transform="translate(77.490234 -15.625) scale(0.7)"/>
     <use xlink:href="#DejaVuSans-Oblique-61" transform="translate(145.678711 -15.625) scale(0.7)"/>
     <use xlink:href="#DejaVuSans-Oblique-78" transform="translate(188.574219 -15.625) scale(0.7)"/>
     <use xlink:href="#ArialMT-20" transform="translate(232.734375 0.78125)"/>
     <use xlink:href="#ArialMT-3d" transform="translate(260.517578 0.78125)"/>
     <use xlink:href="#ArialMT-20" transform="translate(318.916016 0.78125)"/>
     <use xlink:href="#ArialMT-33" transform="translate(346.699219 0.78125)"/>
     <use xlink:href="#ArialMT-38" transform="translate(402.314453 0.78125)"/>
     <use xlink:href="#ArialMT-2e" transform="translate(457.929688 0.78125)"/>
     <use xlink:href="#ArialMT-39" transform="translate(485.712891 0.78125)"/>
     <use xlink:href="#ArialMT-20" transform="translate(541.328125 0.78125)"/>
     <use xlink:href="#ArialMT-6d" transform="translate(569.111328 0.78125)"/>
     <use xlink:href="#ArialMT-54" transform="translate(652.412109 0.78125)"/>
     <use xlink:href="#ArialMT-2f" transform="translate(713.496094 0.78125)"/>
     <use xlink:href="#ArialMT-6d" transform="translate(741.279297 0.78125)"/>
    </g>
   </g>
  </g>
  <g id="axes_2">
   <g id="patch_8">
    <path d="M 112.798188 770.571371 
L 702.073188 770.571371 
L 702.073188 399.96163 
L 112.798188 399.96163 
z
" style="fill: #eaeaf2"/>
   </g>
   <g id="matplotlib.axis_3">
    <g id="xtick_5">
     <g id="line2d_12">
      <path d="M 139.583415 770.571371 
L 139.583415 399.96163 
" clip-path="url(#p5cb2bf572d)" style="fill: none; stroke: #ffffff; stroke-width: 2; stroke-linecap: round"/>
     </g>
     <g id="text_8">
      <!-- 0 -->
      <g style="fill: #262626" transform="translate(131.631274 806.542714) scale(0.286 -0.286)">
       <use xlink:href="#ArialMT-30"/>
      </g>
     </g>
    </g>
    <g id="xtick_6">
     <g id="line2d_13">
      <path d="M 282.439865 770.571371 
L 282.439865 399.96163 
" clip-path="url(#p5cb2bf572d)" style="fill: none; stroke: #ffffff; stroke-width: 2; stroke-linecap: round"/>
     </g>
     <g id="text_9">
      <!-- 20 -->
      <g style="fill: #262626" transform="translate(266.535584 806.542714) scale(0.286 -0.286)">
       <use xlink:href="#ArialMT-32"/>
       <use xlink:href="#ArialMT-30" x="55.615234"/>
      </g>
     </g>
    </g>
    <g id="xtick_7">
     <g id="line2d_14">
      <path d="M 425.296315 770.571371 
L 425.296315 399.96163 
" clip-path="url(#p5cb2bf572d)" style="fill: none; stroke: #ffffff; stroke-width: 2; stroke-linecap: round"/>
     </g>
     <g id="text_10">
      <!-- 40 -->
      <g style="fill: #262626" transform="translate(409.392034 806.542714) scale(0.286 -0.286)">
       <use xlink:href="#ArialMT-34"/>
       <use xlink:href="#ArialMT-30" x="55.615234"/>
      </g>
     </g>
    </g>
    <g id="xtick_8">
     <g id="line2d_15">
      <path d="M 568.152765 770.571371 
L 568.152765 399.96163 
" clip-path="url(#p5cb2bf572d)" style="fill: none; stroke: #ffffff; stroke-width: 2; stroke-linecap: round"/>
     </g>
     <g id="text_11">
      <!-- 60 -->
      <g style="fill: #262626" transform="translate(552.248484 806.542714) scale(0.286 -0.286)">
       <defs>
        <path id="ArialMT-36" d="M 3184 3459 
L 2625 3416 
Q 2550 3747 2413 3897 
Q 2184 4138 1850 4138 
Q 1581 4138 1378 3988 
Q 1113 3794 959 3422 
Q 806 3050 800 2363 
Q 1003 2672 1297 2822 
Q 1591 2972 1913 2972 
Q 2475 2972 2870 2558 
Q 3266 2144 3266 1488 
Q 3266 1056 3080 686 
Q 2894 316 2569 119 
Q 2244 -78 1831 -78 
Q 1128 -78 684 439 
Q 241 956 241 2144 
Q 241 3472 731 4075 
Q 1159 4600 1884 4600 
Q 2425 4600 2770 4297 
Q 3116 3994 3184 3459 
z
M 888 1484 
Q 888 1194 1011 928 
Q 1134 663 1356 523 
Q 1578 384 1822 384 
Q 2178 384 2434 671 
Q 2691 959 2691 1453 
Q 2691 1928 2437 2201 
Q 2184 2475 1800 2475 
Q 1419 2475 1153 2201 
Q 888 1928 888 1484 
z
" transform="scale(0.015625)"/>
       </defs>
       <use xlink:href="#ArialMT-36"/>
       <use xlink:href="#ArialMT-30" x="55.615234"/>
      </g>
     </g>
    </g>
    <g id="text_12">
     <!-- Time [ms] -->
     <g style="fill: #262626" transform="translate(339.561062 838.559339) scale(0.312 -0.312)">
      <defs>
       <path id="ArialMT-69" d="M 425 3934 
L 425 4581 
L 988 4581 
L 988 3934 
L 425 3934 
z
M 425 0 
L 425 3319 
L 988 3319 
L 988 0 
L 425 0 
z
" transform="scale(0.015625)"/>
       <path id="ArialMT-65" d="M 2694 1069 
L 3275 997 
Q 3138 488 2766 206 
Q 2394 -75 1816 -75 
Q 1088 -75 661 373 
Q 234 822 234 1631 
Q 234 2469 665 2931 
Q 1097 3394 1784 3394 
Q 2450 3394 2872 2941 
Q 3294 2488 3294 1666 
Q 3294 1616 3291 1516 
L 816 1516 
Q 847 969 1125 678 
Q 1403 388 1819 388 
Q 2128 388 2347 550 
Q 2566 713 2694 1069 
z
M 847 1978 
L 2700 1978 
Q 2663 2397 2488 2606 
Q 2219 2931 1791 2931 
Q 1403 2931 1139 2672 
Q 875 2413 847 1978 
z
" transform="scale(0.015625)"/>
       <path id="ArialMT-73" d="M 197 991 
L 753 1078 
Q 800 744 1014 566 
Q 1228 388 1613 388 
Q 2000 388 2187 545 
Q 2375 703 2375 916 
Q 2375 1106 2209 1216 
Q 2094 1291 1634 1406 
Q 1016 1563 777 1677 
Q 538 1791 414 1992 
Q 291 2194 291 2438 
Q 291 2659 392 2848 
Q 494 3038 669 3163 
Q 800 3259 1026 3326 
Q 1253 3394 1513 3394 
Q 1903 3394 2198 3281 
Q 2494 3169 2634 2976 
Q 2775 2784 2828 2463 
L 2278 2388 
Q 2241 2644 2061 2787 
Q 1881 2931 1553 2931 
Q 1166 2931 1000 2803 
Q 834 2675 834 2503 
Q 834 2394 903 2306 
Q 972 2216 1119 2156 
Q 1203 2125 1616 2013 
Q 2213 1853 2448 1751 
Q 2684 1650 2818 1456 
Q 2953 1263 2953 975 
Q 2953 694 2789 445 
Q 2625 197 2315 61 
Q 2006 -75 1616 -75 
Q 969 -75 630 194 
Q 291 463 197 991 
z
" transform="scale(0.015625)"/>
      </defs>
      <use xlink:href="#ArialMT-54"/>
      <use xlink:href="#ArialMT-69" x="57.333984"/>
      <use xlink:href="#ArialMT-6d" x="79.550781"/>
      <use xlink:href="#ArialMT-65" x="162.851562"/>
      <use xlink:href="#ArialMT-20" x="218.466797"/>
      <use xlink:href="#ArialMT-5b" x="246.25"/>
      <use xlink:href="#ArialMT-6d" x="274.033203"/>
      <use xlink:href="#ArialMT-73" x="357.333984"/>
      <use xlink:href="#ArialMT-5d" x="407.333984"/>
     </g>
    </g>
   </g>
   <g id="matplotlib.axis_4">
    <g id="ytick_6">
     <g id="line2d_16">
      <path d="M 112.798188 753.725473 
L 702.073188 753.725473 
" clip-path="url(#p5cb2bf572d)" style="fill: none; stroke: #ffffff; stroke-width: 2; stroke-linecap: round"/>
     </g>
     <g id="text_13">
      <!-- −1.0 -->
      <g style="fill: #262626" transform="translate(40.84 763.961145) scale(0.286 -0.286)">
       <defs>
        <path id="ArialMT-31" d="M 2384 0 
L 1822 0 
L 1822 3584 
Q 1619 3391 1289 3197 
Q 959 3003 697 2906 
L 697 3450 
Q 1169 3672 1522 3987 
Q 1875 4303 2022 4600 
L 2384 4600 
L 2384 0 
z
" transform="scale(0.015625)"/>
       </defs>
       <use xlink:href="#ArialMT-2212"/>
       <use xlink:href="#ArialMT-31" x="58.398438"/>
       <use xlink:href="#ArialMT-2e" x="114.013672"/>
       <use xlink:href="#ArialMT-30" x="141.796875"/>
      </g>
     </g>
    </g>
    <g id="ytick_7">
     <g id="line2d_17">
      <path d="M 112.798188 669.495987 
L 702.073188 669.495987 
" clip-path="url(#p5cb2bf572d)" style="fill: none; stroke: #ffffff; stroke-width: 2; stroke-linecap: round"/>
     </g>
     <g id="text_14">
      <!-- −0.5 -->
      <g style="fill: #262626" transform="translate(40.84 679.731659) scale(0.286 -0.286)">
       <defs>
        <path id="ArialMT-35" d="M 266 1200 
L 856 1250 
Q 922 819 1161 601 
Q 1400 384 1738 384 
Q 2144 384 2425 690 
Q 2706 997 2706 1503 
Q 2706 1984 2436 2262 
Q 2166 2541 1728 2541 
Q 1456 2541 1237 2417 
Q 1019 2294 894 2097 
L 366 2166 
L 809 4519 
L 3088 4519 
L 3088 3981 
L 1259 3981 
L 1013 2750 
Q 1425 3038 1878 3038 
Q 2478 3038 2890 2622 
Q 3303 2206 3303 1553 
Q 3303 931 2941 478 
Q 2500 -78 1738 -78 
Q 1113 -78 717 272 
Q 322 622 266 1200 
z
" transform="scale(0.015625)"/>
       </defs>
       <use xlink:href="#ArialMT-2212"/>
       <use xlink:href="#ArialMT-30" x="58.398438"/>
       <use xlink:href="#ArialMT-2e" x="114.013672"/>
       <use xlink:href="#ArialMT-35" x="141.796875"/>
      </g>
     </g>
    </g>
    <g id="ytick_8">
     <g id="line2d_18">
      <path d="M 112.798188 585.266501 
L 702.073188 585.266501 
" clip-path="url(#p5cb2bf572d)" style="fill: none; stroke: #ffffff; stroke-width: 2; stroke-linecap: round"/>
     </g>
     <g id="text_15">
      <!-- 0.0 -->
      <g style="fill: #262626" transform="translate(57.544188 595.502172) scale(0.286 -0.286)">
       <use xlink:href="#ArialMT-30"/>
       <use xlink:href="#ArialMT-2e" x="55.615234"/>
       <use xlink:href="#ArialMT-30" x="83.398438"/>
      </g>
     </g>
    </g>
    <g id="ytick_9">
     <g id="line2d_19">
      <path d="M 112.798188 501.037014 
L 702.073188 501.037014 
" clip-path="url(#p5cb2bf572d)" style="fill: none; stroke: #ffffff; stroke-width: 2; stroke-linecap: round"/>
     </g>
     <g id="text_16">
      <!-- 0.5 -->
      <g style="fill: #262626" transform="translate(57.544188 511.272686) scale(0.286 -0.286)">
       <use xlink:href="#ArialMT-30"/>
       <use xlink:href="#ArialMT-2e" x="55.615234"/>
       <use xlink:href="#ArialMT-35" x="83.398438"/>
      </g>
     </g>
    </g>
    <g id="ytick_10">
     <g id="line2d_20">
      <path d="M 112.798188 416.807528 
L 702.073188 416.807528 
" clip-path="url(#p5cb2bf572d)" style="fill: none; stroke: #ffffff; stroke-width: 2; stroke-linecap: round"/>
     </g>
     <g id="text_17">
      <!-- 1.0 -->
      <g style="fill: #262626" transform="translate(57.544188 427.0432) scale(0.286 -0.286)">
       <use xlink:href="#ArialMT-31"/>
       <use xlink:href="#ArialMT-2e" x="55.615234"/>
       <use xlink:href="#ArialMT-30" x="83.398438"/>
      </g>
     </g>
    </g>
    <g id="text_18">
     <!-- $M_n$(t) [AU] -->
     <g style="fill: #262626" transform="translate(29.976 655.622501) rotate(-90) scale(0.312 -0.312)">
      <defs>
       <path id="DejaVuSans-Oblique-4d" d="M 1081 4666 
L 2028 4666 
L 2572 1522 
L 4378 4666 
L 5350 4666 
L 4441 0 
L 3828 0 
L 4622 4091 
L 2791 897 
L 2175 897 
L 1581 4103 
L 788 0 
L 172 0 
L 1081 4666 
z
" transform="scale(0.015625)"/>
       <path id="DejaVuSans-Oblique-6e" d="M 3566 2113 
L 3156 0 
L 2578 0 
L 2988 2091 
Q 3016 2238 3031 2350 
Q 3047 2463 3047 2528 
Q 3047 2791 2881 2937 
Q 2716 3084 2419 3084 
Q 1956 3084 1622 2776 
Q 1288 2469 1184 1941 
L 800 0 
L 225 0 
L 903 3500 
L 1478 3500 
L 1363 2950 
Q 1603 3253 1940 3418 
Q 2278 3584 2650 3584 
Q 3113 3584 3367 3334 
Q 3622 3084 3622 2631 
Q 3622 2519 3608 2391 
Q 3594 2263 3566 2113 
z
" transform="scale(0.015625)"/>
       <path id="ArialMT-41" d="M -9 0 
L 1750 4581 
L 2403 4581 
L 4278 0 
L 3588 0 
L 3053 1388 
L 1138 1388 
L 634 0 
L -9 0 
z
M 1313 1881 
L 2866 1881 
L 2388 3150 
Q 2169 3728 2063 4100 
Q 1975 3659 1816 3225 
L 1313 1881 
z
" transform="scale(0.015625)"/>
       <path id="ArialMT-55" d="M 3500 4581 
L 4106 4581 
L 4106 1934 
Q 4106 1244 3950 837 
Q 3794 431 3386 176 
Q 2978 -78 2316 -78 
Q 1672 -78 1262 144 
Q 853 366 678 786 
Q 503 1206 503 1934 
L 503 4581 
L 1109 4581 
L 1109 1938 
Q 1109 1341 1220 1058 
Q 1331 775 1601 622 
Q 1872 469 2263 469 
Q 2931 469 3215 772 
Q 3500 1075 3500 1938 
L 3500 4581 
z
" transform="scale(0.015625)"/>
      </defs>
      <use xlink:href="#DejaVuSans-Oblique-4d" transform="translate(0 0.09375)"/>
      <use xlink:href="#DejaVuSans-Oblique-6e" transform="translate(86.279297 -16.3125) scale(0.7)"/>
      <use xlink:href="#ArialMT-28" transform="translate(133.378906 0.09375)"/>
      <use xlink:href="#ArialMT-74" transform="translate(166.679688 0.09375)"/>
      <use xlink:href="#ArialMT-29" transform="translate(194.462891 0.09375)"/>
      <use xlink:href="#ArialMT-20" transform="translate(227.763672 0.09375)"/>
      <use xlink:href="#ArialMT-5b" transform="translate(255.546875 0.09375)"/>
      <use xlink:href="#ArialMT-41" transform="translate(283.330078 0.09375)"/>
      <use xlink:href="#ArialMT-55" transform="translate(350.029297 0.09375)"/>
      <use xlink:href="#ArialMT-5d" transform="translate(422.246094 0.09375)"/>
     </g>
    </g>
   </g>
   <g id="line2d_21">
    <path d="M 139.583415 585.266501 
L 176.704663 585.15733 
L 177.476088 584.79401 
L 178.233227 584.18986 
L 179.083223 583.219443 
L 180.026076 581.781229 
L 181.12607 579.660808 
L 260.568542 419.636029 
L 261.568538 418.294104 
L 262.475676 417.447049 
L 263.254244 417.000869 
L 263.989954 416.817353 
L 264.747094 416.870847 
L 265.468519 417.149778 
L 266.218515 417.675871 
L 267.068511 418.5631 
L 268.004221 419.897493 
L 269.025644 421.779157 
L 348.7824 582.438 
L 349.782396 583.779925 
L 350.689534 584.626979 
L 351.468102 585.07316 
L 352.203812 585.256675 
L 353.782376 585.266391 
L 435.846264 585.375447 
L 436.617689 585.738767 
L 437.374828 586.342917 
L 438.224824 587.313334 
L 439.167677 588.751548 
L 440.267671 590.871969 
L 519.710143 750.896748 
L 520.710138 752.238673 
L 521.617277 753.085728 
L 522.395844 753.531908 
L 523.131555 753.715424 
L 523.888694 753.66193 
L 524.610119 753.382999 
L 525.360116 752.856906 
L 526.210112 751.969677 
L 527.145821 750.635284 
L 528.167245 748.75362 
L 607.924001 588.094777 
L 608.923996 586.752852 
L 609.831135 585.905798 
L 610.609702 585.459617 
L 611.345413 585.276102 
L 612.923977 585.266386 
L 675.28796 585.266386 
L 675.28796 585.266386 
" clip-path="url(#p5cb2bf572d)" style="fill: none; stroke: #1f77b4; stroke-width: 5; stroke-linecap: round"/>
   </g>
   <g id="line2d_22">
    <path d="M 139.583415 585.266501 
L 178.404655 585.155661 
L 180.66893 584.833767 
L 187.290326 583.44762 
L 194.240293 581.770266 
L 201.21883 579.856859 
L 208.225939 577.704579 
L 215.261619 575.310593 
L 222.333014 572.669271 
L 229.447265 569.774014 
L 236.604373 566.620509 
L 243.804338 563.204417 
L 251.054303 559.51762 
L 258.354267 555.554989 
L 261.032826 554.182018 
L 262.432819 553.759498 
L 263.818527 553.575061 
L 265.139949 553.620602 
L 266.489942 553.89532 
L 267.854221 554.412274 
L 269.289929 555.212604 
L 276.725607 559.89063 
L 284.218428 564.868317 
L 291.768391 570.15172 
L 299.38264 575.752325 
L 307.061174 581.677055 
L 314.811137 587.938795 
L 322.632527 594.545375 
L 330.525346 601.504697 
L 338.489593 608.824737 
L 346.525269 616.513541 
L 348.975257 618.749318 
L 350.103823 619.431367 
L 351.182389 619.835423 
L 352.210955 619.992825 
L 355.253798 619.997384 
L 435.996263 620.107994 
L 436.896259 620.459359 
L 437.796255 621.052931 
L 438.781964 621.98268 
L 439.853387 623.327178 
L 448.889058 636.312669 
L 458.017585 649.822523 
L 467.238969 663.86873 
L 476.55321 678.463402 
L 485.960307 693.618773 
L 495.460261 709.3472 
L 505.053071 725.661162 
L 514.745881 742.585892 
L 519.860142 751.407604 
L 520.86728 752.551337 
L 521.774419 753.252849 
L 522.631558 753.627678 
L 523.438696 753.723613 
L 524.210121 753.58181 
L 525.01726 753.187527 
L 525.845828 752.520783 
L 526.774395 751.456032 
L 527.781533 749.920211 
L 530.095807 745.686629 
L 540.031473 727.158951 
L 550.067139 707.972279 
L 560.202804 688.112417 
L 570.431326 667.57954 
L 580.759847 646.345353 
L 591.188368 624.395246 
L 601.716888 601.714468 
L 608.088286 588.097085 
L 609.045424 586.753367 
L 609.881134 585.930135 
L 610.652559 585.460603 
L 611.381127 585.274192 
L 612.795406 585.266487 
L 675.28796 585.266487 
L 675.28796 585.266487 
" clip-path="url(#p5cb2bf572d)" style="fill: none; stroke: #ff7f0e; stroke-width: 5; stroke-linecap: round"/>
   </g>
   <g id="line2d_23">
    <path d="M 139.583415 585.266501 
L 182.890348 585.155532 
L 195.533143 584.697568 
L 206.818803 584.06955 
L 217.197324 583.271888 
L 226.911563 582.304332 
L 236.104375 581.167145 
L 244.882904 579.858802 
L 253.318578 578.378148 
L 262.904245 576.677309 
L 265.047092 576.654427 
L 267.118511 576.848212 
L 269.147072 577.255993 
L 276.839892 579.259226 
L 284.346999 581.443073 
L 291.696963 583.812336 
L 298.904071 586.368897 
L 305.982608 589.115428 
L 312.954003 592.05872 
L 319.825398 595.200947 
L 326.611079 598.548249 
L 333.325333 602.108237 
L 339.9753 605.88595 
L 346.568125 609.887073 
L 349.196684 611.404019 
L 350.510964 611.866043 
L 351.8181 612.093376 
L 353.425235 612.118628 
L 436.031977 612.228924 
L 436.931973 612.561265 
L 437.896254 613.167066 
L 438.874821 614.04917 
L 439.939101 615.316927 
L 446.38907 624.011684 
L 452.860467 633.110568 
L 459.353293 642.625279 
L 465.867547 652.567691 
L 472.410372 662.961417 
L 478.981769 673.82006 
L 485.581737 685.157456 
L 492.217419 697.000679 
L 498.881673 709.352054 
L 505.58164 722.240181 
L 512.317322 735.681473 
L 520.26014 751.573226 
L 521.160136 752.642033 
L 521.995846 753.31095 
L 522.781557 753.652765 
L 523.517268 753.718476 
L 524.217264 753.551272 
L 524.952975 753.13179 
L 525.717257 752.429893 
L 526.574396 751.317099 
L 527.510105 749.705888 
L 528.731528 747.079922 
L 535.59578 731.606223 
L 542.50289 715.484947 
L 549.452856 698.696075 
L 556.445679 681.219165 
L 563.481359 663.033343 
L 570.559897 644.117295 
L 577.681291 624.449268 
L 584.852684 603.986345 
L 592.066935 582.725229 
L 599.331186 560.620674 
L 606.638293 537.669719 
L 607.902573 534.004949 
L 608.823997 531.997158 
L 609.645421 530.69026 
L 610.395418 529.897771 
L 611.023986 529.529975 
L 611.609698 529.430689 
L 675.28796 529.430689 
L 675.28796 529.430689 
" clip-path="url(#p5cb2bf572d)" style="fill: none; stroke: #2ca02c; stroke-width: 5; stroke-linecap: round"/>
   </g>
   <g id="line2d_24">
    <path d="M 112.798188 585.266501 
L 702.073188 585.266501 
" clip-path="url(#p5cb2bf572d)" style="fill: none; stroke: #000000; stroke-width: 3; stroke-linecap: round"/>
   </g>
   <g id="patch_9">
    <path d="M 112.798188 770.571371 
L 112.798188 399.96163 
" style="fill: none; stroke: #ffffff; stroke-width: 2.5; stroke-linejoin: miter; stroke-linecap: square"/>
   </g>
   <g id="patch_10">
    <path d="M 702.073188 770.571371 
L 702.073188 399.96163 
" style="fill: none; stroke: #ffffff; stroke-width: 2.5; stroke-linejoin: miter; stroke-linecap: square"/>
   </g>
   <g id="patch_11">
    <path d="M 112.798188 770.571371 
L 702.073187 770.571371 
" style="fill: none; stroke: #ffffff; stroke-width: 2.5; stroke-linejoin: miter; stroke-linecap: square"/>
   </g>
   <g id="patch_12">
    <path d="M 112.798188 399.96163 
L 702.073187 399.96163 
" style="fill: none; stroke: #ffffff; stroke-width: 2.5; stroke-linejoin: miter; stroke-linecap: square"/>
   </g>
   <g id="legend_1">
    <g id="patch_13">
     <path d="M 571.073188 758.071371 
L 684.573188 758.071371 
Q 689.573188 758.071371 689.573188 753.071371 
L 689.573188 649.481527 
Q 689.573188 644.481527 684.573188 644.481527 
L 571.073188 644.481527 
Q 566.073188 644.481527 566.073188 649.481527 
L 566.073188 753.071371 
Q 566.073188 758.071371 571.073188 758.071371 
z
" style="fill: #eaeaf2; opacity: 0.8; stroke: #cccccc; stroke-width: 2; stroke-linejoin: miter"/>
    </g>
    <g id="line2d_25">
     <path d="M 576.073188 663.626058 
L 601.073188 663.626058 
L 626.073188 663.626058 
" style="fill: none; stroke: #1f77b4; stroke-width: 5; stroke-linecap: round"/>
    </g>
    <g id="text_19">
     <!-- $M_0$ -->
     <g style="fill: #262626" transform="translate(646.073188 672.376058) scale(0.25 -0.25)">
      <defs>
       <path id="DejaVuSans-30" d="M 2034 4250 
Q 1547 4250 1301 3770 
Q 1056 3291 1056 2328 
Q 1056 1369 1301 889 
Q 1547 409 2034 409 
Q 2525 409 2770 889 
Q 3016 1369 3016 2328 
Q 3016 3291 2770 3770 
Q 2525 4250 2034 4250 
z
M 2034 4750 
Q 2819 4750 3233 4129 
Q 3647 3509 3647 2328 
Q 3647 1150 3233 529 
Q 2819 -91 2034 -91 
Q 1250 -91 836 529 
Q 422 1150 422 2328 
Q 422 3509 836 4129 
Q 1250 4750 2034 4750 
z
" transform="scale(0.015625)"/>
      </defs>
      <use xlink:href="#DejaVuSans-Oblique-4d" transform="translate(0 0.09375)"/>
      <use xlink:href="#DejaVuSans-30" transform="translate(86.279297 -16.3125) scale(0.7)"/>
     </g>
    </g>
    <g id="line2d_26">
     <path d="M 576.073188 698.989339 
L 601.073188 698.989339 
L 626.073188 698.989339 
" style="fill: none; stroke: #ff7f0e; stroke-width: 5; stroke-linecap: round"/>
    </g>
    <g id="text_20">
     <!-- $M_1$ -->
     <g style="fill: #262626" transform="translate(646.073188 707.739339) scale(0.25 -0.25)">
      <defs>
       <path id="DejaVuSans-31" d="M 794 531 
L 1825 531 
L 1825 4091 
L 703 3866 
L 703 4441 
L 1819 4666 
L 2450 4666 
L 2450 531 
L 3481 531 
L 3481 0 
L 794 0 
L 794 531 
z
" transform="scale(0.015625)"/>
      </defs>
      <use xlink:href="#DejaVuSans-Oblique-4d" transform="translate(0 0.09375)"/>
      <use xlink:href="#DejaVuSans-31" transform="translate(86.279297 -16.3125) scale(0.7)"/>
     </g>
    </g>
    <g id="line2d_27">
     <path d="M 576.073188 734.352621 
L 601.073188 734.352621 
L 626.073188 734.352621 
" style="fill: none; stroke: #2ca02c; stroke-width: 5; stroke-linecap: round"/>
    </g>
    <g id="text_21">
     <!-- $M_2$ -->
     <g style="fill: #262626" transform="translate(646.073188 743.102621) scale(0.25 -0.25)">
      <defs>
       <path id="DejaVuSans-32" d="M 1228 531 
L 3431 531 
L 3431 0 
L 469 0 
L 469 531 
Q 828 903 1448 1529 
Q 2069 2156 2228 2338 
Q 2531 2678 2651 2914 
Q 2772 3150 2772 3378 
Q 2772 3750 2511 3984 
Q 2250 4219 1831 4219 
Q 1534 4219 1204 4116 
Q 875 4013 500 3803 
L 500 4441 
Q 881 4594 1212 4672 
Q 1544 4750 1819 4750 
Q 2544 4750 2975 4387 
Q 3406 4025 3406 3419 
Q 3406 3131 3298 2873 
Q 3191 2616 2906 2266 
Q 2828 2175 2409 1742 
Q 1991 1309 1228 531 
z
" transform="scale(0.015625)"/>
      </defs>
      <use xlink:href="#DejaVuSans-Oblique-4d" transform="translate(0 0.09375)"/>
      <use xlink:href="#DejaVuSans-32" transform="translate(86.279297 -16.3125) scale(0.7)"/>
     </g>
    </g>
   </g>
  </g>
 </g>
 <defs>
  <clipPath id="p3e19d6fc30">
   <rect x="112.798188" y="8.61163" width="589.275" height="370.60974"/>
  </clipPath>
  <clipPath id="p5cb2bf572d">
   <rect x="112.798188" y="399.96163" width="589.275" height="370.60974"/>
  </clipPath>
 </defs>
</svg>
