<?xml version="1.0" encoding="utf-8" standalone="no"?>
<!DOCTYPE svg PUBLIC "-//W3C//DTD SVG 1.1//EN"
  "http://www.w3.org/Graphics/SVG/1.1/DTD/svg11.dtd">
<svg xmlns:xlink="http://www.w3.org/1999/xlink" width="666.374562pt" height="808.696969pt" viewBox="0 0 666.374562 808.696969" xmlns="http://www.w3.org/2000/svg" version="1.1">
 <metadata>
  <rdf:RDF xmlns:dc="http://purl.org/dc/elements/1.1/" xmlns:cc="http://creativecommons.org/ns#" xmlns:rdf="http://www.w3.org/1999/02/22-rdf-syntax-ns#">
   <cc:Work>
    <dc:type rdf:resource="http://purl.org/dc/dcmitype/StillImage"/>
    <dc:date>2024-03-05T11:30:54.007493</dc:date>
    <dc:format>image/svg+xml</dc:format>
    <dc:creator>
     <cc:Agent>
      <dc:title>Matplotlib v3.7.1, https://matplotlib.org/</dc:title>
     </cc:Agent>
    </dc:creator>
   </cc:Work>
  </rdf:RDF>
 </metadata>
 <defs>
  <style type="text/css">*{stroke-linejoin: round; stroke-linecap: butt}</style>
 </defs>
 <g id="figure_1">
  <g id="patch_1">
   <path d="M 0 808.696969 
L 666.374562 808.696969 
L 666.374562 0 
L 0 0 
z
" style="fill: #ffffff"/>
  </g>
  <g id="axes_1">
   <g id="patch_2">
    <path d="M 111.691563 348.24089 
L 659.174563 348.24089 
L 659.174563 7.2 
L 111.691563 7.2 
z
" style="fill: #eaeaf2"/>
   </g>
   <g id="matplotlib.axis_1">
    <g id="xtick_1">
     <g id="line2d_1">
      <path d="M 136.577153 348.24089 
L 136.577153 7.2 
" clip-path="url(#pb3915bb969)" style="fill: none; stroke: #ffffff; stroke-width: 2; stroke-linecap: round"/>
     </g>
    </g>
    <g id="xtick_2">
     <g id="line2d_2">
      <path d="M 230.48593 348.24089 
L 230.48593 7.2 
" clip-path="url(#pb3915bb969)" style="fill: none; stroke: #ffffff; stroke-width: 2; stroke-linecap: round"/>
     </g>
    </g>
    <g id="xtick_3">
     <g id="line2d_3">
      <path d="M 324.394706 348.24089 
L 324.394706 7.2 
" clip-path="url(#pb3915bb969)" style="fill: none; stroke: #ffffff; stroke-width: 2; stroke-linecap: round"/>
     </g>
    </g>
    <g id="xtick_4">
     <g id="line2d_4">
      <path d="M 418.303482 348.24089 
L 418.303482 7.2 
" clip-path="url(#pb3915bb969)" style="fill: none; stroke: #ffffff; stroke-width: 2; stroke-linecap: round"/>
     </g>
    </g>
    <g id="xtick_5">
     <g id="line2d_5">
      <path d="M 512.212258 348.24089 
L 512.212258 7.2 
" clip-path="url(#pb3915bb969)" style="fill: none; stroke: #ffffff; stroke-width: 2; stroke-linecap: round"/>
     </g>
    </g>
    <g id="xtick_6">
     <g id="line2d_6">
      <path d="M 606.121034 348.24089 
L 606.121034 7.2 
" clip-path="url(#pb3915bb969)" style="fill: none; stroke: #ffffff; stroke-width: 2; stroke-linecap: round"/>
     </g>
    </g>
   </g>
   <g id="matplotlib.axis_2">
    <g id="ytick_1">
     <g id="line2d_7">
      <path d="M 111.691563 333.668274 
L 659.174563 333.668274 
" clip-path="url(#pb3915bb969)" style="fill: none; stroke: #ffffff; stroke-width: 2; stroke-linecap: round"/>
     </g>
     <g id="text_1">
      <!-- −40 -->
      <g style="fill: #262626" transform="translate(47.678813 343.903946) scale(0.286 -0.286)">
       <defs>
        <path id="ArialMT-2212" d="M 3381 1997 
L 356 1997 
L 356 2522 
L 3381 2522 
L 3381 1997 
z
" transform="scale(0.015625)"/>
        <path id="ArialMT-34" d="M 2069 0 
L 2069 1097 
L 81 1097 
L 81 1613 
L 2172 4581 
L 2631 4581 
L 2631 1613 
L 3250 1613 
L 3250 1097 
L 2631 1097 
L 2631 0 
L 2069 0 
z
M 2069 1613 
L 2069 3678 
L 634 1613 
L 2069 1613 
z
" transform="scale(0.015625)"/>
        <path id="ArialMT-30" d="M 266 2259 
Q 266 3072 433 3567 
Q 600 4063 929 4331 
Q 1259 4600 1759 4600 
Q 2128 4600 2406 4451 
Q 2684 4303 2865 4023 
Q 3047 3744 3150 3342 
Q 3253 2941 3253 2259 
Q 3253 1453 3087 958 
Q 2922 463 2592 192 
Q 2263 -78 1759 -78 
Q 1097 -78 719 397 
Q 266 969 266 2259 
z
M 844 2259 
Q 844 1131 1108 757 
Q 1372 384 1759 384 
Q 2147 384 2411 759 
Q 2675 1134 2675 2259 
Q 2675 3391 2411 3762 
Q 2147 4134 1753 4134 
Q 1366 4134 1134 3806 
Q 844 3388 844 2259 
z
" transform="scale(0.015625)"/>
       </defs>
       <use xlink:href="#ArialMT-2212"/>
       <use xlink:href="#ArialMT-34" x="58.398438"/>
       <use xlink:href="#ArialMT-30" x="114.013672"/>
      </g>
     </g>
    </g>
    <g id="ytick_2">
     <g id="line2d_8">
      <path d="M 111.691563 255.69436 
L 659.174563 255.69436 
" clip-path="url(#pb3915bb969)" style="fill: none; stroke: #ffffff; stroke-width: 2; stroke-linecap: round"/>
     </g>
     <g id="text_2">
      <!-- −20 -->
      <g style="fill: #262626" transform="translate(47.678813 265.930031) scale(0.286 -0.286)">
       <defs>
        <path id="ArialMT-32" d="M 3222 541 
L 3222 0 
L 194 0 
Q 188 203 259 391 
Q 375 700 629 1000 
Q 884 1300 1366 1694 
Q 2113 2306 2375 2664 
Q 2638 3022 2638 3341 
Q 2638 3675 2398 3904 
Q 2159 4134 1775 4134 
Q 1369 4134 1125 3890 
Q 881 3647 878 3216 
L 300 3275 
Q 359 3922 746 4261 
Q 1134 4600 1788 4600 
Q 2447 4600 2831 4234 
Q 3216 3869 3216 3328 
Q 3216 3053 3103 2787 
Q 2991 2522 2730 2228 
Q 2469 1934 1863 1422 
Q 1356 997 1212 845 
Q 1069 694 975 541 
L 3222 541 
z
" transform="scale(0.015625)"/>
       </defs>
       <use xlink:href="#ArialMT-2212"/>
       <use xlink:href="#ArialMT-32" x="58.398438"/>
       <use xlink:href="#ArialMT-30" x="114.013672"/>
      </g>
     </g>
    </g>
    <g id="ytick_3">
     <g id="line2d_9">
      <path d="M 111.691563 177.720445 
L 659.174563 177.720445 
" clip-path="url(#pb3915bb969)" style="fill: none; stroke: #ffffff; stroke-width: 2; stroke-linecap: round"/>
     </g>
     <g id="text_3">
      <!-- 0 -->
      <g style="fill: #262626" transform="translate(80.287281 187.956117) scale(0.286 -0.286)">
       <use xlink:href="#ArialMT-30"/>
      </g>
     </g>
    </g>
    <g id="ytick_4">
     <g id="line2d_10">
      <path d="M 111.691563 99.746531 
L 659.174563 99.746531 
" clip-path="url(#pb3915bb969)" style="fill: none; stroke: #ffffff; stroke-width: 2; stroke-linecap: round"/>
     </g>
     <g id="text_4">
      <!-- 20 -->
      <g style="fill: #262626" transform="translate(64.383 109.982203) scale(0.286 -0.286)">
       <use xlink:href="#ArialMT-32"/>
       <use xlink:href="#ArialMT-30" x="55.615234"/>
      </g>
     </g>
    </g>
    <g id="ytick_5">
     <g id="line2d_11">
      <path d="M 111.691563 21.772616 
L 659.174563 21.772616 
" clip-path="url(#pb3915bb969)" style="fill: none; stroke: #ffffff; stroke-width: 2; stroke-linecap: round"/>
     </g>
     <g id="text_5">
      <!-- 40 -->
      <g style="fill: #262626" transform="translate(64.383 32.008288) scale(0.286 -0.286)">
       <use xlink:href="#ArialMT-34"/>
       <use xlink:href="#ArialMT-30" x="55.615234"/>
      </g>
     </g>
    </g>
    <g id="text_6">
     <!-- G [mT/m] -->
     <g style="fill: #262626" transform="translate(37.477813 242.706633) rotate(-90) scale(0.312 -0.312)">
      <defs>
       <path id="ArialMT-47" d="M 2638 1797 
L 2638 2334 
L 4578 2338 
L 4578 638 
Q 4131 281 3656 101 
Q 3181 -78 2681 -78 
Q 2006 -78 1454 211 
Q 903 500 622 1047 
Q 341 1594 341 2269 
Q 341 2938 620 3517 
Q 900 4097 1425 4378 
Q 1950 4659 2634 4659 
Q 3131 4659 3532 4498 
Q 3934 4338 4162 4050 
Q 4391 3763 4509 3300 
L 3963 3150 
Q 3859 3500 3706 3700 
Q 3553 3900 3268 4020 
Q 2984 4141 2638 4141 
Q 2222 4141 1919 4014 
Q 1616 3888 1430 3681 
Q 1244 3475 1141 3228 
Q 966 2803 966 2306 
Q 966 1694 1177 1281 
Q 1388 869 1791 669 
Q 2194 469 2647 469 
Q 3041 469 3416 620 
Q 3791 772 3984 944 
L 3984 1797 
L 2638 1797 
z
" transform="scale(0.015625)"/>
       <path id="ArialMT-20" transform="scale(0.015625)"/>
       <path id="ArialMT-5b" d="M 434 -1272 
L 434 4581 
L 1675 4581 
L 1675 4116 
L 997 4116 
L 997 -806 
L 1675 -806 
L 1675 -1272 
L 434 -1272 
z
" transform="scale(0.015625)"/>
       <path id="ArialMT-6d" d="M 422 0 
L 422 3319 
L 925 3319 
L 925 2853 
Q 1081 3097 1340 3245 
Q 1600 3394 1931 3394 
Q 2300 3394 2536 3241 
Q 2772 3088 2869 2813 
Q 3263 3394 3894 3394 
Q 4388 3394 4653 3120 
Q 4919 2847 4919 2278 
L 4919 0 
L 4359 0 
L 4359 2091 
Q 4359 2428 4304 2576 
Q 4250 2725 4106 2815 
Q 3963 2906 3769 2906 
Q 3419 2906 3187 2673 
Q 2956 2441 2956 1928 
L 2956 0 
L 2394 0 
L 2394 2156 
Q 2394 2531 2256 2718 
Q 2119 2906 1806 2906 
Q 1569 2906 1367 2781 
Q 1166 2656 1075 2415 
Q 984 2175 984 1722 
L 984 0 
L 422 0 
z
" transform="scale(0.015625)"/>
       <path id="ArialMT-54" d="M 1659 0 
L 1659 4041 
L 150 4041 
L 150 4581 
L 3781 4581 
L 3781 4041 
L 2266 4041 
L 2266 0 
L 1659 0 
z
" transform="scale(0.015625)"/>
       <path id="ArialMT-2f" d="M 0 -78 
L 1328 4659 
L 1778 4659 
L 453 -78 
L 0 -78 
z
" transform="scale(0.015625)"/>
       <path id="ArialMT-5d" d="M 1363 -1272 
L 122 -1272 
L 122 -806 
L 800 -806 
L 800 4116 
L 122 4116 
L 122 4581 
L 1363 4581 
L 1363 -1272 
z
" transform="scale(0.015625)"/>
      </defs>
      <use xlink:href="#ArialMT-47"/>
      <use xlink:href="#ArialMT-20" x="77.783203"/>
      <use xlink:href="#ArialMT-5b" x="105.566406"/>
      <use xlink:href="#ArialMT-6d" x="133.349609"/>
      <use xlink:href="#ArialMT-54" x="216.650391"/>
      <use xlink:href="#ArialMT-2f" x="277.734375"/>
      <use xlink:href="#ArialMT-6d" x="305.517578"/>
      <use xlink:href="#ArialMT-5d" x="388.818359"/>
     </g>
    </g>
   </g>
   <g id="line2d_12">
    <path d="M 136.577153 177.720445 
L 161.542802 177.720445 
L 161.674274 183.592356 
L 161.683665 183.592356 
L 161.805746 190.63866 
L 161.824528 190.63866 
L 161.946609 197.684956 
L 161.965391 197.684956 
L 162.087472 204.731252 
L 162.106254 204.731252 
L 162.228336 211.777556 
L 162.247117 211.777556 
L 162.369199 218.823852 
L 162.387981 218.823852 
L 162.510062 225.870156 
L 162.528844 225.870156 
L 162.650925 232.916452 
L 162.669707 232.916452 
L 162.791788 239.962756 
L 162.81057 239.962756 
L 162.932651 247.009052 
L 162.951433 247.009052 
L 163.073515 254.055356 
L 163.092296 254.055356 
L 163.214378 261.101652 
L 163.23316 261.101652 
L 163.355241 268.147948 
L 163.374023 268.147948 
L 163.496104 275.194252 
L 163.514886 275.194252 
L 163.636967 282.240548 
L 163.655749 282.240548 
L 163.77783 289.286851 
L 163.796612 289.286851 
L 163.918694 296.333147 
L 163.937475 296.333147 
L 164.059557 303.379451 
L 164.078339 303.379451 
L 164.20042 310.425747 
L 164.219202 310.425747 
L 164.341283 317.472051 
L 164.360065 317.472051 
L 164.482146 324.518347 
L 164.500928 324.518347 
L 164.623009 331.564643 
L 164.641791 331.564643 
L 164.754482 332.739032 
L 248.220602 332.739032 
L 248.352074 326.867108 
L 248.361465 326.867108 
L 248.483547 319.820805 
L 248.502328 319.820805 
L 248.62441 312.774509 
L 248.643191 312.774509 
L 248.765273 305.728213 
L 248.784055 305.728213 
L 248.906136 298.681909 
L 248.924918 298.681909 
L 249.046999 291.635613 
L 249.065781 291.635613 
L 249.187862 284.589309 
L 249.206644 284.589309 
L 249.328725 277.543013 
L 249.347507 277.543013 
L 249.469589 270.496709 
L 249.48837 270.496709 
L 249.610452 263.450413 
L 249.629234 263.450413 
L 249.751315 256.404109 
L 249.770097 256.404109 
L 249.892178 249.357813 
L 249.91096 249.357813 
L 250.033041 242.311517 
L 250.051823 242.311517 
L 250.173904 235.265213 
L 250.192686 235.265213 
L 250.314768 228.218917 
L 250.333549 228.218917 
L 250.455631 221.172614 
L 250.474413 221.172614 
L 250.596494 214.126318 
L 250.615276 214.126318 
L 250.737357 207.080014 
L 250.756139 207.080014 
L 250.87822 200.033718 
L 250.897002 200.033718 
L 251.019083 192.987414 
L 251.037865 192.987414 
L 251.159947 185.941118 
L 251.178728 185.941118 
L 251.30081 178.894814 
L 251.319592 178.894814 
L 251.441673 171.848534 
L 251.460455 171.848534 
L 251.582536 164.80223 
L 251.601318 164.80223 
L 251.723399 157.755934 
L 251.742181 157.755934 
L 251.864262 150.709638 
L 251.883044 150.709638 
L 252.005126 143.663334 
L 252.023907 143.663334 
L 252.145989 136.617038 
L 252.164771 136.617038 
L 252.286852 129.570734 
L 252.305634 129.570734 
L 252.427715 122.524438 
L 252.446497 122.524438 
L 252.568578 115.478134 
L 252.58736 115.478134 
L 252.709441 108.431838 
L 252.728223 108.431838 
L 252.850305 101.385535 
L 252.869086 101.385535 
L 252.991168 94.339239 
L 253.00995 94.339239 
L 253.132031 87.292943 
L 253.150813 87.292943 
L 253.272894 80.246639 
L 253.291676 80.246639 
L 253.413757 73.200343 
L 253.432539 73.200343 
L 253.55462 66.154039 
L 253.573402 66.154039 
L 253.695484 59.107743 
L 253.714265 59.107743 
L 253.836347 52.061439 
L 253.855129 52.061439 
L 253.97721 45.015143 
L 253.995992 45.015143 
L 254.118073 37.968839 
L 254.136855 37.968839 
L 254.258936 30.922543 
L 254.277718 30.922543 
L 254.399799 23.876239 
L 254.418581 23.876239 
L 254.531272 22.701859 
L 337.997392 22.701859 
L 338.128864 28.573782 
L 338.138255 28.573782 
L 338.260337 35.620086 
L 338.279118 35.620086 
L 338.4012 42.666382 
L 338.419981 42.666382 
L 338.542063 49.712678 
L 338.560845 49.712678 
L 338.682926 56.758981 
L 338.701708 56.758981 
L 338.823789 63.805277 
L 338.842571 63.805277 
L 338.964652 70.851581 
L 338.983434 70.851581 
L 339.105516 77.897877 
L 339.124297 77.897877 
L 339.246379 84.944181 
L 339.26516 84.944181 
L 339.387242 91.990477 
L 339.406024 91.990477 
L 339.528105 99.036781 
L 339.546887 99.036781 
L 339.668968 106.083077 
L 339.68775 106.083077 
L 339.809831 113.129373 
L 339.828613 113.129373 
L 339.950694 120.175677 
L 339.969476 120.175677 
L 340.091558 127.221973 
L 340.110339 127.221973 
L 340.232421 134.268277 
L 340.251203 134.268277 
L 340.373284 141.314573 
L 340.392066 141.314573 
L 340.514147 148.360876 
L 340.532929 148.360876 
L 340.65501 155.407172 
L 340.673792 155.407172 
L 340.795873 162.453476 
L 340.814655 162.453476 
L 340.936737 169.499772 
L 340.955518 169.499772 
L 341.0776 176.546076 
L 341.091686 176.546076 
L 341.204377 177.720445 
L 404.48011 177.720445 
L 404.592801 225.870156 
L 404.625669 225.870156 
L 404.74775 232.916452 
L 404.766532 232.916452 
L 404.888613 239.962756 
L 404.907395 239.962756 
L 405.029476 247.009052 
L 405.048258 247.009052 
L 405.17034 254.055356 
L 405.189121 254.055356 
L 405.311203 261.101652 
L 405.329984 261.101652 
L 405.452066 268.147948 
L 405.470848 268.147948 
L 405.592929 275.194252 
L 405.611711 275.194252 
L 405.733792 282.240548 
L 405.752574 282.240548 
L 405.874655 289.286851 
L 405.893437 289.286851 
L 406.015519 296.333147 
L 406.0343 296.333147 
L 406.156382 303.379451 
L 406.175163 303.379451 
L 406.297245 310.425747 
L 406.316027 310.425747 
L 406.438108 317.472051 
L 406.45689 317.472051 
L 406.578971 324.518347 
L 406.597753 324.518347 
L 406.719834 331.564651 
L 406.738616 331.564651 
L 406.851307 332.739032 
L 490.317427 332.739032 
L 490.448899 326.867108 
L 490.45829 326.867108 
L 490.580371 319.820805 
L 490.599153 319.820805 
L 490.721235 312.774509 
L 490.740016 312.774509 
L 490.862098 305.728213 
L 490.88088 305.728213 
L 491.002961 298.681909 
L 491.021743 298.681909 
L 491.143824 291.635613 
L 491.162606 291.635613 
L 491.284687 284.589309 
L 491.303469 284.589309 
L 491.42555 277.543013 
L 491.444332 277.543013 
L 491.566414 270.496709 
L 491.585195 270.496709 
L 491.707277 263.450413 
L 491.726059 263.450413 
L 491.84814 256.404109 
L 491.866922 256.404109 
L 491.989003 249.357813 
L 492.007785 249.357813 
L 492.129866 242.311517 
L 492.148648 242.311517 
L 492.270729 235.265213 
L 492.289511 235.265213 
L 492.411593 228.218917 
L 492.430374 228.218917 
L 492.552456 221.172614 
L 492.571237 221.172614 
L 492.693319 214.126318 
L 492.712101 214.126318 
L 492.834182 207.080014 
L 492.852964 207.080014 
L 492.975045 200.033718 
L 492.993827 200.033718 
L 493.115908 192.987414 
L 493.13469 192.987414 
L 493.256772 185.941118 
L 493.275553 185.941118 
L 493.397635 178.894814 
L 493.416416 178.894814 
L 493.538498 171.848534 
L 493.55728 171.848534 
L 493.679361 164.80223 
L 493.698143 164.80223 
L 493.820224 157.755934 
L 493.839006 157.755934 
L 493.961087 150.709638 
L 493.979869 150.709638 
L 494.101951 143.663334 
L 494.120732 143.663334 
L 494.242814 136.617038 
L 494.261595 136.617038 
L 494.383677 129.570734 
L 494.402459 129.570734 
L 494.52454 122.524438 
L 494.543322 122.524438 
L 494.665403 115.478134 
L 494.684185 115.478134 
L 494.806266 108.431838 
L 494.825048 108.431838 
L 494.94713 101.385535 
L 494.965911 101.385535 
L 495.087993 94.339239 
L 495.106774 94.339239 
L 495.228856 87.292943 
L 495.247638 87.292943 
L 495.369719 80.246639 
L 495.388501 80.246639 
L 495.510582 73.200343 
L 495.529364 73.200343 
L 495.651445 66.154039 
L 495.670227 66.154039 
L 495.792309 59.107743 
L 495.81109 59.107743 
L 495.933172 52.061439 
L 495.951953 52.061439 
L 496.074035 45.015143 
L 496.092817 45.015143 
L 496.214898 37.968839 
L 496.23368 37.968839 
L 496.355761 30.922543 
L 496.374543 30.922543 
L 496.496624 23.876239 
L 496.515406 23.876239 
L 496.628097 22.701859 
L 580.094217 22.701859 
L 580.225689 28.573782 
L 580.23508 28.573782 
L 580.357161 35.620086 
L 580.375943 35.620086 
L 580.498025 42.666382 
L 580.516806 42.666382 
L 580.638888 49.712678 
L 580.65767 49.712678 
L 580.779751 56.758981 
L 580.798533 56.758981 
L 580.920614 63.805277 
L 580.939396 63.805277 
L 581.061477 70.851581 
L 581.080259 70.851581 
L 581.20234 77.897877 
L 581.221122 77.897877 
L 581.343204 84.944181 
L 581.361985 84.944181 
L 581.484067 91.990477 
L 581.502849 91.990477 
L 581.62493 99.036781 
L 581.643712 99.036781 
L 581.765793 106.083077 
L 581.784575 106.083077 
L 581.906656 113.129373 
L 581.925438 113.129373 
L 582.047519 120.175677 
L 582.066301 120.175677 
L 582.188383 127.221973 
L 582.207164 127.221973 
L 582.329246 134.268277 
L 582.348027 134.268277 
L 582.470109 141.314573 
L 582.488891 141.314573 
L 582.610972 148.360876 
L 582.629754 148.360876 
L 582.751835 155.407172 
L 582.770617 155.407172 
L 582.892698 162.453476 
L 582.91148 162.453476 
L 583.033562 169.499772 
L 583.052343 169.499772 
L 583.174425 176.546076 
L 583.188511 176.546076 
L 583.301202 177.720445 
L 634.288972 177.720445 
L 634.288972 177.720445 
" clip-path="url(#pb3915bb969)" style="fill: none; stroke: #808080; stroke-width: 5; stroke-linecap: round"/>
   </g>
   <g id="line2d_13">
    <path d="M 111.691563 177.720445 
L 659.174563 177.720445 
" clip-path="url(#pb3915bb969)" style="fill: none; stroke: #1a1a1a; stroke-width: 3; stroke-linecap: round"/>
   </g>
   <g id="patch_3">
    <path d="M 111.691563 348.24089 
L 111.691563 7.2 
" style="fill: none; stroke: #ffffff; stroke-width: 2.5; stroke-linejoin: miter; stroke-linecap: square"/>
   </g>
   <g id="patch_4">
    <path d="M 659.174563 348.24089 
L 659.174563 7.2 
" style="fill: none; stroke: #ffffff; stroke-width: 2.5; stroke-linejoin: miter; stroke-linecap: square"/>
   </g>
   <g id="patch_5">
    <path d="M 111.691563 348.24089 
L 659.174562 348.24089 
" style="fill: none; stroke: #ffffff; stroke-width: 2.5; stroke-linejoin: miter; stroke-linecap: square"/>
   </g>
   <g id="patch_6">
    <path d="M 111.691563 7.2 
L 659.174562 7.2 
" style="fill: none; stroke: #ffffff; stroke-width: 2.5; stroke-linejoin: miter; stroke-linecap: square"/>
   </g>
   <g id="text_7">
    <g id="patch_7">
     <path d="M 436.500073 343.688846 
L 642.750073 343.688846 
Q 655.250073 343.688846 655.250073 331.188846 
L 655.250073 307.938846 
Q 655.250073 295.438846 642.750073 295.438846 
L 436.500073 295.438846 
Q 424.000073 295.438846 424.000073 307.938846 
L 424.000073 331.188846 
Q 424.000073 343.688846 436.500073 343.688846 
z
" style="fill: #eaeaf2; opacity: 0.9; stroke: #d3d3d3; stroke-width: 2; stroke-linejoin: miter"/>
    </g>
    <!-- $G_{max}$ = 39.8 mT/m -->
    <g style="fill: #262626" transform="translate(436.500073 326.220096) scale(0.25 -0.25)">
     <defs>
      <path id="DejaVuSans-Oblique-47" d="M 3494 697 
L 3738 1919 
L 2700 1919 
L 2797 2438 
L 4453 2438 
L 4050 384 
Q 3634 156 3143 32 
Q 2653 -91 2156 -91 
Q 1278 -91 783 396 
Q 288 884 288 1753 
Q 288 2475 589 3126 
Q 891 3778 1422 4213 
Q 1756 4484 2153 4617 
Q 2550 4750 3034 4750 
Q 3472 4750 3873 4639 
Q 4275 4528 4641 4306 
L 4513 3634 
Q 4231 3928 3853 4083 
Q 3475 4238 3047 4238 
Q 2550 4238 2172 4048 
Q 1794 3859 1497 3463 
Q 1244 3125 1098 2667 
Q 953 2209 953 1734 
Q 953 1081 1287 751 
Q 1622 422 2284 422 
Q 2616 422 2925 492 
Q 3234 563 3494 697 
z
" transform="scale(0.015625)"/>
      <path id="DejaVuSans-Oblique-6d" d="M 5747 2113 
L 5338 0 
L 4763 0 
L 5166 2094 
Q 5191 2228 5203 2325 
Q 5216 2422 5216 2491 
Q 5216 2772 5059 2928 
Q 4903 3084 4622 3084 
Q 4203 3084 3875 2770 
Q 3547 2456 3450 1953 
L 3066 0 
L 2491 0 
L 2900 2094 
Q 2925 2209 2937 2307 
Q 2950 2406 2950 2484 
Q 2950 2769 2794 2926 
Q 2638 3084 2363 3084 
Q 1938 3084 1609 2770 
Q 1281 2456 1184 1953 
L 800 0 
L 225 0 
L 909 3500 
L 1484 3500 
L 1375 2956 
Q 1609 3263 1923 3423 
Q 2238 3584 2597 3584 
Q 2978 3584 3223 3384 
Q 3469 3184 3519 2828 
Q 3781 3197 4126 3390 
Q 4472 3584 4856 3584 
Q 5306 3584 5551 3325 
Q 5797 3066 5797 2591 
Q 5797 2488 5784 2364 
Q 5772 2241 5747 2113 
z
" transform="scale(0.015625)"/>
      <path id="DejaVuSans-Oblique-61" d="M 3438 1997 
L 3047 0 
L 2472 0 
L 2578 531 
Q 2325 219 2001 64 
Q 1678 -91 1281 -91 
Q 834 -91 548 182 
Q 263 456 263 884 
Q 263 1497 752 1853 
Q 1241 2209 2100 2209 
L 2900 2209 
L 2931 2363 
Q 2938 2388 2941 2417 
Q 2944 2447 2944 2509 
Q 2944 2788 2717 2942 
Q 2491 3097 2081 3097 
Q 1800 3097 1504 3025 
Q 1209 2953 897 2809 
L 997 3341 
Q 1322 3463 1633 3523 
Q 1944 3584 2234 3584 
Q 2853 3584 3176 3315 
Q 3500 3047 3500 2534 
Q 3500 2431 3484 2292 
Q 3469 2153 3438 1997 
z
M 2816 1759 
L 2241 1759 
Q 1534 1759 1195 1570 
Q 856 1381 856 984 
Q 856 709 1029 553 
Q 1203 397 1509 397 
Q 1978 397 2328 733 
Q 2678 1069 2791 1631 
L 2816 1759 
z
" transform="scale(0.015625)"/>
      <path id="DejaVuSans-Oblique-78" d="M 3841 3500 
L 2234 1784 
L 3219 0 
L 2559 0 
L 1819 1388 
L 531 0 
L -166 0 
L 1556 1844 
L 641 3500 
L 1300 3500 
L 1972 2234 
L 3144 3500 
L 3841 3500 
z
" transform="scale(0.015625)"/>
      <path id="ArialMT-3d" d="M 3381 2694 
L 356 2694 
L 356 3219 
L 3381 3219 
L 3381 2694 
z
M 3381 1303 
L 356 1303 
L 356 1828 
L 3381 1828 
L 3381 1303 
z
" transform="scale(0.015625)"/>
      <path id="ArialMT-33" d="M 269 1209 
L 831 1284 
Q 928 806 1161 595 
Q 1394 384 1728 384 
Q 2125 384 2398 659 
Q 2672 934 2672 1341 
Q 2672 1728 2419 1979 
Q 2166 2231 1775 2231 
Q 1616 2231 1378 2169 
L 1441 2663 
Q 1497 2656 1531 2656 
Q 1891 2656 2178 2843 
Q 2466 3031 2466 3422 
Q 2466 3731 2256 3934 
Q 2047 4138 1716 4138 
Q 1388 4138 1169 3931 
Q 950 3725 888 3313 
L 325 3413 
Q 428 3978 793 4289 
Q 1159 4600 1703 4600 
Q 2078 4600 2393 4439 
Q 2709 4278 2876 4000 
Q 3044 3722 3044 3409 
Q 3044 3113 2884 2869 
Q 2725 2625 2413 2481 
Q 2819 2388 3044 2092 
Q 3269 1797 3269 1353 
Q 3269 753 2831 336 
Q 2394 -81 1725 -81 
Q 1122 -81 723 278 
Q 325 638 269 1209 
z
" transform="scale(0.015625)"/>
      <path id="ArialMT-39" d="M 350 1059 
L 891 1109 
Q 959 728 1153 556 
Q 1347 384 1650 384 
Q 1909 384 2104 503 
Q 2300 622 2425 820 
Q 2550 1019 2634 1356 
Q 2719 1694 2719 2044 
Q 2719 2081 2716 2156 
Q 2547 1888 2255 1720 
Q 1963 1553 1622 1553 
Q 1053 1553 659 1965 
Q 266 2378 266 3053 
Q 266 3750 677 4175 
Q 1088 4600 1706 4600 
Q 2153 4600 2523 4359 
Q 2894 4119 3086 3673 
Q 3278 3228 3278 2384 
Q 3278 1506 3087 986 
Q 2897 466 2520 194 
Q 2144 -78 1638 -78 
Q 1100 -78 759 220 
Q 419 519 350 1059 
z
M 2653 3081 
Q 2653 3566 2395 3850 
Q 2138 4134 1775 4134 
Q 1400 4134 1122 3828 
Q 844 3522 844 3034 
Q 844 2597 1108 2323 
Q 1372 2050 1759 2050 
Q 2150 2050 2401 2323 
Q 2653 2597 2653 3081 
z
" transform="scale(0.015625)"/>
      <path id="ArialMT-2e" d="M 581 0 
L 581 641 
L 1222 641 
L 1222 0 
L 581 0 
z
" transform="scale(0.015625)"/>
      <path id="ArialMT-38" d="M 1131 2484 
Q 781 2613 612 2850 
Q 444 3088 444 3419 
Q 444 3919 803 4259 
Q 1163 4600 1759 4600 
Q 2359 4600 2725 4251 
Q 3091 3903 3091 3403 
Q 3091 3084 2923 2848 
Q 2756 2613 2416 2484 
Q 2838 2347 3058 2040 
Q 3278 1734 3278 1309 
Q 3278 722 2862 322 
Q 2447 -78 1769 -78 
Q 1091 -78 675 323 
Q 259 725 259 1325 
Q 259 1772 486 2073 
Q 713 2375 1131 2484 
z
M 1019 3438 
Q 1019 3113 1228 2906 
Q 1438 2700 1772 2700 
Q 2097 2700 2305 2904 
Q 2513 3109 2513 3406 
Q 2513 3716 2298 3927 
Q 2084 4138 1766 4138 
Q 1444 4138 1231 3931 
Q 1019 3725 1019 3438 
z
M 838 1322 
Q 838 1081 952 856 
Q 1066 631 1291 507 
Q 1516 384 1775 384 
Q 2178 384 2440 643 
Q 2703 903 2703 1303 
Q 2703 1709 2433 1975 
Q 2163 2241 1756 2241 
Q 1359 2241 1098 1978 
Q 838 1716 838 1322 
z
" transform="scale(0.015625)"/>
     </defs>
     <use xlink:href="#DejaVuSans-Oblique-47" transform="translate(0 0.78125)"/>
     <use xlink:href="#DejaVuSans-Oblique-6d" transform="translate(77.490234 -15.625) scale(0.7)"/>
     <use xlink:href="#DejaVuSans-Oblique-61" transform="translate(145.678711 -15.625) scale(0.7)"/>
     <use xlink:href="#DejaVuSans-Oblique-78" transform="translate(188.574219 -15.625) scale(0.7)"/>
     <use xlink:href="#ArialMT-20" transform="translate(232.734375 0.78125)"/>
     <use xlink:href="#ArialMT-3d" transform="translate(260.517578 0.78125)"/>
     <use xlink:href="#ArialMT-20" transform="translate(318.916016 0.78125)"/>
     <use xlink:href="#ArialMT-33" transform="translate(346.699219 0.78125)"/>
     <use xlink:href="#ArialMT-39" transform="translate(402.314453 0.78125)"/>
     <use xlink:href="#ArialMT-2e" transform="translate(457.929688 0.78125)"/>
     <use xlink:href="#ArialMT-38" transform="translate(485.712891 0.78125)"/>
     <use xlink:href="#ArialMT-20" transform="translate(541.328125 0.78125)"/>
     <use xlink:href="#ArialMT-6d" transform="translate(569.111328 0.78125)"/>
     <use xlink:href="#ArialMT-54" transform="translate(652.412109 0.78125)"/>
     <use xlink:href="#ArialMT-2f" transform="translate(713.496094 0.78125)"/>
     <use xlink:href="#ArialMT-6d" transform="translate(741.279297 0.78125)"/>
    </g>
   </g>
  </g>
  <g id="axes_2">
   <g id="patch_8">
    <path d="M 111.691563 727.308 
L 659.174563 727.308 
L 659.174563 386.26711 
L 111.691563 386.26711 
z
" style="fill: #eaeaf2"/>
   </g>
   <g id="matplotlib.axis_3">
    <g id="xtick_7">
     <g id="line2d_14">
      <path d="M 136.577153 727.308 
L 136.577153 386.26711 
" clip-path="url(#pd34b864b9d)" style="fill: none; stroke: #ffffff; stroke-width: 2; stroke-linecap: round"/>
     </g>
     <g id="text_8">
      <!-- 0 -->
      <g style="fill: #262626" transform="translate(128.625013 763.279344) scale(0.286 -0.286)">
       <use xlink:href="#ArialMT-30"/>
      </g>
     </g>
    </g>
    <g id="xtick_8">
     <g id="line2d_15">
      <path d="M 230.48593 727.308 
L 230.48593 386.26711 
" clip-path="url(#pd34b864b9d)" style="fill: none; stroke: #ffffff; stroke-width: 2; stroke-linecap: round"/>
     </g>
     <g id="text_9">
      <!-- 20 -->
      <g style="fill: #262626" transform="translate(214.581648 763.279344) scale(0.286 -0.286)">
       <use xlink:href="#ArialMT-32"/>
       <use xlink:href="#ArialMT-30" x="55.615234"/>
      </g>
     </g>
    </g>
    <g id="xtick_9">
     <g id="line2d_16">
      <path d="M 324.394706 727.308 
L 324.394706 386.26711 
" clip-path="url(#pd34b864b9d)" style="fill: none; stroke: #ffffff; stroke-width: 2; stroke-linecap: round"/>
     </g>
     <g id="text_10">
      <!-- 40 -->
      <g style="fill: #262626" transform="translate(308.490424 763.279344) scale(0.286 -0.286)">
       <use xlink:href="#ArialMT-34"/>
       <use xlink:href="#ArialMT-30" x="55.615234"/>
      </g>
     </g>
    </g>
    <g id="xtick_10">
     <g id="line2d_17">
      <path d="M 418.303482 727.308 
L 418.303482 386.26711 
" clip-path="url(#pd34b864b9d)" style="fill: none; stroke: #ffffff; stroke-width: 2; stroke-linecap: round"/>
     </g>
     <g id="text_11">
      <!-- 60 -->
      <g style="fill: #262626" transform="translate(402.399201 763.279344) scale(0.286 -0.286)">
       <defs>
        <path id="ArialMT-36" d="M 3184 3459 
L 2625 3416 
Q 2550 3747 2413 3897 
Q 2184 4138 1850 4138 
Q 1581 4138 1378 3988 
Q 1113 3794 959 3422 
Q 806 3050 800 2363 
Q 1003 2672 1297 2822 
Q 1591 2972 1913 2972 
Q 2475 2972 2870 2558 
Q 3266 2144 3266 1488 
Q 3266 1056 3080 686 
Q 2894 316 2569 119 
Q 2244 -78 1831 -78 
Q 1128 -78 684 439 
Q 241 956 241 2144 
Q 241 3472 731 4075 
Q 1159 4600 1884 4600 
Q 2425 4600 2770 4297 
Q 3116 3994 3184 3459 
z
M 888 1484 
Q 888 1194 1011 928 
Q 1134 663 1356 523 
Q 1578 384 1822 384 
Q 2178 384 2434 671 
Q 2691 959 2691 1453 
Q 2691 1928 2437 2201 
Q 2184 2475 1800 2475 
Q 1419 2475 1153 2201 
Q 888 1928 888 1484 
z
" transform="scale(0.015625)"/>
       </defs>
       <use xlink:href="#ArialMT-36"/>
       <use xlink:href="#ArialMT-30" x="55.615234"/>
      </g>
     </g>
    </g>
    <g id="xtick_11">
     <g id="line2d_18">
      <path d="M 512.212258 727.308 
L 512.212258 386.26711 
" clip-path="url(#pd34b864b9d)" style="fill: none; stroke: #ffffff; stroke-width: 2; stroke-linecap: round"/>
     </g>
     <g id="text_12">
      <!-- 80 -->
      <g style="fill: #262626" transform="translate(496.307977 763.279344) scale(0.286 -0.286)">
       <use xlink:href="#ArialMT-38"/>
       <use xlink:href="#ArialMT-30" x="55.615234"/>
      </g>
     </g>
    </g>
    <g id="xtick_12">
     <g id="line2d_19">
      <path d="M 606.121034 727.308 
L 606.121034 386.26711 
" clip-path="url(#pd34b864b9d)" style="fill: none; stroke: #ffffff; stroke-width: 2; stroke-linecap: round"/>
     </g>
     <g id="text_13">
      <!-- 100 -->
      <g style="fill: #262626" transform="translate(582.264612 763.279344) scale(0.286 -0.286)">
       <defs>
        <path id="ArialMT-31" d="M 2384 0 
L 1822 0 
L 1822 3584 
Q 1619 3391 1289 3197 
Q 959 3003 697 2906 
L 697 3450 
Q 1169 3672 1522 3987 
Q 1875 4303 2022 4600 
L 2384 4600 
L 2384 0 
z
" transform="scale(0.015625)"/>
       </defs>
       <use xlink:href="#ArialMT-31"/>
       <use xlink:href="#ArialMT-30" x="55.615234"/>
       <use xlink:href="#ArialMT-30" x="111.230469"/>
      </g>
     </g>
    </g>
    <g id="text_14">
     <!-- Time [ms] -->
     <g style="fill: #262626" transform="translate(317.558438 795.295969) scale(0.312 -0.312)">
      <defs>
       <path id="ArialMT-69" d="M 425 3934 
L 425 4581 
L 988 4581 
L 988 3934 
L 425 3934 
z
M 425 0 
L 425 3319 
L 988 3319 
L 988 0 
L 425 0 
z
" transform="scale(0.015625)"/>
       <path id="ArialMT-65" d="M 2694 1069 
L 3275 997 
Q 3138 488 2766 206 
Q 2394 -75 1816 -75 
Q 1088 -75 661 373 
Q 234 822 234 1631 
Q 234 2469 665 2931 
Q 1097 3394 1784 3394 
Q 2450 3394 2872 2941 
Q 3294 2488 3294 1666 
Q 3294 1616 3291 1516 
L 816 1516 
Q 847 969 1125 678 
Q 1403 388 1819 388 
Q 2128 388 2347 550 
Q 2566 713 2694 1069 
z
M 847 1978 
L 2700 1978 
Q 2663 2397 2488 2606 
Q 2219 2931 1791 2931 
Q 1403 2931 1139 2672 
Q 875 2413 847 1978 
z
" transform="scale(0.015625)"/>
       <path id="ArialMT-73" d="M 197 991 
L 753 1078 
Q 800 744 1014 566 
Q 1228 388 1613 388 
Q 2000 388 2187 545 
Q 2375 703 2375 916 
Q 2375 1106 2209 1216 
Q 2094 1291 1634 1406 
Q 1016 1563 777 1677 
Q 538 1791 414 1992 
Q 291 2194 291 2438 
Q 291 2659 392 2848 
Q 494 3038 669 3163 
Q 800 3259 1026 3326 
Q 1253 3394 1513 3394 
Q 1903 3394 2198 3281 
Q 2494 3169 2634 2976 
Q 2775 2784 2828 2463 
L 2278 2388 
Q 2241 2644 2061 2787 
Q 1881 2931 1553 2931 
Q 1166 2931 1000 2803 
Q 834 2675 834 2503 
Q 834 2394 903 2306 
Q 972 2216 1119 2156 
Q 1203 2125 1616 2013 
Q 2213 1853 2448 1751 
Q 2684 1650 2818 1456 
Q 2953 1263 2953 975 
Q 2953 694 2789 445 
Q 2625 197 2315 61 
Q 2006 -75 1616 -75 
Q 969 -75 630 194 
Q 291 463 197 991 
z
" transform="scale(0.015625)"/>
      </defs>
      <use xlink:href="#ArialMT-54"/>
      <use xlink:href="#ArialMT-69" x="57.333984"/>
      <use xlink:href="#ArialMT-6d" x="79.550781"/>
      <use xlink:href="#ArialMT-65" x="162.851562"/>
      <use xlink:href="#ArialMT-20" x="218.466797"/>
      <use xlink:href="#ArialMT-5b" x="246.25"/>
      <use xlink:href="#ArialMT-6d" x="274.033203"/>
      <use xlink:href="#ArialMT-73" x="357.333984"/>
      <use xlink:href="#ArialMT-5d" x="407.333984"/>
     </g>
    </g>
   </g>
   <g id="matplotlib.axis_4">
    <g id="ytick_6">
     <g id="line2d_20">
      <path d="M 111.691563 711.806141 
L 659.174563 711.806141 
" clip-path="url(#pd34b864b9d)" style="fill: none; stroke: #ffffff; stroke-width: 2; stroke-linecap: round"/>
     </g>
     <g id="text_15">
      <!-- −1.0 -->
      <g style="fill: #262626" transform="translate(39.733375 722.041813) scale(0.286 -0.286)">
       <use xlink:href="#ArialMT-2212"/>
       <use xlink:href="#ArialMT-31" x="58.398438"/>
       <use xlink:href="#ArialMT-2e" x="114.013672"/>
       <use xlink:href="#ArialMT-30" x="141.796875"/>
      </g>
     </g>
    </g>
    <g id="ytick_7">
     <g id="line2d_21">
      <path d="M 111.691563 634.296848 
L 659.174563 634.296848 
" clip-path="url(#pd34b864b9d)" style="fill: none; stroke: #ffffff; stroke-width: 2; stroke-linecap: round"/>
     </g>
     <g id="text_16">
      <!-- −0.5 -->
      <g style="fill: #262626" transform="translate(39.733375 644.53252) scale(0.286 -0.286)">
       <defs>
        <path id="ArialMT-35" d="M 266 1200 
L 856 1250 
Q 922 819 1161 601 
Q 1400 384 1738 384 
Q 2144 384 2425 690 
Q 2706 997 2706 1503 
Q 2706 1984 2436 2262 
Q 2166 2541 1728 2541 
Q 1456 2541 1237 2417 
Q 1019 2294 894 2097 
L 366 2166 
L 809 4519 
L 3088 4519 
L 3088 3981 
L 1259 3981 
L 1013 2750 
Q 1425 3038 1878 3038 
Q 2478 3038 2890 2622 
Q 3303 2206 3303 1553 
Q 3303 931 2941 478 
Q 2500 -78 1738 -78 
Q 1113 -78 717 272 
Q 322 622 266 1200 
z
" transform="scale(0.015625)"/>
       </defs>
       <use xlink:href="#ArialMT-2212"/>
       <use xlink:href="#ArialMT-30" x="58.398438"/>
       <use xlink:href="#ArialMT-2e" x="114.013672"/>
       <use xlink:href="#ArialMT-35" x="141.796875"/>
      </g>
     </g>
    </g>
    <g id="ytick_8">
     <g id="line2d_22">
      <path d="M 111.691563 556.787555 
L 659.174563 556.787555 
" clip-path="url(#pd34b864b9d)" style="fill: none; stroke: #ffffff; stroke-width: 2; stroke-linecap: round"/>
     </g>
     <g id="text_17">
      <!-- 0.0 -->
      <g style="fill: #262626" transform="translate(56.437563 567.023227) scale(0.286 -0.286)">
       <use xlink:href="#ArialMT-30"/>
       <use xlink:href="#ArialMT-2e" x="55.615234"/>
       <use xlink:href="#ArialMT-30" x="83.398438"/>
      </g>
     </g>
    </g>
    <g id="ytick_9">
     <g id="line2d_23">
      <path d="M 111.691563 479.278262 
L 659.174563 479.278262 
" clip-path="url(#pd34b864b9d)" style="fill: none; stroke: #ffffff; stroke-width: 2; stroke-linecap: round"/>
     </g>
     <g id="text_18">
      <!-- 0.5 -->
      <g style="fill: #262626" transform="translate(56.437563 489.513934) scale(0.286 -0.286)">
       <use xlink:href="#ArialMT-30"/>
       <use xlink:href="#ArialMT-2e" x="55.615234"/>
       <use xlink:href="#ArialMT-35" x="83.398438"/>
      </g>
     </g>
    </g>
    <g id="ytick_10">
     <g id="line2d_24">
      <path d="M 111.691563 401.768968 
L 659.174563 401.768968 
" clip-path="url(#pd34b864b9d)" style="fill: none; stroke: #ffffff; stroke-width: 2; stroke-linecap: round"/>
     </g>
     <g id="text_19">
      <!-- 1.0 -->
      <g style="fill: #262626" transform="translate(56.437563 412.00464) scale(0.286 -0.286)">
       <use xlink:href="#ArialMT-31"/>
       <use xlink:href="#ArialMT-2e" x="55.615234"/>
       <use xlink:href="#ArialMT-30" x="83.398438"/>
      </g>
     </g>
    </g>
    <g id="text_20">
     <!-- Moments -->
     <g style="fill: #262626" transform="translate(29.532375 620.935242) rotate(-90) scale(0.312 -0.312)">
      <defs>
       <path id="ArialMT-4d" d="M 475 0 
L 475 4581 
L 1388 4581 
L 2472 1338 
Q 2622 884 2691 659 
Q 2769 909 2934 1394 
L 4031 4581 
L 4847 4581 
L 4847 0 
L 4263 0 
L 4263 3834 
L 2931 0 
L 2384 0 
L 1059 3900 
L 1059 0 
L 475 0 
z
" transform="scale(0.015625)"/>
       <path id="ArialMT-6f" d="M 213 1659 
Q 213 2581 725 3025 
Q 1153 3394 1769 3394 
Q 2453 3394 2887 2945 
Q 3322 2497 3322 1706 
Q 3322 1066 3130 698 
Q 2938 331 2570 128 
Q 2203 -75 1769 -75 
Q 1072 -75 642 372 
Q 213 819 213 1659 
z
M 791 1659 
Q 791 1022 1069 705 
Q 1347 388 1769 388 
Q 2188 388 2466 706 
Q 2744 1025 2744 1678 
Q 2744 2294 2464 2611 
Q 2184 2928 1769 2928 
Q 1347 2928 1069 2612 
Q 791 2297 791 1659 
z
" transform="scale(0.015625)"/>
       <path id="ArialMT-6e" d="M 422 0 
L 422 3319 
L 928 3319 
L 928 2847 
Q 1294 3394 1984 3394 
Q 2284 3394 2536 3286 
Q 2788 3178 2913 3003 
Q 3038 2828 3088 2588 
Q 3119 2431 3119 2041 
L 3119 0 
L 2556 0 
L 2556 2019 
Q 2556 2363 2490 2533 
Q 2425 2703 2258 2804 
Q 2091 2906 1866 2906 
Q 1506 2906 1245 2678 
Q 984 2450 984 1813 
L 984 0 
L 422 0 
z
" transform="scale(0.015625)"/>
       <path id="ArialMT-74" d="M 1650 503 
L 1731 6 
Q 1494 -44 1306 -44 
Q 1000 -44 831 53 
Q 663 150 594 308 
Q 525 466 525 972 
L 525 2881 
L 113 2881 
L 113 3319 
L 525 3319 
L 525 4141 
L 1084 4478 
L 1084 3319 
L 1650 3319 
L 1650 2881 
L 1084 2881 
L 1084 941 
Q 1084 700 1114 631 
Q 1144 563 1211 522 
Q 1278 481 1403 481 
Q 1497 481 1650 503 
z
" transform="scale(0.015625)"/>
      </defs>
      <use xlink:href="#ArialMT-4d"/>
      <use xlink:href="#ArialMT-6f" x="83.300781"/>
      <use xlink:href="#ArialMT-6d" x="138.916016"/>
      <use xlink:href="#ArialMT-65" x="222.216797"/>
      <use xlink:href="#ArialMT-6e" x="277.832031"/>
      <use xlink:href="#ArialMT-74" x="333.447266"/>
      <use xlink:href="#ArialMT-73" x="361.230469"/>
     </g>
    </g>
   </g>
   <g id="line2d_25">
    <path d="M 136.577153 556.787555 
L 162.162599 556.898504 
L 162.815265 557.254827 
L 163.524277 557.920587 
L 164.30372 558.987201 
L 165.48697 561.0703 
L 249.10804 710.394782 
L 249.878092 711.206417 
L 250.591799 711.653141 
L 251.235074 711.803978 
L 251.868958 711.718921 
L 252.493451 711.408531 
L 253.197767 710.788258 
L 253.97721 709.767957 
L 254.982034 708.027248 
L 338.88483 558.198914 
L 339.654882 557.387279 
L 340.368589 556.940555 
L 341.011864 556.789718 
L 343.796259 556.787618 
L 404.682014 556.677878 
L 405.367548 556.129875 
L 406.08595 555.26461 
L 406.949911 553.842436 
L 491.204865 403.384286 
L 491.974917 402.572651 
L 492.688623 402.125927 
L 493.331899 401.97509 
L 493.965783 402.060147 
L 494.590276 402.370538 
L 495.294592 402.99081 
L 496.074035 404.011111 
L 497.078859 405.75182 
L 580.981655 555.580154 
L 581.751707 556.391789 
L 582.465413 556.838513 
L 583.108689 556.98935 
L 585.893084 556.99145 
L 634.288972 556.99145 
L 634.288972 556.99145 
" clip-path="url(#pd34b864b9d)" style="fill: none; stroke: #4c72b0; stroke-width: 5; stroke-linecap: round"/>
   </g>
   <g id="line2d_26">
    <path d="M 136.577153 556.787555 
L 163.951562 556.898408 
L 167.449664 557.342919 
L 174.544472 558.431103 
L 181.658061 559.747347 
L 188.790433 561.293435 
L 195.946282 563.0724 
L 203.130303 565.087882 
L 210.342497 567.342585 
L 217.587559 569.840919 
L 224.870185 572.587916 
L 232.190374 575.587233 
L 239.552822 578.844699 
L 246.962224 582.366783 
L 249.525934 583.50456 
L 250.709185 583.736586 
L 251.897131 583.739568 
L 253.056904 583.515722 
L 254.240154 583.051624 
L 257.789906 581.165179 
L 265.316695 576.973698 
L 272.899828 572.495569 
L 280.539307 567.725079 
L 288.235131 562.656473 
L 295.991996 557.280622 
L 303.814597 551.587696 
L 311.702935 545.570821 
L 319.657008 539.223067 
L 327.681513 532.533445 
L 335.776449 525.4944 
L 339.086734 522.704296 
L 340.039908 522.277943 
L 340.932041 522.118369 
L 343.317324 522.114352 
L 404.771227 522.003716 
L 405.578843 521.52471 
L 406.428717 520.74627 
L 407.926562 518.958995 
L 416.772769 508.088879 
L 425.703493 496.761208 
L 434.723431 484.959654 
L 443.827887 472.679889 
L 453.021556 459.905007 
L 462.304439 446.624042 
L 471.68123 432.818915 
L 481.147235 418.485064 
L 491.641541 402.574514 
L 492.420983 402.022784 
L 493.106518 401.793727 
L 493.77327 401.801794 
L 494.430631 402.033485 
L 495.120861 402.51673 
L 495.886217 403.341171 
L 496.740787 404.608515 
L 506.450955 420.401603 
L 516.255031 436.773666 
L 526.153016 453.73701 
L 536.149605 471.312421 
L 546.240103 489.504503 
L 556.429205 508.334708 
L 566.716912 527.816465 
L 577.098527 547.954118 
L 581.028609 555.423935 
L 581.779879 556.283478 
L 582.446632 556.744713 
L 583.080516 556.919291 
L 584.611229 556.923466 
L 634.288972 556.923466 
L 634.288972 556.923466 
" clip-path="url(#pd34b864b9d)" style="fill: none; stroke: #dd8452; stroke-width: 5; stroke-linecap: round"/>
   </g>
   <g id="line2d_27">
    <path d="M 136.577153 556.787555 
L 170.99472 556.898622 
L 184.733574 557.255528 
L 196.617729 557.78283 
L 207.379675 558.479908 
L 217.357483 559.346608 
L 226.743665 560.383064 
L 235.664999 561.590167 
L 244.206002 562.968666 
L 250.624667 563.979056 
L 252.502842 563.948894 
L 254.319977 563.695518 
L 260.353616 562.367022 
L 268.087004 560.463958 
L 275.618487 558.382411 
L 282.980935 556.117465 
L 290.188434 553.668134 
L 297.26446 551.029128 
L 304.223101 548.197011 
L 311.083137 545.165116 
L 317.853959 541.929515 
L 324.54496 538.485559 
L 331.165528 534.827763 
L 337.729752 530.946838 
L 339.166556 530.198915 
L 340.241812 529.898196 
L 341.302981 529.824181 
L 404.794704 529.714221 
L 405.611711 529.265068 
L 406.503844 528.501612 
L 408.527578 526.268323 
L 414.871116 519.018138 
L 421.224045 511.41829 
L 427.59106 503.453512 
L 433.976857 495.1074 
L 440.37674 486.375438 
L 446.8001 477.23361 
L 453.246937 467.669717 
L 459.717252 457.671371 
L 466.215739 447.218285 
L 472.742399 436.29676 
L 479.301927 424.884526 
L 485.894324 412.966431 
L 491.453723 402.955271 
L 492.21908 402.211858 
L 492.885832 401.856266 
L 493.491544 401.770884 
L 494.083169 401.907323 
L 494.717053 402.296416 
L 495.37911 402.972797 
L 496.106903 404.037193 
L 497.163377 406.052453 
L 503.849682 419.423885 
L 510.57355 433.370471 
L 517.334982 447.909871 
L 524.133977 463.060104 
L 530.975232 478.850577 
L 537.858745 495.3012 
L 544.784517 512.432305 
L 551.752548 530.264658 
L 558.762838 548.819457 
L 565.815387 568.118342 
L 572.914891 588.196899 
L 580.061349 609.079005 
L 580.948787 611.368612 
L 581.704752 612.728189 
L 582.348027 613.453955 
L 582.91148 613.761649 
L 583.517192 613.800077 
L 634.288972 613.800077 
L 634.288972 613.800077 
" clip-path="url(#pd34b864b9d)" style="fill: none; stroke: #55a868; stroke-width: 5; stroke-linecap: round"/>
   </g>
   <g id="line2d_28">
    <path d="M 111.691563 556.787555 
L 659.174563 556.787555 
" clip-path="url(#pd34b864b9d)" style="fill: none; stroke: #1a1a1a; stroke-width: 3; stroke-linecap: round"/>
   </g>
   <g id="patch_9">
    <path d="M 111.691563 727.308 
L 111.691563 386.26711 
" style="fill: none; stroke: #ffffff; stroke-width: 2.5; stroke-linejoin: miter; stroke-linecap: square"/>
   </g>
   <g id="patch_10">
    <path d="M 659.174563 727.308 
L 659.174563 386.26711 
" style="fill: none; stroke: #ffffff; stroke-width: 2.5; stroke-linejoin: miter; stroke-linecap: square"/>
   </g>
   <g id="patch_11">
    <path d="M 111.691563 727.308 
L 659.174562 727.308 
" style="fill: none; stroke: #ffffff; stroke-width: 2.5; stroke-linejoin: miter; stroke-linecap: square"/>
   </g>
   <g id="patch_12">
    <path d="M 111.691563 386.26711 
L 659.174562 386.26711 
" style="fill: none; stroke: #ffffff; stroke-width: 2.5; stroke-linejoin: miter; stroke-linecap: square"/>
   </g>
   <g id="legend_1">
    <g id="patch_13">
     <path d="M 464.174563 714.808 
L 641.674563 714.808 
Q 646.674563 714.808 646.674563 709.808 
L 646.674563 606.218156 
Q 646.674563 601.218156 641.674563 601.218156 
L 464.174563 601.218156 
Q 459.174563 601.218156 459.174563 606.218156 
L 459.174563 709.808 
Q 459.174563 714.808 464.174563 714.808 
z
" style="fill: #eaeaf2; opacity: 0.8; stroke: #cccccc; stroke-width: 2; stroke-linejoin: miter"/>
    </g>
    <g id="line2d_29">
     <path d="M 469.174563 620.362687 
L 494.174563 620.362687 
L 519.174563 620.362687 
" style="fill: none; stroke: #4c72b0; stroke-width: 5; stroke-linecap: round"/>
    </g>
    <g id="text_21">
     <!-- $M_0$ -->
     <g style="fill: #262626" transform="translate(539.174563 629.112687) scale(0.25 -0.25)">
      <defs>
       <path id="DejaVuSans-Oblique-4d" d="M 1081 4666 
L 2028 4666 
L 2572 1522 
L 4378 4666 
L 5350 4666 
L 4441 0 
L 3828 0 
L 4622 4091 
L 2791 897 
L 2175 897 
L 1581 4103 
L 788 0 
L 172 0 
L 1081 4666 
z
" transform="scale(0.015625)"/>
       <path id="DejaVuSans-30" d="M 2034 4250 
Q 1547 4250 1301 3770 
Q 1056 3291 1056 2328 
Q 1056 1369 1301 889 
Q 1547 409 2034 409 
Q 2525 409 2770 889 
Q 3016 1369 3016 2328 
Q 3016 3291 2770 3770 
Q 2525 4250 2034 4250 
z
M 2034 4750 
Q 2819 4750 3233 4129 
Q 3647 3509 3647 2328 
Q 3647 1150 3233 529 
Q 2819 -91 2034 -91 
Q 1250 -91 836 529 
Q 422 1150 422 2328 
Q 422 3509 836 4129 
Q 1250 4750 2034 4750 
z
" transform="scale(0.015625)"/>
      </defs>
      <use xlink:href="#DejaVuSans-Oblique-4d" transform="translate(0 0.09375)"/>
      <use xlink:href="#DejaVuSans-30" transform="translate(86.279297 -16.3125) scale(0.7)"/>
     </g>
    </g>
    <g id="line2d_30">
     <path d="M 469.174563 655.725969 
L 494.174563 655.725969 
L 519.174563 655.725969 
" style="fill: none; stroke: #dd8452; stroke-width: 5; stroke-linecap: round"/>
    </g>
    <g id="text_22">
     <!-- $M_1$ -->
     <g style="fill: #262626" transform="translate(539.174563 664.475969) scale(0.25 -0.25)">
      <defs>
       <path id="DejaVuSans-31" d="M 794 531 
L 1825 531 
L 1825 4091 
L 703 3866 
L 703 4441 
L 1819 4666 
L 2450 4666 
L 2450 531 
L 3481 531 
L 3481 0 
L 794 0 
L 794 531 
z
" transform="scale(0.015625)"/>
      </defs>
      <use xlink:href="#DejaVuSans-Oblique-4d" transform="translate(0 0.09375)"/>
      <use xlink:href="#DejaVuSans-31" transform="translate(86.279297 -16.3125) scale(0.7)"/>
     </g>
    </g>
    <g id="line2d_31">
     <path d="M 469.174563 691.08925 
L 494.174563 691.08925 
L 519.174563 691.08925 
" style="fill: none; stroke: #55a868; stroke-width: 5; stroke-linecap: round"/>
    </g>
    <g id="text_23">
     <!-- $M_1+M_2$ -->
     <g style="fill: #262626" transform="translate(539.174563 699.83925) scale(0.25 -0.25)">
      <defs>
       <path id="DejaVuSans-2b" d="M 2944 4013 
L 2944 2272 
L 4684 2272 
L 4684 1741 
L 2944 1741 
L 2944 0 
L 2419 0 
L 2419 1741 
L 678 1741 
L 678 2272 
L 2419 2272 
L 2419 4013 
L 2944 4013 
z
" transform="scale(0.015625)"/>
       <path id="DejaVuSans-32" d="M 1228 531 
L 3431 531 
L 3431 0 
L 469 0 
L 469 531 
Q 828 903 1448 1529 
Q 2069 2156 2228 2338 
Q 2531 2678 2651 2914 
Q 2772 3150 2772 3378 
Q 2772 3750 2511 3984 
Q 2250 4219 1831 4219 
Q 1534 4219 1204 4116 
Q 875 4013 500 3803 
L 500 4441 
Q 881 4594 1212 4672 
Q 1544 4750 1819 4750 
Q 2544 4750 2975 4387 
Q 3406 4025 3406 3419 
Q 3406 3131 3298 2873 
Q 3191 2616 2906 2266 
Q 2828 2175 2409 1742 
Q 1991 1309 1228 531 
z
" transform="scale(0.015625)"/>
      </defs>
      <use xlink:href="#DejaVuSans-Oblique-4d" transform="translate(0 0.09375)"/>
      <use xlink:href="#DejaVuSans-31" transform="translate(86.279297 -16.3125) scale(0.7)"/>
      <use xlink:href="#DejaVuSans-2b" transform="translate(153.032227 0.09375)"/>
      <use xlink:href="#DejaVuSans-Oblique-4d" transform="translate(256.303711 0.09375)"/>
      <use xlink:href="#DejaVuSans-32" transform="translate(342.583008 -16.3125) scale(0.7)"/>
     </g>
    </g>
   </g>
  </g>
 </g>
 <defs>
  <clipPath id="pb3915bb969">
   <rect x="111.691563" y="7.2" width="547.483" height="341.04089"/>
  </clipPath>
  <clipPath id="pd34b864b9d">
   <rect x="111.691563" y="386.26711" width="547.483" height="341.04089"/>
  </clipPath>
 </defs>
</svg>
