<?xml version="1.0" encoding="utf-8" standalone="no"?>
<!DOCTYPE svg PUBLIC "-//W3C//DTD SVG 1.1//EN"
  "http://www.w3.org/Graphics/SVG/1.1/DTD/svg11.dtd">
<svg xmlns:xlink="http://www.w3.org/1999/xlink" width="666.374562pt" height="808.696969pt" viewBox="0 0 666.374562 808.696969" xmlns="http://www.w3.org/2000/svg" version="1.1">
 <metadata>
  <rdf:RDF xmlns:dc="http://purl.org/dc/elements/1.1/" xmlns:cc="http://creativecommons.org/ns#" xmlns:rdf="http://www.w3.org/1999/02/22-rdf-syntax-ns#">
   <cc:Work>
    <dc:type rdf:resource="http://purl.org/dc/dcmitype/StillImage"/>
    <dc:date>2024-03-05T11:33:52.357992</dc:date>
    <dc:format>image/svg+xml</dc:format>
    <dc:creator>
     <cc:Agent>
      <dc:title>Matplotlib v3.7.1, https://matplotlib.org/</dc:title>
     </cc:Agent>
    </dc:creator>
   </cc:Work>
  </rdf:RDF>
 </metadata>
 <defs>
  <style type="text/css">*{stroke-linejoin: round; stroke-linecap: butt}</style>
 </defs>
 <g id="figure_1">
  <g id="patch_1">
   <path d="M 0 808.696969 
L 666.374562 808.696969 
L 666.374562 0 
L 0 0 
z
" style="fill: #ffffff"/>
  </g>
  <g id="axes_1">
   <g id="patch_2">
    <path d="M 111.691563 344.552087 
L 659.174563 344.552087 
L 659.174563 7.2 
L 111.691563 7.2 
z
" style="fill: #eaeaf2"/>
   </g>
   <g id="matplotlib.axis_1">
    <g id="xtick_1">
     <g id="line2d_1">
      <path d="M 136.577153 344.552087 
L 136.577153 7.2 
" clip-path="url(#ped7abd6f7b)" style="fill: none; stroke: #ffffff; stroke-width: 2; stroke-linecap: round"/>
     </g>
    </g>
    <g id="xtick_2">
     <g id="line2d_2">
      <path d="M 242.475538 344.552087 
L 242.475538 7.2 
" clip-path="url(#ped7abd6f7b)" style="fill: none; stroke: #ffffff; stroke-width: 2; stroke-linecap: round"/>
     </g>
    </g>
    <g id="xtick_3">
     <g id="line2d_3">
      <path d="M 348.373923 344.552087 
L 348.373923 7.2 
" clip-path="url(#ped7abd6f7b)" style="fill: none; stroke: #ffffff; stroke-width: 2; stroke-linecap: round"/>
     </g>
    </g>
    <g id="xtick_4">
     <g id="line2d_4">
      <path d="M 454.272307 344.552087 
L 454.272307 7.2 
" clip-path="url(#ped7abd6f7b)" style="fill: none; stroke: #ffffff; stroke-width: 2; stroke-linecap: round"/>
     </g>
    </g>
    <g id="xtick_5">
     <g id="line2d_5">
      <path d="M 560.170692 344.552087 
L 560.170692 7.2 
" clip-path="url(#ped7abd6f7b)" style="fill: none; stroke: #ffffff; stroke-width: 2; stroke-linecap: round"/>
     </g>
    </g>
   </g>
   <g id="matplotlib.axis_2">
    <g id="ytick_1">
     <g id="line2d_6">
      <path d="M 111.691563 338.530936 
L 659.174563 338.530936 
" clip-path="url(#ped7abd6f7b)" style="fill: none; stroke: #ffffff; stroke-width: 2; stroke-linecap: round"/>
     </g>
     <g id="text_1">
      <!-- −40 -->
      <g style="fill: #262626" transform="translate(47.678813 348.766608) scale(0.286 -0.286)">
       <defs>
        <path id="ArialMT-2212" d="M 3381 1997 
L 356 1997 
L 356 2522 
L 3381 2522 
L 3381 1997 
z
" transform="scale(0.015625)"/>
        <path id="ArialMT-34" d="M 2069 0 
L 2069 1097 
L 81 1097 
L 81 1613 
L 2172 4581 
L 2631 4581 
L 2631 1613 
L 3250 1613 
L 3250 1097 
L 2631 1097 
L 2631 0 
L 2069 0 
z
M 2069 1613 
L 2069 3678 
L 634 1613 
L 2069 1613 
z
" transform="scale(0.015625)"/>
        <path id="ArialMT-30" d="M 266 2259 
Q 266 3072 433 3567 
Q 600 4063 929 4331 
Q 1259 4600 1759 4600 
Q 2128 4600 2406 4451 
Q 2684 4303 2865 4023 
Q 3047 3744 3150 3342 
Q 3253 2941 3253 2259 
Q 3253 1453 3087 958 
Q 2922 463 2592 192 
Q 2263 -78 1759 -78 
Q 1097 -78 719 397 
Q 266 969 266 2259 
z
M 844 2259 
Q 844 1131 1108 757 
Q 1372 384 1759 384 
Q 2147 384 2411 759 
Q 2675 1134 2675 2259 
Q 2675 3391 2411 3762 
Q 2147 4134 1753 4134 
Q 1366 4134 1134 3806 
Q 844 3388 844 2259 
z
" transform="scale(0.015625)"/>
       </defs>
       <use xlink:href="#ArialMT-2212"/>
       <use xlink:href="#ArialMT-34" x="58.398438"/>
       <use xlink:href="#ArialMT-30" x="114.013672"/>
      </g>
     </g>
    </g>
    <g id="ytick_2">
     <g id="line2d_7">
      <path d="M 111.691563 261.1347 
L 659.174563 261.1347 
" clip-path="url(#ped7abd6f7b)" style="fill: none; stroke: #ffffff; stroke-width: 2; stroke-linecap: round"/>
     </g>
     <g id="text_2">
      <!-- −30 -->
      <g style="fill: #262626" transform="translate(47.678813 271.370372) scale(0.286 -0.286)">
       <defs>
        <path id="ArialMT-33" d="M 269 1209 
L 831 1284 
Q 928 806 1161 595 
Q 1394 384 1728 384 
Q 2125 384 2398 659 
Q 2672 934 2672 1341 
Q 2672 1728 2419 1979 
Q 2166 2231 1775 2231 
Q 1616 2231 1378 2169 
L 1441 2663 
Q 1497 2656 1531 2656 
Q 1891 2656 2178 2843 
Q 2466 3031 2466 3422 
Q 2466 3731 2256 3934 
Q 2047 4138 1716 4138 
Q 1388 4138 1169 3931 
Q 950 3725 888 3313 
L 325 3413 
Q 428 3978 793 4289 
Q 1159 4600 1703 4600 
Q 2078 4600 2393 4439 
Q 2709 4278 2876 4000 
Q 3044 3722 3044 3409 
Q 3044 3113 2884 2869 
Q 2725 2625 2413 2481 
Q 2819 2388 3044 2092 
Q 3269 1797 3269 1353 
Q 3269 753 2831 336 
Q 2394 -81 1725 -81 
Q 1122 -81 723 278 
Q 325 638 269 1209 
z
" transform="scale(0.015625)"/>
       </defs>
       <use xlink:href="#ArialMT-2212"/>
       <use xlink:href="#ArialMT-33" x="58.398438"/>
       <use xlink:href="#ArialMT-30" x="114.013672"/>
      </g>
     </g>
    </g>
    <g id="ytick_3">
     <g id="line2d_8">
      <path d="M 111.691563 183.738464 
L 659.174563 183.738464 
" clip-path="url(#ped7abd6f7b)" style="fill: none; stroke: #ffffff; stroke-width: 2; stroke-linecap: round"/>
     </g>
     <g id="text_3">
      <!-- −20 -->
      <g style="fill: #262626" transform="translate(47.678813 193.974136) scale(0.286 -0.286)">
       <defs>
        <path id="ArialMT-32" d="M 3222 541 
L 3222 0 
L 194 0 
Q 188 203 259 391 
Q 375 700 629 1000 
Q 884 1300 1366 1694 
Q 2113 2306 2375 2664 
Q 2638 3022 2638 3341 
Q 2638 3675 2398 3904 
Q 2159 4134 1775 4134 
Q 1369 4134 1125 3890 
Q 881 3647 878 3216 
L 300 3275 
Q 359 3922 746 4261 
Q 1134 4600 1788 4600 
Q 2447 4600 2831 4234 
Q 3216 3869 3216 3328 
Q 3216 3053 3103 2787 
Q 2991 2522 2730 2228 
Q 2469 1934 1863 1422 
Q 1356 997 1212 845 
Q 1069 694 975 541 
L 3222 541 
z
" transform="scale(0.015625)"/>
       </defs>
       <use xlink:href="#ArialMT-2212"/>
       <use xlink:href="#ArialMT-32" x="58.398438"/>
       <use xlink:href="#ArialMT-30" x="114.013672"/>
      </g>
     </g>
    </g>
    <g id="ytick_4">
     <g id="line2d_9">
      <path d="M 111.691563 106.342228 
L 659.174563 106.342228 
" clip-path="url(#ped7abd6f7b)" style="fill: none; stroke: #ffffff; stroke-width: 2; stroke-linecap: round"/>
     </g>
     <g id="text_4">
      <!-- −10 -->
      <g style="fill: #262626" transform="translate(47.678813 116.5779) scale(0.286 -0.286)">
       <defs>
        <path id="ArialMT-31" d="M 2384 0 
L 1822 0 
L 1822 3584 
Q 1619 3391 1289 3197 
Q 959 3003 697 2906 
L 697 3450 
Q 1169 3672 1522 3987 
Q 1875 4303 2022 4600 
L 2384 4600 
L 2384 0 
z
" transform="scale(0.015625)"/>
       </defs>
       <use xlink:href="#ArialMT-2212"/>
       <use xlink:href="#ArialMT-31" x="58.398438"/>
       <use xlink:href="#ArialMT-30" x="114.013672"/>
      </g>
     </g>
    </g>
    <g id="ytick_5">
     <g id="line2d_10">
      <path d="M 111.691563 28.945992 
L 659.174563 28.945992 
" clip-path="url(#ped7abd6f7b)" style="fill: none; stroke: #ffffff; stroke-width: 2; stroke-linecap: round"/>
     </g>
     <g id="text_5">
      <!-- 0 -->
      <g style="fill: #262626" transform="translate(80.287281 39.181664) scale(0.286 -0.286)">
       <use xlink:href="#ArialMT-30"/>
      </g>
     </g>
    </g>
    <g id="text_6">
     <!-- G [mT/m] -->
     <g style="fill: #262626" transform="translate(37.477813 240.862231) rotate(-90) scale(0.312 -0.312)">
      <defs>
       <path id="ArialMT-47" d="M 2638 1797 
L 2638 2334 
L 4578 2338 
L 4578 638 
Q 4131 281 3656 101 
Q 3181 -78 2681 -78 
Q 2006 -78 1454 211 
Q 903 500 622 1047 
Q 341 1594 341 2269 
Q 341 2938 620 3517 
Q 900 4097 1425 4378 
Q 1950 4659 2634 4659 
Q 3131 4659 3532 4498 
Q 3934 4338 4162 4050 
Q 4391 3763 4509 3300 
L 3963 3150 
Q 3859 3500 3706 3700 
Q 3553 3900 3268 4020 
Q 2984 4141 2638 4141 
Q 2222 4141 1919 4014 
Q 1616 3888 1430 3681 
Q 1244 3475 1141 3228 
Q 966 2803 966 2306 
Q 966 1694 1177 1281 
Q 1388 869 1791 669 
Q 2194 469 2647 469 
Q 3041 469 3416 620 
Q 3791 772 3984 944 
L 3984 1797 
L 2638 1797 
z
" transform="scale(0.015625)"/>
       <path id="ArialMT-20" transform="scale(0.015625)"/>
       <path id="ArialMT-5b" d="M 434 -1272 
L 434 4581 
L 1675 4581 
L 1675 4116 
L 997 4116 
L 997 -806 
L 1675 -806 
L 1675 -1272 
L 434 -1272 
z
" transform="scale(0.015625)"/>
       <path id="ArialMT-6d" d="M 422 0 
L 422 3319 
L 925 3319 
L 925 2853 
Q 1081 3097 1340 3245 
Q 1600 3394 1931 3394 
Q 2300 3394 2536 3241 
Q 2772 3088 2869 2813 
Q 3263 3394 3894 3394 
Q 4388 3394 4653 3120 
Q 4919 2847 4919 2278 
L 4919 0 
L 4359 0 
L 4359 2091 
Q 4359 2428 4304 2576 
Q 4250 2725 4106 2815 
Q 3963 2906 3769 2906 
Q 3419 2906 3187 2673 
Q 2956 2441 2956 1928 
L 2956 0 
L 2394 0 
L 2394 2156 
Q 2394 2531 2256 2718 
Q 2119 2906 1806 2906 
Q 1569 2906 1367 2781 
Q 1166 2656 1075 2415 
Q 984 2175 984 1722 
L 984 0 
L 422 0 
z
" transform="scale(0.015625)"/>
       <path id="ArialMT-54" d="M 1659 0 
L 1659 4041 
L 150 4041 
L 150 4581 
L 3781 4581 
L 3781 4041 
L 2266 4041 
L 2266 0 
L 1659 0 
z
" transform="scale(0.015625)"/>
       <path id="ArialMT-2f" d="M 0 -78 
L 1328 4659 
L 1778 4659 
L 453 -78 
L 0 -78 
z
" transform="scale(0.015625)"/>
       <path id="ArialMT-5d" d="M 1363 -1272 
L 122 -1272 
L 122 -806 
L 800 -806 
L 800 4116 
L 122 4116 
L 122 4581 
L 1363 4581 
L 1363 -1272 
z
" transform="scale(0.015625)"/>
      </defs>
      <use xlink:href="#ArialMT-47"/>
      <use xlink:href="#ArialMT-20" x="77.783203"/>
      <use xlink:href="#ArialMT-5b" x="105.566406"/>
      <use xlink:href="#ArialMT-6d" x="133.349609"/>
      <use xlink:href="#ArialMT-54" x="216.650391"/>
      <use xlink:href="#ArialMT-2f" x="277.734375"/>
      <use xlink:href="#ArialMT-6d" x="305.517578"/>
      <use xlink:href="#ArialMT-5d" x="388.818359"/>
     </g>
    </g>
   </g>
   <g id="line2d_11">
    <path d="M 136.577153 28.945992 
L 190.54297 28.945992 
L 190.55356 22.534186 
L 190.56415 31.220776 
L 190.648869 31.220776 
L 190.659458 31.220776 
L 190.786537 40.319926 
L 190.871255 40.319926 
L 190.998333 49.419076 
L 191.083052 49.419076 
L 191.21013 58.518227 
L 191.294849 58.518227 
L 191.421927 67.617369 
L 191.506646 67.617369 
L 191.633724 76.716528 
L 191.718442 76.716528 
L 191.84552 85.815663 
L 191.930239 85.815663 
L 192.057317 94.914821 
L 192.142036 94.914821 
L 192.269114 104.013971 
L 192.353833 104.013971 
L 192.480911 113.113122 
L 192.565629 113.113122 
L 192.692707 122.212272 
L 192.777426 122.212272 
L 192.904504 131.311422 
L 192.989223 131.311422 
L 193.116301 140.410573 
L 193.20102 140.410573 
L 193.328098 149.509715 
L 193.412816 149.509715 
L 193.539895 158.608866 
L 193.624613 158.608866 
L 193.751691 167.708016 
L 193.83641 167.708016 
L 193.963488 176.807167 
L 194.048207 176.807167 
L 194.175285 185.906317 
L 194.260004 185.906317 
L 194.387082 195.005468 
L 194.4718 195.005468 
L 194.598878 204.104618 
L 194.683597 204.104618 
L 194.810675 213.203768 
L 194.895394 213.203768 
L 195.022472 222.302903 
L 195.107191 222.302903 
L 195.234269 231.402061 
L 195.318987 231.402061 
L 195.446065 240.501212 
L 195.530784 240.501212 
L 195.657862 249.600362 
L 195.742581 249.600362 
L 195.869659 258.699513 
L 195.954378 258.699513 
L 196.081456 267.798663 
L 196.166174 267.798663 
L 196.293253 276.897813 
L 196.377971 276.897813 
L 196.505049 285.996956 
L 196.589768 285.996956 
L 196.716846 295.096107 
L 196.801565 295.096107 
L 196.928643 304.195257 
L 197.013362 304.195257 
L 197.14044 313.294407 
L 197.225158 313.294407 
L 197.352236 322.393558 
L 197.436955 322.393558 
L 197.553443 329.217901 
L 316.149044 329.217901 
L 316.286712 322.393535 
L 316.360841 322.393535 
L 316.487919 313.294384 
L 316.572638 313.294384 
L 316.699716 304.195234 
L 316.784435 304.195234 
L 316.911513 295.096083 
L 316.996231 295.096083 
L 317.123309 285.996933 
L 317.208028 285.996933 
L 317.335106 276.897798 
L 317.419825 276.897798 
L 317.546903 267.79864 
L 317.631622 267.79864 
L 317.7587 258.699489 
L 317.843418 258.699489 
L 317.970497 249.600339 
L 318.055215 249.600339 
L 318.182293 240.501189 
L 318.267012 240.501189 
L 318.39409 231.402038 
L 318.478809 231.402038 
L 318.605887 222.302888 
L 318.690606 222.302888 
L 318.817684 213.203745 
L 318.902402 213.203745 
L 319.02948 204.104595 
L 319.114199 204.104595 
L 319.241277 195.005444 
L 319.325996 195.005444 
L 319.453074 185.906294 
L 319.537793 185.906294 
L 319.664871 176.807143 
L 319.749589 176.807143 
L 319.876667 167.707993 
L 319.961386 167.707993 
L 320.088464 158.608843 
L 320.173183 158.608843 
L 320.300261 149.509692 
L 320.38498 149.509692 
L 320.512058 140.41055 
L 320.596776 140.41055 
L 320.723855 131.311399 
L 320.808573 131.311399 
L 320.935651 122.212249 
L 321.02037 122.212249 
L 321.147448 113.113098 
L 321.232167 113.113098 
L 321.359245 104.013948 
L 321.443964 104.013948 
L 321.571042 94.914797 
L 321.65576 94.914797 
L 321.782838 85.815647 
L 321.867557 85.815647 
L 321.994635 76.716497 
L 322.079354 76.716497 
L 322.206432 67.617362 
L 322.291151 67.617362 
L 322.418229 58.518204 
L 322.502947 58.518204 
L 322.630025 49.419053 
L 322.714744 49.419053 
L 322.841822 40.319903 
L 322.926541 40.319903 
L 323.053619 31.220752 
L 323.138338 31.220752 
L 323.254826 28.945992 
L 407.221655 28.945992 
L 407.359323 35.770351 
L 407.433452 35.770351 
L 407.56053 44.869501 
L 407.645249 44.869501 
L 407.772327 53.968652 
L 407.857045 53.968652 
L 407.984124 63.067802 
L 408.068842 63.067802 
L 408.19592 72.166937 
L 408.280639 72.166937 
L 408.407717 81.266095 
L 408.492436 81.266095 
L 408.619514 90.365245 
L 408.704233 90.365245 
L 408.831311 99.464396 
L 408.916029 99.464396 
L 409.043107 108.563546 
L 409.127826 108.563546 
L 409.254904 117.662697 
L 409.339623 117.662697 
L 409.466701 126.761847 
L 409.55142 126.761847 
L 409.678498 135.860998 
L 409.763216 135.860998 
L 409.890294 144.960148 
L 409.975013 144.960148 
L 410.102091 154.059283 
L 410.18681 154.059283 
L 410.313888 163.158441 
L 410.398607 163.158441 
L 410.525685 172.257591 
L 410.610403 172.257591 
L 410.737482 181.356742 
L 410.8222 181.356742 
L 410.949278 190.455892 
L 411.033997 190.455892 
L 411.161075 199.555043 
L 411.245794 199.555043 
L 411.372872 208.654193 
L 411.457591 208.654193 
L 411.584669 217.753336 
L 411.669387 217.753336 
L 411.796465 226.852486 
L 411.881184 226.852486 
L 412.008262 235.951637 
L 412.092981 235.951637 
L 412.220059 245.050787 
L 412.304778 245.050787 
L 412.431856 254.149937 
L 412.516574 254.149937 
L 412.643652 263.249088 
L 412.728371 263.249088 
L 412.855449 272.348238 
L 412.940168 272.348238 
L 413.067246 281.447389 
L 413.151965 281.447389 
L 413.279043 290.546524 
L 413.363761 290.546524 
L 413.49084 299.645682 
L 413.575558 299.645682 
L 413.702636 308.744832 
L 413.787355 308.744832 
L 413.914433 317.843983 
L 413.999152 317.843983 
L 414.12623 326.943133 
L 414.210949 326.943133 
L 414.327437 329.217901 
L 532.817139 329.217901 
L 532.954807 322.393535 
L 533.028936 322.393535 
L 533.156014 313.294384 
L 533.240733 313.294384 
L 533.367811 304.195234 
L 533.45253 304.195234 
L 533.579608 295.096083 
L 533.664326 295.096083 
L 533.791405 285.996933 
L 533.876123 285.996933 
L 534.003201 276.897798 
L 534.08792 276.897798 
L 534.214998 267.79864 
L 534.299717 267.79864 
L 534.426795 258.699489 
L 534.511514 258.699489 
L 534.638592 249.600339 
L 534.72331 249.600339 
L 534.850388 240.501189 
L 534.935107 240.501189 
L 535.062185 231.402038 
L 535.146904 231.402038 
L 535.273982 222.302888 
L 535.358701 222.302888 
L 535.485779 213.203745 
L 535.570497 213.203745 
L 535.697575 204.104595 
L 535.782294 204.104595 
L 535.909372 195.005444 
L 535.994091 195.005444 
L 536.121169 185.906294 
L 536.205888 185.906294 
L 536.332966 176.807143 
L 536.417684 176.807143 
L 536.544763 167.707993 
L 536.629481 167.707993 
L 536.756559 158.608843 
L 536.841278 158.608843 
L 536.968356 149.509692 
L 537.053075 149.509692 
L 537.180153 140.41055 
L 537.264872 140.41055 
L 537.39195 131.311399 
L 537.476668 131.311399 
L 537.603746 122.212249 
L 537.688465 122.212249 
L 537.815543 113.113098 
L 537.900262 113.113098 
L 538.02734 104.013948 
L 538.112059 104.013948 
L 538.239137 94.914797 
L 538.323855 94.914797 
L 538.450933 85.815647 
L 538.535652 85.815647 
L 538.66273 76.716497 
L 538.747449 76.716497 
L 538.874527 67.617362 
L 538.959246 67.617362 
L 539.086324 58.518204 
L 539.171042 58.518204 
L 539.298121 49.419053 
L 539.382839 49.419053 
L 539.509917 40.319903 
L 539.594636 40.319903 
L 539.721714 31.220752 
L 539.795843 31.220752 
L 539.912331 28.945992 
L 634.288972 28.945992 
L 634.288972 28.945992 
" clip-path="url(#ped7abd6f7b)" style="fill: none; stroke: #808080; stroke-width: 5; stroke-linecap: round"/>
   </g>
   <g id="line2d_12">
    <path d="M 111.691563 28.945992 
L 659.174563 28.945992 
" clip-path="url(#ped7abd6f7b)" style="fill: none; stroke: #1a1a1a; stroke-width: 3; stroke-linecap: round"/>
   </g>
   <g id="patch_3">
    <path d="M 111.691563 344.552087 
L 111.691563 7.2 
" style="fill: none; stroke: #ffffff; stroke-width: 2.5; stroke-linejoin: miter; stroke-linecap: square"/>
   </g>
   <g id="patch_4">
    <path d="M 659.174563 344.552087 
L 659.174563 7.2 
" style="fill: none; stroke: #ffffff; stroke-width: 2.5; stroke-linejoin: miter; stroke-linecap: square"/>
   </g>
   <g id="patch_5">
    <path d="M 111.691563 344.552087 
L 659.174563 344.552087 
" style="fill: none; stroke: #ffffff; stroke-width: 2.5; stroke-linejoin: miter; stroke-linecap: square"/>
   </g>
   <g id="patch_6">
    <path d="M 111.691563 7.2 
L 659.174563 7.2 
" style="fill: none; stroke: #ffffff; stroke-width: 2.5; stroke-linejoin: miter; stroke-linecap: square"/>
   </g>
   <g id="text_7">
    <g id="patch_7">
     <path d="M 450.500073 340.184483 
L 642.750073 340.184483 
Q 655.250073 340.184483 655.250073 327.684483 
L 655.250073 304.434483 
Q 655.250073 291.934483 642.750073 291.934483 
L 450.500073 291.934483 
Q 438.000073 291.934483 438.000073 304.434483 
L 438.000073 327.684483 
Q 438.000073 340.184483 450.500073 340.184483 
z
" style="fill: #eaeaf2; opacity: 0.9; stroke: #d3d3d3; stroke-width: 2; stroke-linejoin: miter"/>
    </g>
    <!-- $G_{max}$ = 0.8 mT/m -->
    <g style="fill: #262626" transform="translate(450.500073 322.715733) scale(0.25 -0.25)">
     <defs>
      <path id="DejaVuSans-Oblique-47" d="M 3494 697 
L 3738 1919 
L 2700 1919 
L 2797 2438 
L 4453 2438 
L 4050 384 
Q 3634 156 3143 32 
Q 2653 -91 2156 -91 
Q 1278 -91 783 396 
Q 288 884 288 1753 
Q 288 2475 589 3126 
Q 891 3778 1422 4213 
Q 1756 4484 2153 4617 
Q 2550 4750 3034 4750 
Q 3472 4750 3873 4639 
Q 4275 4528 4641 4306 
L 4513 3634 
Q 4231 3928 3853 4083 
Q 3475 4238 3047 4238 
Q 2550 4238 2172 4048 
Q 1794 3859 1497 3463 
Q 1244 3125 1098 2667 
Q 953 2209 953 1734 
Q 953 1081 1287 751 
Q 1622 422 2284 422 
Q 2616 422 2925 492 
Q 3234 563 3494 697 
z
" transform="scale(0.015625)"/>
      <path id="DejaVuSans-Oblique-6d" d="M 5747 2113 
L 5338 0 
L 4763 0 
L 5166 2094 
Q 5191 2228 5203 2325 
Q 5216 2422 5216 2491 
Q 5216 2772 5059 2928 
Q 4903 3084 4622 3084 
Q 4203 3084 3875 2770 
Q 3547 2456 3450 1953 
L 3066 0 
L 2491 0 
L 2900 2094 
Q 2925 2209 2937 2307 
Q 2950 2406 2950 2484 
Q 2950 2769 2794 2926 
Q 2638 3084 2363 3084 
Q 1938 3084 1609 2770 
Q 1281 2456 1184 1953 
L 800 0 
L 225 0 
L 909 3500 
L 1484 3500 
L 1375 2956 
Q 1609 3263 1923 3423 
Q 2238 3584 2597 3584 
Q 2978 3584 3223 3384 
Q 3469 3184 3519 2828 
Q 3781 3197 4126 3390 
Q 4472 3584 4856 3584 
Q 5306 3584 5551 3325 
Q 5797 3066 5797 2591 
Q 5797 2488 5784 2364 
Q 5772 2241 5747 2113 
z
" transform="scale(0.015625)"/>
      <path id="DejaVuSans-Oblique-61" d="M 3438 1997 
L 3047 0 
L 2472 0 
L 2578 531 
Q 2325 219 2001 64 
Q 1678 -91 1281 -91 
Q 834 -91 548 182 
Q 263 456 263 884 
Q 263 1497 752 1853 
Q 1241 2209 2100 2209 
L 2900 2209 
L 2931 2363 
Q 2938 2388 2941 2417 
Q 2944 2447 2944 2509 
Q 2944 2788 2717 2942 
Q 2491 3097 2081 3097 
Q 1800 3097 1504 3025 
Q 1209 2953 897 2809 
L 997 3341 
Q 1322 3463 1633 3523 
Q 1944 3584 2234 3584 
Q 2853 3584 3176 3315 
Q 3500 3047 3500 2534 
Q 3500 2431 3484 2292 
Q 3469 2153 3438 1997 
z
M 2816 1759 
L 2241 1759 
Q 1534 1759 1195 1570 
Q 856 1381 856 984 
Q 856 709 1029 553 
Q 1203 397 1509 397 
Q 1978 397 2328 733 
Q 2678 1069 2791 1631 
L 2816 1759 
z
" transform="scale(0.015625)"/>
      <path id="DejaVuSans-Oblique-78" d="M 3841 3500 
L 2234 1784 
L 3219 0 
L 2559 0 
L 1819 1388 
L 531 0 
L -166 0 
L 1556 1844 
L 641 3500 
L 1300 3500 
L 1972 2234 
L 3144 3500 
L 3841 3500 
z
" transform="scale(0.015625)"/>
      <path id="ArialMT-3d" d="M 3381 2694 
L 356 2694 
L 356 3219 
L 3381 3219 
L 3381 2694 
z
M 3381 1303 
L 356 1303 
L 356 1828 
L 3381 1828 
L 3381 1303 
z
" transform="scale(0.015625)"/>
      <path id="ArialMT-2e" d="M 581 0 
L 581 641 
L 1222 641 
L 1222 0 
L 581 0 
z
" transform="scale(0.015625)"/>
      <path id="ArialMT-38" d="M 1131 2484 
Q 781 2613 612 2850 
Q 444 3088 444 3419 
Q 444 3919 803 4259 
Q 1163 4600 1759 4600 
Q 2359 4600 2725 4251 
Q 3091 3903 3091 3403 
Q 3091 3084 2923 2848 
Q 2756 2613 2416 2484 
Q 2838 2347 3058 2040 
Q 3278 1734 3278 1309 
Q 3278 722 2862 322 
Q 2447 -78 1769 -78 
Q 1091 -78 675 323 
Q 259 725 259 1325 
Q 259 1772 486 2073 
Q 713 2375 1131 2484 
z
M 1019 3438 
Q 1019 3113 1228 2906 
Q 1438 2700 1772 2700 
Q 2097 2700 2305 2904 
Q 2513 3109 2513 3406 
Q 2513 3716 2298 3927 
Q 2084 4138 1766 4138 
Q 1444 4138 1231 3931 
Q 1019 3725 1019 3438 
z
M 838 1322 
Q 838 1081 952 856 
Q 1066 631 1291 507 
Q 1516 384 1775 384 
Q 2178 384 2440 643 
Q 2703 903 2703 1303 
Q 2703 1709 2433 1975 
Q 2163 2241 1756 2241 
Q 1359 2241 1098 1978 
Q 838 1716 838 1322 
z
" transform="scale(0.015625)"/>
     </defs>
     <use xlink:href="#DejaVuSans-Oblique-47" transform="translate(0 0.78125)"/>
     <use xlink:href="#DejaVuSans-Oblique-6d" transform="translate(77.490234 -15.625) scale(0.7)"/>
     <use xlink:href="#DejaVuSans-Oblique-61" transform="translate(145.678711 -15.625) scale(0.7)"/>
     <use xlink:href="#DejaVuSans-Oblique-78" transform="translate(188.574219 -15.625) scale(0.7)"/>
     <use xlink:href="#ArialMT-20" transform="translate(232.734375 0.78125)"/>
     <use xlink:href="#ArialMT-3d" transform="translate(260.517578 0.78125)"/>
     <use xlink:href="#ArialMT-20" transform="translate(318.916016 0.78125)"/>
     <use xlink:href="#ArialMT-30" transform="translate(346.699219 0.78125)"/>
     <use xlink:href="#ArialMT-2e" transform="translate(402.314453 0.78125)"/>
     <use xlink:href="#ArialMT-38" transform="translate(430.097656 0.78125)"/>
     <use xlink:href="#ArialMT-20" transform="translate(485.712891 0.78125)"/>
     <use xlink:href="#ArialMT-6d" transform="translate(513.496094 0.78125)"/>
     <use xlink:href="#ArialMT-54" transform="translate(596.796875 0.78125)"/>
     <use xlink:href="#ArialMT-2f" transform="translate(657.880859 0.78125)"/>
     <use xlink:href="#ArialMT-6d" transform="translate(685.664062 0.78125)"/>
    </g>
   </g>
  </g>
  <g id="axes_2">
   <g id="patch_8">
    <path d="M 111.691563 727.308 
L 659.174563 727.308 
L 659.174563 389.955913 
L 111.691563 389.955913 
z
" style="fill: #eaeaf2"/>
   </g>
   <g id="matplotlib.axis_3">
    <g id="xtick_6">
     <g id="line2d_13">
      <path d="M 136.577153 727.308 
L 136.577153 389.955913 
" clip-path="url(#p2990e1c575)" style="fill: none; stroke: #ffffff; stroke-width: 2; stroke-linecap: round"/>
     </g>
     <g id="text_8">
      <!-- 0 -->
      <g style="fill: #262626" transform="translate(128.625013 763.279344) scale(0.286 -0.286)">
       <use xlink:href="#ArialMT-30"/>
      </g>
     </g>
    </g>
    <g id="xtick_7">
     <g id="line2d_14">
      <path d="M 242.475538 727.308 
L 242.475538 389.955913 
" clip-path="url(#p2990e1c575)" style="fill: none; stroke: #ffffff; stroke-width: 2; stroke-linecap: round"/>
     </g>
     <g id="text_9">
      <!-- 10 -->
      <g style="fill: #262626" transform="translate(226.571257 763.279344) scale(0.286 -0.286)">
       <use xlink:href="#ArialMT-31"/>
       <use xlink:href="#ArialMT-30" x="55.615234"/>
      </g>
     </g>
    </g>
    <g id="xtick_8">
     <g id="line2d_15">
      <path d="M 348.373923 727.308 
L 348.373923 389.955913 
" clip-path="url(#p2990e1c575)" style="fill: none; stroke: #ffffff; stroke-width: 2; stroke-linecap: round"/>
     </g>
     <g id="text_10">
      <!-- 20 -->
      <g style="fill: #262626" transform="translate(332.469642 763.279344) scale(0.286 -0.286)">
       <use xlink:href="#ArialMT-32"/>
       <use xlink:href="#ArialMT-30" x="55.615234"/>
      </g>
     </g>
    </g>
    <g id="xtick_9">
     <g id="line2d_16">
      <path d="M 454.272307 727.308 
L 454.272307 389.955913 
" clip-path="url(#p2990e1c575)" style="fill: none; stroke: #ffffff; stroke-width: 2; stroke-linecap: round"/>
     </g>
     <g id="text_11">
      <!-- 30 -->
      <g style="fill: #262626" transform="translate(438.368026 763.279344) scale(0.286 -0.286)">
       <use xlink:href="#ArialMT-33"/>
       <use xlink:href="#ArialMT-30" x="55.615234"/>
      </g>
     </g>
    </g>
    <g id="xtick_10">
     <g id="line2d_17">
      <path d="M 560.170692 727.308 
L 560.170692 389.955913 
" clip-path="url(#p2990e1c575)" style="fill: none; stroke: #ffffff; stroke-width: 2; stroke-linecap: round"/>
     </g>
     <g id="text_12">
      <!-- 40 -->
      <g style="fill: #262626" transform="translate(544.266411 763.279344) scale(0.286 -0.286)">
       <use xlink:href="#ArialMT-34"/>
       <use xlink:href="#ArialMT-30" x="55.615234"/>
      </g>
     </g>
    </g>
    <g id="text_13">
     <!-- Time [ms] -->
     <g style="fill: #262626" transform="translate(317.558438 795.295969) scale(0.312 -0.312)">
      <defs>
       <path id="ArialMT-69" d="M 425 3934 
L 425 4581 
L 988 4581 
L 988 3934 
L 425 3934 
z
M 425 0 
L 425 3319 
L 988 3319 
L 988 0 
L 425 0 
z
" transform="scale(0.015625)"/>
       <path id="ArialMT-65" d="M 2694 1069 
L 3275 997 
Q 3138 488 2766 206 
Q 2394 -75 1816 -75 
Q 1088 -75 661 373 
Q 234 822 234 1631 
Q 234 2469 665 2931 
Q 1097 3394 1784 3394 
Q 2450 3394 2872 2941 
Q 3294 2488 3294 1666 
Q 3294 1616 3291 1516 
L 816 1516 
Q 847 969 1125 678 
Q 1403 388 1819 388 
Q 2128 388 2347 550 
Q 2566 713 2694 1069 
z
M 847 1978 
L 2700 1978 
Q 2663 2397 2488 2606 
Q 2219 2931 1791 2931 
Q 1403 2931 1139 2672 
Q 875 2413 847 1978 
z
" transform="scale(0.015625)"/>
       <path id="ArialMT-73" d="M 197 991 
L 753 1078 
Q 800 744 1014 566 
Q 1228 388 1613 388 
Q 2000 388 2187 545 
Q 2375 703 2375 916 
Q 2375 1106 2209 1216 
Q 2094 1291 1634 1406 
Q 1016 1563 777 1677 
Q 538 1791 414 1992 
Q 291 2194 291 2438 
Q 291 2659 392 2848 
Q 494 3038 669 3163 
Q 800 3259 1026 3326 
Q 1253 3394 1513 3394 
Q 1903 3394 2198 3281 
Q 2494 3169 2634 2976 
Q 2775 2784 2828 2463 
L 2278 2388 
Q 2241 2644 2061 2787 
Q 1881 2931 1553 2931 
Q 1166 2931 1000 2803 
Q 834 2675 834 2503 
Q 834 2394 903 2306 
Q 972 2216 1119 2156 
Q 1203 2125 1616 2013 
Q 2213 1853 2448 1751 
Q 2684 1650 2818 1456 
Q 2953 1263 2953 975 
Q 2953 694 2789 445 
Q 2625 197 2315 61 
Q 2006 -75 1616 -75 
Q 969 -75 630 194 
Q 291 463 197 991 
z
" transform="scale(0.015625)"/>
      </defs>
      <use xlink:href="#ArialMT-54"/>
      <use xlink:href="#ArialMT-69" x="57.333984"/>
      <use xlink:href="#ArialMT-6d" x="79.550781"/>
      <use xlink:href="#ArialMT-65" x="162.851562"/>
      <use xlink:href="#ArialMT-20" x="218.466797"/>
      <use xlink:href="#ArialMT-5b" x="246.25"/>
      <use xlink:href="#ArialMT-6d" x="274.033203"/>
      <use xlink:href="#ArialMT-73" x="357.333984"/>
      <use xlink:href="#ArialMT-5d" x="407.333984"/>
     </g>
    </g>
   </g>
   <g id="matplotlib.axis_4">
    <g id="ytick_6">
     <g id="line2d_18">
      <path d="M 111.691563 711.973814 
L 659.174563 711.973814 
" clip-path="url(#p2990e1c575)" style="fill: none; stroke: #ffffff; stroke-width: 2; stroke-linecap: round"/>
     </g>
     <g id="text_14">
      <!-- −1.0 -->
      <g style="fill: #262626" transform="translate(39.733375 722.209486) scale(0.286 -0.286)">
       <use xlink:href="#ArialMT-2212"/>
       <use xlink:href="#ArialMT-31" x="58.398438"/>
       <use xlink:href="#ArialMT-2e" x="114.013672"/>
       <use xlink:href="#ArialMT-30" x="141.796875"/>
      </g>
     </g>
    </g>
    <g id="ytick_7">
     <g id="line2d_19">
      <path d="M 111.691563 635.302885 
L 659.174563 635.302885 
" clip-path="url(#p2990e1c575)" style="fill: none; stroke: #ffffff; stroke-width: 2; stroke-linecap: round"/>
     </g>
     <g id="text_15">
      <!-- −0.5 -->
      <g style="fill: #262626" transform="translate(39.733375 645.538557) scale(0.286 -0.286)">
       <defs>
        <path id="ArialMT-35" d="M 266 1200 
L 856 1250 
Q 922 819 1161 601 
Q 1400 384 1738 384 
Q 2144 384 2425 690 
Q 2706 997 2706 1503 
Q 2706 1984 2436 2262 
Q 2166 2541 1728 2541 
Q 1456 2541 1237 2417 
Q 1019 2294 894 2097 
L 366 2166 
L 809 4519 
L 3088 4519 
L 3088 3981 
L 1259 3981 
L 1013 2750 
Q 1425 3038 1878 3038 
Q 2478 3038 2890 2622 
Q 3303 2206 3303 1553 
Q 3303 931 2941 478 
Q 2500 -78 1738 -78 
Q 1113 -78 717 272 
Q 322 622 266 1200 
z
" transform="scale(0.015625)"/>
       </defs>
       <use xlink:href="#ArialMT-2212"/>
       <use xlink:href="#ArialMT-30" x="58.398438"/>
       <use xlink:href="#ArialMT-2e" x="114.013672"/>
       <use xlink:href="#ArialMT-35" x="141.796875"/>
      </g>
     </g>
    </g>
    <g id="ytick_8">
     <g id="line2d_20">
      <path d="M 111.691563 558.631956 
L 659.174563 558.631956 
" clip-path="url(#p2990e1c575)" style="fill: none; stroke: #ffffff; stroke-width: 2; stroke-linecap: round"/>
     </g>
     <g id="text_16">
      <!-- 0.0 -->
      <g style="fill: #262626" transform="translate(56.437563 568.867628) scale(0.286 -0.286)">
       <use xlink:href="#ArialMT-30"/>
       <use xlink:href="#ArialMT-2e" x="55.615234"/>
       <use xlink:href="#ArialMT-30" x="83.398438"/>
      </g>
     </g>
    </g>
    <g id="ytick_9">
     <g id="line2d_21">
      <path d="M 111.691563 481.961028 
L 659.174563 481.961028 
" clip-path="url(#p2990e1c575)" style="fill: none; stroke: #ffffff; stroke-width: 2; stroke-linecap: round"/>
     </g>
     <g id="text_17">
      <!-- 0.5 -->
      <g style="fill: #262626" transform="translate(56.437563 492.196699) scale(0.286 -0.286)">
       <use xlink:href="#ArialMT-30"/>
       <use xlink:href="#ArialMT-2e" x="55.615234"/>
       <use xlink:href="#ArialMT-35" x="83.398438"/>
      </g>
     </g>
    </g>
    <g id="ytick_10">
     <g id="line2d_22">
      <path d="M 111.691563 405.290099 
L 659.174563 405.290099 
" clip-path="url(#p2990e1c575)" style="fill: none; stroke: #ffffff; stroke-width: 2; stroke-linecap: round"/>
     </g>
     <g id="text_18">
      <!-- 1.0 -->
      <g style="fill: #262626" transform="translate(56.437563 415.525771) scale(0.286 -0.286)">
       <use xlink:href="#ArialMT-31"/>
       <use xlink:href="#ArialMT-2e" x="55.615234"/>
       <use xlink:href="#ArialMT-30" x="83.398438"/>
      </g>
     </g>
    </g>
    <g id="text_19">
     <!-- Moments -->
     <g style="fill: #262626" transform="translate(29.532375 622.779644) rotate(-90) scale(0.312 -0.312)">
      <defs>
       <path id="ArialMT-4d" d="M 475 0 
L 475 4581 
L 1388 4581 
L 2472 1338 
Q 2622 884 2691 659 
Q 2769 909 2934 1394 
L 4031 4581 
L 4847 4581 
L 4847 0 
L 4263 0 
L 4263 3834 
L 2931 0 
L 2384 0 
L 1059 3900 
L 1059 0 
L 475 0 
z
" transform="scale(0.015625)"/>
       <path id="ArialMT-6f" d="M 213 1659 
Q 213 2581 725 3025 
Q 1153 3394 1769 3394 
Q 2453 3394 2887 2945 
Q 3322 2497 3322 1706 
Q 3322 1066 3130 698 
Q 2938 331 2570 128 
Q 2203 -75 1769 -75 
Q 1072 -75 642 372 
Q 213 819 213 1659 
z
M 791 1659 
Q 791 1022 1069 705 
Q 1347 388 1769 388 
Q 2188 388 2466 706 
Q 2744 1025 2744 1678 
Q 2744 2294 2464 2611 
Q 2184 2928 1769 2928 
Q 1347 2928 1069 2612 
Q 791 2297 791 1659 
z
" transform="scale(0.015625)"/>
       <path id="ArialMT-6e" d="M 422 0 
L 422 3319 
L 928 3319 
L 928 2847 
Q 1294 3394 1984 3394 
Q 2284 3394 2536 3286 
Q 2788 3178 2913 3003 
Q 3038 2828 3088 2588 
Q 3119 2431 3119 2041 
L 3119 0 
L 2556 0 
L 2556 2019 
Q 2556 2363 2490 2533 
Q 2425 2703 2258 2804 
Q 2091 2906 1866 2906 
Q 1506 2906 1245 2678 
Q 984 2450 984 1813 
L 984 0 
L 422 0 
z
" transform="scale(0.015625)"/>
       <path id="ArialMT-74" d="M 1650 503 
L 1731 6 
Q 1494 -44 1306 -44 
Q 1000 -44 831 53 
Q 663 150 594 308 
Q 525 466 525 972 
L 525 2881 
L 113 2881 
L 113 3319 
L 525 3319 
L 525 4141 
L 1084 4478 
L 1084 3319 
L 1650 3319 
L 1650 2881 
L 1084 2881 
L 1084 941 
Q 1084 700 1114 631 
Q 1144 563 1211 522 
Q 1278 481 1403 481 
Q 1497 481 1650 503 
z
" transform="scale(0.015625)"/>
      </defs>
      <use xlink:href="#ArialMT-4d"/>
      <use xlink:href="#ArialMT-6f" x="83.300781"/>
      <use xlink:href="#ArialMT-6d" x="138.916016"/>
      <use xlink:href="#ArialMT-65" x="222.216797"/>
      <use xlink:href="#ArialMT-6e" x="277.832031"/>
      <use xlink:href="#ArialMT-74" x="333.447266"/>
      <use xlink:href="#ArialMT-73" x="361.230469"/>
     </g>
    </g>
   </g>
   <g id="line2d_23">
    <path d="M 136.577153 558.631956 
L 191.676083 558.741972 
L 192.798606 559.072062 
L 193.995258 559.666518 
L 195.213089 560.527986 
L 196.547409 561.769791 
L 197.945267 563.389683 
L 317.557493 709.253263 
L 318.902402 710.40662 
L 320.204952 711.222051 
L 321.412194 711.713366 
L 322.534717 711.941785 
L 323.943165 711.973814 
L 408.344178 711.863523 
L 409.466701 711.533433 
L 410.663353 710.938976 
L 411.881184 710.077509 
L 413.215504 708.835703 
L 414.613362 707.215812 
L 534.225588 561.352232 
L 535.570497 560.198874 
L 536.873048 559.383444 
L 538.080289 558.892128 
L 539.202812 558.66371 
L 540.61126 558.631778 
L 634.288972 558.631778 
L 634.288972 558.631778 
" clip-path="url(#p2990e1c575)" style="fill: none; stroke: #4c72b0; stroke-width: 5; stroke-linecap: round"/>
   </g>
   <g id="line2d_24">
    <path d="M 136.577153 558.631956 
L 192.777426 558.742462 
L 194.969523 559.079434 
L 197.034541 559.619107 
L 200.698625 560.898948 
L 207.169017 563.354999 
L 213.681767 566.065364 
L 220.236877 569.034707 
L 226.844937 572.273108 
L 233.495355 575.780699 
L 240.198723 579.568425 
L 246.95504 583.642286 
L 253.774896 588.015324 
L 260.647701 592.687459 
L 267.584045 597.672661 
L 274.583928 602.978381 
L 281.647351 608.612137 
L 288.784902 614.590598 
L 295.996582 620.92271 
L 303.282391 627.61751 
L 310.642328 634.684127 
L 318.235242 641.976652 
L 319.590742 642.818438 
L 320.903882 643.380595 
L 322.121713 643.675521 
L 323.381904 643.75317 
L 408.22769 643.642166 
L 409.244314 643.30448 
L 410.324478 642.694495 
L 411.436411 641.79473 
L 412.558934 640.604049 
L 413.797945 638.95819 
L 416.223018 635.172447 
L 424.800787 621.448057 
L 433.473865 607.149627 
L 442.242251 592.263183 
L 451.105946 576.774598 
L 460.064949 560.669591 
L 469.119261 543.933726 
L 478.268881 526.552416 
L 487.51381 508.510919 
L 496.864638 489.772841 
L 506.310774 470.343505 
L 515.852218 450.207691 
L 525.499561 429.326819 
L 534.575053 409.700432 
L 535.729345 407.974165 
L 536.798919 406.753328 
L 537.762594 405.96702 
L 538.65214 405.506247 
L 539.541687 405.30176 
L 540.971315 405.290099 
L 634.288972 405.290099 
L 634.288972 405.290099 
" clip-path="url(#p2990e1c575)" style="fill: none; stroke: #dd8452; stroke-width: 5; stroke-linecap: round"/>
   </g>
   <g id="line2d_25">
    <path d="M 136.577153 558.631956 
L 196.663897 558.742971 
L 205.61231 559.200972 
L 216.75282 559.966717 
L 227.152042 560.902178 
L 236.979412 562.007635 
L 246.351419 563.284201 
L 255.342192 564.73195 
L 264.01527 566.352596 
L 272.413011 568.146796 
L 280.577777 570.117489 
L 288.541335 572.267466 
L 296.324867 574.598312 
L 303.96014 577.11648 
L 311.457746 579.823246 
L 319.04007 582.564251 
L 321.062729 582.934447 
L 323.01126 583.064236 
L 334.469465 583.064786 
L 408.524205 582.954354 
L 409.847935 582.61343 
L 411.129306 582.05946 
L 412.431856 581.266145 
L 413.850894 580.13282 
L 416.508943 577.598928 
L 423.169952 571.011373 
L 429.83096 564.110379 
L 436.502559 556.87692 
L 443.174157 549.314396 
L 449.856345 541.402678 
L 456.549123 533.132791 
L 463.26308 524.481756 
L 469.987628 515.453222 
L 476.733355 506.022854 
L 483.500262 496.179529 
L 490.298938 485.895636 
L 497.118794 475.174801 
L 503.970419 463.987775 
L 510.853814 452.32077 
L 517.768979 440.159749 
L 524.715913 427.490426 
L 531.694617 414.298258 
L 534.204408 409.706149 
L 535.475189 407.941078 
L 536.640071 406.712368 
L 537.709645 405.916111 
L 538.6945 405.466935 
L 539.594636 405.296364 
L 542.167967 405.290099 
L 634.288972 405.290099 
L 634.288972 405.290099 
" clip-path="url(#p2990e1c575)" style="fill: none; stroke: #55a868; stroke-width: 5; stroke-linecap: round"/>
   </g>
   <g id="line2d_26">
    <path d="M 111.691563 558.631956 
L 659.174563 558.631956 
" clip-path="url(#p2990e1c575)" style="fill: none; stroke: #1a1a1a; stroke-width: 3; stroke-linecap: round"/>
   </g>
   <g id="patch_9">
    <path d="M 111.691563 727.308 
L 111.691563 389.955913 
" style="fill: none; stroke: #ffffff; stroke-width: 2.5; stroke-linejoin: miter; stroke-linecap: square"/>
   </g>
   <g id="patch_10">
    <path d="M 659.174563 727.308 
L 659.174563 389.955913 
" style="fill: none; stroke: #ffffff; stroke-width: 2.5; stroke-linejoin: miter; stroke-linecap: square"/>
   </g>
   <g id="patch_11">
    <path d="M 111.691563 727.308 
L 659.174563 727.308 
" style="fill: none; stroke: #ffffff; stroke-width: 2.5; stroke-linejoin: miter; stroke-linecap: square"/>
   </g>
   <g id="patch_12">
    <path d="M 111.691563 389.955913 
L 659.174563 389.955913 
" style="fill: none; stroke: #ffffff; stroke-width: 2.5; stroke-linejoin: miter; stroke-linecap: square"/>
   </g>
   <g id="legend_1">
    <g id="patch_13">
     <path d="M 464.174563 714.808 
L 641.674563 714.808 
Q 646.674563 714.808 646.674563 709.808 
L 646.674563 606.218156 
Q 646.674563 601.218156 641.674563 601.218156 
L 464.174563 601.218156 
Q 459.174563 601.218156 459.174563 606.218156 
L 459.174563 709.808 
Q 459.174563 714.808 464.174563 714.808 
z
" style="fill: #eaeaf2; opacity: 0.8; stroke: #cccccc; stroke-width: 2; stroke-linejoin: miter"/>
    </g>
    <g id="line2d_27">
     <path d="M 469.174563 620.362687 
L 494.174563 620.362687 
L 519.174563 620.362687 
" style="fill: none; stroke: #4c72b0; stroke-width: 5; stroke-linecap: round"/>
    </g>
    <g id="text_20">
     <!-- $M_0$ -->
     <g style="fill: #262626" transform="translate(539.174563 629.112687) scale(0.25 -0.25)">
      <defs>
       <path id="DejaVuSans-Oblique-4d" d="M 1081 4666 
L 2028 4666 
L 2572 1522 
L 4378 4666 
L 5350 4666 
L 4441 0 
L 3828 0 
L 4622 4091 
L 2791 897 
L 2175 897 
L 1581 4103 
L 788 0 
L 172 0 
L 1081 4666 
z
" transform="scale(0.015625)"/>
       <path id="DejaVuSans-30" d="M 2034 4250 
Q 1547 4250 1301 3770 
Q 1056 3291 1056 2328 
Q 1056 1369 1301 889 
Q 1547 409 2034 409 
Q 2525 409 2770 889 
Q 3016 1369 3016 2328 
Q 3016 3291 2770 3770 
Q 2525 4250 2034 4250 
z
M 2034 4750 
Q 2819 4750 3233 4129 
Q 3647 3509 3647 2328 
Q 3647 1150 3233 529 
Q 2819 -91 2034 -91 
Q 1250 -91 836 529 
Q 422 1150 422 2328 
Q 422 3509 836 4129 
Q 1250 4750 2034 4750 
z
" transform="scale(0.015625)"/>
      </defs>
      <use xlink:href="#DejaVuSans-Oblique-4d" transform="translate(0 0.09375)"/>
      <use xlink:href="#DejaVuSans-30" transform="translate(86.279297 -16.3125) scale(0.7)"/>
     </g>
    </g>
    <g id="line2d_28">
     <path d="M 469.174563 655.725969 
L 494.174563 655.725969 
L 519.174563 655.725969 
" style="fill: none; stroke: #dd8452; stroke-width: 5; stroke-linecap: round"/>
    </g>
    <g id="text_21">
     <!-- $M_1$ -->
     <g style="fill: #262626" transform="translate(539.174563 664.475969) scale(0.25 -0.25)">
      <defs>
       <path id="DejaVuSans-31" d="M 794 531 
L 1825 531 
L 1825 4091 
L 703 3866 
L 703 4441 
L 1819 4666 
L 2450 4666 
L 2450 531 
L 3481 531 
L 3481 0 
L 794 0 
L 794 531 
z
" transform="scale(0.015625)"/>
      </defs>
      <use xlink:href="#DejaVuSans-Oblique-4d" transform="translate(0 0.09375)"/>
      <use xlink:href="#DejaVuSans-31" transform="translate(86.279297 -16.3125) scale(0.7)"/>
     </g>
    </g>
    <g id="line2d_29">
     <path d="M 469.174563 691.08925 
L 494.174563 691.08925 
L 519.174563 691.08925 
" style="fill: none; stroke: #55a868; stroke-width: 5; stroke-linecap: round"/>
    </g>
    <g id="text_22">
     <!-- $M_1+M_2$ -->
     <g style="fill: #262626" transform="translate(539.174563 699.83925) scale(0.25 -0.25)">
      <defs>
       <path id="DejaVuSans-2b" d="M 2944 4013 
L 2944 2272 
L 4684 2272 
L 4684 1741 
L 2944 1741 
L 2944 0 
L 2419 0 
L 2419 1741 
L 678 1741 
L 678 2272 
L 2419 2272 
L 2419 4013 
L 2944 4013 
z
" transform="scale(0.015625)"/>
       <path id="DejaVuSans-32" d="M 1228 531 
L 3431 531 
L 3431 0 
L 469 0 
L 469 531 
Q 828 903 1448 1529 
Q 2069 2156 2228 2338 
Q 2531 2678 2651 2914 
Q 2772 3150 2772 3378 
Q 2772 3750 2511 3984 
Q 2250 4219 1831 4219 
Q 1534 4219 1204 4116 
Q 875 4013 500 3803 
L 500 4441 
Q 881 4594 1212 4672 
Q 1544 4750 1819 4750 
Q 2544 4750 2975 4387 
Q 3406 4025 3406 3419 
Q 3406 3131 3298 2873 
Q 3191 2616 2906 2266 
Q 2828 2175 2409 1742 
Q 1991 1309 1228 531 
z
" transform="scale(0.015625)"/>
      </defs>
      <use xlink:href="#DejaVuSans-Oblique-4d" transform="translate(0 0.09375)"/>
      <use xlink:href="#DejaVuSans-31" transform="translate(86.279297 -16.3125) scale(0.7)"/>
      <use xlink:href="#DejaVuSans-2b" transform="translate(153.032227 0.09375)"/>
      <use xlink:href="#DejaVuSans-Oblique-4d" transform="translate(256.303711 0.09375)"/>
      <use xlink:href="#DejaVuSans-32" transform="translate(342.583008 -16.3125) scale(0.7)"/>
     </g>
    </g>
   </g>
  </g>
 </g>
 <defs>
  <clipPath id="ped7abd6f7b">
   <rect x="111.691563" y="7.2" width="547.483" height="337.352087"/>
  </clipPath>
  <clipPath id="p2990e1c575">
   <rect x="111.691563" y="389.955913" width="547.483" height="337.352087"/>
  </clipPath>
 </defs>
</svg>
