<?xml version="1.0" encoding="utf-8" standalone="no"?>
<!DOCTYPE svg PUBLIC "-//W3C//DTD SVG 1.1//EN"
  "http://www.w3.org/Graphics/SVG/1.1/DTD/svg11.dtd">
<svg xmlns:xlink="http://www.w3.org/1999/xlink" width="663.721236pt" height="806.986054pt" viewBox="0 0 663.721236 806.986054" xmlns="http://www.w3.org/2000/svg" version="1.1">
 <metadata>
  <rdf:RDF xmlns:dc="http://purl.org/dc/elements/1.1/" xmlns:cc="http://creativecommons.org/ns#" xmlns:rdf="http://www.w3.org/1999/02/22-rdf-syntax-ns#">
   <cc:Work>
    <dc:type rdf:resource="http://purl.org/dc/dcmitype/StillImage"/>
    <dc:date>2024-03-06T08:54:45.275699</dc:date>
    <dc:format>image/svg+xml</dc:format>
    <dc:creator>
     <cc:Agent>
      <dc:title>Matplotlib v3.7.1, https://matplotlib.org/</dc:title>
     </cc:Agent>
    </dc:creator>
   </cc:Work>
  </rdf:RDF>
 </metadata>
 <defs>
  <style type="text/css">*{stroke-linejoin: round; stroke-linecap: butt}</style>
 </defs>
 <g id="figure_1">
  <g id="patch_1">
   <path d="M -0 806.986054 
L 663.721236 806.986054 
L 663.721236 0 
L -0 0 
z
" style="fill: #ffffff"/>
  </g>
  <g id="axes_1">
   <g id="patch_2">
    <path d="M 112.798188 345.695085 
L 636.629791 345.695085 
L 636.629791 9.429345 
L 112.798188 9.429345 
z
" style="fill: #eaeaf2"/>
   </g>
   <g id="matplotlib.axis_1">
    <g id="xtick_1">
     <g id="line2d_1">
      <path d="M 136.608715 345.695085 
L 136.608715 9.429345 
" clip-path="url(#pb9dd70fff0)" style="fill: none; stroke: #ffffff; stroke-width: 2; stroke-linecap: round"/>
     </g>
    </g>
    <g id="xtick_2">
     <g id="line2d_2">
      <path d="M 301.960748 345.695085 
L 301.960748 9.429345 
" clip-path="url(#pb9dd70fff0)" style="fill: none; stroke: #ffffff; stroke-width: 2; stroke-linecap: round"/>
     </g>
    </g>
    <g id="xtick_3">
     <g id="line2d_3">
      <path d="M 467.312781 345.695085 
L 467.312781 9.429345 
" clip-path="url(#pb9dd70fff0)" style="fill: none; stroke: #ffffff; stroke-width: 2; stroke-linecap: round"/>
     </g>
    </g>
    <g id="xtick_4">
     <g id="line2d_4">
      <path d="M 632.664814 345.695085 
L 632.664814 9.429345 
" clip-path="url(#pb9dd70fff0)" style="fill: none; stroke: #ffffff; stroke-width: 2; stroke-linecap: round"/>
     </g>
    </g>
   </g>
   <g id="matplotlib.axis_2">
    <g id="ytick_1">
     <g id="line2d_5">
      <path d="M 112.798188 337.688758 
L 636.629791 337.688758 
" clip-path="url(#pb9dd70fff0)" style="fill: none; stroke: #ffffff; stroke-width: 2; stroke-linecap: round"/>
     </g>
     <g id="text_1">
      <!-- −40 -->
      <g style="fill: #262626" transform="translate(48.785438 347.92443) scale(0.286 -0.286)">
       <defs>
        <path id="ArialMT-2212" d="M 3381 1997 
L 356 1997 
L 356 2522 
L 3381 2522 
L 3381 1997 
z
" transform="scale(0.015625)"/>
        <path id="ArialMT-34" d="M 2069 0 
L 2069 1097 
L 81 1097 
L 81 1613 
L 2172 4581 
L 2631 4581 
L 2631 1613 
L 3250 1613 
L 3250 1097 
L 2631 1097 
L 2631 0 
L 2069 0 
z
M 2069 1613 
L 2069 3678 
L 634 1613 
L 2069 1613 
z
" transform="scale(0.015625)"/>
        <path id="ArialMT-30" d="M 266 2259 
Q 266 3072 433 3567 
Q 600 4063 929 4331 
Q 1259 4600 1759 4600 
Q 2128 4600 2406 4451 
Q 2684 4303 2865 4023 
Q 3047 3744 3150 3342 
Q 3253 2941 3253 2259 
Q 3253 1453 3087 958 
Q 2922 463 2592 192 
Q 2263 -78 1759 -78 
Q 1097 -78 719 397 
Q 266 969 266 2259 
z
M 844 2259 
Q 844 1131 1108 757 
Q 1372 384 1759 384 
Q 2147 384 2411 759 
Q 2675 1134 2675 2259 
Q 2675 3391 2411 3762 
Q 2147 4134 1753 4134 
Q 1366 4134 1134 3806 
Q 844 3388 844 2259 
z
" transform="scale(0.015625)"/>
       </defs>
       <use xlink:href="#ArialMT-2212"/>
       <use xlink:href="#ArialMT-34" x="58.398438"/>
       <use xlink:href="#ArialMT-30" x="114.013672"/>
      </g>
     </g>
    </g>
    <g id="ytick_2">
     <g id="line2d_6">
      <path d="M 112.798188 257.625486 
L 636.629791 257.625486 
" clip-path="url(#pb9dd70fff0)" style="fill: none; stroke: #ffffff; stroke-width: 2; stroke-linecap: round"/>
     </g>
     <g id="text_2">
      <!-- −20 -->
      <g style="fill: #262626" transform="translate(48.785438 267.861158) scale(0.286 -0.286)">
       <defs>
        <path id="ArialMT-32" d="M 3222 541 
L 3222 0 
L 194 0 
Q 188 203 259 391 
Q 375 700 629 1000 
Q 884 1300 1366 1694 
Q 2113 2306 2375 2664 
Q 2638 3022 2638 3341 
Q 2638 3675 2398 3904 
Q 2159 4134 1775 4134 
Q 1369 4134 1125 3890 
Q 881 3647 878 3216 
L 300 3275 
Q 359 3922 746 4261 
Q 1134 4600 1788 4600 
Q 2447 4600 2831 4234 
Q 3216 3869 3216 3328 
Q 3216 3053 3103 2787 
Q 2991 2522 2730 2228 
Q 2469 1934 1863 1422 
Q 1356 997 1212 845 
Q 1069 694 975 541 
L 3222 541 
z
" transform="scale(0.015625)"/>
       </defs>
       <use xlink:href="#ArialMT-2212"/>
       <use xlink:href="#ArialMT-32" x="58.398438"/>
       <use xlink:href="#ArialMT-30" x="114.013672"/>
      </g>
     </g>
    </g>
    <g id="ytick_3">
     <g id="line2d_7">
      <path d="M 112.798188 177.562215 
L 636.629791 177.562215 
" clip-path="url(#pb9dd70fff0)" style="fill: none; stroke: #ffffff; stroke-width: 2; stroke-linecap: round"/>
     </g>
     <g id="text_3">
      <!-- 0 -->
      <g style="fill: #262626" transform="translate(81.393906 187.797887) scale(0.286 -0.286)">
       <use xlink:href="#ArialMT-30"/>
      </g>
     </g>
    </g>
    <g id="ytick_4">
     <g id="line2d_8">
      <path d="M 112.798188 97.498943 
L 636.629791 97.498943 
" clip-path="url(#pb9dd70fff0)" style="fill: none; stroke: #ffffff; stroke-width: 2; stroke-linecap: round"/>
     </g>
     <g id="text_4">
      <!-- 20 -->
      <g style="fill: #262626" transform="translate(65.489625 107.734615) scale(0.286 -0.286)">
       <use xlink:href="#ArialMT-32"/>
       <use xlink:href="#ArialMT-30" x="55.615234"/>
      </g>
     </g>
    </g>
    <g id="ytick_5">
     <g id="line2d_9">
      <path d="M 112.798188 17.435672 
L 636.629791 17.435672 
" clip-path="url(#pb9dd70fff0)" style="fill: none; stroke: #ffffff; stroke-width: 2; stroke-linecap: round"/>
     </g>
     <g id="text_5">
      <!-- 40 -->
      <g style="fill: #262626" transform="translate(65.489625 27.671344) scale(0.286 -0.286)">
       <use xlink:href="#ArialMT-34"/>
       <use xlink:href="#ArialMT-30" x="55.615234"/>
      </g>
     </g>
    </g>
    <g id="text_6">
     <!-- G(t) [mT/m] -->
     <g style="fill: #262626" transform="translate(38.218812 257.270902) rotate(-90) scale(0.312 -0.312)">
      <defs>
       <path id="ArialMT-47" d="M 2638 1797 
L 2638 2334 
L 4578 2338 
L 4578 638 
Q 4131 281 3656 101 
Q 3181 -78 2681 -78 
Q 2006 -78 1454 211 
Q 903 500 622 1047 
Q 341 1594 341 2269 
Q 341 2938 620 3517 
Q 900 4097 1425 4378 
Q 1950 4659 2634 4659 
Q 3131 4659 3532 4498 
Q 3934 4338 4162 4050 
Q 4391 3763 4509 3300 
L 3963 3150 
Q 3859 3500 3706 3700 
Q 3553 3900 3268 4020 
Q 2984 4141 2638 4141 
Q 2222 4141 1919 4014 
Q 1616 3888 1430 3681 
Q 1244 3475 1141 3228 
Q 966 2803 966 2306 
Q 966 1694 1177 1281 
Q 1388 869 1791 669 
Q 2194 469 2647 469 
Q 3041 469 3416 620 
Q 3791 772 3984 944 
L 3984 1797 
L 2638 1797 
z
" transform="scale(0.015625)"/>
       <path id="ArialMT-28" d="M 1497 -1347 
Q 1031 -759 709 28 
Q 388 816 388 1659 
Q 388 2403 628 3084 
Q 909 3875 1497 4659 
L 1900 4659 
Q 1522 4009 1400 3731 
Q 1209 3300 1100 2831 
Q 966 2247 966 1656 
Q 966 153 1900 -1347 
L 1497 -1347 
z
" transform="scale(0.015625)"/>
       <path id="ArialMT-74" d="M 1650 503 
L 1731 6 
Q 1494 -44 1306 -44 
Q 1000 -44 831 53 
Q 663 150 594 308 
Q 525 466 525 972 
L 525 2881 
L 113 2881 
L 113 3319 
L 525 3319 
L 525 4141 
L 1084 4478 
L 1084 3319 
L 1650 3319 
L 1650 2881 
L 1084 2881 
L 1084 941 
Q 1084 700 1114 631 
Q 1144 563 1211 522 
Q 1278 481 1403 481 
Q 1497 481 1650 503 
z
" transform="scale(0.015625)"/>
       <path id="ArialMT-29" d="M 791 -1347 
L 388 -1347 
Q 1322 153 1322 1656 
Q 1322 2244 1188 2822 
Q 1081 3291 891 3722 
Q 769 4003 388 4659 
L 791 4659 
Q 1378 3875 1659 3084 
Q 1900 2403 1900 1659 
Q 1900 816 1576 28 
Q 1253 -759 791 -1347 
z
" transform="scale(0.015625)"/>
       <path id="ArialMT-20" transform="scale(0.015625)"/>
       <path id="ArialMT-5b" d="M 434 -1272 
L 434 4581 
L 1675 4581 
L 1675 4116 
L 997 4116 
L 997 -806 
L 1675 -806 
L 1675 -1272 
L 434 -1272 
z
" transform="scale(0.015625)"/>
       <path id="ArialMT-6d" d="M 422 0 
L 422 3319 
L 925 3319 
L 925 2853 
Q 1081 3097 1340 3245 
Q 1600 3394 1931 3394 
Q 2300 3394 2536 3241 
Q 2772 3088 2869 2813 
Q 3263 3394 3894 3394 
Q 4388 3394 4653 3120 
Q 4919 2847 4919 2278 
L 4919 0 
L 4359 0 
L 4359 2091 
Q 4359 2428 4304 2576 
Q 4250 2725 4106 2815 
Q 3963 2906 3769 2906 
Q 3419 2906 3187 2673 
Q 2956 2441 2956 1928 
L 2956 0 
L 2394 0 
L 2394 2156 
Q 2394 2531 2256 2718 
Q 2119 2906 1806 2906 
Q 1569 2906 1367 2781 
Q 1166 2656 1075 2415 
Q 984 2175 984 1722 
L 984 0 
L 422 0 
z
" transform="scale(0.015625)"/>
       <path id="ArialMT-54" d="M 1659 0 
L 1659 4041 
L 150 4041 
L 150 4581 
L 3781 4581 
L 3781 4041 
L 2266 4041 
L 2266 0 
L 1659 0 
z
" transform="scale(0.015625)"/>
       <path id="ArialMT-2f" d="M 0 -78 
L 1328 4659 
L 1778 4659 
L 453 -78 
L 0 -78 
z
" transform="scale(0.015625)"/>
       <path id="ArialMT-5d" d="M 1363 -1272 
L 122 -1272 
L 122 -806 
L 800 -806 
L 800 4116 
L 122 4116 
L 122 4581 
L 1363 4581 
L 1363 -1272 
z
" transform="scale(0.015625)"/>
      </defs>
      <use xlink:href="#ArialMT-47"/>
      <use xlink:href="#ArialMT-28" x="77.783203"/>
      <use xlink:href="#ArialMT-74" x="111.083984"/>
      <use xlink:href="#ArialMT-29" x="138.867188"/>
      <use xlink:href="#ArialMT-20" x="172.167969"/>
      <use xlink:href="#ArialMT-5b" x="199.951172"/>
      <use xlink:href="#ArialMT-6d" x="227.734375"/>
      <use xlink:href="#ArialMT-54" x="311.035156"/>
      <use xlink:href="#ArialMT-2f" x="372.119141"/>
      <use xlink:href="#ArialMT-6d" x="399.902344"/>
      <use xlink:href="#ArialMT-5d" x="483.203125"/>
     </g>
    </g>
   </g>
   <g id="line2d_10">
    <path d="M 136.608715 177.562215 
L 154.19225 177.562215 
L 154.331146 170.296769 
L 154.357602 170.296769 
L 154.479963 163.838594 
L 154.489884 163.838594 
L 154.612244 157.380422 
L 154.622165 157.380422 
L 154.744526 150.922246 
L 154.754447 150.922246 
L 154.876808 144.46407 
L 154.886729 144.46407 
L 155.009089 138.005895 
L 155.01901 138.005895 
L 155.141371 131.547719 
L 155.151292 131.547719 
L 155.273652 125.089547 
L 155.283574 125.089547 
L 155.405934 118.631372 
L 155.415855 118.631372 
L 155.538216 112.173196 
L 155.548137 112.173196 
L 155.670497 105.71502 
L 155.680418 105.71502 
L 155.802779 99.256853 
L 155.8127 99.256853 
L 155.935061 92.798673 
L 155.944982 92.798673 
L 156.067342 86.340497 
L 156.077263 86.340497 
L 156.199624 79.882322 
L 156.209545 79.882322 
L 156.331905 73.424146 
L 156.341827 73.424146 
L 156.457573 71.002336 
L 214.248109 71.002336 
L 214.387004 78.267782 
L 214.413461 78.267782 
L 214.535821 84.725957 
L 214.545742 84.725957 
L 214.668103 91.184133 
L 214.678024 91.184133 
L 214.800384 97.642301 
L 214.810305 97.642301 
L 214.932666 104.10048 
L 214.942587 104.10048 
L 215.064948 110.558656 
L 215.074869 110.558656 
L 215.197229 117.016832 
L 215.20715 117.016832 
L 215.329511 123.475007 
L 215.339432 123.475007 
L 215.461792 129.933179 
L 215.471714 129.933179 
L 215.594074 136.391355 
L 215.603995 136.391355 
L 215.726356 142.849531 
L 215.736277 142.849531 
L 215.858637 149.307706 
L 215.868558 149.307706 
L 215.990919 155.765874 
L 216.00084 155.765874 
L 216.123201 162.224054 
L 216.133122 162.224054 
L 216.255482 168.682229 
L 216.265403 168.682229 
L 216.387764 175.140405 
L 216.397685 175.140405 
L 216.520045 181.598573 
L 216.529967 181.598573 
L 216.652327 188.056748 
L 216.662248 188.056748 
L 216.784609 194.514916 
L 216.79453 194.514916 
L 216.91689 200.973096 
L 216.926811 200.973096 
L 217.049172 207.431271 
L 217.059093 207.431271 
L 217.181454 213.889447 
L 217.191375 213.889447 
L 217.313735 220.347623 
L 217.323656 220.347623 
L 217.446017 226.805795 
L 217.455938 226.805795 
L 217.578298 233.26397 
L 217.58822 233.26397 
L 217.71058 239.722146 
L 217.720501 239.722146 
L 217.842862 246.180322 
L 217.852783 246.180322 
L 217.975143 252.638489 
L 217.985064 252.638489 
L 218.107425 259.096669 
L 218.117346 259.096669 
L 218.239707 265.554845 
L 218.249628 265.554845 
L 218.371988 272.01302 
L 218.381909 272.01302 
L 218.50427 278.471196 
L 218.514191 278.471196 
L 218.636552 284.122094 
L 347.356495 284.122094 
L 347.495391 276.856648 
L 347.521847 276.856648 
L 347.644208 270.398472 
L 347.654129 270.398472 
L 347.776489 263.940297 
L 347.786411 263.940297 
L 347.908771 257.482129 
L 347.918692 257.482129 
L 348.041053 251.023949 
L 348.050974 251.023949 
L 348.173334 244.565774 
L 348.183255 244.565774 
L 348.305616 238.107598 
L 348.315537 238.107598 
L 348.437898 231.649422 
L 348.447819 231.649422 
L 348.570179 225.191251 
L 348.5801 225.191251 
L 348.702461 218.733075 
L 348.712382 218.733075 
L 348.834742 212.274899 
L 348.844664 212.274899 
L 348.967024 205.816724 
L 348.976945 205.816724 
L 349.099306 199.358556 
L 349.109227 199.358556 
L 349.231587 192.900376 
L 349.241508 192.900376 
L 349.363869 186.4422 
L 349.37379 186.4422 
L 349.496151 179.984025 
L 349.506072 179.984025 
L 349.621818 177.562215 
L 381.518225 177.562215 
L 381.657121 184.827661 
L 381.683577 184.827661 
L 381.805938 191.285836 
L 381.815859 191.285836 
L 381.938219 197.744008 
L 381.948141 197.744008 
L 382.070501 204.202184 
L 382.080422 204.202184 
L 382.202783 210.660359 
L 382.212704 210.660359 
L 382.335064 217.118535 
L 382.344985 217.118535 
L 382.467346 223.576711 
L 382.477267 223.576711 
L 382.599628 230.034882 
L 382.609549 230.034882 
L 382.731909 236.493058 
L 382.74183 236.493058 
L 382.864191 242.951234 
L 382.874112 242.951234 
L 382.996472 249.409409 
L 383.006394 249.409409 
L 383.128754 255.867577 
L 383.138675 255.867577 
L 383.261036 262.325757 
L 383.270957 262.325757 
L 383.393317 268.783933 
L 383.403238 268.783933 
L 383.525599 275.242108 
L 383.53552 275.242108 
L 383.657881 281.700284 
L 383.667802 281.700284 
L 383.783548 284.122094 
L 512.443965 284.122094 
L 512.582861 276.856648 
L 512.609317 276.856648 
L 512.731678 270.398472 
L 512.741599 270.398472 
L 512.863959 263.940297 
L 512.87388 263.940297 
L 512.996241 257.482129 
L 513.006162 257.482129 
L 513.128523 251.023949 
L 513.138444 251.023949 
L 513.260804 244.565774 
L 513.270725 244.565774 
L 513.393086 238.107598 
L 513.403007 238.107598 
L 513.525367 231.649422 
L 513.535289 231.649422 
L 513.657649 225.191251 
L 513.66757 225.191251 
L 513.789931 218.733075 
L 513.799852 218.733075 
L 513.922212 212.274899 
L 513.932133 212.274899 
L 514.054494 205.816724 
L 514.064415 205.816724 
L 514.186776 199.358556 
L 514.196697 199.358556 
L 514.319057 192.900376 
L 514.328978 192.900376 
L 514.451339 186.4422 
L 514.46126 186.4422 
L 514.58362 179.984025 
L 514.593542 179.984025 
L 514.715902 173.525857 
L 514.725823 173.525857 
L 514.848184 167.067681 
L 514.858105 167.067681 
L 514.980465 160.609514 
L 514.990386 160.609514 
L 515.112747 154.151334 
L 515.122668 154.151334 
L 515.245029 147.693158 
L 515.25495 147.693158 
L 515.37731 141.234983 
L 515.387231 141.234983 
L 515.509592 134.776807 
L 515.519513 134.776807 
L 515.641873 128.318635 
L 515.651795 128.318635 
L 515.774155 121.86046 
L 515.784076 121.86046 
L 515.906437 115.402284 
L 515.916358 115.402284 
L 516.038718 108.944108 
L 516.048639 108.944108 
L 516.171 102.48594 
L 516.180921 102.48594 
L 516.303282 96.027761 
L 516.313203 96.027761 
L 516.435563 89.569585 
L 516.445484 89.569585 
L 516.567845 83.111409 
L 516.577766 83.111409 
L 516.700126 76.653234 
L 516.710048 76.653234 
L 516.832408 71.002336 
L 574.68247 71.002336 
L 574.821366 78.267782 
L 574.847822 78.267782 
L 574.970183 84.725957 
L 574.980104 84.725957 
L 575.102465 91.184133 
L 575.112386 91.184133 
L 575.234746 97.642301 
L 575.244667 97.642301 
L 575.367028 104.10048 
L 575.376949 104.10048 
L 575.499309 110.558656 
L 575.509231 110.558656 
L 575.631591 117.016832 
L 575.641512 117.016832 
L 575.763873 123.475007 
L 575.773794 123.475007 
L 575.896154 129.933179 
L 575.906075 129.933179 
L 576.028436 136.391355 
L 576.038357 136.391355 
L 576.160718 142.849531 
L 576.170639 142.849531 
L 576.292999 149.307706 
L 576.30292 149.307706 
L 576.425281 155.765874 
L 576.435202 155.765874 
L 576.557562 162.224054 
L 576.567484 162.224054 
L 576.689844 168.682229 
L 576.699765 168.682229 
L 576.822126 175.140405 
L 576.832047 175.140405 
L 576.947793 177.562215 
L 612.819263 177.562215 
L 612.819263 177.562215 
" clip-path="url(#pb9dd70fff0)" style="fill: none; stroke: #808080; stroke-width: 5; stroke-linecap: round"/>
   </g>
   <g id="line2d_11">
    <path d="M 112.798188 177.562215 
L 636.629791 177.562215 
" clip-path="url(#pb9dd70fff0)" style="fill: none; stroke: #000000; stroke-width: 3; stroke-linecap: round"/>
   </g>
   <g id="patch_3">
    <path d="M 112.798188 345.695085 
L 112.798188 9.429345 
" style="fill: none; stroke: #ffffff; stroke-width: 2.5; stroke-linejoin: miter; stroke-linecap: square"/>
   </g>
   <g id="patch_4">
    <path d="M 636.629791 345.695085 
L 636.629791 9.429345 
" style="fill: none; stroke: #ffffff; stroke-width: 2.5; stroke-linejoin: miter; stroke-linecap: square"/>
   </g>
   <g id="patch_5">
    <path d="M 112.798188 345.695085 
L 636.629791 345.695085 
" style="fill: none; stroke: #ffffff; stroke-width: 2.5; stroke-linejoin: miter; stroke-linecap: square"/>
   </g>
   <g id="patch_6">
    <path d="M 112.798188 9.429345 
L 636.629791 9.429345 
" style="fill: none; stroke: #ffffff; stroke-width: 2.5; stroke-linejoin: miter; stroke-linecap: square"/>
   </g>
   <g id="text_7">
    <g id="patch_7">
     <path d="M 414.664843 324.568511 
L 620.914843 324.568511 
Q 633.414843 324.568511 633.414843 312.068511 
L 633.414843 288.818511 
Q 633.414843 276.318511 620.914843 276.318511 
L 414.664843 276.318511 
Q 402.164843 276.318511 402.164843 288.818511 
L 402.164843 312.068511 
Q 402.164843 324.568511 414.664843 324.568511 
z
" style="fill: #eaeaf2; opacity: 0.9; stroke: #d3d3d3; stroke-width: 2; stroke-linejoin: miter"/>
    </g>
    <!-- $G_{max}$ = 26.6 mT/m -->
    <g style="fill: #262626" transform="translate(414.664843 307.099761) scale(0.25 -0.25)">
     <defs>
      <path id="DejaVuSans-Oblique-47" d="M 3494 697 
L 3738 1919 
L 2700 1919 
L 2797 2438 
L 4453 2438 
L 4050 384 
Q 3634 156 3143 32 
Q 2653 -91 2156 -91 
Q 1278 -91 783 396 
Q 288 884 288 1753 
Q 288 2475 589 3126 
Q 891 3778 1422 4213 
Q 1756 4484 2153 4617 
Q 2550 4750 3034 4750 
Q 3472 4750 3873 4639 
Q 4275 4528 4641 4306 
L 4513 3634 
Q 4231 3928 3853 4083 
Q 3475 4238 3047 4238 
Q 2550 4238 2172 4048 
Q 1794 3859 1497 3463 
Q 1244 3125 1098 2667 
Q 953 2209 953 1734 
Q 953 1081 1287 751 
Q 1622 422 2284 422 
Q 2616 422 2925 492 
Q 3234 563 3494 697 
z
" transform="scale(0.015625)"/>
      <path id="DejaVuSans-Oblique-6d" d="M 5747 2113 
L 5338 0 
L 4763 0 
L 5166 2094 
Q 5191 2228 5203 2325 
Q 5216 2422 5216 2491 
Q 5216 2772 5059 2928 
Q 4903 3084 4622 3084 
Q 4203 3084 3875 2770 
Q 3547 2456 3450 1953 
L 3066 0 
L 2491 0 
L 2900 2094 
Q 2925 2209 2937 2307 
Q 2950 2406 2950 2484 
Q 2950 2769 2794 2926 
Q 2638 3084 2363 3084 
Q 1938 3084 1609 2770 
Q 1281 2456 1184 1953 
L 800 0 
L 225 0 
L 909 3500 
L 1484 3500 
L 1375 2956 
Q 1609 3263 1923 3423 
Q 2238 3584 2597 3584 
Q 2978 3584 3223 3384 
Q 3469 3184 3519 2828 
Q 3781 3197 4126 3390 
Q 4472 3584 4856 3584 
Q 5306 3584 5551 3325 
Q 5797 3066 5797 2591 
Q 5797 2488 5784 2364 
Q 5772 2241 5747 2113 
z
" transform="scale(0.015625)"/>
      <path id="DejaVuSans-Oblique-61" d="M 3438 1997 
L 3047 0 
L 2472 0 
L 2578 531 
Q 2325 219 2001 64 
Q 1678 -91 1281 -91 
Q 834 -91 548 182 
Q 263 456 263 884 
Q 263 1497 752 1853 
Q 1241 2209 2100 2209 
L 2900 2209 
L 2931 2363 
Q 2938 2388 2941 2417 
Q 2944 2447 2944 2509 
Q 2944 2788 2717 2942 
Q 2491 3097 2081 3097 
Q 1800 3097 1504 3025 
Q 1209 2953 897 2809 
L 997 3341 
Q 1322 3463 1633 3523 
Q 1944 3584 2234 3584 
Q 2853 3584 3176 3315 
Q 3500 3047 3500 2534 
Q 3500 2431 3484 2292 
Q 3469 2153 3438 1997 
z
M 2816 1759 
L 2241 1759 
Q 1534 1759 1195 1570 
Q 856 1381 856 984 
Q 856 709 1029 553 
Q 1203 397 1509 397 
Q 1978 397 2328 733 
Q 2678 1069 2791 1631 
L 2816 1759 
z
" transform="scale(0.015625)"/>
      <path id="DejaVuSans-Oblique-78" d="M 3841 3500 
L 2234 1784 
L 3219 0 
L 2559 0 
L 1819 1388 
L 531 0 
L -166 0 
L 1556 1844 
L 641 3500 
L 1300 3500 
L 1972 2234 
L 3144 3500 
L 3841 3500 
z
" transform="scale(0.015625)"/>
      <path id="ArialMT-3d" d="M 3381 2694 
L 356 2694 
L 356 3219 
L 3381 3219 
L 3381 2694 
z
M 3381 1303 
L 356 1303 
L 356 1828 
L 3381 1828 
L 3381 1303 
z
" transform="scale(0.015625)"/>
      <path id="ArialMT-36" d="M 3184 3459 
L 2625 3416 
Q 2550 3747 2413 3897 
Q 2184 4138 1850 4138 
Q 1581 4138 1378 3988 
Q 1113 3794 959 3422 
Q 806 3050 800 2363 
Q 1003 2672 1297 2822 
Q 1591 2972 1913 2972 
Q 2475 2972 2870 2558 
Q 3266 2144 3266 1488 
Q 3266 1056 3080 686 
Q 2894 316 2569 119 
Q 2244 -78 1831 -78 
Q 1128 -78 684 439 
Q 241 956 241 2144 
Q 241 3472 731 4075 
Q 1159 4600 1884 4600 
Q 2425 4600 2770 4297 
Q 3116 3994 3184 3459 
z
M 888 1484 
Q 888 1194 1011 928 
Q 1134 663 1356 523 
Q 1578 384 1822 384 
Q 2178 384 2434 671 
Q 2691 959 2691 1453 
Q 2691 1928 2437 2201 
Q 2184 2475 1800 2475 
Q 1419 2475 1153 2201 
Q 888 1928 888 1484 
z
" transform="scale(0.015625)"/>
      <path id="ArialMT-2e" d="M 581 0 
L 581 641 
L 1222 641 
L 1222 0 
L 581 0 
z
" transform="scale(0.015625)"/>
     </defs>
     <use xlink:href="#DejaVuSans-Oblique-47" transform="translate(0 0.78125)"/>
     <use xlink:href="#DejaVuSans-Oblique-6d" transform="translate(77.490234 -15.625) scale(0.7)"/>
     <use xlink:href="#DejaVuSans-Oblique-61" transform="translate(145.678711 -15.625) scale(0.7)"/>
     <use xlink:href="#DejaVuSans-Oblique-78" transform="translate(188.574219 -15.625) scale(0.7)"/>
     <use xlink:href="#ArialMT-20" transform="translate(232.734375 0.78125)"/>
     <use xlink:href="#ArialMT-3d" transform="translate(260.517578 0.78125)"/>
     <use xlink:href="#ArialMT-20" transform="translate(318.916016 0.78125)"/>
     <use xlink:href="#ArialMT-32" transform="translate(346.699219 0.78125)"/>
     <use xlink:href="#ArialMT-36" transform="translate(402.314453 0.78125)"/>
     <use xlink:href="#ArialMT-2e" transform="translate(457.929688 0.78125)"/>
     <use xlink:href="#ArialMT-36" transform="translate(485.712891 0.78125)"/>
     <use xlink:href="#ArialMT-20" transform="translate(541.328125 0.78125)"/>
     <use xlink:href="#ArialMT-6d" transform="translate(569.111328 0.78125)"/>
     <use xlink:href="#ArialMT-54" transform="translate(652.412109 0.78125)"/>
     <use xlink:href="#ArialMT-2f" transform="translate(713.496094 0.78125)"/>
     <use xlink:href="#ArialMT-6d" transform="translate(741.279297 0.78125)"/>
    </g>
   </g>
  </g>
  <g id="axes_2">
   <g id="patch_8">
    <path d="M 112.798188 725.597085 
L 636.629791 725.597085 
L 636.629791 389.331345 
L 112.798188 389.331345 
z
" style="fill: #eaeaf2"/>
   </g>
   <g id="matplotlib.axis_3">
    <g id="xtick_5">
     <g id="line2d_12">
      <path d="M 136.608715 725.597085 
L 136.608715 389.331345 
" clip-path="url(#p1d95d872a1)" style="fill: none; stroke: #ffffff; stroke-width: 2; stroke-linecap: round"/>
     </g>
     <g id="text_8">
      <!-- 0 -->
      <g style="fill: #262626" transform="translate(128.656574 761.568429) scale(0.286 -0.286)">
       <use xlink:href="#ArialMT-30"/>
      </g>
     </g>
    </g>
    <g id="xtick_6">
     <g id="line2d_13">
      <path d="M 301.960748 725.597085 
L 301.960748 389.331345 
" clip-path="url(#p1d95d872a1)" style="fill: none; stroke: #ffffff; stroke-width: 2; stroke-linecap: round"/>
     </g>
     <g id="text_9">
      <!-- 50 -->
      <g style="fill: #262626" transform="translate(286.056467 761.568429) scale(0.286 -0.286)">
       <defs>
        <path id="ArialMT-35" d="M 266 1200 
L 856 1250 
Q 922 819 1161 601 
Q 1400 384 1738 384 
Q 2144 384 2425 690 
Q 2706 997 2706 1503 
Q 2706 1984 2436 2262 
Q 2166 2541 1728 2541 
Q 1456 2541 1237 2417 
Q 1019 2294 894 2097 
L 366 2166 
L 809 4519 
L 3088 4519 
L 3088 3981 
L 1259 3981 
L 1013 2750 
Q 1425 3038 1878 3038 
Q 2478 3038 2890 2622 
Q 3303 2206 3303 1553 
Q 3303 931 2941 478 
Q 2500 -78 1738 -78 
Q 1113 -78 717 272 
Q 322 622 266 1200 
z
" transform="scale(0.015625)"/>
       </defs>
       <use xlink:href="#ArialMT-35"/>
       <use xlink:href="#ArialMT-30" x="55.615234"/>
      </g>
     </g>
    </g>
    <g id="xtick_7">
     <g id="line2d_14">
      <path d="M 467.312781 725.597085 
L 467.312781 389.331345 
" clip-path="url(#p1d95d872a1)" style="fill: none; stroke: #ffffff; stroke-width: 2; stroke-linecap: round"/>
     </g>
     <g id="text_10">
      <!-- 100 -->
      <g style="fill: #262626" transform="translate(443.456359 761.568429) scale(0.286 -0.286)">
       <defs>
        <path id="ArialMT-31" d="M 2384 0 
L 1822 0 
L 1822 3584 
Q 1619 3391 1289 3197 
Q 959 3003 697 2906 
L 697 3450 
Q 1169 3672 1522 3987 
Q 1875 4303 2022 4600 
L 2384 4600 
L 2384 0 
z
" transform="scale(0.015625)"/>
       </defs>
       <use xlink:href="#ArialMT-31"/>
       <use xlink:href="#ArialMT-30" x="55.615234"/>
       <use xlink:href="#ArialMT-30" x="111.230469"/>
      </g>
     </g>
    </g>
    <g id="xtick_8">
     <g id="line2d_15">
      <path d="M 632.664814 725.597085 
L 632.664814 389.331345 
" clip-path="url(#p1d95d872a1)" style="fill: none; stroke: #ffffff; stroke-width: 2; stroke-linecap: round"/>
     </g>
     <g id="text_11">
      <!-- 150 -->
      <g style="fill: #262626" transform="translate(608.808392 761.568429) scale(0.286 -0.286)">
       <use xlink:href="#ArialMT-31"/>
       <use xlink:href="#ArialMT-35" x="55.615234"/>
       <use xlink:href="#ArialMT-30" x="111.230469"/>
      </g>
     </g>
    </g>
    <g id="text_12">
     <!-- Time [ms] -->
     <g style="fill: #262626" transform="translate(306.839364 793.585054) scale(0.312 -0.312)">
      <defs>
       <path id="ArialMT-69" d="M 425 3934 
L 425 4581 
L 988 4581 
L 988 3934 
L 425 3934 
z
M 425 0 
L 425 3319 
L 988 3319 
L 988 0 
L 425 0 
z
" transform="scale(0.015625)"/>
       <path id="ArialMT-65" d="M 2694 1069 
L 3275 997 
Q 3138 488 2766 206 
Q 2394 -75 1816 -75 
Q 1088 -75 661 373 
Q 234 822 234 1631 
Q 234 2469 665 2931 
Q 1097 3394 1784 3394 
Q 2450 3394 2872 2941 
Q 3294 2488 3294 1666 
Q 3294 1616 3291 1516 
L 816 1516 
Q 847 969 1125 678 
Q 1403 388 1819 388 
Q 2128 388 2347 550 
Q 2566 713 2694 1069 
z
M 847 1978 
L 2700 1978 
Q 2663 2397 2488 2606 
Q 2219 2931 1791 2931 
Q 1403 2931 1139 2672 
Q 875 2413 847 1978 
z
" transform="scale(0.015625)"/>
       <path id="ArialMT-73" d="M 197 991 
L 753 1078 
Q 800 744 1014 566 
Q 1228 388 1613 388 
Q 2000 388 2187 545 
Q 2375 703 2375 916 
Q 2375 1106 2209 1216 
Q 2094 1291 1634 1406 
Q 1016 1563 777 1677 
Q 538 1791 414 1992 
Q 291 2194 291 2438 
Q 291 2659 392 2848 
Q 494 3038 669 3163 
Q 800 3259 1026 3326 
Q 1253 3394 1513 3394 
Q 1903 3394 2198 3281 
Q 2494 3169 2634 2976 
Q 2775 2784 2828 2463 
L 2278 2388 
Q 2241 2644 2061 2787 
Q 1881 2931 1553 2931 
Q 1166 2931 1000 2803 
Q 834 2675 834 2503 
Q 834 2394 903 2306 
Q 972 2216 1119 2156 
Q 1203 2125 1616 2013 
Q 2213 1853 2448 1751 
Q 2684 1650 2818 1456 
Q 2953 1263 2953 975 
Q 2953 694 2789 445 
Q 2625 197 2315 61 
Q 2006 -75 1616 -75 
Q 969 -75 630 194 
Q 291 463 197 991 
z
" transform="scale(0.015625)"/>
      </defs>
      <use xlink:href="#ArialMT-54"/>
      <use xlink:href="#ArialMT-69" x="57.333984"/>
      <use xlink:href="#ArialMT-6d" x="79.550781"/>
      <use xlink:href="#ArialMT-65" x="162.851562"/>
      <use xlink:href="#ArialMT-20" x="218.466797"/>
      <use xlink:href="#ArialMT-5b" x="246.25"/>
      <use xlink:href="#ArialMT-6d" x="274.033203"/>
      <use xlink:href="#ArialMT-73" x="357.333984"/>
      <use xlink:href="#ArialMT-5d" x="407.333984"/>
     </g>
    </g>
   </g>
   <g id="matplotlib.axis_4">
    <g id="ytick_6">
     <g id="line2d_16">
      <path d="M 112.798188 710.312279 
L 636.629791 710.312279 
" clip-path="url(#p1d95d872a1)" style="fill: none; stroke: #ffffff; stroke-width: 2; stroke-linecap: round"/>
     </g>
     <g id="text_13">
      <!-- −1.0 -->
      <g style="fill: #262626" transform="translate(40.84 720.54795) scale(0.286 -0.286)">
       <use xlink:href="#ArialMT-2212"/>
       <use xlink:href="#ArialMT-31" x="58.398438"/>
       <use xlink:href="#ArialMT-2e" x="114.013672"/>
       <use xlink:href="#ArialMT-30" x="141.796875"/>
      </g>
     </g>
    </g>
    <g id="ytick_7">
     <g id="line2d_17">
      <path d="M 112.798188 633.888247 
L 636.629791 633.888247 
" clip-path="url(#p1d95d872a1)" style="fill: none; stroke: #ffffff; stroke-width: 2; stroke-linecap: round"/>
     </g>
     <g id="text_14">
      <!-- −0.5 -->
      <g style="fill: #262626" transform="translate(40.84 644.123919) scale(0.286 -0.286)">
       <use xlink:href="#ArialMT-2212"/>
       <use xlink:href="#ArialMT-30" x="58.398438"/>
       <use xlink:href="#ArialMT-2e" x="114.013672"/>
       <use xlink:href="#ArialMT-35" x="141.796875"/>
      </g>
     </g>
    </g>
    <g id="ytick_8">
     <g id="line2d_18">
      <path d="M 112.798188 557.464215 
L 636.629791 557.464215 
" clip-path="url(#p1d95d872a1)" style="fill: none; stroke: #ffffff; stroke-width: 2; stroke-linecap: round"/>
     </g>
     <g id="text_15">
      <!-- 0.0 -->
      <g style="fill: #262626" transform="translate(57.544188 567.699887) scale(0.286 -0.286)">
       <use xlink:href="#ArialMT-30"/>
       <use xlink:href="#ArialMT-2e" x="55.615234"/>
       <use xlink:href="#ArialMT-30" x="83.398438"/>
      </g>
     </g>
    </g>
    <g id="ytick_9">
     <g id="line2d_19">
      <path d="M 112.798188 481.040183 
L 636.629791 481.040183 
" clip-path="url(#p1d95d872a1)" style="fill: none; stroke: #ffffff; stroke-width: 2; stroke-linecap: round"/>
     </g>
     <g id="text_16">
      <!-- 0.5 -->
      <g style="fill: #262626" transform="translate(57.544188 491.275855) scale(0.286 -0.286)">
       <use xlink:href="#ArialMT-30"/>
       <use xlink:href="#ArialMT-2e" x="55.615234"/>
       <use xlink:href="#ArialMT-35" x="83.398438"/>
      </g>
     </g>
    </g>
    <g id="ytick_10">
     <g id="line2d_20">
      <path d="M 112.798188 404.616151 
L 636.629791 404.616151 
" clip-path="url(#p1d95d872a1)" style="fill: none; stroke: #ffffff; stroke-width: 2; stroke-linecap: round"/>
     </g>
     <g id="text_17">
      <!-- 1.0 -->
      <g style="fill: #262626" transform="translate(57.544188 414.851823) scale(0.286 -0.286)">
       <use xlink:href="#ArialMT-31"/>
       <use xlink:href="#ArialMT-2e" x="55.615234"/>
       <use xlink:href="#ArialMT-30" x="83.398438"/>
      </g>
     </g>
    </g>
    <g id="text_18">
     <!-- $M_n$(t) [AU] -->
     <g style="fill: #262626" transform="translate(29.976 627.820215) rotate(-90) scale(0.312 -0.312)">
      <defs>
       <path id="DejaVuSans-Oblique-4d" d="M 1081 4666 
L 2028 4666 
L 2572 1522 
L 4378 4666 
L 5350 4666 
L 4441 0 
L 3828 0 
L 4622 4091 
L 2791 897 
L 2175 897 
L 1581 4103 
L 788 0 
L 172 0 
L 1081 4666 
z
" transform="scale(0.015625)"/>
       <path id="DejaVuSans-Oblique-6e" d="M 3566 2113 
L 3156 0 
L 2578 0 
L 2988 2091 
Q 3016 2238 3031 2350 
Q 3047 2463 3047 2528 
Q 3047 2791 2881 2937 
Q 2716 3084 2419 3084 
Q 1956 3084 1622 2776 
Q 1288 2469 1184 1941 
L 800 0 
L 225 0 
L 903 3500 
L 1478 3500 
L 1363 2950 
Q 1603 3253 1940 3418 
Q 2278 3584 2650 3584 
Q 3113 3584 3367 3334 
Q 3622 3084 3622 2631 
Q 3622 2519 3608 2391 
Q 3594 2263 3566 2113 
z
" transform="scale(0.015625)"/>
       <path id="ArialMT-41" d="M -9 0 
L 1750 4581 
L 2403 4581 
L 4278 0 
L 3588 0 
L 3053 1388 
L 1138 1388 
L 634 0 
L -9 0 
z
M 1313 1881 
L 2866 1881 
L 2388 3150 
Q 2169 3728 2063 4100 
Q 1975 3659 1816 3225 
L 1313 1881 
z
" transform="scale(0.015625)"/>
       <path id="ArialMT-55" d="M 3500 4581 
L 4106 4581 
L 4106 1934 
Q 4106 1244 3950 837 
Q 3794 431 3386 176 
Q 2978 -78 2316 -78 
Q 1672 -78 1262 144 
Q 853 366 678 786 
Q 503 1206 503 1934 
L 503 4581 
L 1109 4581 
L 1109 1938 
Q 1109 1341 1220 1058 
Q 1331 775 1601 622 
Q 1872 469 2263 469 
Q 2931 469 3215 772 
Q 3500 1075 3500 1938 
L 3500 4581 
z
" transform="scale(0.015625)"/>
      </defs>
      <use xlink:href="#DejaVuSans-Oblique-4d" transform="translate(0 0.09375)"/>
      <use xlink:href="#DejaVuSans-Oblique-6e" transform="translate(86.279297 -16.3125) scale(0.7)"/>
      <use xlink:href="#ArialMT-28" transform="translate(133.378906 0.09375)"/>
      <use xlink:href="#ArialMT-74" transform="translate(166.679688 0.09375)"/>
      <use xlink:href="#ArialMT-29" transform="translate(194.462891 0.09375)"/>
      <use xlink:href="#ArialMT-20" transform="translate(227.763672 0.09375)"/>
      <use xlink:href="#ArialMT-5b" transform="translate(255.546875 0.09375)"/>
      <use xlink:href="#ArialMT-41" transform="translate(283.330078 0.09375)"/>
      <use xlink:href="#ArialMT-55" transform="translate(350.029297 0.09375)"/>
      <use xlink:href="#ArialMT-5d" transform="translate(422.246094 0.09375)"/>
     </g>
    </g>
   </g>
   <g id="line2d_21">
    <path d="M 136.608715 557.464215 
L 154.665157 557.353608 
L 155.167827 556.993852 
L 155.726717 556.300764 
L 156.368283 555.124668 
L 172.4405 520.461146 
L 214.978965 428.9806 
L 215.617223 428.26633 
L 216.156271 427.976548 
L 216.632485 427.959365 
L 217.125234 428.177499 
L 217.664282 428.691088 
L 218.266163 429.603716 
L 219.109458 431.362779 
L 348.087351 709.270889 
L 348.72561 709.985159 
L 349.264658 710.274941 
L 349.813626 710.312279 
L 381.991132 710.201672 
L 382.493802 709.841916 
L 383.052692 709.148827 
L 383.694258 707.972732 
L 399.766476 673.30921 
L 513.174821 428.9806 
L 513.81308 428.26633 
L 514.352128 427.976548 
L 514.828341 427.959365 
L 515.32109 428.177499 
L 515.860138 428.691088 
L 516.462019 429.603716 
L 517.305315 431.362779 
L 575.413326 556.422825 
L 576.051585 557.137096 
L 576.590633 557.426878 
L 577.139602 557.464161 
L 612.819263 557.464161 
L 612.819263 557.464161 
" clip-path="url(#p1d95d872a1)" style="fill: none; stroke: #1f77b4; stroke-width: 5; stroke-linecap: round"/>
   </g>
   <g id="line2d_22">
    <path d="M 136.608715 557.464215 
L 156.219466 557.353166 
L 161.037824 556.692933 
L 167.046717 555.666093 
L 173.072145 554.4106 
L 179.120723 552.922838 
L 185.195756 551.199192 
L 191.300553 549.235532 
L 197.438421 547.027208 
L 203.615973 544.567668 
L 209.833209 541.852331 
L 215.673443 539.31017 
L 216.685398 539.252676 
L 217.657667 539.418469 
L 218.659701 539.821402 
L 224.989377 543.181175 
L 231.371965 546.821724 
L 237.807466 550.749361 
L 244.302494 554.974886 
L 250.857049 559.505521 
L 257.474437 564.35105 
L 264.157966 569.521867 
L 270.907636 575.026234 
L 277.726754 580.875399 
L 284.618627 587.08126 
L 291.583254 593.653188 
L 298.623944 600.603987 
L 305.744003 607.94715 
L 312.94343 615.693235 
L 320.222227 623.85292 
L 327.583699 632.440934 
L 335.031155 641.472737 
L 342.561286 650.956053 
L 348.325458 658.170735 
L 349.006709 658.530634 
L 349.618511 658.616651 
L 382.080422 658.506031 
L 382.678997 658.144273 
L 383.330484 657.463211 
L 384.170472 656.218522 
L 392.269414 643.525619 
L 400.460954 630.272001 
L 408.745091 616.443493 
L 417.125132 602.019985 
L 425.601077 586.986458 
L 434.172927 571.327723 
L 442.84068 555.028418 
L 451.607645 538.066522 
L 460.470514 520.432452 
L 469.432594 502.10347 
L 478.493886 483.062961 
L 487.654388 463.294126 
L 496.917409 442.772562 
L 506.279641 421.488139 
L 513.340173 405.506824 
L 513.945362 404.866322 
L 514.451339 404.63284 
L 514.901096 404.656933 
L 515.370696 404.915328 
L 515.883287 405.469857 
L 516.488476 406.49222 
L 517.381377 408.55155 
L 526.965181 431.567912 
L 536.651503 455.411798 
L 546.440343 480.101764 
L 556.331702 505.656562 
L 566.325579 532.095141 
L 575.651433 556.739718 
L 576.223551 557.405026 
L 576.696458 557.645582 
L 577.271883 557.66344 
L 612.819263 557.66344 
L 612.819263 557.66344 
" clip-path="url(#p1d95d872a1)" style="fill: none; stroke: #ff7f0e; stroke-width: 5; stroke-linecap: round"/>
   </g>
   <g id="line2d_23">
    <path d="M 136.608715 557.464215 
L 167.139314 557.353131 
L 181.524941 557.038186 
L 193.744456 556.552282 
L 204.717217 555.89656 
L 217.935459 555.075765 
L 221.368167 555.424979 
L 230.518749 556.535944 
L 239.246029 557.817886 
L 247.62607 559.272214 
L 255.711784 560.899917 
L 263.549471 562.703461 
L 271.172199 564.684792 
L 278.609734 566.846974 
L 285.885223 569.192994 
L 293.01851 571.726285 
L 300.029436 574.451803 
L 306.927923 577.371891 
L 313.730506 580.492612 
L 320.450412 583.819999 
L 327.097564 587.359603 
L 333.678575 591.116005 
L 340.206673 595.098512 
L 346.688473 599.313706 
L 348.31223 600.269229 
L 349.175368 600.484215 
L 350.389052 600.505058 
L 382.245774 600.394074 
L 382.999779 600.042906 
L 383.773627 599.430747 
L 390.099996 593.404904 
L 396.423058 587.07405 
L 402.746119 580.427429 
L 409.072488 573.453625 
L 415.408778 566.136615 
L 421.754989 558.467084 
L 428.114428 550.431374 
L 434.490403 542.014993 
L 440.886219 533.202576 
L 447.305185 523.977833 
L 453.7473 514.328558 
L 460.215872 504.237089 
L 466.7109 493.6902 
L 473.235691 482.668744 
L 479.790246 471.158372 
L 486.377871 459.138328 
L 492.998566 446.593038 
L 499.655639 433.500006 
L 506.349089 419.842317 
L 513.492297 405.25388 
L 514.067722 404.771305 
L 514.58362 404.617185 
L 515.046606 404.70416 
L 515.529434 405.023099 
L 516.08171 405.675017 
L 516.723276 406.819688 
L 519.395365 412.725303 
L 526.204561 428.161169 
L 533.053442 444.240926 
L 539.945315 460.992261 
L 546.876872 478.427467 
L 553.854728 496.584377 
L 560.875576 515.476459 
L 567.939414 535.125818 
L 575.727495 556.816298 
L 576.273157 557.45074 
L 576.742757 557.676611 
L 577.526525 557.686793 
L 612.819263 557.686793 
L 612.819263 557.686793 
" clip-path="url(#p1d95d872a1)" style="fill: none; stroke: #2ca02c; stroke-width: 5; stroke-linecap: round"/>
   </g>
   <g id="line2d_24">
    <path d="M 112.798188 557.464215 
L 636.629791 557.464215 
" clip-path="url(#p1d95d872a1)" style="fill: none; stroke: #000000; stroke-width: 3; stroke-linecap: round"/>
   </g>
   <g id="patch_9">
    <path d="M 112.798188 725.597085 
L 112.798188 389.331345 
" style="fill: none; stroke: #ffffff; stroke-width: 2.5; stroke-linejoin: miter; stroke-linecap: square"/>
   </g>
   <g id="patch_10">
    <path d="M 636.629791 725.597085 
L 636.629791 389.331345 
" style="fill: none; stroke: #ffffff; stroke-width: 2.5; stroke-linejoin: miter; stroke-linecap: square"/>
   </g>
   <g id="patch_11">
    <path d="M 112.798188 725.597085 
L 636.629791 725.597085 
" style="fill: none; stroke: #ffffff; stroke-width: 2.5; stroke-linejoin: miter; stroke-linecap: square"/>
   </g>
   <g id="patch_12">
    <path d="M 112.798188 389.331345 
L 636.629791 389.331345 
" style="fill: none; stroke: #ffffff; stroke-width: 2.5; stroke-linejoin: miter; stroke-linecap: square"/>
   </g>
   <g id="legend_1">
    <g id="patch_13">
     <path d="M 505.629791 713.097085 
L 619.129791 713.097085 
Q 624.129791 713.097085 624.129791 708.097085 
L 624.129791 604.507241 
Q 624.129791 599.507241 619.129791 599.507241 
L 505.629791 599.507241 
Q 500.629791 599.507241 500.629791 604.507241 
L 500.629791 708.097085 
Q 500.629791 713.097085 505.629791 713.097085 
z
" style="fill: #eaeaf2; opacity: 0.8; stroke: #cccccc; stroke-width: 2; stroke-linejoin: miter"/>
    </g>
    <g id="line2d_25">
     <path d="M 510.629791 618.651772 
L 535.629791 618.651772 
L 560.629791 618.651772 
" style="fill: none; stroke: #1f77b4; stroke-width: 5; stroke-linecap: round"/>
    </g>
    <g id="text_19">
     <!-- $M_0$ -->
     <g style="fill: #262626" transform="translate(580.629791 627.401772) scale(0.25 -0.25)">
      <defs>
       <path id="DejaVuSans-30" d="M 2034 4250 
Q 1547 4250 1301 3770 
Q 1056 3291 1056 2328 
Q 1056 1369 1301 889 
Q 1547 409 2034 409 
Q 2525 409 2770 889 
Q 3016 1369 3016 2328 
Q 3016 3291 2770 3770 
Q 2525 4250 2034 4250 
z
M 2034 4750 
Q 2819 4750 3233 4129 
Q 3647 3509 3647 2328 
Q 3647 1150 3233 529 
Q 2819 -91 2034 -91 
Q 1250 -91 836 529 
Q 422 1150 422 2328 
Q 422 3509 836 4129 
Q 1250 4750 2034 4750 
z
" transform="scale(0.015625)"/>
      </defs>
      <use xlink:href="#DejaVuSans-Oblique-4d" transform="translate(0 0.09375)"/>
      <use xlink:href="#DejaVuSans-30" transform="translate(86.279297 -16.3125) scale(0.7)"/>
     </g>
    </g>
    <g id="line2d_26">
     <path d="M 510.629791 654.015054 
L 535.629791 654.015054 
L 560.629791 654.015054 
" style="fill: none; stroke: #ff7f0e; stroke-width: 5; stroke-linecap: round"/>
    </g>
    <g id="text_20">
     <!-- $M_1$ -->
     <g style="fill: #262626" transform="translate(580.629791 662.765054) scale(0.25 -0.25)">
      <defs>
       <path id="DejaVuSans-31" d="M 794 531 
L 1825 531 
L 1825 4091 
L 703 3866 
L 703 4441 
L 1819 4666 
L 2450 4666 
L 2450 531 
L 3481 531 
L 3481 0 
L 794 0 
L 794 531 
z
" transform="scale(0.015625)"/>
      </defs>
      <use xlink:href="#DejaVuSans-Oblique-4d" transform="translate(0 0.09375)"/>
      <use xlink:href="#DejaVuSans-31" transform="translate(86.279297 -16.3125) scale(0.7)"/>
     </g>
    </g>
    <g id="line2d_27">
     <path d="M 510.629791 689.378335 
L 535.629791 689.378335 
L 560.629791 689.378335 
" style="fill: none; stroke: #2ca02c; stroke-width: 5; stroke-linecap: round"/>
    </g>
    <g id="text_21">
     <!-- $M_2$ -->
     <g style="fill: #262626" transform="translate(580.629791 698.128335) scale(0.25 -0.25)">
      <defs>
       <path id="DejaVuSans-32" d="M 1228 531 
L 3431 531 
L 3431 0 
L 469 0 
L 469 531 
Q 828 903 1448 1529 
Q 2069 2156 2228 2338 
Q 2531 2678 2651 2914 
Q 2772 3150 2772 3378 
Q 2772 3750 2511 3984 
Q 2250 4219 1831 4219 
Q 1534 4219 1204 4116 
Q 875 4013 500 3803 
L 500 4441 
Q 881 4594 1212 4672 
Q 1544 4750 1819 4750 
Q 2544 4750 2975 4387 
Q 3406 4025 3406 3419 
Q 3406 3131 3298 2873 
Q 3191 2616 2906 2266 
Q 2828 2175 2409 1742 
Q 1991 1309 1228 531 
z
" transform="scale(0.015625)"/>
      </defs>
      <use xlink:href="#DejaVuSans-Oblique-4d" transform="translate(0 0.09375)"/>
      <use xlink:href="#DejaVuSans-32" transform="translate(86.279297 -16.3125) scale(0.7)"/>
     </g>
    </g>
   </g>
  </g>
 </g>
 <defs>
  <clipPath id="pb9dd70fff0">
   <rect x="112.798188" y="9.429345" width="523.831603" height="336.26574"/>
  </clipPath>
  <clipPath id="p1d95d872a1">
   <rect x="112.798188" y="389.331345" width="523.831603" height="336.26574"/>
  </clipPath>
 </defs>
</svg>
