<?xml version="1.0" encoding="utf-8" standalone="no"?>
<!DOCTYPE svg PUBLIC "-//W3C//DTD SVG 1.1//EN"
  "http://www.w3.org/Graphics/SVG/1.1/DTD/svg11.dtd">
<svg xmlns:xlink="http://www.w3.org/1999/xlink" width="663.481188pt" height="806.986054pt" viewBox="0 0 663.481188 806.986054" xmlns="http://www.w3.org/2000/svg" version="1.1">
 <metadata>
  <rdf:RDF xmlns:dc="http://purl.org/dc/elements/1.1/" xmlns:cc="http://creativecommons.org/ns#" xmlns:rdf="http://www.w3.org/1999/02/22-rdf-syntax-ns#">
   <cc:Work>
    <dc:type rdf:resource="http://purl.org/dc/dcmitype/StillImage"/>
    <dc:date>2024-03-06T08:54:53.911709</dc:date>
    <dc:format>image/svg+xml</dc:format>
    <dc:creator>
     <cc:Agent>
      <dc:title>Matplotlib v3.7.1, https://matplotlib.org/</dc:title>
     </cc:Agent>
    </dc:creator>
   </cc:Work>
  </rdf:RDF>
 </metadata>
 <defs>
  <style type="text/css">*{stroke-linejoin: round; stroke-linecap: butt}</style>
 </defs>
 <g id="figure_1">
  <g id="patch_1">
   <path d="M -0 806.986054 
L 663.481188 806.986054 
L 663.481188 0 
L -0 0 
z
" style="fill: #ffffff"/>
  </g>
  <g id="axes_1">
   <g id="patch_2">
    <path d="M 112.798188 345.695085 
L 656.281188 345.695085 
L 656.281188 9.429345 
L 112.798188 9.429345 
z
" style="fill: #eaeaf2"/>
   </g>
   <g id="matplotlib.axis_1">
    <g id="xtick_1">
     <g id="line2d_1">
      <path d="M 137.50196 345.695085 
L 137.50196 9.429345 
" clip-path="url(#p3f795b0304)" style="fill: none; stroke: #ffffff; stroke-width: 2; stroke-linecap: round"/>
     </g>
    </g>
    <g id="xtick_2">
     <g id="line2d_2">
      <path d="M 272.866953 345.695085 
L 272.866953 9.429345 
" clip-path="url(#p3f795b0304)" style="fill: none; stroke: #ffffff; stroke-width: 2; stroke-linecap: round"/>
     </g>
    </g>
    <g id="xtick_3">
     <g id="line2d_3">
      <path d="M 408.231945 345.695085 
L 408.231945 9.429345 
" clip-path="url(#p3f795b0304)" style="fill: none; stroke: #ffffff; stroke-width: 2; stroke-linecap: round"/>
     </g>
    </g>
    <g id="xtick_4">
     <g id="line2d_4">
      <path d="M 543.596938 345.695085 
L 543.596938 9.429345 
" clip-path="url(#p3f795b0304)" style="fill: none; stroke: #ffffff; stroke-width: 2; stroke-linecap: round"/>
     </g>
    </g>
   </g>
   <g id="matplotlib.axis_2">
    <g id="ytick_1">
     <g id="line2d_5">
      <path d="M 112.798188 337.688758 
L 656.281188 337.688758 
" clip-path="url(#p3f795b0304)" style="fill: none; stroke: #ffffff; stroke-width: 2; stroke-linecap: round"/>
     </g>
     <g id="text_1">
      <!-- −40 -->
      <g style="fill: #262626" transform="translate(48.785438 347.92443) scale(0.286 -0.286)">
       <defs>
        <path id="ArialMT-2212" d="M 3381 1997 
L 356 1997 
L 356 2522 
L 3381 2522 
L 3381 1997 
z
" transform="scale(0.015625)"/>
        <path id="ArialMT-34" d="M 2069 0 
L 2069 1097 
L 81 1097 
L 81 1613 
L 2172 4581 
L 2631 4581 
L 2631 1613 
L 3250 1613 
L 3250 1097 
L 2631 1097 
L 2631 0 
L 2069 0 
z
M 2069 1613 
L 2069 3678 
L 634 1613 
L 2069 1613 
z
" transform="scale(0.015625)"/>
        <path id="ArialMT-30" d="M 266 2259 
Q 266 3072 433 3567 
Q 600 4063 929 4331 
Q 1259 4600 1759 4600 
Q 2128 4600 2406 4451 
Q 2684 4303 2865 4023 
Q 3047 3744 3150 3342 
Q 3253 2941 3253 2259 
Q 3253 1453 3087 958 
Q 2922 463 2592 192 
Q 2263 -78 1759 -78 
Q 1097 -78 719 397 
Q 266 969 266 2259 
z
M 844 2259 
Q 844 1131 1108 757 
Q 1372 384 1759 384 
Q 2147 384 2411 759 
Q 2675 1134 2675 2259 
Q 2675 3391 2411 3762 
Q 2147 4134 1753 4134 
Q 1366 4134 1134 3806 
Q 844 3388 844 2259 
z
" transform="scale(0.015625)"/>
       </defs>
       <use xlink:href="#ArialMT-2212"/>
       <use xlink:href="#ArialMT-34" x="58.398438"/>
       <use xlink:href="#ArialMT-30" x="114.013672"/>
      </g>
     </g>
    </g>
    <g id="ytick_2">
     <g id="line2d_6">
      <path d="M 112.798188 257.625486 
L 656.281188 257.625486 
" clip-path="url(#p3f795b0304)" style="fill: none; stroke: #ffffff; stroke-width: 2; stroke-linecap: round"/>
     </g>
     <g id="text_2">
      <!-- −20 -->
      <g style="fill: #262626" transform="translate(48.785438 267.861158) scale(0.286 -0.286)">
       <defs>
        <path id="ArialMT-32" d="M 3222 541 
L 3222 0 
L 194 0 
Q 188 203 259 391 
Q 375 700 629 1000 
Q 884 1300 1366 1694 
Q 2113 2306 2375 2664 
Q 2638 3022 2638 3341 
Q 2638 3675 2398 3904 
Q 2159 4134 1775 4134 
Q 1369 4134 1125 3890 
Q 881 3647 878 3216 
L 300 3275 
Q 359 3922 746 4261 
Q 1134 4600 1788 4600 
Q 2447 4600 2831 4234 
Q 3216 3869 3216 3328 
Q 3216 3053 3103 2787 
Q 2991 2522 2730 2228 
Q 2469 1934 1863 1422 
Q 1356 997 1212 845 
Q 1069 694 975 541 
L 3222 541 
z
" transform="scale(0.015625)"/>
       </defs>
       <use xlink:href="#ArialMT-2212"/>
       <use xlink:href="#ArialMT-32" x="58.398438"/>
       <use xlink:href="#ArialMT-30" x="114.013672"/>
      </g>
     </g>
    </g>
    <g id="ytick_3">
     <g id="line2d_7">
      <path d="M 112.798188 177.562215 
L 656.281188 177.562215 
" clip-path="url(#p3f795b0304)" style="fill: none; stroke: #ffffff; stroke-width: 2; stroke-linecap: round"/>
     </g>
     <g id="text_3">
      <!-- 0 -->
      <g style="fill: #262626" transform="translate(81.393906 187.797887) scale(0.286 -0.286)">
       <use xlink:href="#ArialMT-30"/>
      </g>
     </g>
    </g>
    <g id="ytick_4">
     <g id="line2d_8">
      <path d="M 112.798188 97.498943 
L 656.281188 97.498943 
" clip-path="url(#p3f795b0304)" style="fill: none; stroke: #ffffff; stroke-width: 2; stroke-linecap: round"/>
     </g>
     <g id="text_4">
      <!-- 20 -->
      <g style="fill: #262626" transform="translate(65.489625 107.734615) scale(0.286 -0.286)">
       <use xlink:href="#ArialMT-32"/>
       <use xlink:href="#ArialMT-30" x="55.615234"/>
      </g>
     </g>
    </g>
    <g id="ytick_5">
     <g id="line2d_9">
      <path d="M 112.798188 17.435672 
L 656.281188 17.435672 
" clip-path="url(#p3f795b0304)" style="fill: none; stroke: #ffffff; stroke-width: 2; stroke-linecap: round"/>
     </g>
     <g id="text_5">
      <!-- 40 -->
      <g style="fill: #262626" transform="translate(65.489625 27.671344) scale(0.286 -0.286)">
       <use xlink:href="#ArialMT-34"/>
       <use xlink:href="#ArialMT-30" x="55.615234"/>
      </g>
     </g>
    </g>
    <g id="text_6">
     <!-- G(t) [mT/m] -->
     <g style="fill: #262626" transform="translate(38.218812 257.270902) rotate(-90) scale(0.312 -0.312)">
      <defs>
       <path id="ArialMT-47" d="M 2638 1797 
L 2638 2334 
L 4578 2338 
L 4578 638 
Q 4131 281 3656 101 
Q 3181 -78 2681 -78 
Q 2006 -78 1454 211 
Q 903 500 622 1047 
Q 341 1594 341 2269 
Q 341 2938 620 3517 
Q 900 4097 1425 4378 
Q 1950 4659 2634 4659 
Q 3131 4659 3532 4498 
Q 3934 4338 4162 4050 
Q 4391 3763 4509 3300 
L 3963 3150 
Q 3859 3500 3706 3700 
Q 3553 3900 3268 4020 
Q 2984 4141 2638 4141 
Q 2222 4141 1919 4014 
Q 1616 3888 1430 3681 
Q 1244 3475 1141 3228 
Q 966 2803 966 2306 
Q 966 1694 1177 1281 
Q 1388 869 1791 669 
Q 2194 469 2647 469 
Q 3041 469 3416 620 
Q 3791 772 3984 944 
L 3984 1797 
L 2638 1797 
z
" transform="scale(0.015625)"/>
       <path id="ArialMT-28" d="M 1497 -1347 
Q 1031 -759 709 28 
Q 388 816 388 1659 
Q 388 2403 628 3084 
Q 909 3875 1497 4659 
L 1900 4659 
Q 1522 4009 1400 3731 
Q 1209 3300 1100 2831 
Q 966 2247 966 1656 
Q 966 153 1900 -1347 
L 1497 -1347 
z
" transform="scale(0.015625)"/>
       <path id="ArialMT-74" d="M 1650 503 
L 1731 6 
Q 1494 -44 1306 -44 
Q 1000 -44 831 53 
Q 663 150 594 308 
Q 525 466 525 972 
L 525 2881 
L 113 2881 
L 113 3319 
L 525 3319 
L 525 4141 
L 1084 4478 
L 1084 3319 
L 1650 3319 
L 1650 2881 
L 1084 2881 
L 1084 941 
Q 1084 700 1114 631 
Q 1144 563 1211 522 
Q 1278 481 1403 481 
Q 1497 481 1650 503 
z
" transform="scale(0.015625)"/>
       <path id="ArialMT-29" d="M 791 -1347 
L 388 -1347 
Q 1322 153 1322 1656 
Q 1322 2244 1188 2822 
Q 1081 3291 891 3722 
Q 769 4003 388 4659 
L 791 4659 
Q 1378 3875 1659 3084 
Q 1900 2403 1900 1659 
Q 1900 816 1576 28 
Q 1253 -759 791 -1347 
z
" transform="scale(0.015625)"/>
       <path id="ArialMT-20" transform="scale(0.015625)"/>
       <path id="ArialMT-5b" d="M 434 -1272 
L 434 4581 
L 1675 4581 
L 1675 4116 
L 997 4116 
L 997 -806 
L 1675 -806 
L 1675 -1272 
L 434 -1272 
z
" transform="scale(0.015625)"/>
       <path id="ArialMT-6d" d="M 422 0 
L 422 3319 
L 925 3319 
L 925 2853 
Q 1081 3097 1340 3245 
Q 1600 3394 1931 3394 
Q 2300 3394 2536 3241 
Q 2772 3088 2869 2813 
Q 3263 3394 3894 3394 
Q 4388 3394 4653 3120 
Q 4919 2847 4919 2278 
L 4919 0 
L 4359 0 
L 4359 2091 
Q 4359 2428 4304 2576 
Q 4250 2725 4106 2815 
Q 3963 2906 3769 2906 
Q 3419 2906 3187 2673 
Q 2956 2441 2956 1928 
L 2956 0 
L 2394 0 
L 2394 2156 
Q 2394 2531 2256 2718 
Q 2119 2906 1806 2906 
Q 1569 2906 1367 2781 
Q 1166 2656 1075 2415 
Q 984 2175 984 1722 
L 984 0 
L 422 0 
z
" transform="scale(0.015625)"/>
       <path id="ArialMT-54" d="M 1659 0 
L 1659 4041 
L 150 4041 
L 150 4581 
L 3781 4581 
L 3781 4041 
L 2266 4041 
L 2266 0 
L 1659 0 
z
" transform="scale(0.015625)"/>
       <path id="ArialMT-2f" d="M 0 -78 
L 1328 4659 
L 1778 4659 
L 453 -78 
L 0 -78 
z
" transform="scale(0.015625)"/>
       <path id="ArialMT-5d" d="M 1363 -1272 
L 122 -1272 
L 122 -806 
L 800 -806 
L 800 4116 
L 122 4116 
L 122 4581 
L 1363 4581 
L 1363 -1272 
z
" transform="scale(0.015625)"/>
      </defs>
      <use xlink:href="#ArialMT-47"/>
      <use xlink:href="#ArialMT-28" x="77.783203"/>
      <use xlink:href="#ArialMT-74" x="111.083984"/>
      <use xlink:href="#ArialMT-29" x="138.867188"/>
      <use xlink:href="#ArialMT-20" x="172.167969"/>
      <use xlink:href="#ArialMT-5b" x="199.951172"/>
      <use xlink:href="#ArialMT-6d" x="227.734375"/>
      <use xlink:href="#ArialMT-54" x="311.035156"/>
      <use xlink:href="#ArialMT-2f" x="372.119141"/>
      <use xlink:href="#ArialMT-6d" x="399.902344"/>
      <use xlink:href="#ArialMT-5d" x="483.203125"/>
     </g>
    </g>
   </g>
   <g id="line2d_10">
    <path d="M 137.50196 177.562215 
L 173.488743 177.562215 
L 173.61734 174.628192 
L 173.624108 174.628192 
L 173.745937 170.716165 
L 173.759473 170.716165 
L 173.881302 166.804129 
L 173.894838 166.804129 
L 174.016667 162.892098 
L 174.030203 162.892098 
L 174.152032 158.98007 
L 174.165568 158.98007 
L 174.287397 155.068034 
L 174.300933 155.068034 
L 174.422762 151.156007 
L 174.436298 151.156007 
L 174.558127 147.243971 
L 174.571663 147.243971 
L 174.693492 143.331944 
L 174.707028 143.331944 
L 174.828857 139.419908 
L 174.842393 139.419908 
L 174.964222 135.507873 
L 174.977758 135.507873 
L 175.099587 131.595845 
L 175.113123 131.595845 
L 175.234952 127.68381 
L 175.248488 127.68381 
L 175.370317 123.771782 
L 175.383853 123.771782 
L 175.505682 119.859746 
L 175.519218 119.859746 
L 175.641047 115.947719 
L 175.654583 115.947719 
L 175.776412 112.035683 
L 175.789948 112.035683 
L 175.911777 108.123652 
L 175.925313 108.123652 
L 176.047142 104.211624 
L 176.060678 104.211624 
L 176.182507 100.299589 
L 176.196043 100.299589 
L 176.317872 96.387561 
L 176.331408 96.387561 
L 176.453237 92.475526 
L 176.466773 92.475526 
L 176.588602 88.563498 
L 176.602138 88.563498 
L 176.723967 84.651458 
L 176.737503 84.651458 
L 176.859332 80.739431 
L 176.872868 80.739431 
L 176.994697 76.827395 
L 177.008233 76.827395 
L 177.130062 72.915368 
L 177.143598 72.915368 
L 177.265427 69.003332 
L 177.278963 69.003332 
L 177.400792 65.091305 
L 177.414328 65.091305 
L 177.536157 61.179269 
L 177.549693 61.179269 
L 177.671522 57.267238 
L 177.685058 57.267238 
L 177.806887 53.35521 
L 177.820423 53.35521 
L 177.942252 49.443174 
L 177.955788 49.443174 
L 178.070848 48.46517 
L 328.549342 48.46517 
L 328.677939 51.399192 
L 328.684707 51.399192 
L 328.806536 55.31122 
L 328.820072 55.31122 
L 328.941901 59.223255 
L 328.955437 59.223255 
L 329.077266 63.135283 
L 329.090802 63.135283 
L 329.212631 67.047318 
L 329.226167 67.047318 
L 329.347996 70.959346 
L 329.361532 70.959346 
L 329.483361 74.871386 
L 329.496897 74.871386 
L 329.618726 78.783413 
L 329.632262 78.783413 
L 329.754091 82.695449 
L 329.767627 82.695449 
L 329.889456 86.607476 
L 329.902992 86.607476 
L 330.024821 90.519512 
L 330.038357 90.519512 
L 330.160186 94.431539 
L 330.173722 94.431539 
L 330.295551 98.343575 
L 330.309087 98.343575 
L 330.430916 102.255602 
L 330.444452 102.255602 
L 330.566281 106.167638 
L 330.579817 106.167638 
L 330.701646 110.079666 
L 330.715182 110.079666 
L 330.837011 113.991701 
L 330.850547 113.991701 
L 330.972376 117.903729 
L 330.985912 117.903729 
L 331.107741 121.815768 
L 331.121277 121.815768 
L 331.243106 125.727796 
L 331.256642 125.727796 
L 331.378471 129.639831 
L 331.392007 129.639831 
L 331.513836 133.551859 
L 331.527372 133.551859 
L 331.649201 137.463894 
L 331.662737 137.463894 
L 331.784566 141.375922 
L 331.798102 141.375922 
L 331.919931 145.287958 
L 331.933467 145.287958 
L 332.055296 149.199989 
L 332.068832 149.199989 
L 332.190661 153.112017 
L 332.204197 153.112017 
L 332.326026 157.024052 
L 332.339562 157.024052 
L 332.461391 160.93608 
L 332.474927 160.93608 
L 332.596756 164.848115 
L 332.610292 164.848115 
L 332.732121 168.760143 
L 332.745657 168.760143 
L 332.867486 172.672182 
L 332.881022 172.672182 
L 333.002851 176.58421 
L 333.016387 176.58421 
L 333.131447 177.562215 
L 398.465361 177.562215 
L 398.593958 174.628192 
L 398.600726 174.628192 
L 398.722555 170.716165 
L 398.736091 170.716165 
L 398.85792 166.804129 
L 398.871456 166.804129 
L 398.993285 162.892098 
L 399.006821 162.892098 
L 399.12865 158.98007 
L 399.142186 158.98007 
L 399.264015 155.068034 
L 399.277551 155.068034 
L 399.39938 151.156007 
L 399.412916 151.156007 
L 399.534745 147.243971 
L 399.548281 147.243971 
L 399.67011 143.331944 
L 399.683646 143.331944 
L 399.805475 139.419908 
L 399.819011 139.419908 
L 399.94084 135.507873 
L 399.954376 135.507873 
L 400.076205 131.595845 
L 400.089741 131.595845 
L 400.21157 127.68381 
L 400.225106 127.68381 
L 400.346935 123.771782 
L 400.360471 123.771782 
L 400.482299 119.859746 
L 400.495836 119.859746 
L 400.617664 115.947719 
L 400.631201 115.947719 
L 400.753029 112.035683 
L 400.766566 112.035683 
L 400.888394 108.123652 
L 400.901931 108.123652 
L 401.023759 104.211624 
L 401.037296 104.211624 
L 401.159124 100.299589 
L 401.172661 100.299589 
L 401.294489 96.387561 
L 401.308026 96.387561 
L 401.429854 92.475526 
L 401.443391 92.475526 
L 401.565219 88.563498 
L 401.578756 88.563498 
L 401.700584 84.651458 
L 401.714121 84.651458 
L 401.835949 80.739431 
L 401.849486 80.739431 
L 401.971314 76.827395 
L 401.984851 76.827395 
L 402.106679 72.915368 
L 402.120216 72.915368 
L 402.242044 69.003332 
L 402.255581 69.003332 
L 402.377409 65.091305 
L 402.390946 65.091305 
L 402.512774 61.179269 
L 402.526311 61.179269 
L 402.648139 57.267238 
L 402.661676 57.267238 
L 402.783504 53.35521 
L 402.797041 53.35521 
L 402.918869 49.443174 
L 402.932406 49.443174 
L 403.047466 48.46517 
L 553.52596 48.46517 
L 553.654557 51.399192 
L 553.661325 51.399192 
L 553.783154 55.31122 
L 553.79669 55.31122 
L 553.918519 59.223255 
L 553.932055 59.223255 
L 554.053884 63.135283 
L 554.06742 63.135283 
L 554.189249 67.047318 
L 554.202785 67.047318 
L 554.324614 70.959346 
L 554.33815 70.959346 
L 554.459979 74.871386 
L 554.473515 74.871386 
L 554.595344 78.783413 
L 554.60888 78.783413 
L 554.730709 82.695449 
L 554.744245 82.695449 
L 554.866073 86.607476 
L 554.87961 86.607476 
L 555.001438 90.519512 
L 555.014975 90.519512 
L 555.136803 94.431539 
L 555.15034 94.431539 
L 555.272168 98.343575 
L 555.285705 98.343575 
L 555.407533 102.255602 
L 555.42107 102.255602 
L 555.542898 106.167638 
L 555.556435 106.167638 
L 555.678263 110.079666 
L 555.6918 110.079666 
L 555.813628 113.991701 
L 555.827165 113.991701 
L 555.948993 117.903729 
L 555.96253 117.903729 
L 556.084358 121.815768 
L 556.097895 121.815768 
L 556.219723 125.727796 
L 556.23326 125.727796 
L 556.355088 129.639831 
L 556.368625 129.639831 
L 556.490453 133.551859 
L 556.50399 133.551859 
L 556.625818 137.463894 
L 556.639355 137.463894 
L 556.761183 141.375922 
L 556.77472 141.375922 
L 556.896548 145.287958 
L 556.910085 145.287958 
L 557.031913 149.199989 
L 557.04545 149.199989 
L 557.167278 153.112017 
L 557.180815 153.112017 
L 557.302643 157.024052 
L 557.31618 157.024052 
L 557.438008 160.93608 
L 557.451545 160.93608 
L 557.573373 164.848115 
L 557.58691 164.848115 
L 557.708738 168.760143 
L 557.722275 168.760143 
L 557.844103 172.672182 
L 557.85764 172.672182 
L 557.979468 176.58421 
L 557.993005 176.58421 
L 558.108065 177.562215 
L 631.577415 177.562215 
L 631.577415 177.562215 
" clip-path="url(#p3f795b0304)" style="fill: none; stroke: #808080; stroke-width: 5; stroke-linecap: round"/>
   </g>
   <g id="line2d_11">
    <path d="M 112.798188 177.562215 
L 656.281188 177.562215 
" clip-path="url(#p3f795b0304)" style="fill: none; stroke: #000000; stroke-width: 3; stroke-linecap: round"/>
   </g>
   <g id="patch_3">
    <path d="M 112.798188 345.695085 
L 112.798188 9.429345 
" style="fill: none; stroke: #ffffff; stroke-width: 2.5; stroke-linejoin: miter; stroke-linecap: square"/>
   </g>
   <g id="patch_4">
    <path d="M 656.281188 345.695085 
L 656.281188 9.429345 
" style="fill: none; stroke: #ffffff; stroke-width: 2.5; stroke-linejoin: miter; stroke-linecap: square"/>
   </g>
   <g id="patch_5">
    <path d="M 112.798188 345.695085 
L 656.281187 345.695085 
" style="fill: none; stroke: #ffffff; stroke-width: 2.5; stroke-linejoin: miter; stroke-linecap: square"/>
   </g>
   <g id="patch_6">
    <path d="M 112.798188 9.429345 
L 656.281187 9.429345 
" style="fill: none; stroke: #ffffff; stroke-width: 2.5; stroke-linejoin: miter; stroke-linecap: square"/>
   </g>
   <g id="text_7">
    <g id="patch_7">
     <path d="M 433.726698 324.568511 
L 639.976698 324.568511 
Q 652.476698 324.568511 652.476698 312.068511 
L 652.476698 288.818511 
Q 652.476698 276.318511 639.976698 276.318511 
L 433.726698 276.318511 
Q 421.226698 276.318511 421.226698 288.818511 
L 421.226698 312.068511 
Q 421.226698 324.568511 433.726698 324.568511 
z
" style="fill: #eaeaf2; opacity: 0.9; stroke: #d3d3d3; stroke-width: 2; stroke-linejoin: miter"/>
    </g>
    <!-- $G_{max}$ = 32.2 mT/m -->
    <g style="fill: #262626" transform="translate(433.726698 307.099761) scale(0.25 -0.25)">
     <defs>
      <path id="DejaVuSans-Oblique-47" d="M 3494 697 
L 3738 1919 
L 2700 1919 
L 2797 2438 
L 4453 2438 
L 4050 384 
Q 3634 156 3143 32 
Q 2653 -91 2156 -91 
Q 1278 -91 783 396 
Q 288 884 288 1753 
Q 288 2475 589 3126 
Q 891 3778 1422 4213 
Q 1756 4484 2153 4617 
Q 2550 4750 3034 4750 
Q 3472 4750 3873 4639 
Q 4275 4528 4641 4306 
L 4513 3634 
Q 4231 3928 3853 4083 
Q 3475 4238 3047 4238 
Q 2550 4238 2172 4048 
Q 1794 3859 1497 3463 
Q 1244 3125 1098 2667 
Q 953 2209 953 1734 
Q 953 1081 1287 751 
Q 1622 422 2284 422 
Q 2616 422 2925 492 
Q 3234 563 3494 697 
z
" transform="scale(0.015625)"/>
      <path id="DejaVuSans-Oblique-6d" d="M 5747 2113 
L 5338 0 
L 4763 0 
L 5166 2094 
Q 5191 2228 5203 2325 
Q 5216 2422 5216 2491 
Q 5216 2772 5059 2928 
Q 4903 3084 4622 3084 
Q 4203 3084 3875 2770 
Q 3547 2456 3450 1953 
L 3066 0 
L 2491 0 
L 2900 2094 
Q 2925 2209 2937 2307 
Q 2950 2406 2950 2484 
Q 2950 2769 2794 2926 
Q 2638 3084 2363 3084 
Q 1938 3084 1609 2770 
Q 1281 2456 1184 1953 
L 800 0 
L 225 0 
L 909 3500 
L 1484 3500 
L 1375 2956 
Q 1609 3263 1923 3423 
Q 2238 3584 2597 3584 
Q 2978 3584 3223 3384 
Q 3469 3184 3519 2828 
Q 3781 3197 4126 3390 
Q 4472 3584 4856 3584 
Q 5306 3584 5551 3325 
Q 5797 3066 5797 2591 
Q 5797 2488 5784 2364 
Q 5772 2241 5747 2113 
z
" transform="scale(0.015625)"/>
      <path id="DejaVuSans-Oblique-61" d="M 3438 1997 
L 3047 0 
L 2472 0 
L 2578 531 
Q 2325 219 2001 64 
Q 1678 -91 1281 -91 
Q 834 -91 548 182 
Q 263 456 263 884 
Q 263 1497 752 1853 
Q 1241 2209 2100 2209 
L 2900 2209 
L 2931 2363 
Q 2938 2388 2941 2417 
Q 2944 2447 2944 2509 
Q 2944 2788 2717 2942 
Q 2491 3097 2081 3097 
Q 1800 3097 1504 3025 
Q 1209 2953 897 2809 
L 997 3341 
Q 1322 3463 1633 3523 
Q 1944 3584 2234 3584 
Q 2853 3584 3176 3315 
Q 3500 3047 3500 2534 
Q 3500 2431 3484 2292 
Q 3469 2153 3438 1997 
z
M 2816 1759 
L 2241 1759 
Q 1534 1759 1195 1570 
Q 856 1381 856 984 
Q 856 709 1029 553 
Q 1203 397 1509 397 
Q 1978 397 2328 733 
Q 2678 1069 2791 1631 
L 2816 1759 
z
" transform="scale(0.015625)"/>
      <path id="DejaVuSans-Oblique-78" d="M 3841 3500 
L 2234 1784 
L 3219 0 
L 2559 0 
L 1819 1388 
L 531 0 
L -166 0 
L 1556 1844 
L 641 3500 
L 1300 3500 
L 1972 2234 
L 3144 3500 
L 3841 3500 
z
" transform="scale(0.015625)"/>
      <path id="ArialMT-3d" d="M 3381 2694 
L 356 2694 
L 356 3219 
L 3381 3219 
L 3381 2694 
z
M 3381 1303 
L 356 1303 
L 356 1828 
L 3381 1828 
L 3381 1303 
z
" transform="scale(0.015625)"/>
      <path id="ArialMT-33" d="M 269 1209 
L 831 1284 
Q 928 806 1161 595 
Q 1394 384 1728 384 
Q 2125 384 2398 659 
Q 2672 934 2672 1341 
Q 2672 1728 2419 1979 
Q 2166 2231 1775 2231 
Q 1616 2231 1378 2169 
L 1441 2663 
Q 1497 2656 1531 2656 
Q 1891 2656 2178 2843 
Q 2466 3031 2466 3422 
Q 2466 3731 2256 3934 
Q 2047 4138 1716 4138 
Q 1388 4138 1169 3931 
Q 950 3725 888 3313 
L 325 3413 
Q 428 3978 793 4289 
Q 1159 4600 1703 4600 
Q 2078 4600 2393 4439 
Q 2709 4278 2876 4000 
Q 3044 3722 3044 3409 
Q 3044 3113 2884 2869 
Q 2725 2625 2413 2481 
Q 2819 2388 3044 2092 
Q 3269 1797 3269 1353 
Q 3269 753 2831 336 
Q 2394 -81 1725 -81 
Q 1122 -81 723 278 
Q 325 638 269 1209 
z
" transform="scale(0.015625)"/>
      <path id="ArialMT-2e" d="M 581 0 
L 581 641 
L 1222 641 
L 1222 0 
L 581 0 
z
" transform="scale(0.015625)"/>
     </defs>
     <use xlink:href="#DejaVuSans-Oblique-47" transform="translate(0 0.78125)"/>
     <use xlink:href="#DejaVuSans-Oblique-6d" transform="translate(77.490234 -15.625) scale(0.7)"/>
     <use xlink:href="#DejaVuSans-Oblique-61" transform="translate(145.678711 -15.625) scale(0.7)"/>
     <use xlink:href="#DejaVuSans-Oblique-78" transform="translate(188.574219 -15.625) scale(0.7)"/>
     <use xlink:href="#ArialMT-20" transform="translate(232.734375 0.78125)"/>
     <use xlink:href="#ArialMT-3d" transform="translate(260.517578 0.78125)"/>
     <use xlink:href="#ArialMT-20" transform="translate(318.916016 0.78125)"/>
     <use xlink:href="#ArialMT-33" transform="translate(346.699219 0.78125)"/>
     <use xlink:href="#ArialMT-32" transform="translate(402.314453 0.78125)"/>
     <use xlink:href="#ArialMT-2e" transform="translate(457.929688 0.78125)"/>
     <use xlink:href="#ArialMT-32" transform="translate(485.712891 0.78125)"/>
     <use xlink:href="#ArialMT-20" transform="translate(541.328125 0.78125)"/>
     <use xlink:href="#ArialMT-6d" transform="translate(569.111328 0.78125)"/>
     <use xlink:href="#ArialMT-54" transform="translate(652.412109 0.78125)"/>
     <use xlink:href="#ArialMT-2f" transform="translate(713.496094 0.78125)"/>
     <use xlink:href="#ArialMT-6d" transform="translate(741.279297 0.78125)"/>
    </g>
   </g>
  </g>
  <g id="axes_2">
   <g id="patch_8">
    <path d="M 112.798188 725.597085 
L 656.281188 725.597085 
L 656.281188 389.331345 
L 112.798188 389.331345 
z
" style="fill: #eaeaf2"/>
   </g>
   <g id="matplotlib.axis_3">
    <g id="xtick_5">
     <g id="line2d_12">
      <path d="M 137.50196 725.597085 
L 137.50196 389.331345 
" clip-path="url(#pad0ffb1086)" style="fill: none; stroke: #ffffff; stroke-width: 2; stroke-linecap: round"/>
     </g>
     <g id="text_8">
      <!-- 0 -->
      <g style="fill: #262626" transform="translate(129.54982 761.568429) scale(0.286 -0.286)">
       <use xlink:href="#ArialMT-30"/>
      </g>
     </g>
    </g>
    <g id="xtick_6">
     <g id="line2d_13">
      <path d="M 272.866953 725.597085 
L 272.866953 389.331345 
" clip-path="url(#pad0ffb1086)" style="fill: none; stroke: #ffffff; stroke-width: 2; stroke-linecap: round"/>
     </g>
     <g id="text_9">
      <!-- 20 -->
      <g style="fill: #262626" transform="translate(256.962672 761.568429) scale(0.286 -0.286)">
       <use xlink:href="#ArialMT-32"/>
       <use xlink:href="#ArialMT-30" x="55.615234"/>
      </g>
     </g>
    </g>
    <g id="xtick_7">
     <g id="line2d_14">
      <path d="M 408.231945 725.597085 
L 408.231945 389.331345 
" clip-path="url(#pad0ffb1086)" style="fill: none; stroke: #ffffff; stroke-width: 2; stroke-linecap: round"/>
     </g>
     <g id="text_10">
      <!-- 40 -->
      <g style="fill: #262626" transform="translate(392.327664 761.568429) scale(0.286 -0.286)">
       <use xlink:href="#ArialMT-34"/>
       <use xlink:href="#ArialMT-30" x="55.615234"/>
      </g>
     </g>
    </g>
    <g id="xtick_8">
     <g id="line2d_15">
      <path d="M 543.596938 725.597085 
L 543.596938 389.331345 
" clip-path="url(#pad0ffb1086)" style="fill: none; stroke: #ffffff; stroke-width: 2; stroke-linecap: round"/>
     </g>
     <g id="text_11">
      <!-- 60 -->
      <g style="fill: #262626" transform="translate(527.692657 761.568429) scale(0.286 -0.286)">
       <defs>
        <path id="ArialMT-36" d="M 3184 3459 
L 2625 3416 
Q 2550 3747 2413 3897 
Q 2184 4138 1850 4138 
Q 1581 4138 1378 3988 
Q 1113 3794 959 3422 
Q 806 3050 800 2363 
Q 1003 2672 1297 2822 
Q 1591 2972 1913 2972 
Q 2475 2972 2870 2558 
Q 3266 2144 3266 1488 
Q 3266 1056 3080 686 
Q 2894 316 2569 119 
Q 2244 -78 1831 -78 
Q 1128 -78 684 439 
Q 241 956 241 2144 
Q 241 3472 731 4075 
Q 1159 4600 1884 4600 
Q 2425 4600 2770 4297 
Q 3116 3994 3184 3459 
z
M 888 1484 
Q 888 1194 1011 928 
Q 1134 663 1356 523 
Q 1578 384 1822 384 
Q 2178 384 2434 671 
Q 2691 959 2691 1453 
Q 2691 1928 2437 2201 
Q 2184 2475 1800 2475 
Q 1419 2475 1153 2201 
Q 888 1928 888 1484 
z
" transform="scale(0.015625)"/>
       </defs>
       <use xlink:href="#ArialMT-36"/>
       <use xlink:href="#ArialMT-30" x="55.615234"/>
      </g>
     </g>
    </g>
    <g id="text_12">
     <!-- Time [ms] -->
     <g style="fill: #262626" transform="translate(316.665062 793.585054) scale(0.312 -0.312)">
      <defs>
       <path id="ArialMT-69" d="M 425 3934 
L 425 4581 
L 988 4581 
L 988 3934 
L 425 3934 
z
M 425 0 
L 425 3319 
L 988 3319 
L 988 0 
L 425 0 
z
" transform="scale(0.015625)"/>
       <path id="ArialMT-65" d="M 2694 1069 
L 3275 997 
Q 3138 488 2766 206 
Q 2394 -75 1816 -75 
Q 1088 -75 661 373 
Q 234 822 234 1631 
Q 234 2469 665 2931 
Q 1097 3394 1784 3394 
Q 2450 3394 2872 2941 
Q 3294 2488 3294 1666 
Q 3294 1616 3291 1516 
L 816 1516 
Q 847 969 1125 678 
Q 1403 388 1819 388 
Q 2128 388 2347 550 
Q 2566 713 2694 1069 
z
M 847 1978 
L 2700 1978 
Q 2663 2397 2488 2606 
Q 2219 2931 1791 2931 
Q 1403 2931 1139 2672 
Q 875 2413 847 1978 
z
" transform="scale(0.015625)"/>
       <path id="ArialMT-73" d="M 197 991 
L 753 1078 
Q 800 744 1014 566 
Q 1228 388 1613 388 
Q 2000 388 2187 545 
Q 2375 703 2375 916 
Q 2375 1106 2209 1216 
Q 2094 1291 1634 1406 
Q 1016 1563 777 1677 
Q 538 1791 414 1992 
Q 291 2194 291 2438 
Q 291 2659 392 2848 
Q 494 3038 669 3163 
Q 800 3259 1026 3326 
Q 1253 3394 1513 3394 
Q 1903 3394 2198 3281 
Q 2494 3169 2634 2976 
Q 2775 2784 2828 2463 
L 2278 2388 
Q 2241 2644 2061 2787 
Q 1881 2931 1553 2931 
Q 1166 2931 1000 2803 
Q 834 2675 834 2503 
Q 834 2394 903 2306 
Q 972 2216 1119 2156 
Q 1203 2125 1616 2013 
Q 2213 1853 2448 1751 
Q 2684 1650 2818 1456 
Q 2953 1263 2953 975 
Q 2953 694 2789 445 
Q 2625 197 2315 61 
Q 2006 -75 1616 -75 
Q 969 -75 630 194 
Q 291 463 197 991 
z
" transform="scale(0.015625)"/>
      </defs>
      <use xlink:href="#ArialMT-54"/>
      <use xlink:href="#ArialMT-69" x="57.333984"/>
      <use xlink:href="#ArialMT-6d" x="79.550781"/>
      <use xlink:href="#ArialMT-65" x="162.851562"/>
      <use xlink:href="#ArialMT-20" x="218.466797"/>
      <use xlink:href="#ArialMT-5b" x="246.25"/>
      <use xlink:href="#ArialMT-6d" x="274.033203"/>
      <use xlink:href="#ArialMT-73" x="357.333984"/>
      <use xlink:href="#ArialMT-5d" x="407.333984"/>
     </g>
    </g>
   </g>
   <g id="matplotlib.axis_4">
    <g id="ytick_6">
     <g id="line2d_16">
      <path d="M 112.798188 710.312279 
L 656.281188 710.312279 
" clip-path="url(#pad0ffb1086)" style="fill: none; stroke: #ffffff; stroke-width: 2; stroke-linecap: round"/>
     </g>
     <g id="text_13">
      <!-- −1.0 -->
      <g style="fill: #262626" transform="translate(40.84 720.54795) scale(0.286 -0.286)">
       <defs>
        <path id="ArialMT-31" d="M 2384 0 
L 1822 0 
L 1822 3584 
Q 1619 3391 1289 3197 
Q 959 3003 697 2906 
L 697 3450 
Q 1169 3672 1522 3987 
Q 1875 4303 2022 4600 
L 2384 4600 
L 2384 0 
z
" transform="scale(0.015625)"/>
       </defs>
       <use xlink:href="#ArialMT-2212"/>
       <use xlink:href="#ArialMT-31" x="58.398438"/>
       <use xlink:href="#ArialMT-2e" x="114.013672"/>
       <use xlink:href="#ArialMT-30" x="141.796875"/>
      </g>
     </g>
    </g>
    <g id="ytick_7">
     <g id="line2d_17">
      <path d="M 112.798188 633.888247 
L 656.281188 633.888247 
" clip-path="url(#pad0ffb1086)" style="fill: none; stroke: #ffffff; stroke-width: 2; stroke-linecap: round"/>
     </g>
     <g id="text_14">
      <!-- −0.5 -->
      <g style="fill: #262626" transform="translate(40.84 644.123919) scale(0.286 -0.286)">
       <defs>
        <path id="ArialMT-35" d="M 266 1200 
L 856 1250 
Q 922 819 1161 601 
Q 1400 384 1738 384 
Q 2144 384 2425 690 
Q 2706 997 2706 1503 
Q 2706 1984 2436 2262 
Q 2166 2541 1728 2541 
Q 1456 2541 1237 2417 
Q 1019 2294 894 2097 
L 366 2166 
L 809 4519 
L 3088 4519 
L 3088 3981 
L 1259 3981 
L 1013 2750 
Q 1425 3038 1878 3038 
Q 2478 3038 2890 2622 
Q 3303 2206 3303 1553 
Q 3303 931 2941 478 
Q 2500 -78 1738 -78 
Q 1113 -78 717 272 
Q 322 622 266 1200 
z
" transform="scale(0.015625)"/>
       </defs>
       <use xlink:href="#ArialMT-2212"/>
       <use xlink:href="#ArialMT-30" x="58.398438"/>
       <use xlink:href="#ArialMT-2e" x="114.013672"/>
       <use xlink:href="#ArialMT-35" x="141.796875"/>
      </g>
     </g>
    </g>
    <g id="ytick_8">
     <g id="line2d_18">
      <path d="M 112.798188 557.464215 
L 656.281188 557.464215 
" clip-path="url(#pad0ffb1086)" style="fill: none; stroke: #ffffff; stroke-width: 2; stroke-linecap: round"/>
     </g>
     <g id="text_15">
      <!-- 0.0 -->
      <g style="fill: #262626" transform="translate(57.544188 567.699887) scale(0.286 -0.286)">
       <use xlink:href="#ArialMT-30"/>
       <use xlink:href="#ArialMT-2e" x="55.615234"/>
       <use xlink:href="#ArialMT-30" x="83.398438"/>
      </g>
     </g>
    </g>
    <g id="ytick_9">
     <g id="line2d_19">
      <path d="M 112.798188 481.040183 
L 656.281188 481.040183 
" clip-path="url(#pad0ffb1086)" style="fill: none; stroke: #ffffff; stroke-width: 2; stroke-linecap: round"/>
     </g>
     <g id="text_16">
      <!-- 0.5 -->
      <g style="fill: #262626" transform="translate(57.544188 491.275855) scale(0.286 -0.286)">
       <use xlink:href="#ArialMT-30"/>
       <use xlink:href="#ArialMT-2e" x="55.615234"/>
       <use xlink:href="#ArialMT-35" x="83.398438"/>
      </g>
     </g>
    </g>
    <g id="ytick_10">
     <g id="line2d_20">
      <path d="M 112.798188 404.616151 
L 656.281188 404.616151 
" clip-path="url(#pad0ffb1086)" style="fill: none; stroke: #ffffff; stroke-width: 2; stroke-linecap: round"/>
     </g>
     <g id="text_17">
      <!-- 1.0 -->
      <g style="fill: #262626" transform="translate(57.544188 414.851823) scale(0.286 -0.286)">
       <use xlink:href="#ArialMT-31"/>
       <use xlink:href="#ArialMT-2e" x="55.615234"/>
       <use xlink:href="#ArialMT-30" x="83.398438"/>
      </g>
     </g>
    </g>
    <g id="text_18">
     <!-- $M_n$(t) [AU] -->
     <g style="fill: #262626" transform="translate(29.976 627.820215) rotate(-90) scale(0.312 -0.312)">
      <defs>
       <path id="DejaVuSans-Oblique-4d" d="M 1081 4666 
L 2028 4666 
L 2572 1522 
L 4378 4666 
L 5350 4666 
L 4441 0 
L 3828 0 
L 4622 4091 
L 2791 897 
L 2175 897 
L 1581 4103 
L 788 0 
L 172 0 
L 1081 4666 
z
" transform="scale(0.015625)"/>
       <path id="DejaVuSans-Oblique-6e" d="M 3566 2113 
L 3156 0 
L 2578 0 
L 2988 2091 
Q 3016 2238 3031 2350 
Q 3047 2463 3047 2528 
Q 3047 2791 2881 2937 
Q 2716 3084 2419 3084 
Q 1956 3084 1622 2776 
Q 1288 2469 1184 1941 
L 800 0 
L 225 0 
L 903 3500 
L 1478 3500 
L 1363 2950 
Q 1603 3253 1940 3418 
Q 2278 3584 2650 3584 
Q 3113 3584 3367 3334 
Q 3622 3084 3622 2631 
Q 3622 2519 3608 2391 
Q 3594 2263 3566 2113 
z
" transform="scale(0.015625)"/>
       <path id="ArialMT-41" d="M -9 0 
L 1750 4581 
L 2403 4581 
L 4278 0 
L 3588 0 
L 3053 1388 
L 1138 1388 
L 634 0 
L -9 0 
z
M 1313 1881 
L 2866 1881 
L 2388 3150 
Q 2169 3728 2063 4100 
Q 1975 3659 1816 3225 
L 1313 1881 
z
" transform="scale(0.015625)"/>
       <path id="ArialMT-55" d="M 3500 4581 
L 4106 4581 
L 4106 1934 
Q 4106 1244 3950 837 
Q 3794 431 3386 176 
Q 2978 -78 2316 -78 
Q 1672 -78 1262 144 
Q 853 366 678 786 
Q 503 1206 503 1934 
L 503 4581 
L 1109 4581 
L 1109 1938 
Q 1109 1341 1220 1058 
Q 1331 775 1601 622 
Q 1872 469 2263 469 
Q 2931 469 3215 772 
Q 3500 1075 3500 1938 
L 3500 4581 
z
" transform="scale(0.015625)"/>
      </defs>
      <use xlink:href="#DejaVuSans-Oblique-4d" transform="translate(0 0.09375)"/>
      <use xlink:href="#DejaVuSans-Oblique-6e" transform="translate(86.279297 -16.3125) scale(0.7)"/>
      <use xlink:href="#ArialMT-28" transform="translate(133.378906 0.09375)"/>
      <use xlink:href="#ArialMT-74" transform="translate(166.679688 0.09375)"/>
      <use xlink:href="#ArialMT-29" transform="translate(194.462891 0.09375)"/>
      <use xlink:href="#ArialMT-20" transform="translate(227.763672 0.09375)"/>
      <use xlink:href="#ArialMT-5b" transform="translate(255.546875 0.09375)"/>
      <use xlink:href="#ArialMT-41" transform="translate(283.330078 0.09375)"/>
      <use xlink:href="#ArialMT-55" transform="translate(350.029297 0.09375)"/>
      <use xlink:href="#ArialMT-5d" transform="translate(422.246094 0.09375)"/>
     </g>
    </g>
   </g>
   <g id="line2d_21">
    <path d="M 137.50196 557.464215 
L 174.490444 557.353425 
L 175.478609 557.02722 
L 176.534456 556.440719 
L 177.671522 555.533776 
L 180.047177 553.201015 
L 329.733786 405.805175 
L 330.843779 405.136997 
L 331.872553 404.760552 
L 332.914863 404.617415 
L 337.930136 404.616151 
L 399.467062 404.726941 
L 400.455226 405.053146 
L 401.511073 405.639647 
L 402.648139 406.54659 
L 405.023795 408.879351 
L 554.710404 556.275191 
L 555.820397 556.943369 
L 556.849171 557.319814 
L 557.891481 557.462951 
L 562.906754 557.464215 
L 631.577415 557.464215 
L 631.577415 557.464215 
" clip-path="url(#pad0ffb1086)" style="fill: none; stroke: #1f77b4; stroke-width: 5; stroke-linecap: round"/>
   </g>
   <g id="line2d_22">
    <path d="M 137.50196 557.464215 
L 175.93885 557.353437 
L 178.294201 557.02263 
L 185.475314 555.626066 
L 192.676731 553.998649 
L 199.898454 552.138456 
L 207.147249 550.041493 
L 214.429885 547.702902 
L 221.746363 545.119441 
L 229.096682 542.287856 
L 236.487611 539.201943 
L 243.925917 535.8546 
L 251.404833 532.244573 
L 258.931127 528.364268 
L 266.511566 524.205174 
L 274.146152 519.761894 
L 281.834884 515.028995 
L 289.584529 509.996495 
L 297.388321 504.662931 
L 305.259795 499.012798 
L 313.192184 493.044305 
L 321.192255 486.745652 
L 330.410611 479.466895 
L 331.554445 479.025514 
L 332.65767 478.833911 
L 334.390342 478.821495 
L 399.392611 478.931919 
L 400.313093 479.260633 
L 401.294489 479.853373 
L 402.29619 480.718216 
L 403.528012 482.097957 
L 412.353809 492.555984 
L 421.260826 503.45627 
L 430.25583 514.817005 
L 439.338821 526.648594 
L 448.509799 538.961541 
L 457.768764 551.766452 
L 467.115717 565.074036 
L 476.557425 578.905158 
L 486.087121 593.26124 
L 495.711572 608.163926 
L 505.42401 623.614293 
L 515.231204 639.634775 
L 525.133153 656.237587 
L 535.129858 673.435062 
L 545.221318 691.239651 
L 554.981134 708.450277 
L 555.908384 709.41893 
L 556.767952 710.003309 
L 557.519227 710.266024 
L 558.392332 710.312279 
L 631.577415 710.312279 
L 631.577415 710.312279 
" clip-path="url(#pad0ffb1086)" style="fill: none; stroke: #ff7f0e; stroke-width: 5; stroke-linecap: round"/>
   </g>
   <g id="line2d_23">
    <path d="M 137.50196 557.464215 
L 182.43637 557.353162 
L 197.651395 556.947131 
L 211.038992 556.37102 
L 223.262451 555.625198 
L 234.646647 554.71007 
L 245.387859 553.625515 
L 255.614684 552.371191 
L 265.421878 550.945849 
L 274.877123 549.348234 
L 284.027796 547.577747 
L 292.921276 545.631455 
L 301.584636 543.508732 
L 310.044948 541.20769 
L 318.329286 538.724848 
L 326.457953 536.057161 
L 330.464757 534.800487 
L 332.170356 534.566957 
L 334.207599 534.537683 
L 399.690414 534.648207 
L 400.94254 534.99245 
L 402.174362 535.563447 
L 403.582158 536.471698 
L 410.80388 541.513731 
L 417.991761 546.80383 
L 425.152569 552.35062 
L 432.293073 558.163624 
L 439.413271 564.247399 
L 446.519933 570.612595 
L 453.619827 577.2709 
L 460.719721 584.235108 
L 467.812847 591.504999 
L 474.912741 599.101314 
L 482.019403 607.031846 
L 489.132833 615.30443 
L 496.2598 623.935302 
L 503.400303 632.933385 
L 510.554343 642.307684 
L 517.728688 652.076682 
L 524.923337 662.250626 
L 532.138291 672.839895 
L 539.380318 683.865491 
L 546.649418 695.339201 
L 555.15034 708.791049 
L 556.111431 709.643622 
L 556.977767 710.117113 
L 557.803494 710.305321 
L 559.644458 710.312279 
L 631.577415 710.312279 
L 631.577415 710.312279 
" clip-path="url(#pad0ffb1086)" style="fill: none; stroke: #2ca02c; stroke-width: 5; stroke-linecap: round"/>
   </g>
   <g id="line2d_24">
    <path d="M 112.798188 557.464215 
L 656.281188 557.464215 
" clip-path="url(#pad0ffb1086)" style="fill: none; stroke: #000000; stroke-width: 3; stroke-linecap: round"/>
   </g>
   <g id="patch_9">
    <path d="M 112.798188 725.597085 
L 112.798188 389.331345 
" style="fill: none; stroke: #ffffff; stroke-width: 2.5; stroke-linejoin: miter; stroke-linecap: square"/>
   </g>
   <g id="patch_10">
    <path d="M 656.281188 725.597085 
L 656.281188 389.331345 
" style="fill: none; stroke: #ffffff; stroke-width: 2.5; stroke-linejoin: miter; stroke-linecap: square"/>
   </g>
   <g id="patch_11">
    <path d="M 112.798188 725.597085 
L 656.281187 725.597085 
" style="fill: none; stroke: #ffffff; stroke-width: 2.5; stroke-linejoin: miter; stroke-linecap: square"/>
   </g>
   <g id="patch_12">
    <path d="M 112.798188 389.331345 
L 656.281187 389.331345 
" style="fill: none; stroke: #ffffff; stroke-width: 2.5; stroke-linejoin: miter; stroke-linecap: square"/>
   </g>
   <g id="legend_1">
    <g id="patch_13">
     <path d="M 525.281188 713.097085 
L 638.781188 713.097085 
Q 643.781188 713.097085 643.781188 708.097085 
L 643.781188 604.507241 
Q 643.781188 599.507241 638.781188 599.507241 
L 525.281188 599.507241 
Q 520.281188 599.507241 520.281188 604.507241 
L 520.281188 708.097085 
Q 520.281188 713.097085 525.281188 713.097085 
z
" style="fill: #eaeaf2; opacity: 0.8; stroke: #cccccc; stroke-width: 2; stroke-linejoin: miter"/>
    </g>
    <g id="line2d_25">
     <path d="M 530.281188 618.651772 
L 555.281188 618.651772 
L 580.281188 618.651772 
" style="fill: none; stroke: #1f77b4; stroke-width: 5; stroke-linecap: round"/>
    </g>
    <g id="text_19">
     <!-- $M_0$ -->
     <g style="fill: #262626" transform="translate(600.281188 627.401772) scale(0.25 -0.25)">
      <defs>
       <path id="DejaVuSans-30" d="M 2034 4250 
Q 1547 4250 1301 3770 
Q 1056 3291 1056 2328 
Q 1056 1369 1301 889 
Q 1547 409 2034 409 
Q 2525 409 2770 889 
Q 3016 1369 3016 2328 
Q 3016 3291 2770 3770 
Q 2525 4250 2034 4250 
z
M 2034 4750 
Q 2819 4750 3233 4129 
Q 3647 3509 3647 2328 
Q 3647 1150 3233 529 
Q 2819 -91 2034 -91 
Q 1250 -91 836 529 
Q 422 1150 422 2328 
Q 422 3509 836 4129 
Q 1250 4750 2034 4750 
z
" transform="scale(0.015625)"/>
      </defs>
      <use xlink:href="#DejaVuSans-Oblique-4d" transform="translate(0 0.09375)"/>
      <use xlink:href="#DejaVuSans-30" transform="translate(86.279297 -16.3125) scale(0.7)"/>
     </g>
    </g>
    <g id="line2d_26">
     <path d="M 530.281188 654.015054 
L 555.281188 654.015054 
L 580.281188 654.015054 
" style="fill: none; stroke: #ff7f0e; stroke-width: 5; stroke-linecap: round"/>
    </g>
    <g id="text_20">
     <!-- $M_1$ -->
     <g style="fill: #262626" transform="translate(600.281188 662.765054) scale(0.25 -0.25)">
      <defs>
       <path id="DejaVuSans-31" d="M 794 531 
L 1825 531 
L 1825 4091 
L 703 3866 
L 703 4441 
L 1819 4666 
L 2450 4666 
L 2450 531 
L 3481 531 
L 3481 0 
L 794 0 
L 794 531 
z
" transform="scale(0.015625)"/>
      </defs>
      <use xlink:href="#DejaVuSans-Oblique-4d" transform="translate(0 0.09375)"/>
      <use xlink:href="#DejaVuSans-31" transform="translate(86.279297 -16.3125) scale(0.7)"/>
     </g>
    </g>
    <g id="line2d_27">
     <path d="M 530.281188 689.378335 
L 555.281188 689.378335 
L 580.281188 689.378335 
" style="fill: none; stroke: #2ca02c; stroke-width: 5; stroke-linecap: round"/>
    </g>
    <g id="text_21">
     <!-- $M_2$ -->
     <g style="fill: #262626" transform="translate(600.281188 698.128335) scale(0.25 -0.25)">
      <defs>
       <path id="DejaVuSans-32" d="M 1228 531 
L 3431 531 
L 3431 0 
L 469 0 
L 469 531 
Q 828 903 1448 1529 
Q 2069 2156 2228 2338 
Q 2531 2678 2651 2914 
Q 2772 3150 2772 3378 
Q 2772 3750 2511 3984 
Q 2250 4219 1831 4219 
Q 1534 4219 1204 4116 
Q 875 4013 500 3803 
L 500 4441 
Q 881 4594 1212 4672 
Q 1544 4750 1819 4750 
Q 2544 4750 2975 4387 
Q 3406 4025 3406 3419 
Q 3406 3131 3298 2873 
Q 3191 2616 2906 2266 
Q 2828 2175 2409 1742 
Q 1991 1309 1228 531 
z
" transform="scale(0.015625)"/>
      </defs>
      <use xlink:href="#DejaVuSans-Oblique-4d" transform="translate(0 0.09375)"/>
      <use xlink:href="#DejaVuSans-32" transform="translate(86.279297 -16.3125) scale(0.7)"/>
     </g>
    </g>
   </g>
  </g>
 </g>
 <defs>
  <clipPath id="p3f795b0304">
   <rect x="112.798188" y="9.429345" width="543.483" height="336.26574"/>
  </clipPath>
  <clipPath id="pad0ffb1086">
   <rect x="112.798188" y="389.331345" width="543.483" height="336.26574"/>
  </clipPath>
 </defs>
</svg>
