<?xml version="1.0" encoding="utf-8" standalone="no"?>
<!DOCTYPE svg PUBLIC "-//W3C//DTD SVG 1.1//EN"
  "http://www.w3.org/Graphics/SVG/1.1/DTD/svg11.dtd">
<svg xmlns:xlink="http://www.w3.org/1999/xlink" width="666.374562pt" height="808.696969pt" viewBox="0 0 666.374562 808.696969" xmlns="http://www.w3.org/2000/svg" version="1.1">
 <metadata>
  <rdf:RDF xmlns:dc="http://purl.org/dc/elements/1.1/" xmlns:cc="http://creativecommons.org/ns#" xmlns:rdf="http://www.w3.org/1999/02/22-rdf-syntax-ns#">
   <cc:Work>
    <dc:type rdf:resource="http://purl.org/dc/dcmitype/StillImage"/>
    <dc:date>2024-03-05T11:30:10.560876</dc:date>
    <dc:format>image/svg+xml</dc:format>
    <dc:creator>
     <cc:Agent>
      <dc:title>Matplotlib v3.7.1, https://matplotlib.org/</dc:title>
     </cc:Agent>
    </dc:creator>
   </cc:Work>
  </rdf:RDF>
 </metadata>
 <defs>
  <style type="text/css">*{stroke-linejoin: round; stroke-linecap: butt}</style>
 </defs>
 <g id="figure_1">
  <g id="patch_1">
   <path d="M 0 808.696969 
L 666.374562 808.696969 
L 666.374562 0 
L 0 0 
z
" style="fill: #ffffff"/>
  </g>
  <g id="axes_1">
   <g id="patch_2">
    <path d="M 111.691563 348.644843 
L 659.174563 348.644843 
L 659.174563 7.2 
L 111.691563 7.2 
z
" style="fill: #eaeaf2"/>
   </g>
   <g id="matplotlib.axis_1">
    <g id="xtick_1">
     <g id="line2d_1">
      <path d="M 136.577153 348.644843 
L 136.577153 7.2 
" clip-path="url(#p66c0c9498d)" style="fill: none; stroke: #ffffff; stroke-width: 2; stroke-linecap: round"/>
     </g>
    </g>
    <g id="xtick_2">
     <g id="line2d_2">
      <path d="M 272.938424 348.644843 
L 272.938424 7.2 
" clip-path="url(#p66c0c9498d)" style="fill: none; stroke: #ffffff; stroke-width: 2; stroke-linecap: round"/>
     </g>
    </g>
    <g id="xtick_3">
     <g id="line2d_3">
      <path d="M 409.299694 348.644843 
L 409.299694 7.2 
" clip-path="url(#p66c0c9498d)" style="fill: none; stroke: #ffffff; stroke-width: 2; stroke-linecap: round"/>
     </g>
    </g>
    <g id="xtick_4">
     <g id="line2d_4">
      <path d="M 545.660964 348.644843 
L 545.660964 7.2 
" clip-path="url(#p66c0c9498d)" style="fill: none; stroke: #ffffff; stroke-width: 2; stroke-linecap: round"/>
     </g>
    </g>
   </g>
   <g id="matplotlib.axis_2">
    <g id="ytick_1">
     <g id="line2d_5">
      <path d="M 111.691563 333.124623 
L 659.174563 333.124623 
" clip-path="url(#p66c0c9498d)" style="fill: none; stroke: #ffffff; stroke-width: 2; stroke-linecap: round"/>
     </g>
     <g id="text_1">
      <!-- 0 -->
      <g style="fill: #262626" transform="translate(80.287281 343.360295) scale(0.286 -0.286)">
       <defs>
        <path id="ArialMT-30" d="M 266 2259 
Q 266 3072 433 3567 
Q 600 4063 929 4331 
Q 1259 4600 1759 4600 
Q 2128 4600 2406 4451 
Q 2684 4303 2865 4023 
Q 3047 3744 3150 3342 
Q 3253 2941 3253 2259 
Q 3253 1453 3087 958 
Q 2922 463 2592 192 
Q 2263 -78 1759 -78 
Q 1097 -78 719 397 
Q 266 969 266 2259 
z
M 844 2259 
Q 844 1131 1108 757 
Q 1372 384 1759 384 
Q 2147 384 2411 759 
Q 2675 1134 2675 2259 
Q 2675 3391 2411 3762 
Q 2147 4134 1753 4134 
Q 1366 4134 1134 3806 
Q 844 3388 844 2259 
z
" transform="scale(0.015625)"/>
       </defs>
       <use xlink:href="#ArialMT-30"/>
      </g>
     </g>
    </g>
    <g id="ytick_2">
     <g id="line2d_6">
      <path d="M 111.691563 236.871483 
L 659.174563 236.871483 
" clip-path="url(#p66c0c9498d)" style="fill: none; stroke: #ffffff; stroke-width: 2; stroke-linecap: round"/>
     </g>
     <g id="text_2">
      <!-- 10 -->
      <g style="fill: #262626" transform="translate(64.383 247.107155) scale(0.286 -0.286)">
       <defs>
        <path id="ArialMT-31" d="M 2384 0 
L 1822 0 
L 1822 3584 
Q 1619 3391 1289 3197 
Q 959 3003 697 2906 
L 697 3450 
Q 1169 3672 1522 3987 
Q 1875 4303 2022 4600 
L 2384 4600 
L 2384 0 
z
" transform="scale(0.015625)"/>
       </defs>
       <use xlink:href="#ArialMT-31"/>
       <use xlink:href="#ArialMT-30" x="55.615234"/>
      </g>
     </g>
    </g>
    <g id="ytick_3">
     <g id="line2d_7">
      <path d="M 111.691563 140.618343 
L 659.174563 140.618343 
" clip-path="url(#p66c0c9498d)" style="fill: none; stroke: #ffffff; stroke-width: 2; stroke-linecap: round"/>
     </g>
     <g id="text_3">
      <!-- 20 -->
      <g style="fill: #262626" transform="translate(64.383 150.854015) scale(0.286 -0.286)">
       <defs>
        <path id="ArialMT-32" d="M 3222 541 
L 3222 0 
L 194 0 
Q 188 203 259 391 
Q 375 700 629 1000 
Q 884 1300 1366 1694 
Q 2113 2306 2375 2664 
Q 2638 3022 2638 3341 
Q 2638 3675 2398 3904 
Q 2159 4134 1775 4134 
Q 1369 4134 1125 3890 
Q 881 3647 878 3216 
L 300 3275 
Q 359 3922 746 4261 
Q 1134 4600 1788 4600 
Q 2447 4600 2831 4234 
Q 3216 3869 3216 3328 
Q 3216 3053 3103 2787 
Q 2991 2522 2730 2228 
Q 2469 1934 1863 1422 
Q 1356 997 1212 845 
Q 1069 694 975 541 
L 3222 541 
z
" transform="scale(0.015625)"/>
       </defs>
       <use xlink:href="#ArialMT-32"/>
       <use xlink:href="#ArialMT-30" x="55.615234"/>
      </g>
     </g>
    </g>
    <g id="ytick_4">
     <g id="line2d_8">
      <path d="M 111.691563 44.365203 
L 659.174563 44.365203 
" clip-path="url(#p66c0c9498d)" style="fill: none; stroke: #ffffff; stroke-width: 2; stroke-linecap: round"/>
     </g>
     <g id="text_4">
      <!-- 30 -->
      <g style="fill: #262626" transform="translate(64.383 54.600875) scale(0.286 -0.286)">
       <defs>
        <path id="ArialMT-33" d="M 269 1209 
L 831 1284 
Q 928 806 1161 595 
Q 1394 384 1728 384 
Q 2125 384 2398 659 
Q 2672 934 2672 1341 
Q 2672 1728 2419 1979 
Q 2166 2231 1775 2231 
Q 1616 2231 1378 2169 
L 1441 2663 
Q 1497 2656 1531 2656 
Q 1891 2656 2178 2843 
Q 2466 3031 2466 3422 
Q 2466 3731 2256 3934 
Q 2047 4138 1716 4138 
Q 1388 4138 1169 3931 
Q 950 3725 888 3313 
L 325 3413 
Q 428 3978 793 4289 
Q 1159 4600 1703 4600 
Q 2078 4600 2393 4439 
Q 2709 4278 2876 4000 
Q 3044 3722 3044 3409 
Q 3044 3113 2884 2869 
Q 2725 2625 2413 2481 
Q 2819 2388 3044 2092 
Q 3269 1797 3269 1353 
Q 3269 753 2831 336 
Q 2394 -81 1725 -81 
Q 1122 -81 723 278 
Q 325 638 269 1209 
z
" transform="scale(0.015625)"/>
       </defs>
       <use xlink:href="#ArialMT-33"/>
       <use xlink:href="#ArialMT-30" x="55.615234"/>
      </g>
     </g>
    </g>
    <g id="text_5">
     <!-- G [mT/m] -->
     <g style="fill: #262626" transform="translate(54.182 242.908609) rotate(-90) scale(0.312 -0.312)">
      <defs>
       <path id="ArialMT-47" d="M 2638 1797 
L 2638 2334 
L 4578 2338 
L 4578 638 
Q 4131 281 3656 101 
Q 3181 -78 2681 -78 
Q 2006 -78 1454 211 
Q 903 500 622 1047 
Q 341 1594 341 2269 
Q 341 2938 620 3517 
Q 900 4097 1425 4378 
Q 1950 4659 2634 4659 
Q 3131 4659 3532 4498 
Q 3934 4338 4162 4050 
Q 4391 3763 4509 3300 
L 3963 3150 
Q 3859 3500 3706 3700 
Q 3553 3900 3268 4020 
Q 2984 4141 2638 4141 
Q 2222 4141 1919 4014 
Q 1616 3888 1430 3681 
Q 1244 3475 1141 3228 
Q 966 2803 966 2306 
Q 966 1694 1177 1281 
Q 1388 869 1791 669 
Q 2194 469 2647 469 
Q 3041 469 3416 620 
Q 3791 772 3984 944 
L 3984 1797 
L 2638 1797 
z
" transform="scale(0.015625)"/>
       <path id="ArialMT-20" transform="scale(0.015625)"/>
       <path id="ArialMT-5b" d="M 434 -1272 
L 434 4581 
L 1675 4581 
L 1675 4116 
L 997 4116 
L 997 -806 
L 1675 -806 
L 1675 -1272 
L 434 -1272 
z
" transform="scale(0.015625)"/>
       <path id="ArialMT-6d" d="M 422 0 
L 422 3319 
L 925 3319 
L 925 2853 
Q 1081 3097 1340 3245 
Q 1600 3394 1931 3394 
Q 2300 3394 2536 3241 
Q 2772 3088 2869 2813 
Q 3263 3394 3894 3394 
Q 4388 3394 4653 3120 
Q 4919 2847 4919 2278 
L 4919 0 
L 4359 0 
L 4359 2091 
Q 4359 2428 4304 2576 
Q 4250 2725 4106 2815 
Q 3963 2906 3769 2906 
Q 3419 2906 3187 2673 
Q 2956 2441 2956 1928 
L 2956 0 
L 2394 0 
L 2394 2156 
Q 2394 2531 2256 2718 
Q 2119 2906 1806 2906 
Q 1569 2906 1367 2781 
Q 1166 2656 1075 2415 
Q 984 2175 984 1722 
L 984 0 
L 422 0 
z
" transform="scale(0.015625)"/>
       <path id="ArialMT-54" d="M 1659 0 
L 1659 4041 
L 150 4041 
L 150 4581 
L 3781 4581 
L 3781 4041 
L 2266 4041 
L 2266 0 
L 1659 0 
z
" transform="scale(0.015625)"/>
       <path id="ArialMT-2f" d="M 0 -78 
L 1328 4659 
L 1778 4659 
L 453 -78 
L 0 -78 
z
" transform="scale(0.015625)"/>
       <path id="ArialMT-5d" d="M 1363 -1272 
L 122 -1272 
L 122 -806 
L 800 -806 
L 800 4116 
L 122 4116 
L 122 4581 
L 1363 4581 
L 1363 -1272 
z
" transform="scale(0.015625)"/>
      </defs>
      <use xlink:href="#ArialMT-47"/>
      <use xlink:href="#ArialMT-20" x="77.783203"/>
      <use xlink:href="#ArialMT-5b" x="105.566406"/>
      <use xlink:href="#ArialMT-6d" x="133.349609"/>
      <use xlink:href="#ArialMT-54" x="216.650391"/>
      <use xlink:href="#ArialMT-2f" x="277.734375"/>
      <use xlink:href="#ArialMT-6d" x="305.517578"/>
      <use xlink:href="#ArialMT-5d" x="388.818359"/>
     </g>
    </g>
   </g>
   <g id="line2d_9">
    <path d="M 136.577153 333.124623 
L 172.828797 333.124623 
L 172.95834 326.06998 
L 172.965158 326.06998 
L 173.087884 316.663796 
L 173.10152 316.663796 
L 173.224245 307.257592 
L 173.237881 307.257592 
L 173.360606 297.851399 
L 173.374242 297.851399 
L 173.496967 288.445215 
L 173.510603 288.445215 
L 173.633329 279.039011 
L 173.646965 279.039011 
L 173.76969 269.632827 
L 173.783326 269.632827 
L 173.906051 260.226624 
L 173.919687 260.226624 
L 174.042412 250.82044 
L 174.056049 250.82044 
L 174.178774 241.414236 
L 174.19241 241.414236 
L 174.315135 232.008033 
L 174.328771 232.008033 
L 174.451496 222.601849 
L 174.465132 222.601849 
L 174.587857 213.195646 
L 174.601494 213.195646 
L 174.724219 203.789461 
L 174.737855 203.789461 
L 174.86058 194.383258 
L 174.874216 194.383258 
L 174.996941 184.977074 
L 175.010577 184.977074 
L 175.133303 175.570871 
L 175.146939 175.570871 
L 175.269664 166.164677 
L 175.2833 166.164677 
L 175.406025 156.758493 
L 175.419661 156.758493 
L 175.542386 147.352289 
L 175.556022 147.352289 
L 175.678748 137.946105 
L 175.692384 137.946105 
L 175.815109 128.539902 
L 175.828745 128.539902 
L 175.95147 119.133718 
L 175.965106 119.133718 
L 176.087831 109.727505 
L 176.101468 109.727505 
L 176.224193 100.321321 
L 176.237829 100.321321 
L 176.360554 90.915117 
L 176.37419 90.915117 
L 176.496915 81.508933 
L 176.510551 81.508933 
L 176.633277 72.10273 
L 176.646913 72.10273 
L 176.769638 62.696546 
L 176.783274 62.696546 
L 176.905999 53.290343 
L 176.919635 53.290343 
L 177.04236 43.884149 
L 177.055996 43.884149 
L 177.178722 34.477965 
L 177.192358 34.477965 
L 177.315083 25.071761 
L 177.328719 25.071761 
L 177.444626 22.72022 
L 329.030632 22.72022 
L 329.160175 29.774863 
L 329.166993 29.774863 
L 329.289719 39.181047 
L 329.303355 39.181047 
L 329.42608 48.58725 
L 329.439716 48.58725 
L 329.562441 57.993435 
L 329.576077 57.993435 
L 329.698802 67.399638 
L 329.712438 67.399638 
L 329.835164 76.805822 
L 329.8488 76.805822 
L 329.971525 86.212035 
L 329.985161 86.212035 
L 330.107886 95.618219 
L 330.121522 95.618219 
L 330.244247 105.024422 
L 330.257884 105.024422 
L 330.380609 114.430607 
L 330.394245 114.430607 
L 330.51697 123.83681 
L 330.530606 123.83681 
L 330.653331 133.242994 
L 330.666967 133.242994 
L 330.789692 142.649197 
L 330.803329 142.649197 
L 330.926054 152.055382 
L 330.93969 152.055382 
L 331.062415 161.461585 
L 331.076051 161.461585 
L 331.198776 170.867769 
L 331.212412 170.867769 
L 331.335138 180.273972 
L 331.348774 180.273972 
L 331.471499 189.680156 
L 331.485135 189.680156 
L 331.60786 199.086369 
L 331.621496 199.086369 
L 331.744221 208.492554 
L 331.757858 208.492554 
L 331.880583 217.898757 
L 331.894219 217.898757 
L 332.016944 227.304941 
L 332.03058 227.304941 
L 332.153305 236.711144 
L 332.166941 236.711144 
L 332.289666 246.117328 
L 332.303303 246.117328 
L 332.426028 255.523532 
L 332.439664 255.523532 
L 332.562389 264.929726 
L 332.576025 264.929726 
L 332.69875 274.33591 
L 332.712386 274.33591 
L 332.835112 283.742113 
L 332.848748 283.742113 
L 332.971473 293.148297 
L 332.985109 293.148297 
L 333.107834 302.5545 
L 333.12147 302.5545 
L 333.244195 311.960685 
L 333.257831 311.960685 
L 333.380557 321.366898 
L 333.394193 321.366898 
L 333.516918 330.773082 
L 333.530554 330.773082 
L 333.646461 333.124623 
L 399.461228 333.124623 
L 399.590771 326.06998 
L 399.597589 326.06998 
L 399.720315 316.663796 
L 399.733951 316.663796 
L 399.856676 307.257592 
L 399.870312 307.257592 
L 399.993037 297.851399 
L 400.006673 297.851399 
L 400.129398 288.445215 
L 400.143035 288.445215 
L 400.26576 279.039011 
L 400.279396 279.039011 
L 400.402121 269.632827 
L 400.415757 269.632827 
L 400.538482 260.226624 
L 400.552118 260.226624 
L 400.674843 250.82044 
L 400.68848 250.82044 
L 400.811205 241.414236 
L 400.824841 241.414236 
L 400.947566 232.008033 
L 400.961202 232.008033 
L 401.083927 222.601849 
L 401.097563 222.601849 
L 401.220289 213.195646 
L 401.233925 213.195646 
L 401.35665 203.789461 
L 401.370286 203.789461 
L 401.493011 194.383258 
L 401.506647 194.383258 
L 401.629372 184.977074 
L 401.643008 184.977074 
L 401.765734 175.570871 
L 401.77937 175.570871 
L 401.902095 166.164677 
L 401.915731 166.164677 
L 402.038456 156.758493 
L 402.052092 156.758493 
L 402.174817 147.352289 
L 402.188454 147.352289 
L 402.311179 137.946105 
L 402.324815 137.946105 
L 402.44754 128.539902 
L 402.461176 128.539902 
L 402.583901 119.133718 
L 402.597537 119.133718 
L 402.720263 109.727505 
L 402.733899 109.727505 
L 402.856624 100.321321 
L 402.87026 100.321321 
L 402.992985 90.915117 
L 403.006621 90.915117 
L 403.129346 81.508933 
L 403.142982 81.508933 
L 403.265708 72.10273 
L 403.279344 72.10273 
L 403.402069 62.696546 
L 403.415705 62.696546 
L 403.53843 53.290343 
L 403.552066 53.290343 
L 403.674791 43.884149 
L 403.688428 43.884149 
L 403.811153 34.477965 
L 403.824789 34.477965 
L 403.947514 25.071761 
L 403.96115 25.071761 
L 404.077057 22.72022 
L 555.663063 22.72022 
L 555.792606 29.774863 
L 555.799424 29.774863 
L 555.92215 39.181047 
L 555.935786 39.181047 
L 556.058511 48.58725 
L 556.072147 48.58725 
L 556.194872 57.993435 
L 556.208508 57.993435 
L 556.331233 67.399638 
L 556.34487 67.399638 
L 556.467595 76.805822 
L 556.481231 76.805822 
L 556.603956 86.212035 
L 556.617592 86.212035 
L 556.740317 95.618219 
L 556.753953 95.618219 
L 556.876678 105.024422 
L 556.890315 105.024422 
L 557.01304 114.430607 
L 557.026676 114.430607 
L 557.149401 123.83681 
L 557.163037 123.83681 
L 557.285762 133.242994 
L 557.299398 133.242994 
L 557.422124 142.649197 
L 557.43576 142.649197 
L 557.558485 152.055382 
L 557.572121 152.055382 
L 557.694846 161.461585 
L 557.708482 161.461585 
L 557.831207 170.867769 
L 557.844844 170.867769 
L 557.967569 180.273972 
L 557.981205 180.273972 
L 558.10393 189.680156 
L 558.117566 189.680156 
L 558.240291 199.086369 
L 558.253927 199.086369 
L 558.376652 208.492554 
L 558.390289 208.492554 
L 558.513014 217.898757 
L 558.52665 217.898757 
L 558.649375 227.304941 
L 558.663011 227.304941 
L 558.785736 236.711144 
L 558.799372 236.711144 
L 558.922098 246.117328 
L 558.935734 246.117328 
L 559.058459 255.523532 
L 559.072095 255.523532 
L 559.19482 264.929726 
L 559.208456 264.929726 
L 559.331181 274.33591 
L 559.344817 274.33591 
L 559.467543 283.742113 
L 559.481179 283.742113 
L 559.603904 293.148297 
L 559.61754 293.148297 
L 559.740265 302.5545 
L 559.753901 302.5545 
L 559.876626 311.960685 
L 559.890263 311.960685 
L 560.012988 321.366898 
L 560.026624 321.366898 
L 560.149349 330.773082 
L 560.162985 330.773082 
L 560.278892 333.124623 
L 634.288972 333.124623 
L 634.288972 333.124623 
" clip-path="url(#p66c0c9498d)" style="fill: none; stroke: #808080; stroke-width: 5; stroke-linecap: round"/>
   </g>
   <g id="line2d_10">
    <path d="M 111.691563 333.124623 
L 659.174563 333.124623 
" clip-path="url(#p66c0c9498d)" style="fill: none; stroke: #1a1a1a; stroke-width: 3; stroke-linecap: round"/>
   </g>
   <g id="patch_3">
    <path d="M 111.691563 348.644843 
L 111.691563 7.2 
" style="fill: none; stroke: #ffffff; stroke-width: 2.5; stroke-linejoin: miter; stroke-linecap: square"/>
   </g>
   <g id="patch_4">
    <path d="M 659.174563 348.644843 
L 659.174563 7.2 
" style="fill: none; stroke: #ffffff; stroke-width: 2.5; stroke-linejoin: miter; stroke-linecap: square"/>
   </g>
   <g id="patch_5">
    <path d="M 111.691563 348.644843 
L 659.174562 348.644843 
" style="fill: none; stroke: #ffffff; stroke-width: 2.5; stroke-linejoin: miter; stroke-linecap: square"/>
   </g>
   <g id="patch_6">
    <path d="M 111.691563 7.2 
L 659.174562 7.2 
" style="fill: none; stroke: #ffffff; stroke-width: 2.5; stroke-linejoin: miter; stroke-linecap: square"/>
   </g>
   <g id="text_6">
    <g id="patch_7">
     <path d="M 436.500073 344.072601 
L 642.750073 344.072601 
Q 655.250073 344.072601 655.250073 331.572601 
L 655.250073 308.322601 
Q 655.250073 295.822601 642.750073 295.822601 
L 436.500073 295.822601 
Q 424.000073 295.822601 424.000073 308.322601 
L 424.000073 331.572601 
Q 424.000073 344.072601 436.500073 344.072601 
z
" style="fill: #eaeaf2; opacity: 0.9; stroke: #d3d3d3; stroke-width: 2; stroke-linejoin: miter"/>
    </g>
    <!-- $G_{max}$ = 32.2 mT/m -->
    <g style="fill: #262626" transform="translate(436.500073 326.603851) scale(0.25 -0.25)">
     <defs>
      <path id="DejaVuSans-Oblique-47" d="M 3494 697 
L 3738 1919 
L 2700 1919 
L 2797 2438 
L 4453 2438 
L 4050 384 
Q 3634 156 3143 32 
Q 2653 -91 2156 -91 
Q 1278 -91 783 396 
Q 288 884 288 1753 
Q 288 2475 589 3126 
Q 891 3778 1422 4213 
Q 1756 4484 2153 4617 
Q 2550 4750 3034 4750 
Q 3472 4750 3873 4639 
Q 4275 4528 4641 4306 
L 4513 3634 
Q 4231 3928 3853 4083 
Q 3475 4238 3047 4238 
Q 2550 4238 2172 4048 
Q 1794 3859 1497 3463 
Q 1244 3125 1098 2667 
Q 953 2209 953 1734 
Q 953 1081 1287 751 
Q 1622 422 2284 422 
Q 2616 422 2925 492 
Q 3234 563 3494 697 
z
" transform="scale(0.015625)"/>
      <path id="DejaVuSans-Oblique-6d" d="M 5747 2113 
L 5338 0 
L 4763 0 
L 5166 2094 
Q 5191 2228 5203 2325 
Q 5216 2422 5216 2491 
Q 5216 2772 5059 2928 
Q 4903 3084 4622 3084 
Q 4203 3084 3875 2770 
Q 3547 2456 3450 1953 
L 3066 0 
L 2491 0 
L 2900 2094 
Q 2925 2209 2937 2307 
Q 2950 2406 2950 2484 
Q 2950 2769 2794 2926 
Q 2638 3084 2363 3084 
Q 1938 3084 1609 2770 
Q 1281 2456 1184 1953 
L 800 0 
L 225 0 
L 909 3500 
L 1484 3500 
L 1375 2956 
Q 1609 3263 1923 3423 
Q 2238 3584 2597 3584 
Q 2978 3584 3223 3384 
Q 3469 3184 3519 2828 
Q 3781 3197 4126 3390 
Q 4472 3584 4856 3584 
Q 5306 3584 5551 3325 
Q 5797 3066 5797 2591 
Q 5797 2488 5784 2364 
Q 5772 2241 5747 2113 
z
" transform="scale(0.015625)"/>
      <path id="DejaVuSans-Oblique-61" d="M 3438 1997 
L 3047 0 
L 2472 0 
L 2578 531 
Q 2325 219 2001 64 
Q 1678 -91 1281 -91 
Q 834 -91 548 182 
Q 263 456 263 884 
Q 263 1497 752 1853 
Q 1241 2209 2100 2209 
L 2900 2209 
L 2931 2363 
Q 2938 2388 2941 2417 
Q 2944 2447 2944 2509 
Q 2944 2788 2717 2942 
Q 2491 3097 2081 3097 
Q 1800 3097 1504 3025 
Q 1209 2953 897 2809 
L 997 3341 
Q 1322 3463 1633 3523 
Q 1944 3584 2234 3584 
Q 2853 3584 3176 3315 
Q 3500 3047 3500 2534 
Q 3500 2431 3484 2292 
Q 3469 2153 3438 1997 
z
M 2816 1759 
L 2241 1759 
Q 1534 1759 1195 1570 
Q 856 1381 856 984 
Q 856 709 1029 553 
Q 1203 397 1509 397 
Q 1978 397 2328 733 
Q 2678 1069 2791 1631 
L 2816 1759 
z
" transform="scale(0.015625)"/>
      <path id="DejaVuSans-Oblique-78" d="M 3841 3500 
L 2234 1784 
L 3219 0 
L 2559 0 
L 1819 1388 
L 531 0 
L -166 0 
L 1556 1844 
L 641 3500 
L 1300 3500 
L 1972 2234 
L 3144 3500 
L 3841 3500 
z
" transform="scale(0.015625)"/>
      <path id="ArialMT-3d" d="M 3381 2694 
L 356 2694 
L 356 3219 
L 3381 3219 
L 3381 2694 
z
M 3381 1303 
L 356 1303 
L 356 1828 
L 3381 1828 
L 3381 1303 
z
" transform="scale(0.015625)"/>
      <path id="ArialMT-2e" d="M 581 0 
L 581 641 
L 1222 641 
L 1222 0 
L 581 0 
z
" transform="scale(0.015625)"/>
     </defs>
     <use xlink:href="#DejaVuSans-Oblique-47" transform="translate(0 0.78125)"/>
     <use xlink:href="#DejaVuSans-Oblique-6d" transform="translate(77.490234 -15.625) scale(0.7)"/>
     <use xlink:href="#DejaVuSans-Oblique-61" transform="translate(145.678711 -15.625) scale(0.7)"/>
     <use xlink:href="#DejaVuSans-Oblique-78" transform="translate(188.574219 -15.625) scale(0.7)"/>
     <use xlink:href="#ArialMT-20" transform="translate(232.734375 0.78125)"/>
     <use xlink:href="#ArialMT-3d" transform="translate(260.517578 0.78125)"/>
     <use xlink:href="#ArialMT-20" transform="translate(318.916016 0.78125)"/>
     <use xlink:href="#ArialMT-33" transform="translate(346.699219 0.78125)"/>
     <use xlink:href="#ArialMT-32" transform="translate(402.314453 0.78125)"/>
     <use xlink:href="#ArialMT-2e" transform="translate(457.929688 0.78125)"/>
     <use xlink:href="#ArialMT-32" transform="translate(485.712891 0.78125)"/>
     <use xlink:href="#ArialMT-20" transform="translate(541.328125 0.78125)"/>
     <use xlink:href="#ArialMT-6d" transform="translate(569.111328 0.78125)"/>
     <use xlink:href="#ArialMT-54" transform="translate(652.412109 0.78125)"/>
     <use xlink:href="#ArialMT-2f" transform="translate(713.496094 0.78125)"/>
     <use xlink:href="#ArialMT-6d" transform="translate(741.279297 0.78125)"/>
    </g>
   </g>
  </g>
  <g id="axes_2">
   <g id="patch_8">
    <path d="M 111.691563 727.308 
L 659.174563 727.308 
L 659.174563 385.863157 
L 111.691563 385.863157 
z
" style="fill: #eaeaf2"/>
   </g>
   <g id="matplotlib.axis_3">
    <g id="xtick_5">
     <g id="line2d_11">
      <path d="M 136.577153 727.308 
L 136.577153 385.863157 
" clip-path="url(#pea49211553)" style="fill: none; stroke: #ffffff; stroke-width: 2; stroke-linecap: round"/>
     </g>
     <g id="text_7">
      <!-- 0 -->
      <g style="fill: #262626" transform="translate(128.625013 763.279344) scale(0.286 -0.286)">
       <use xlink:href="#ArialMT-30"/>
      </g>
     </g>
    </g>
    <g id="xtick_6">
     <g id="line2d_12">
      <path d="M 272.938424 727.308 
L 272.938424 385.863157 
" clip-path="url(#pea49211553)" style="fill: none; stroke: #ffffff; stroke-width: 2; stroke-linecap: round"/>
     </g>
     <g id="text_8">
      <!-- 20 -->
      <g style="fill: #262626" transform="translate(257.034142 763.279344) scale(0.286 -0.286)">
       <use xlink:href="#ArialMT-32"/>
       <use xlink:href="#ArialMT-30" x="55.615234"/>
      </g>
     </g>
    </g>
    <g id="xtick_7">
     <g id="line2d_13">
      <path d="M 409.299694 727.308 
L 409.299694 385.863157 
" clip-path="url(#pea49211553)" style="fill: none; stroke: #ffffff; stroke-width: 2; stroke-linecap: round"/>
     </g>
     <g id="text_9">
      <!-- 40 -->
      <g style="fill: #262626" transform="translate(393.395413 763.279344) scale(0.286 -0.286)">
       <defs>
        <path id="ArialMT-34" d="M 2069 0 
L 2069 1097 
L 81 1097 
L 81 1613 
L 2172 4581 
L 2631 4581 
L 2631 1613 
L 3250 1613 
L 3250 1097 
L 2631 1097 
L 2631 0 
L 2069 0 
z
M 2069 1613 
L 2069 3678 
L 634 1613 
L 2069 1613 
z
" transform="scale(0.015625)"/>
       </defs>
       <use xlink:href="#ArialMT-34"/>
       <use xlink:href="#ArialMT-30" x="55.615234"/>
      </g>
     </g>
    </g>
    <g id="xtick_8">
     <g id="line2d_14">
      <path d="M 545.660964 727.308 
L 545.660964 385.863157 
" clip-path="url(#pea49211553)" style="fill: none; stroke: #ffffff; stroke-width: 2; stroke-linecap: round"/>
     </g>
     <g id="text_10">
      <!-- 60 -->
      <g style="fill: #262626" transform="translate(529.756683 763.279344) scale(0.286 -0.286)">
       <defs>
        <path id="ArialMT-36" d="M 3184 3459 
L 2625 3416 
Q 2550 3747 2413 3897 
Q 2184 4138 1850 4138 
Q 1581 4138 1378 3988 
Q 1113 3794 959 3422 
Q 806 3050 800 2363 
Q 1003 2672 1297 2822 
Q 1591 2972 1913 2972 
Q 2475 2972 2870 2558 
Q 3266 2144 3266 1488 
Q 3266 1056 3080 686 
Q 2894 316 2569 119 
Q 2244 -78 1831 -78 
Q 1128 -78 684 439 
Q 241 956 241 2144 
Q 241 3472 731 4075 
Q 1159 4600 1884 4600 
Q 2425 4600 2770 4297 
Q 3116 3994 3184 3459 
z
M 888 1484 
Q 888 1194 1011 928 
Q 1134 663 1356 523 
Q 1578 384 1822 384 
Q 2178 384 2434 671 
Q 2691 959 2691 1453 
Q 2691 1928 2437 2201 
Q 2184 2475 1800 2475 
Q 1419 2475 1153 2201 
Q 888 1928 888 1484 
z
" transform="scale(0.015625)"/>
       </defs>
       <use xlink:href="#ArialMT-36"/>
       <use xlink:href="#ArialMT-30" x="55.615234"/>
      </g>
     </g>
    </g>
    <g id="text_11">
     <!-- Time [ms] -->
     <g style="fill: #262626" transform="translate(317.558438 795.295969) scale(0.312 -0.312)">
      <defs>
       <path id="ArialMT-69" d="M 425 3934 
L 425 4581 
L 988 4581 
L 988 3934 
L 425 3934 
z
M 425 0 
L 425 3319 
L 988 3319 
L 988 0 
L 425 0 
z
" transform="scale(0.015625)"/>
       <path id="ArialMT-65" d="M 2694 1069 
L 3275 997 
Q 3138 488 2766 206 
Q 2394 -75 1816 -75 
Q 1088 -75 661 373 
Q 234 822 234 1631 
Q 234 2469 665 2931 
Q 1097 3394 1784 3394 
Q 2450 3394 2872 2941 
Q 3294 2488 3294 1666 
Q 3294 1616 3291 1516 
L 816 1516 
Q 847 969 1125 678 
Q 1403 388 1819 388 
Q 2128 388 2347 550 
Q 2566 713 2694 1069 
z
M 847 1978 
L 2700 1978 
Q 2663 2397 2488 2606 
Q 2219 2931 1791 2931 
Q 1403 2931 1139 2672 
Q 875 2413 847 1978 
z
" transform="scale(0.015625)"/>
       <path id="ArialMT-73" d="M 197 991 
L 753 1078 
Q 800 744 1014 566 
Q 1228 388 1613 388 
Q 2000 388 2187 545 
Q 2375 703 2375 916 
Q 2375 1106 2209 1216 
Q 2094 1291 1634 1406 
Q 1016 1563 777 1677 
Q 538 1791 414 1992 
Q 291 2194 291 2438 
Q 291 2659 392 2848 
Q 494 3038 669 3163 
Q 800 3259 1026 3326 
Q 1253 3394 1513 3394 
Q 1903 3394 2198 3281 
Q 2494 3169 2634 2976 
Q 2775 2784 2828 2463 
L 2278 2388 
Q 2241 2644 2061 2787 
Q 1881 2931 1553 2931 
Q 1166 2931 1000 2803 
Q 834 2675 834 2503 
Q 834 2394 903 2306 
Q 972 2216 1119 2156 
Q 1203 2125 1616 2013 
Q 2213 1853 2448 1751 
Q 2684 1650 2818 1456 
Q 2953 1263 2953 975 
Q 2953 694 2789 445 
Q 2625 197 2315 61 
Q 2006 -75 1616 -75 
Q 969 -75 630 194 
Q 291 463 197 991 
z
" transform="scale(0.015625)"/>
      </defs>
      <use xlink:href="#ArialMT-54"/>
      <use xlink:href="#ArialMT-69" x="57.333984"/>
      <use xlink:href="#ArialMT-6d" x="79.550781"/>
      <use xlink:href="#ArialMT-65" x="162.851562"/>
      <use xlink:href="#ArialMT-20" x="218.466797"/>
      <use xlink:href="#ArialMT-5b" x="246.25"/>
      <use xlink:href="#ArialMT-6d" x="274.033203"/>
      <use xlink:href="#ArialMT-73" x="357.333984"/>
      <use xlink:href="#ArialMT-5d" x="407.333984"/>
     </g>
    </g>
   </g>
   <g id="matplotlib.axis_4">
    <g id="ytick_5">
     <g id="line2d_15">
      <path d="M 111.691563 711.78778 
L 659.174563 711.78778 
" clip-path="url(#pea49211553)" style="fill: none; stroke: #ffffff; stroke-width: 2; stroke-linecap: round"/>
     </g>
     <g id="text_12">
      <!-- −1.0 -->
      <g style="fill: #262626" transform="translate(39.733375 722.023452) scale(0.286 -0.286)">
       <defs>
        <path id="ArialMT-2212" d="M 3381 1997 
L 356 1997 
L 356 2522 
L 3381 2522 
L 3381 1997 
z
" transform="scale(0.015625)"/>
       </defs>
       <use xlink:href="#ArialMT-2212"/>
       <use xlink:href="#ArialMT-31" x="58.398438"/>
       <use xlink:href="#ArialMT-2e" x="114.013672"/>
       <use xlink:href="#ArialMT-30" x="141.796875"/>
      </g>
     </g>
    </g>
    <g id="ytick_6">
     <g id="line2d_16">
      <path d="M 111.691563 634.186679 
L 659.174563 634.186679 
" clip-path="url(#pea49211553)" style="fill: none; stroke: #ffffff; stroke-width: 2; stroke-linecap: round"/>
     </g>
     <g id="text_13">
      <!-- −0.5 -->
      <g style="fill: #262626" transform="translate(39.733375 644.422351) scale(0.286 -0.286)">
       <defs>
        <path id="ArialMT-35" d="M 266 1200 
L 856 1250 
Q 922 819 1161 601 
Q 1400 384 1738 384 
Q 2144 384 2425 690 
Q 2706 997 2706 1503 
Q 2706 1984 2436 2262 
Q 2166 2541 1728 2541 
Q 1456 2541 1237 2417 
Q 1019 2294 894 2097 
L 366 2166 
L 809 4519 
L 3088 4519 
L 3088 3981 
L 1259 3981 
L 1013 2750 
Q 1425 3038 1878 3038 
Q 2478 3038 2890 2622 
Q 3303 2206 3303 1553 
Q 3303 931 2941 478 
Q 2500 -78 1738 -78 
Q 1113 -78 717 272 
Q 322 622 266 1200 
z
" transform="scale(0.015625)"/>
       </defs>
       <use xlink:href="#ArialMT-2212"/>
       <use xlink:href="#ArialMT-30" x="58.398438"/>
       <use xlink:href="#ArialMT-2e" x="114.013672"/>
       <use xlink:href="#ArialMT-35" x="141.796875"/>
      </g>
     </g>
    </g>
    <g id="ytick_7">
     <g id="line2d_17">
      <path d="M 111.691563 556.585579 
L 659.174563 556.585579 
" clip-path="url(#pea49211553)" style="fill: none; stroke: #ffffff; stroke-width: 2; stroke-linecap: round"/>
     </g>
     <g id="text_14">
      <!-- 0.0 -->
      <g style="fill: #262626" transform="translate(56.437563 566.82125) scale(0.286 -0.286)">
       <use xlink:href="#ArialMT-30"/>
       <use xlink:href="#ArialMT-2e" x="55.615234"/>
       <use xlink:href="#ArialMT-30" x="83.398438"/>
      </g>
     </g>
    </g>
    <g id="ytick_8">
     <g id="line2d_18">
      <path d="M 111.691563 478.984478 
L 659.174563 478.984478 
" clip-path="url(#pea49211553)" style="fill: none; stroke: #ffffff; stroke-width: 2; stroke-linecap: round"/>
     </g>
     <g id="text_15">
      <!-- 0.5 -->
      <g style="fill: #262626" transform="translate(56.437563 489.22015) scale(0.286 -0.286)">
       <use xlink:href="#ArialMT-30"/>
       <use xlink:href="#ArialMT-2e" x="55.615234"/>
       <use xlink:href="#ArialMT-35" x="83.398438"/>
      </g>
     </g>
    </g>
    <g id="ytick_9">
     <g id="line2d_19">
      <path d="M 111.691563 401.383377 
L 659.174563 401.383377 
" clip-path="url(#pea49211553)" style="fill: none; stroke: #ffffff; stroke-width: 2; stroke-linecap: round"/>
     </g>
     <g id="text_16">
      <!-- 1.0 -->
      <g style="fill: #262626" transform="translate(56.437563 411.619049) scale(0.286 -0.286)">
       <use xlink:href="#ArialMT-31"/>
       <use xlink:href="#ArialMT-2e" x="55.615234"/>
       <use xlink:href="#ArialMT-30" x="83.398438"/>
      </g>
     </g>
    </g>
    <g id="text_17">
     <!-- Moments -->
     <g style="fill: #262626" transform="translate(29.532375 620.733266) rotate(-90) scale(0.312 -0.312)">
      <defs>
       <path id="ArialMT-4d" d="M 475 0 
L 475 4581 
L 1388 4581 
L 2472 1338 
Q 2622 884 2691 659 
Q 2769 909 2934 1394 
L 4031 4581 
L 4847 4581 
L 4847 0 
L 4263 0 
L 4263 3834 
L 2931 0 
L 2384 0 
L 1059 3900 
L 1059 0 
L 475 0 
z
" transform="scale(0.015625)"/>
       <path id="ArialMT-6f" d="M 213 1659 
Q 213 2581 725 3025 
Q 1153 3394 1769 3394 
Q 2453 3394 2887 2945 
Q 3322 2497 3322 1706 
Q 3322 1066 3130 698 
Q 2938 331 2570 128 
Q 2203 -75 1769 -75 
Q 1072 -75 642 372 
Q 213 819 213 1659 
z
M 791 1659 
Q 791 1022 1069 705 
Q 1347 388 1769 388 
Q 2188 388 2466 706 
Q 2744 1025 2744 1678 
Q 2744 2294 2464 2611 
Q 2184 2928 1769 2928 
Q 1347 2928 1069 2612 
Q 791 2297 791 1659 
z
" transform="scale(0.015625)"/>
       <path id="ArialMT-6e" d="M 422 0 
L 422 3319 
L 928 3319 
L 928 2847 
Q 1294 3394 1984 3394 
Q 2284 3394 2536 3286 
Q 2788 3178 2913 3003 
Q 3038 2828 3088 2588 
Q 3119 2431 3119 2041 
L 3119 0 
L 2556 0 
L 2556 2019 
Q 2556 2363 2490 2533 
Q 2425 2703 2258 2804 
Q 2091 2906 1866 2906 
Q 1506 2906 1245 2678 
Q 984 2450 984 1813 
L 984 0 
L 422 0 
z
" transform="scale(0.015625)"/>
       <path id="ArialMT-74" d="M 1650 503 
L 1731 6 
Q 1494 -44 1306 -44 
Q 1000 -44 831 53 
Q 663 150 594 308 
Q 525 466 525 972 
L 525 2881 
L 113 2881 
L 113 3319 
L 525 3319 
L 525 4141 
L 1084 4478 
L 1084 3319 
L 1650 3319 
L 1650 2881 
L 1084 2881 
L 1084 941 
Q 1084 700 1114 631 
Q 1144 563 1211 522 
Q 1278 481 1403 481 
Q 1497 481 1650 503 
z
" transform="scale(0.015625)"/>
      </defs>
      <use xlink:href="#ArialMT-4d"/>
      <use xlink:href="#ArialMT-6f" x="83.300781"/>
      <use xlink:href="#ArialMT-6d" x="138.916016"/>
      <use xlink:href="#ArialMT-65" x="222.216797"/>
      <use xlink:href="#ArialMT-6e" x="277.832031"/>
      <use xlink:href="#ArialMT-74" x="333.447266"/>
      <use xlink:href="#ArialMT-73" x="361.230469"/>
     </g>
    </g>
   </g>
   <g id="line2d_20">
    <path d="M 136.577153 556.585579 
L 173.831052 556.47457 
L 174.82649 556.144881 
L 175.88329 555.555455 
L 176.960544 554.700747 
L 178.951418 552.737702 
L 330.216975 402.595692 
L 331.335138 401.91558 
L 332.371483 401.531696 
L 333.421465 401.384814 
L 338.405469 401.383377 
L 400.463484 401.494385 
L 401.458921 401.824074 
L 402.515721 402.413501 
L 403.592975 403.268208 
L 405.583849 405.231254 
L 556.849406 555.373263 
L 557.967569 556.053375 
L 559.003914 556.43726 
L 560.053896 556.584142 
L 565.037901 556.585579 
L 634.288972 556.585579 
L 634.288972 556.585579 
" clip-path="url(#pea49211553)" style="fill: none; stroke: #4c72b0; stroke-width: 5; stroke-linecap: round"/>
   </g>
   <g id="line2d_21">
    <path d="M 136.577153 556.585579 
L 175.276482 556.474997 
L 177.580987 556.153144 
L 184.760408 554.749412 
L 191.960283 553.114735 
L 199.180613 551.247175 
L 206.428214 549.142703 
L 213.709906 546.796413 
L 221.025688 544.205041 
L 228.375561 541.365306 
L 235.766341 538.270947 
L 243.198031 534.917988 
L 250.677446 531.29902 
L 258.204588 527.409347 
L 265.786275 523.240383 
L 273.415688 518.790779 
L 281.106464 514.047105 
L 288.851784 509.007706 
L 296.658467 503.662241 
L 304.526512 498.00441 
L 312.462738 492.022604 
L 320.460326 485.715203 
L 328.526095 479.070015 
L 330.298792 477.722847 
L 331.471499 477.135636 
L 332.576025 476.818754 
L 333.707824 476.731618 
L 400.388485 476.842129 
L 401.315741 477.174222 
L 402.304361 477.774394 
L 403.313434 478.650726 
L 404.547504 480.042523 
L 413.390532 490.603164 
L 422.315377 501.609126 
L 431.328857 513.078824 
L 440.430972 525.022765 
L 449.621721 537.451561 
L 458.901106 550.375926 
L 468.269125 563.806678 
L 477.725779 577.754737 
L 487.277886 592.241611 
L 496.918628 607.268522 
L 506.654823 622.857769 
L 516.48647 639.021576 
L 526.406753 655.760634 
L 536.422488 673.09846 
L 546.533676 691.047628 
L 557.183491 709.964341 
L 558.117566 710.927253 
L 558.990278 711.504372 
L 559.740265 711.750778 
L 560.558433 711.78778 
L 634.288972 711.78778 
L 634.288972 711.78778 
" clip-path="url(#pea49211553)" style="fill: none; stroke: #dd8452; stroke-width: 5; stroke-linecap: round"/>
   </g>
   <g id="line2d_22">
    <path d="M 136.577153 556.585579 
L 181.753642 556.474544 
L 196.985196 556.066955 
L 210.389509 555.48941 
L 222.627933 554.742402 
L 234.027735 553.826212 
L 244.786639 552.740507 
L 255.034189 551.484664 
L 264.859018 550.058161 
L 274.329309 548.459847 
L 283.499604 546.687818 
L 292.410813 544.740279 
L 301.090208 542.616674 
L 309.571879 540.313234 
L 317.87628 537.828095 
L 326.023866 535.158249 
L 331.055597 533.553501 
L 332.732841 533.331986 
L 334.880531 533.305936 
L 400.68848 533.416892 
L 401.943003 533.762644 
L 403.190709 534.343684 
L 404.602048 535.260399 
L 411.829195 540.345093 
L 419.022252 545.677999 
L 426.194855 551.273207 
L 433.340186 557.129626 
L 440.47188 563.262953 
L 447.589938 569.678431 
L 454.701179 576.387811 
L 461.812419 583.403951 
L 468.923659 590.733711 
L 476.034899 598.383946 
L 483.152958 606.369322 
L 490.277834 614.697668 
L 497.416347 623.385317 
L 504.568495 632.441196 
L 511.73428 641.874314 
L 518.920519 651.703266 
L 526.127212 661.938315 
L 533.361177 672.600084 
L 540.615597 683.68962 
L 547.897289 695.228596 
L 555.206253 707.229008 
L 556.760771 709.611017 
L 557.769845 710.707278 
L 558.635739 711.346342 
L 559.453907 711.692211 
L 560.224348 711.78778 
L 634.288972 711.78778 
L 634.288972 711.78778 
" clip-path="url(#pea49211553)" style="fill: none; stroke: #55a868; stroke-width: 5; stroke-linecap: round"/>
   </g>
   <g id="line2d_23">
    <path d="M 111.691563 556.585579 
L 659.174563 556.585579 
" clip-path="url(#pea49211553)" style="fill: none; stroke: #1a1a1a; stroke-width: 3; stroke-linecap: round"/>
   </g>
   <g id="patch_9">
    <path d="M 111.691563 727.308 
L 111.691563 385.863157 
" style="fill: none; stroke: #ffffff; stroke-width: 2.5; stroke-linejoin: miter; stroke-linecap: square"/>
   </g>
   <g id="patch_10">
    <path d="M 659.174563 727.308 
L 659.174563 385.863157 
" style="fill: none; stroke: #ffffff; stroke-width: 2.5; stroke-linejoin: miter; stroke-linecap: square"/>
   </g>
   <g id="patch_11">
    <path d="M 111.691563 727.308 
L 659.174562 727.308 
" style="fill: none; stroke: #ffffff; stroke-width: 2.5; stroke-linejoin: miter; stroke-linecap: square"/>
   </g>
   <g id="patch_12">
    <path d="M 111.691563 385.863157 
L 659.174562 385.863157 
" style="fill: none; stroke: #ffffff; stroke-width: 2.5; stroke-linejoin: miter; stroke-linecap: square"/>
   </g>
   <g id="legend_1">
    <g id="patch_13">
     <path d="M 464.174563 714.808 
L 641.674563 714.808 
Q 646.674563 714.808 646.674563 709.808 
L 646.674563 606.218156 
Q 646.674563 601.218156 641.674563 601.218156 
L 464.174563 601.218156 
Q 459.174563 601.218156 459.174563 606.218156 
L 459.174563 709.808 
Q 459.174563 714.808 464.174563 714.808 
z
" style="fill: #eaeaf2; opacity: 0.8; stroke: #cccccc; stroke-width: 2; stroke-linejoin: miter"/>
    </g>
    <g id="line2d_24">
     <path d="M 469.174563 620.362687 
L 494.174563 620.362687 
L 519.174563 620.362687 
" style="fill: none; stroke: #4c72b0; stroke-width: 5; stroke-linecap: round"/>
    </g>
    <g id="text_18">
     <!-- $M_0$ -->
     <g style="fill: #262626" transform="translate(539.174563 629.112687) scale(0.25 -0.25)">
      <defs>
       <path id="DejaVuSans-Oblique-4d" d="M 1081 4666 
L 2028 4666 
L 2572 1522 
L 4378 4666 
L 5350 4666 
L 4441 0 
L 3828 0 
L 4622 4091 
L 2791 897 
L 2175 897 
L 1581 4103 
L 788 0 
L 172 0 
L 1081 4666 
z
" transform="scale(0.015625)"/>
       <path id="DejaVuSans-30" d="M 2034 4250 
Q 1547 4250 1301 3770 
Q 1056 3291 1056 2328 
Q 1056 1369 1301 889 
Q 1547 409 2034 409 
Q 2525 409 2770 889 
Q 3016 1369 3016 2328 
Q 3016 3291 2770 3770 
Q 2525 4250 2034 4250 
z
M 2034 4750 
Q 2819 4750 3233 4129 
Q 3647 3509 3647 2328 
Q 3647 1150 3233 529 
Q 2819 -91 2034 -91 
Q 1250 -91 836 529 
Q 422 1150 422 2328 
Q 422 3509 836 4129 
Q 1250 4750 2034 4750 
z
" transform="scale(0.015625)"/>
      </defs>
      <use xlink:href="#DejaVuSans-Oblique-4d" transform="translate(0 0.09375)"/>
      <use xlink:href="#DejaVuSans-30" transform="translate(86.279297 -16.3125) scale(0.7)"/>
     </g>
    </g>
    <g id="line2d_25">
     <path d="M 469.174563 655.725969 
L 494.174563 655.725969 
L 519.174563 655.725969 
" style="fill: none; stroke: #dd8452; stroke-width: 5; stroke-linecap: round"/>
    </g>
    <g id="text_19">
     <!-- $M_1$ -->
     <g style="fill: #262626" transform="translate(539.174563 664.475969) scale(0.25 -0.25)">
      <defs>
       <path id="DejaVuSans-31" d="M 794 531 
L 1825 531 
L 1825 4091 
L 703 3866 
L 703 4441 
L 1819 4666 
L 2450 4666 
L 2450 531 
L 3481 531 
L 3481 0 
L 794 0 
L 794 531 
z
" transform="scale(0.015625)"/>
      </defs>
      <use xlink:href="#DejaVuSans-Oblique-4d" transform="translate(0 0.09375)"/>
      <use xlink:href="#DejaVuSans-31" transform="translate(86.279297 -16.3125) scale(0.7)"/>
     </g>
    </g>
    <g id="line2d_26">
     <path d="M 469.174563 691.08925 
L 494.174563 691.08925 
L 519.174563 691.08925 
" style="fill: none; stroke: #55a868; stroke-width: 5; stroke-linecap: round"/>
    </g>
    <g id="text_20">
     <!-- $M_1+M_2$ -->
     <g style="fill: #262626" transform="translate(539.174563 699.83925) scale(0.25 -0.25)">
      <defs>
       <path id="DejaVuSans-2b" d="M 2944 4013 
L 2944 2272 
L 4684 2272 
L 4684 1741 
L 2944 1741 
L 2944 0 
L 2419 0 
L 2419 1741 
L 678 1741 
L 678 2272 
L 2419 2272 
L 2419 4013 
L 2944 4013 
z
" transform="scale(0.015625)"/>
       <path id="DejaVuSans-32" d="M 1228 531 
L 3431 531 
L 3431 0 
L 469 0 
L 469 531 
Q 828 903 1448 1529 
Q 2069 2156 2228 2338 
Q 2531 2678 2651 2914 
Q 2772 3150 2772 3378 
Q 2772 3750 2511 3984 
Q 2250 4219 1831 4219 
Q 1534 4219 1204 4116 
Q 875 4013 500 3803 
L 500 4441 
Q 881 4594 1212 4672 
Q 1544 4750 1819 4750 
Q 2544 4750 2975 4387 
Q 3406 4025 3406 3419 
Q 3406 3131 3298 2873 
Q 3191 2616 2906 2266 
Q 2828 2175 2409 1742 
Q 1991 1309 1228 531 
z
" transform="scale(0.015625)"/>
      </defs>
      <use xlink:href="#DejaVuSans-Oblique-4d" transform="translate(0 0.09375)"/>
      <use xlink:href="#DejaVuSans-31" transform="translate(86.279297 -16.3125) scale(0.7)"/>
      <use xlink:href="#DejaVuSans-2b" transform="translate(153.032227 0.09375)"/>
      <use xlink:href="#DejaVuSans-Oblique-4d" transform="translate(256.303711 0.09375)"/>
      <use xlink:href="#DejaVuSans-32" transform="translate(342.583008 -16.3125) scale(0.7)"/>
     </g>
    </g>
   </g>
  </g>
 </g>
 <defs>
  <clipPath id="p66c0c9498d">
   <rect x="111.691563" y="7.2" width="547.483" height="341.444843"/>
  </clipPath>
  <clipPath id="pea49211553">
   <rect x="111.691563" y="385.863157" width="547.483" height="341.444843"/>
  </clipPath>
 </defs>
</svg>
