<?xml version="1.0" encoding="utf-8" standalone="no"?>
<!DOCTYPE svg PUBLIC "-//W3C//DTD SVG 1.1//EN"
  "http://www.w3.org/Graphics/SVG/1.1/DTD/svg11.dtd">
<svg xmlns:xlink="http://www.w3.org/1999/xlink" width="666.374562pt" height="808.696969pt" viewBox="0 0 666.374562 808.696969" xmlns="http://www.w3.org/2000/svg" version="1.1">
 <metadata>
  <rdf:RDF xmlns:dc="http://purl.org/dc/elements/1.1/" xmlns:cc="http://creativecommons.org/ns#" xmlns:rdf="http://www.w3.org/1999/02/22-rdf-syntax-ns#">
   <cc:Work>
    <dc:type rdf:resource="http://purl.org/dc/dcmitype/StillImage"/>
    <dc:date>2024-03-05T11:35:59.788266</dc:date>
    <dc:format>image/svg+xml</dc:format>
    <dc:creator>
     <cc:Agent>
      <dc:title>Matplotlib v3.7.1, https://matplotlib.org/</dc:title>
     </cc:Agent>
    </dc:creator>
   </cc:Work>
  </rdf:RDF>
 </metadata>
 <defs>
  <style type="text/css">*{stroke-linejoin: round; stroke-linecap: butt}</style>
 </defs>
 <g id="figure_1">
  <g id="patch_1">
   <path d="M 0 808.696969 
L 666.374562 808.696969 
L 666.374562 0 
L 0 0 
z
" style="fill: #ffffff"/>
  </g>
  <g id="axes_1">
   <g id="patch_2">
    <path d="M 111.691563 350.406 
L 659.174563 350.406 
L 659.174563 7.2 
L 111.691563 7.2 
z
" style="fill: #eaeaf2"/>
   </g>
   <g id="matplotlib.axis_1">
    <g id="xtick_1">
     <g id="line2d_1">
      <path d="M 136.577153 350.406 
L 136.577153 7.2 
" clip-path="url(#pe0c2923386)" style="fill: none; stroke: #ffffff; stroke-width: 2; stroke-linecap: round"/>
     </g>
    </g>
    <g id="xtick_2">
     <g id="line2d_2">
      <path d="M 257.97176 350.406 
L 257.97176 7.2 
" clip-path="url(#pe0c2923386)" style="fill: none; stroke: #ffffff; stroke-width: 2; stroke-linecap: round"/>
     </g>
    </g>
    <g id="xtick_3">
     <g id="line2d_3">
      <path d="M 379.366367 350.406 
L 379.366367 7.2 
" clip-path="url(#pe0c2923386)" style="fill: none; stroke: #ffffff; stroke-width: 2; stroke-linecap: round"/>
     </g>
    </g>
    <g id="xtick_4">
     <g id="line2d_4">
      <path d="M 500.760974 350.406 
L 500.760974 7.2 
" clip-path="url(#pe0c2923386)" style="fill: none; stroke: #ffffff; stroke-width: 2; stroke-linecap: round"/>
     </g>
    </g>
    <g id="xtick_5">
     <g id="line2d_5">
      <path d="M 622.155581 350.406 
L 622.155581 7.2 
" clip-path="url(#pe0c2923386)" style="fill: none; stroke: #ffffff; stroke-width: 2; stroke-linecap: round"/>
     </g>
    </g>
   </g>
   <g id="matplotlib.axis_2">
    <g id="ytick_1">
     <g id="line2d_6">
      <path d="M 111.691563 266.199598 
L 659.174563 266.199598 
" clip-path="url(#pe0c2923386)" style="fill: none; stroke: #ffffff; stroke-width: 2; stroke-linecap: round"/>
     </g>
     <g id="text_1">
      <!-- −20 -->
      <g style="fill: #262626" transform="translate(47.678813 276.43527) scale(0.286 -0.286)">
       <defs>
        <path id="ArialMT-2212" d="M 3381 1997 
L 356 1997 
L 356 2522 
L 3381 2522 
L 3381 1997 
z
" transform="scale(0.015625)"/>
        <path id="ArialMT-32" d="M 3222 541 
L 3222 0 
L 194 0 
Q 188 203 259 391 
Q 375 700 629 1000 
Q 884 1300 1366 1694 
Q 2113 2306 2375 2664 
Q 2638 3022 2638 3341 
Q 2638 3675 2398 3904 
Q 2159 4134 1775 4134 
Q 1369 4134 1125 3890 
Q 881 3647 878 3216 
L 300 3275 
Q 359 3922 746 4261 
Q 1134 4600 1788 4600 
Q 2447 4600 2831 4234 
Q 3216 3869 3216 3328 
Q 3216 3053 3103 2787 
Q 2991 2522 2730 2228 
Q 2469 1934 1863 1422 
Q 1356 997 1212 845 
Q 1069 694 975 541 
L 3222 541 
z
" transform="scale(0.015625)"/>
        <path id="ArialMT-30" d="M 266 2259 
Q 266 3072 433 3567 
Q 600 4063 929 4331 
Q 1259 4600 1759 4600 
Q 2128 4600 2406 4451 
Q 2684 4303 2865 4023 
Q 3047 3744 3150 3342 
Q 3253 2941 3253 2259 
Q 3253 1453 3087 958 
Q 2922 463 2592 192 
Q 2263 -78 1759 -78 
Q 1097 -78 719 397 
Q 266 969 266 2259 
z
M 844 2259 
Q 844 1131 1108 757 
Q 1372 384 1759 384 
Q 2147 384 2411 759 
Q 2675 1134 2675 2259 
Q 2675 3391 2411 3762 
Q 2147 4134 1753 4134 
Q 1366 4134 1134 3806 
Q 844 3388 844 2259 
z
" transform="scale(0.015625)"/>
       </defs>
       <use xlink:href="#ArialMT-2212"/>
       <use xlink:href="#ArialMT-32" x="58.398438"/>
       <use xlink:href="#ArialMT-30" x="114.013672"/>
      </g>
     </g>
    </g>
    <g id="ytick_2">
     <g id="line2d_7">
      <path d="M 111.691563 178.803 
L 659.174563 178.803 
" clip-path="url(#pe0c2923386)" style="fill: none; stroke: #ffffff; stroke-width: 2; stroke-linecap: round"/>
     </g>
     <g id="text_2">
      <!-- 0 -->
      <g style="fill: #262626" transform="translate(80.287281 189.038672) scale(0.286 -0.286)">
       <use xlink:href="#ArialMT-30"/>
      </g>
     </g>
    </g>
    <g id="ytick_3">
     <g id="line2d_8">
      <path d="M 111.691563 91.406402 
L 659.174563 91.406402 
" clip-path="url(#pe0c2923386)" style="fill: none; stroke: #ffffff; stroke-width: 2; stroke-linecap: round"/>
     </g>
     <g id="text_3">
      <!-- 20 -->
      <g style="fill: #262626" transform="translate(64.383 101.642073) scale(0.286 -0.286)">
       <use xlink:href="#ArialMT-32"/>
       <use xlink:href="#ArialMT-30" x="55.615234"/>
      </g>
     </g>
    </g>
    <g id="text_4">
     <!-- G [mT/m] -->
     <g style="fill: #262626" transform="translate(37.477813 243.789187) rotate(-90) scale(0.312 -0.312)">
      <defs>
       <path id="ArialMT-47" d="M 2638 1797 
L 2638 2334 
L 4578 2338 
L 4578 638 
Q 4131 281 3656 101 
Q 3181 -78 2681 -78 
Q 2006 -78 1454 211 
Q 903 500 622 1047 
Q 341 1594 341 2269 
Q 341 2938 620 3517 
Q 900 4097 1425 4378 
Q 1950 4659 2634 4659 
Q 3131 4659 3532 4498 
Q 3934 4338 4162 4050 
Q 4391 3763 4509 3300 
L 3963 3150 
Q 3859 3500 3706 3700 
Q 3553 3900 3268 4020 
Q 2984 4141 2638 4141 
Q 2222 4141 1919 4014 
Q 1616 3888 1430 3681 
Q 1244 3475 1141 3228 
Q 966 2803 966 2306 
Q 966 1694 1177 1281 
Q 1388 869 1791 669 
Q 2194 469 2647 469 
Q 3041 469 3416 620 
Q 3791 772 3984 944 
L 3984 1797 
L 2638 1797 
z
" transform="scale(0.015625)"/>
       <path id="ArialMT-20" transform="scale(0.015625)"/>
       <path id="ArialMT-5b" d="M 434 -1272 
L 434 4581 
L 1675 4581 
L 1675 4116 
L 997 4116 
L 997 -806 
L 1675 -806 
L 1675 -1272 
L 434 -1272 
z
" transform="scale(0.015625)"/>
       <path id="ArialMT-6d" d="M 422 0 
L 422 3319 
L 925 3319 
L 925 2853 
Q 1081 3097 1340 3245 
Q 1600 3394 1931 3394 
Q 2300 3394 2536 3241 
Q 2772 3088 2869 2813 
Q 3263 3394 3894 3394 
Q 4388 3394 4653 3120 
Q 4919 2847 4919 2278 
L 4919 0 
L 4359 0 
L 4359 2091 
Q 4359 2428 4304 2576 
Q 4250 2725 4106 2815 
Q 3963 2906 3769 2906 
Q 3419 2906 3187 2673 
Q 2956 2441 2956 1928 
L 2956 0 
L 2394 0 
L 2394 2156 
Q 2394 2531 2256 2718 
Q 2119 2906 1806 2906 
Q 1569 2906 1367 2781 
Q 1166 2656 1075 2415 
Q 984 2175 984 1722 
L 984 0 
L 422 0 
z
" transform="scale(0.015625)"/>
       <path id="ArialMT-54" d="M 1659 0 
L 1659 4041 
L 150 4041 
L 150 4581 
L 3781 4581 
L 3781 4041 
L 2266 4041 
L 2266 0 
L 1659 0 
z
" transform="scale(0.015625)"/>
       <path id="ArialMT-2f" d="M 0 -78 
L 1328 4659 
L 1778 4659 
L 453 -78 
L 0 -78 
z
" transform="scale(0.015625)"/>
       <path id="ArialMT-5d" d="M 1363 -1272 
L 122 -1272 
L 122 -806 
L 800 -806 
L 800 4116 
L 122 4116 
L 122 4581 
L 1363 4581 
L 1363 -1272 
z
" transform="scale(0.015625)"/>
      </defs>
      <use xlink:href="#ArialMT-47"/>
      <use xlink:href="#ArialMT-20" x="77.783203"/>
      <use xlink:href="#ArialMT-5b" x="105.566406"/>
      <use xlink:href="#ArialMT-6d" x="133.349609"/>
      <use xlink:href="#ArialMT-54" x="216.650391"/>
      <use xlink:href="#ArialMT-2f" x="277.734375"/>
      <use xlink:href="#ArialMT-6d" x="305.517578"/>
      <use xlink:href="#ArialMT-5d" x="388.818359"/>
     </g>
    </g>
   </g>
   <g id="line2d_9">
    <path d="M 136.577153 178.803 
L 167.514569 178.803 
L 167.654173 172.89381 
L 167.696661 172.89381 
L 167.824125 165.802773 
L 167.878753 165.802773 
L 168.006217 158.711746 
L 168.060845 158.711746 
L 168.188309 151.620709 
L 168.242937 151.620709 
L 168.370401 144.529681 
L 168.425029 144.529681 
L 168.552493 137.438644 
L 168.60712 137.438644 
L 168.734585 130.347608 
L 168.789212 130.347608 
L 168.916677 123.25658 
L 168.971304 123.25658 
L 169.098769 116.165543 
L 169.153396 116.165543 
L 169.28086 109.074515 
L 169.335488 109.074515 
L 169.462952 101.983479 
L 169.51758 101.983479 
L 169.645044 94.892442 
L 169.699672 94.892442 
L 169.827136 87.801414 
L 169.881764 87.801414 
L 170.009228 80.710378 
L 170.063856 80.710378 
L 170.19132 73.61935 
L 170.245948 73.61935 
L 170.373412 66.528313 
L 170.42804 66.528313 
L 170.555504 59.437276 
L 170.610131 59.437276 
L 170.737596 52.346249 
L 170.792223 52.346249 
L 170.919688 45.255212 
L 170.974315 45.255212 
L 171.10178 38.164184 
L 171.156407 38.164184 
L 171.283871 31.073147 
L 171.338499 31.073147 
L 171.465963 23.982111 
L 171.520591 23.982111 
L 171.635916 22.800273 
L 224.084456 22.800273 
L 224.22406 28.709463 
L 224.266548 28.709463 
L 224.394012 35.800499 
L 224.44864 35.800499 
L 224.576104 42.891527 
L 224.630731 42.891527 
L 224.758196 49.982564 
L 224.812823 49.982564 
L 224.940288 57.073592 
L 224.994915 57.073592 
L 225.12238 64.164628 
L 225.177007 64.164628 
L 225.304472 71.255665 
L 225.359099 71.255665 
L 225.486563 78.346693 
L 225.541191 78.346693 
L 225.668655 85.437729 
L 225.723283 85.437729 
L 225.850747 92.528757 
L 225.905375 92.528757 
L 226.032839 99.619794 
L 226.087467 99.619794 
L 226.214931 106.710831 
L 226.269559 106.710831 
L 226.397023 113.801859 
L 226.451651 113.801859 
L 226.579115 120.892895 
L 226.633742 120.892895 
L 226.761207 127.983923 
L 226.815834 127.983923 
L 226.943299 135.07496 
L 226.997926 135.07496 
L 227.125391 142.165996 
L 227.180018 142.165996 
L 227.307483 149.257024 
L 227.36211 149.257024 
L 227.489574 156.348061 
L 227.544202 156.348061 
L 227.671666 163.439089 
L 227.726294 163.439089 
L 227.853758 170.530125 
L 227.908386 170.530125 
L 228.03585 177.621162 
L 228.090478 177.621162 
L 228.217942 184.71219 
L 228.27257 184.71219 
L 228.400034 191.803227 
L 228.454662 191.803227 
L 228.582126 198.894254 
L 228.636753 198.894254 
L 228.764218 205.985291 
L 228.818845 205.985291 
L 228.94631 213.076319 
L 229.000937 213.076319 
L 229.128402 220.167356 
L 229.183029 220.167356 
L 229.310494 227.258392 
L 229.365121 227.258392 
L 229.492585 234.34942 
L 229.547213 234.34942 
L 229.674677 241.440457 
L 229.729305 241.440457 
L 229.856769 248.531485 
L 229.911397 248.531485 
L 230.038861 255.622521 
L 230.093489 255.622521 
L 230.220953 262.713558 
L 230.275581 262.713558 
L 230.403045 269.804586 
L 230.457673 269.804586 
L 230.585137 276.895622 
L 230.639764 276.895622 
L 230.767229 283.98665 
L 230.821856 283.98665 
L 230.949321 291.077687 
L 231.003948 291.077687 
L 231.131413 298.168724 
L 231.18604 298.168724 
L 231.313505 305.259751 
L 231.368132 305.259751 
L 231.495596 312.350788 
L 231.550224 312.350788 
L 231.677688 319.441816 
L 231.732316 319.441816 
L 231.85978 326.532853 
L 231.914408 326.532853 
L 232.041872 333.623881 
L 232.0965 333.623881 
L 232.211825 334.805727 
L 345.721852 334.805727 
L 345.861456 328.896537 
L 345.903944 328.896537 
L 346.031408 321.805501 
L 346.086036 321.805501 
L 346.2135 314.714473 
L 346.268127 314.714473 
L 346.395592 307.623436 
L 346.450219 307.623436 
L 346.577684 300.532408 
L 346.632311 300.532408 
L 346.759776 293.441372 
L 346.814403 293.441372 
L 346.941868 286.350335 
L 346.996495 286.350335 
L 347.123959 279.259307 
L 347.178587 279.259307 
L 347.306051 272.168271 
L 347.360679 272.168271 
L 347.488143 265.077243 
L 347.542771 265.077243 
L 347.670235 257.986206 
L 347.724863 257.986206 
L 347.852327 250.895169 
L 347.906955 250.895169 
L 348.034419 243.804141 
L 348.089047 243.804141 
L 348.216511 236.713105 
L 348.271138 236.713105 
L 348.398603 229.622077 
L 348.45323 229.622077 
L 348.580695 222.53104 
L 348.635322 222.53104 
L 348.762787 215.440004 
L 348.817414 215.440004 
L 348.944879 208.348976 
L 348.999506 208.348976 
L 349.12697 201.257939 
L 349.181598 201.257939 
L 349.309062 194.166911 
L 349.36369 194.166911 
L 349.491154 187.075875 
L 349.545782 187.075875 
L 349.673246 179.984838 
L 349.727874 179.984838 
L 349.843199 178.803 
L 397.921533 178.803 
L 398.061136 184.71219 
L 398.103625 184.71219 
L 398.231089 191.803227 
L 398.285716 191.803227 
L 398.413181 198.894254 
L 398.467808 198.894254 
L 398.595273 205.985291 
L 398.6499 205.985291 
L 398.777365 213.076319 
L 398.831992 213.076319 
L 398.959457 220.167356 
L 399.014084 220.167356 
L 399.141548 227.258392 
L 399.196176 227.258392 
L 399.32364 234.34942 
L 399.378268 234.34942 
L 399.505732 241.440457 
L 399.56036 241.440457 
L 399.687824 248.531485 
L 399.742452 248.531485 
L 399.869916 255.622521 
L 399.924544 255.622521 
L 400.052008 262.713558 
L 400.106636 262.713558 
L 400.2341 269.804586 
L 400.288728 269.804586 
L 400.416192 276.895622 
L 400.470819 276.895622 
L 400.598284 283.98665 
L 400.652911 283.98665 
L 400.780376 291.077687 
L 400.835003 291.077687 
L 400.962468 298.168724 
L 401.017095 298.168724 
L 401.144559 305.259751 
L 401.199187 305.259751 
L 401.326651 312.350788 
L 401.381279 312.350788 
L 401.508743 319.441816 
L 401.563371 319.441816 
L 401.690835 326.532853 
L 401.745463 326.532853 
L 401.872927 333.623889 
L 401.927555 333.623889 
L 402.04288 334.805727 
L 515.552907 334.805727 
L 515.69251 328.896537 
L 515.734999 328.896537 
L 515.862463 321.805501 
L 515.91709 321.805501 
L 516.044555 314.714473 
L 516.099182 314.714473 
L 516.226647 307.623436 
L 516.281274 307.623436 
L 516.408739 300.532408 
L 516.463366 300.532408 
L 516.590831 293.441372 
L 516.645458 293.441372 
L 516.772922 286.350335 
L 516.82755 286.350335 
L 516.955014 279.259307 
L 517.009642 279.259307 
L 517.137106 272.168271 
L 517.191734 272.168271 
L 517.319198 265.077243 
L 517.373826 265.077243 
L 517.50129 257.986206 
L 517.555918 257.986206 
L 517.683382 250.895169 
L 517.73801 250.895169 
L 517.865474 243.804141 
L 517.920102 243.804141 
L 518.047566 236.713105 
L 518.102193 236.713105 
L 518.229658 229.622077 
L 518.284285 229.622077 
L 518.41175 222.53104 
L 518.466377 222.53104 
L 518.593842 215.440004 
L 518.648469 215.440004 
L 518.775933 208.348976 
L 518.830561 208.348976 
L 518.958025 201.257939 
L 519.012653 201.257939 
L 519.140117 194.166911 
L 519.194745 194.166911 
L 519.322209 187.075875 
L 519.376837 187.075875 
L 519.504301 179.984838 
L 519.558929 179.984838 
L 519.686393 172.89381 
L 519.741021 172.89381 
L 519.868485 165.802773 
L 519.923113 165.802773 
L 520.050577 158.711746 
L 520.105204 158.711746 
L 520.232669 151.620709 
L 520.287296 151.620709 
L 520.414761 144.529681 
L 520.469388 144.529681 
L 520.596853 137.438644 
L 520.65148 137.438644 
L 520.778944 130.347608 
L 520.833572 130.347608 
L 520.961036 123.25658 
L 521.015664 123.25658 
L 521.143128 116.165543 
L 521.197756 116.165543 
L 521.32522 109.074515 
L 521.379848 109.074515 
L 521.507312 101.983479 
L 521.56194 101.983479 
L 521.689404 94.892442 
L 521.744032 94.892442 
L 521.871496 87.801414 
L 521.926124 87.801414 
L 522.053588 80.710378 
L 522.108215 80.710378 
L 522.23568 73.61935 
L 522.290307 73.61935 
L 522.417772 66.528313 
L 522.472399 66.528313 
L 522.599864 59.437276 
L 522.654491 59.437276 
L 522.781956 52.346249 
L 522.836583 52.346249 
L 522.964047 45.255212 
L 523.018675 45.255212 
L 523.146139 38.164184 
L 523.200767 38.164184 
L 523.328231 31.073147 
L 523.382859 31.073147 
L 523.510323 23.982119 
L 523.564951 23.982119 
L 523.680276 22.800273 
L 576.128815 22.800273 
L 576.268419 28.709463 
L 576.310907 28.709463 
L 576.438372 35.800499 
L 576.492999 35.800499 
L 576.620464 42.891527 
L 576.675091 42.891527 
L 576.802556 49.982564 
L 576.857183 49.982564 
L 576.984647 57.073592 
L 577.039275 57.073592 
L 577.166739 64.164628 
L 577.221367 64.164628 
L 577.348831 71.255665 
L 577.403459 71.255665 
L 577.530923 78.346693 
L 577.585551 78.346693 
L 577.713015 85.437729 
L 577.767643 85.437729 
L 577.895107 92.528757 
L 577.949735 92.528757 
L 578.077199 99.619794 
L 578.131826 99.619794 
L 578.259291 106.710831 
L 578.313918 106.710831 
L 578.441383 113.801859 
L 578.49601 113.801859 
L 578.623475 120.892895 
L 578.678102 120.892895 
L 578.805567 127.983923 
L 578.860194 127.983923 
L 578.987658 135.07496 
L 579.042286 135.07496 
L 579.16975 142.165996 
L 579.224378 142.165996 
L 579.351842 149.257024 
L 579.40647 149.257024 
L 579.533934 156.348061 
L 579.588562 156.348061 
L 579.716026 163.439089 
L 579.770654 163.439089 
L 579.898118 170.530125 
L 579.952746 170.530125 
L 580.08021 177.621162 
L 580.128768 177.621162 
L 580.244093 178.803 
L 634.288972 178.803 
L 634.288972 178.803 
" clip-path="url(#pe0c2923386)" style="fill: none; stroke: #808080; stroke-width: 5; stroke-linecap: round"/>
   </g>
   <g id="line2d_10">
    <path d="M 111.691563 178.803 
L 659.174563 178.803 
" clip-path="url(#pe0c2923386)" style="fill: none; stroke: #1a1a1a; stroke-width: 3; stroke-linecap: round"/>
   </g>
   <g id="patch_3">
    <path d="M 111.691563 350.406 
L 111.691563 7.2 
" style="fill: none; stroke: #ffffff; stroke-width: 2.5; stroke-linejoin: miter; stroke-linecap: square"/>
   </g>
   <g id="patch_4">
    <path d="M 659.174563 350.406 
L 659.174563 7.2 
" style="fill: none; stroke: #ffffff; stroke-width: 2.5; stroke-linejoin: miter; stroke-linecap: square"/>
   </g>
   <g id="patch_5">
    <path d="M 111.691563 350.406 
L 659.174562 350.406 
" style="fill: none; stroke: #ffffff; stroke-width: 2.5; stroke-linejoin: miter; stroke-linecap: square"/>
   </g>
   <g id="patch_6">
    <path d="M 111.691563 7.2 
L 659.174562 7.2 
" style="fill: none; stroke: #ffffff; stroke-width: 2.5; stroke-linejoin: miter; stroke-linecap: square"/>
   </g>
   <g id="text_5">
    <g id="patch_7">
     <path d="M 436.500073 345.7457 
L 642.750073 345.7457 
Q 655.250073 345.7457 655.250073 333.2457 
L 655.250073 309.9957 
Q 655.250073 297.4957 642.750073 297.4957 
L 436.500073 297.4957 
Q 424.000073 297.4957 424.000073 309.9957 
L 424.000073 333.2457 
Q 424.000073 345.7457 436.500073 345.7457 
z
" style="fill: #eaeaf2; opacity: 0.9; stroke: #d3d3d3; stroke-width: 2; stroke-linejoin: miter"/>
    </g>
    <!-- $G_{max}$ = 35.7 mT/m -->
    <g style="fill: #262626" transform="translate(436.500073 328.27695) scale(0.25 -0.25)">
     <defs>
      <path id="DejaVuSans-Oblique-47" d="M 3494 697 
L 3738 1919 
L 2700 1919 
L 2797 2438 
L 4453 2438 
L 4050 384 
Q 3634 156 3143 32 
Q 2653 -91 2156 -91 
Q 1278 -91 783 396 
Q 288 884 288 1753 
Q 288 2475 589 3126 
Q 891 3778 1422 4213 
Q 1756 4484 2153 4617 
Q 2550 4750 3034 4750 
Q 3472 4750 3873 4639 
Q 4275 4528 4641 4306 
L 4513 3634 
Q 4231 3928 3853 4083 
Q 3475 4238 3047 4238 
Q 2550 4238 2172 4048 
Q 1794 3859 1497 3463 
Q 1244 3125 1098 2667 
Q 953 2209 953 1734 
Q 953 1081 1287 751 
Q 1622 422 2284 422 
Q 2616 422 2925 492 
Q 3234 563 3494 697 
z
" transform="scale(0.015625)"/>
      <path id="DejaVuSans-Oblique-6d" d="M 5747 2113 
L 5338 0 
L 4763 0 
L 5166 2094 
Q 5191 2228 5203 2325 
Q 5216 2422 5216 2491 
Q 5216 2772 5059 2928 
Q 4903 3084 4622 3084 
Q 4203 3084 3875 2770 
Q 3547 2456 3450 1953 
L 3066 0 
L 2491 0 
L 2900 2094 
Q 2925 2209 2937 2307 
Q 2950 2406 2950 2484 
Q 2950 2769 2794 2926 
Q 2638 3084 2363 3084 
Q 1938 3084 1609 2770 
Q 1281 2456 1184 1953 
L 800 0 
L 225 0 
L 909 3500 
L 1484 3500 
L 1375 2956 
Q 1609 3263 1923 3423 
Q 2238 3584 2597 3584 
Q 2978 3584 3223 3384 
Q 3469 3184 3519 2828 
Q 3781 3197 4126 3390 
Q 4472 3584 4856 3584 
Q 5306 3584 5551 3325 
Q 5797 3066 5797 2591 
Q 5797 2488 5784 2364 
Q 5772 2241 5747 2113 
z
" transform="scale(0.015625)"/>
      <path id="DejaVuSans-Oblique-61" d="M 3438 1997 
L 3047 0 
L 2472 0 
L 2578 531 
Q 2325 219 2001 64 
Q 1678 -91 1281 -91 
Q 834 -91 548 182 
Q 263 456 263 884 
Q 263 1497 752 1853 
Q 1241 2209 2100 2209 
L 2900 2209 
L 2931 2363 
Q 2938 2388 2941 2417 
Q 2944 2447 2944 2509 
Q 2944 2788 2717 2942 
Q 2491 3097 2081 3097 
Q 1800 3097 1504 3025 
Q 1209 2953 897 2809 
L 997 3341 
Q 1322 3463 1633 3523 
Q 1944 3584 2234 3584 
Q 2853 3584 3176 3315 
Q 3500 3047 3500 2534 
Q 3500 2431 3484 2292 
Q 3469 2153 3438 1997 
z
M 2816 1759 
L 2241 1759 
Q 1534 1759 1195 1570 
Q 856 1381 856 984 
Q 856 709 1029 553 
Q 1203 397 1509 397 
Q 1978 397 2328 733 
Q 2678 1069 2791 1631 
L 2816 1759 
z
" transform="scale(0.015625)"/>
      <path id="DejaVuSans-Oblique-78" d="M 3841 3500 
L 2234 1784 
L 3219 0 
L 2559 0 
L 1819 1388 
L 531 0 
L -166 0 
L 1556 1844 
L 641 3500 
L 1300 3500 
L 1972 2234 
L 3144 3500 
L 3841 3500 
z
" transform="scale(0.015625)"/>
      <path id="ArialMT-3d" d="M 3381 2694 
L 356 2694 
L 356 3219 
L 3381 3219 
L 3381 2694 
z
M 3381 1303 
L 356 1303 
L 356 1828 
L 3381 1828 
L 3381 1303 
z
" transform="scale(0.015625)"/>
      <path id="ArialMT-33" d="M 269 1209 
L 831 1284 
Q 928 806 1161 595 
Q 1394 384 1728 384 
Q 2125 384 2398 659 
Q 2672 934 2672 1341 
Q 2672 1728 2419 1979 
Q 2166 2231 1775 2231 
Q 1616 2231 1378 2169 
L 1441 2663 
Q 1497 2656 1531 2656 
Q 1891 2656 2178 2843 
Q 2466 3031 2466 3422 
Q 2466 3731 2256 3934 
Q 2047 4138 1716 4138 
Q 1388 4138 1169 3931 
Q 950 3725 888 3313 
L 325 3413 
Q 428 3978 793 4289 
Q 1159 4600 1703 4600 
Q 2078 4600 2393 4439 
Q 2709 4278 2876 4000 
Q 3044 3722 3044 3409 
Q 3044 3113 2884 2869 
Q 2725 2625 2413 2481 
Q 2819 2388 3044 2092 
Q 3269 1797 3269 1353 
Q 3269 753 2831 336 
Q 2394 -81 1725 -81 
Q 1122 -81 723 278 
Q 325 638 269 1209 
z
" transform="scale(0.015625)"/>
      <path id="ArialMT-35" d="M 266 1200 
L 856 1250 
Q 922 819 1161 601 
Q 1400 384 1738 384 
Q 2144 384 2425 690 
Q 2706 997 2706 1503 
Q 2706 1984 2436 2262 
Q 2166 2541 1728 2541 
Q 1456 2541 1237 2417 
Q 1019 2294 894 2097 
L 366 2166 
L 809 4519 
L 3088 4519 
L 3088 3981 
L 1259 3981 
L 1013 2750 
Q 1425 3038 1878 3038 
Q 2478 3038 2890 2622 
Q 3303 2206 3303 1553 
Q 3303 931 2941 478 
Q 2500 -78 1738 -78 
Q 1113 -78 717 272 
Q 322 622 266 1200 
z
" transform="scale(0.015625)"/>
      <path id="ArialMT-2e" d="M 581 0 
L 581 641 
L 1222 641 
L 1222 0 
L 581 0 
z
" transform="scale(0.015625)"/>
      <path id="ArialMT-37" d="M 303 3981 
L 303 4522 
L 3269 4522 
L 3269 4084 
Q 2831 3619 2401 2847 
Q 1972 2075 1738 1259 
Q 1569 684 1522 0 
L 944 0 
Q 953 541 1156 1306 
Q 1359 2072 1739 2783 
Q 2119 3494 2547 3981 
L 303 3981 
z
" transform="scale(0.015625)"/>
     </defs>
     <use xlink:href="#DejaVuSans-Oblique-47" transform="translate(0 0.78125)"/>
     <use xlink:href="#DejaVuSans-Oblique-6d" transform="translate(77.490234 -15.625) scale(0.7)"/>
     <use xlink:href="#DejaVuSans-Oblique-61" transform="translate(145.678711 -15.625) scale(0.7)"/>
     <use xlink:href="#DejaVuSans-Oblique-78" transform="translate(188.574219 -15.625) scale(0.7)"/>
     <use xlink:href="#ArialMT-20" transform="translate(232.734375 0.78125)"/>
     <use xlink:href="#ArialMT-3d" transform="translate(260.517578 0.78125)"/>
     <use xlink:href="#ArialMT-20" transform="translate(318.916016 0.78125)"/>
     <use xlink:href="#ArialMT-33" transform="translate(346.699219 0.78125)"/>
     <use xlink:href="#ArialMT-35" transform="translate(402.314453 0.78125)"/>
     <use xlink:href="#ArialMT-2e" transform="translate(457.929688 0.78125)"/>
     <use xlink:href="#ArialMT-37" transform="translate(485.712891 0.78125)"/>
     <use xlink:href="#ArialMT-20" transform="translate(541.328125 0.78125)"/>
     <use xlink:href="#ArialMT-6d" transform="translate(569.111328 0.78125)"/>
     <use xlink:href="#ArialMT-54" transform="translate(652.412109 0.78125)"/>
     <use xlink:href="#ArialMT-2f" transform="translate(713.496094 0.78125)"/>
     <use xlink:href="#ArialMT-6d" transform="translate(741.279297 0.78125)"/>
    </g>
   </g>
  </g>
  <g id="axes_2">
   <g id="patch_8">
    <path d="M 111.691563 727.308 
L 659.174563 727.308 
L 659.174563 384.102 
L 111.691563 384.102 
z
" style="fill: #eaeaf2"/>
   </g>
   <g id="matplotlib.axis_3">
    <g id="xtick_6">
     <g id="line2d_11">
      <path d="M 136.577153 727.308 
L 136.577153 384.102 
" clip-path="url(#p3c01dbfaaa)" style="fill: none; stroke: #ffffff; stroke-width: 2; stroke-linecap: round"/>
     </g>
     <g id="text_6">
      <!-- 0 -->
      <g style="fill: #262626" transform="translate(128.625013 763.279344) scale(0.286 -0.286)">
       <use xlink:href="#ArialMT-30"/>
      </g>
     </g>
    </g>
    <g id="xtick_7">
     <g id="line2d_12">
      <path d="M 257.97176 727.308 
L 257.97176 384.102 
" clip-path="url(#p3c01dbfaaa)" style="fill: none; stroke: #ffffff; stroke-width: 2; stroke-linecap: round"/>
     </g>
     <g id="text_7">
      <!-- 20 -->
      <g style="fill: #262626" transform="translate(242.067479 763.279344) scale(0.286 -0.286)">
       <use xlink:href="#ArialMT-32"/>
       <use xlink:href="#ArialMT-30" x="55.615234"/>
      </g>
     </g>
    </g>
    <g id="xtick_8">
     <g id="line2d_13">
      <path d="M 379.366367 727.308 
L 379.366367 384.102 
" clip-path="url(#p3c01dbfaaa)" style="fill: none; stroke: #ffffff; stroke-width: 2; stroke-linecap: round"/>
     </g>
     <g id="text_8">
      <!-- 40 -->
      <g style="fill: #262626" transform="translate(363.462086 763.279344) scale(0.286 -0.286)">
       <defs>
        <path id="ArialMT-34" d="M 2069 0 
L 2069 1097 
L 81 1097 
L 81 1613 
L 2172 4581 
L 2631 4581 
L 2631 1613 
L 3250 1613 
L 3250 1097 
L 2631 1097 
L 2631 0 
L 2069 0 
z
M 2069 1613 
L 2069 3678 
L 634 1613 
L 2069 1613 
z
" transform="scale(0.015625)"/>
       </defs>
       <use xlink:href="#ArialMT-34"/>
       <use xlink:href="#ArialMT-30" x="55.615234"/>
      </g>
     </g>
    </g>
    <g id="xtick_9">
     <g id="line2d_14">
      <path d="M 500.760974 727.308 
L 500.760974 384.102 
" clip-path="url(#p3c01dbfaaa)" style="fill: none; stroke: #ffffff; stroke-width: 2; stroke-linecap: round"/>
     </g>
     <g id="text_9">
      <!-- 60 -->
      <g style="fill: #262626" transform="translate(484.856693 763.279344) scale(0.286 -0.286)">
       <defs>
        <path id="ArialMT-36" d="M 3184 3459 
L 2625 3416 
Q 2550 3747 2413 3897 
Q 2184 4138 1850 4138 
Q 1581 4138 1378 3988 
Q 1113 3794 959 3422 
Q 806 3050 800 2363 
Q 1003 2672 1297 2822 
Q 1591 2972 1913 2972 
Q 2475 2972 2870 2558 
Q 3266 2144 3266 1488 
Q 3266 1056 3080 686 
Q 2894 316 2569 119 
Q 2244 -78 1831 -78 
Q 1128 -78 684 439 
Q 241 956 241 2144 
Q 241 3472 731 4075 
Q 1159 4600 1884 4600 
Q 2425 4600 2770 4297 
Q 3116 3994 3184 3459 
z
M 888 1484 
Q 888 1194 1011 928 
Q 1134 663 1356 523 
Q 1578 384 1822 384 
Q 2178 384 2434 671 
Q 2691 959 2691 1453 
Q 2691 1928 2437 2201 
Q 2184 2475 1800 2475 
Q 1419 2475 1153 2201 
Q 888 1928 888 1484 
z
" transform="scale(0.015625)"/>
       </defs>
       <use xlink:href="#ArialMT-36"/>
       <use xlink:href="#ArialMT-30" x="55.615234"/>
      </g>
     </g>
    </g>
    <g id="xtick_10">
     <g id="line2d_15">
      <path d="M 622.155581 727.308 
L 622.155581 384.102 
" clip-path="url(#p3c01dbfaaa)" style="fill: none; stroke: #ffffff; stroke-width: 2; stroke-linecap: round"/>
     </g>
     <g id="text_10">
      <!-- 80 -->
      <g style="fill: #262626" transform="translate(606.251299 763.279344) scale(0.286 -0.286)">
       <defs>
        <path id="ArialMT-38" d="M 1131 2484 
Q 781 2613 612 2850 
Q 444 3088 444 3419 
Q 444 3919 803 4259 
Q 1163 4600 1759 4600 
Q 2359 4600 2725 4251 
Q 3091 3903 3091 3403 
Q 3091 3084 2923 2848 
Q 2756 2613 2416 2484 
Q 2838 2347 3058 2040 
Q 3278 1734 3278 1309 
Q 3278 722 2862 322 
Q 2447 -78 1769 -78 
Q 1091 -78 675 323 
Q 259 725 259 1325 
Q 259 1772 486 2073 
Q 713 2375 1131 2484 
z
M 1019 3438 
Q 1019 3113 1228 2906 
Q 1438 2700 1772 2700 
Q 2097 2700 2305 2904 
Q 2513 3109 2513 3406 
Q 2513 3716 2298 3927 
Q 2084 4138 1766 4138 
Q 1444 4138 1231 3931 
Q 1019 3725 1019 3438 
z
M 838 1322 
Q 838 1081 952 856 
Q 1066 631 1291 507 
Q 1516 384 1775 384 
Q 2178 384 2440 643 
Q 2703 903 2703 1303 
Q 2703 1709 2433 1975 
Q 2163 2241 1756 2241 
Q 1359 2241 1098 1978 
Q 838 1716 838 1322 
z
" transform="scale(0.015625)"/>
       </defs>
       <use xlink:href="#ArialMT-38"/>
       <use xlink:href="#ArialMT-30" x="55.615234"/>
      </g>
     </g>
    </g>
    <g id="text_11">
     <!-- Time [ms] -->
     <g style="fill: #262626" transform="translate(317.558438 795.295969) scale(0.312 -0.312)">
      <defs>
       <path id="ArialMT-69" d="M 425 3934 
L 425 4581 
L 988 4581 
L 988 3934 
L 425 3934 
z
M 425 0 
L 425 3319 
L 988 3319 
L 988 0 
L 425 0 
z
" transform="scale(0.015625)"/>
       <path id="ArialMT-65" d="M 2694 1069 
L 3275 997 
Q 3138 488 2766 206 
Q 2394 -75 1816 -75 
Q 1088 -75 661 373 
Q 234 822 234 1631 
Q 234 2469 665 2931 
Q 1097 3394 1784 3394 
Q 2450 3394 2872 2941 
Q 3294 2488 3294 1666 
Q 3294 1616 3291 1516 
L 816 1516 
Q 847 969 1125 678 
Q 1403 388 1819 388 
Q 2128 388 2347 550 
Q 2566 713 2694 1069 
z
M 847 1978 
L 2700 1978 
Q 2663 2397 2488 2606 
Q 2219 2931 1791 2931 
Q 1403 2931 1139 2672 
Q 875 2413 847 1978 
z
" transform="scale(0.015625)"/>
       <path id="ArialMT-73" d="M 197 991 
L 753 1078 
Q 800 744 1014 566 
Q 1228 388 1613 388 
Q 2000 388 2187 545 
Q 2375 703 2375 916 
Q 2375 1106 2209 1216 
Q 2094 1291 1634 1406 
Q 1016 1563 777 1677 
Q 538 1791 414 1992 
Q 291 2194 291 2438 
Q 291 2659 392 2848 
Q 494 3038 669 3163 
Q 800 3259 1026 3326 
Q 1253 3394 1513 3394 
Q 1903 3394 2198 3281 
Q 2494 3169 2634 2976 
Q 2775 2784 2828 2463 
L 2278 2388 
Q 2241 2644 2061 2787 
Q 1881 2931 1553 2931 
Q 1166 2931 1000 2803 
Q 834 2675 834 2503 
Q 834 2394 903 2306 
Q 972 2216 1119 2156 
Q 1203 2125 1616 2013 
Q 2213 1853 2448 1751 
Q 2684 1650 2818 1456 
Q 2953 1263 2953 975 
Q 2953 694 2789 445 
Q 2625 197 2315 61 
Q 2006 -75 1616 -75 
Q 969 -75 630 194 
Q 291 463 197 991 
z
" transform="scale(0.015625)"/>
      </defs>
      <use xlink:href="#ArialMT-54"/>
      <use xlink:href="#ArialMT-69" x="57.333984"/>
      <use xlink:href="#ArialMT-6d" x="79.550781"/>
      <use xlink:href="#ArialMT-65" x="162.851562"/>
      <use xlink:href="#ArialMT-20" x="218.466797"/>
      <use xlink:href="#ArialMT-5b" x="246.25"/>
      <use xlink:href="#ArialMT-6d" x="274.033203"/>
      <use xlink:href="#ArialMT-73" x="357.333984"/>
      <use xlink:href="#ArialMT-5d" x="407.333984"/>
     </g>
    </g>
   </g>
   <g id="matplotlib.axis_4">
    <g id="ytick_4">
     <g id="line2d_16">
      <path d="M 111.691563 711.707727 
L 659.174563 711.707727 
" clip-path="url(#p3c01dbfaaa)" style="fill: none; stroke: #ffffff; stroke-width: 2; stroke-linecap: round"/>
     </g>
     <g id="text_12">
      <!-- −1.0 -->
      <g style="fill: #262626" transform="translate(39.733375 721.943399) scale(0.286 -0.286)">
       <defs>
        <path id="ArialMT-31" d="M 2384 0 
L 1822 0 
L 1822 3584 
Q 1619 3391 1289 3197 
Q 959 3003 697 2906 
L 697 3450 
Q 1169 3672 1522 3987 
Q 1875 4303 2022 4600 
L 2384 4600 
L 2384 0 
z
" transform="scale(0.015625)"/>
       </defs>
       <use xlink:href="#ArialMT-2212"/>
       <use xlink:href="#ArialMT-31" x="58.398438"/>
       <use xlink:href="#ArialMT-2e" x="114.013672"/>
       <use xlink:href="#ArialMT-30" x="141.796875"/>
      </g>
     </g>
    </g>
    <g id="ytick_5">
     <g id="line2d_17">
      <path d="M 111.691563 633.706364 
L 659.174563 633.706364 
" clip-path="url(#p3c01dbfaaa)" style="fill: none; stroke: #ffffff; stroke-width: 2; stroke-linecap: round"/>
     </g>
     <g id="text_13">
      <!-- −0.5 -->
      <g style="fill: #262626" transform="translate(39.733375 643.942036) scale(0.286 -0.286)">
       <use xlink:href="#ArialMT-2212"/>
       <use xlink:href="#ArialMT-30" x="58.398438"/>
       <use xlink:href="#ArialMT-2e" x="114.013672"/>
       <use xlink:href="#ArialMT-35" x="141.796875"/>
      </g>
     </g>
    </g>
    <g id="ytick_6">
     <g id="line2d_18">
      <path d="M 111.691563 555.705 
L 659.174563 555.705 
" clip-path="url(#p3c01dbfaaa)" style="fill: none; stroke: #ffffff; stroke-width: 2; stroke-linecap: round"/>
     </g>
     <g id="text_14">
      <!-- 0.0 -->
      <g style="fill: #262626" transform="translate(56.437563 565.940672) scale(0.286 -0.286)">
       <use xlink:href="#ArialMT-30"/>
       <use xlink:href="#ArialMT-2e" x="55.615234"/>
       <use xlink:href="#ArialMT-30" x="83.398438"/>
      </g>
     </g>
    </g>
    <g id="ytick_7">
     <g id="line2d_19">
      <path d="M 111.691563 477.703636 
L 659.174563 477.703636 
" clip-path="url(#p3c01dbfaaa)" style="fill: none; stroke: #ffffff; stroke-width: 2; stroke-linecap: round"/>
     </g>
     <g id="text_15">
      <!-- 0.5 -->
      <g style="fill: #262626" transform="translate(56.437563 487.939308) scale(0.286 -0.286)">
       <use xlink:href="#ArialMT-30"/>
       <use xlink:href="#ArialMT-2e" x="55.615234"/>
       <use xlink:href="#ArialMT-35" x="83.398438"/>
      </g>
     </g>
    </g>
    <g id="ytick_8">
     <g id="line2d_20">
      <path d="M 111.691563 399.702273 
L 659.174563 399.702273 
" clip-path="url(#p3c01dbfaaa)" style="fill: none; stroke: #ffffff; stroke-width: 2; stroke-linecap: round"/>
     </g>
     <g id="text_16">
      <!-- 1.0 -->
      <g style="fill: #262626" transform="translate(56.437563 409.937945) scale(0.286 -0.286)">
       <use xlink:href="#ArialMT-31"/>
       <use xlink:href="#ArialMT-2e" x="55.615234"/>
       <use xlink:href="#ArialMT-30" x="83.398438"/>
      </g>
     </g>
    </g>
    <g id="text_17">
     <!-- Moments -->
     <g style="fill: #262626" transform="translate(29.532375 619.852687) rotate(-90) scale(0.312 -0.312)">
      <defs>
       <path id="ArialMT-4d" d="M 475 0 
L 475 4581 
L 1388 4581 
L 2472 1338 
Q 2622 884 2691 659 
Q 2769 909 2934 1394 
L 4031 4581 
L 4847 4581 
L 4847 0 
L 4263 0 
L 4263 3834 
L 2931 0 
L 2384 0 
L 1059 3900 
L 1059 0 
L 475 0 
z
" transform="scale(0.015625)"/>
       <path id="ArialMT-6f" d="M 213 1659 
Q 213 2581 725 3025 
Q 1153 3394 1769 3394 
Q 2453 3394 2887 2945 
Q 3322 2497 3322 1706 
Q 3322 1066 3130 698 
Q 2938 331 2570 128 
Q 2203 -75 1769 -75 
Q 1072 -75 642 372 
Q 213 819 213 1659 
z
M 791 1659 
Q 791 1022 1069 705 
Q 1347 388 1769 388 
Q 2188 388 2466 706 
Q 2744 1025 2744 1678 
Q 2744 2294 2464 2611 
Q 2184 2928 1769 2928 
Q 1347 2928 1069 2612 
Q 791 2297 791 1659 
z
" transform="scale(0.015625)"/>
       <path id="ArialMT-6e" d="M 422 0 
L 422 3319 
L 928 3319 
L 928 2847 
Q 1294 3394 1984 3394 
Q 2284 3394 2536 3286 
Q 2788 3178 2913 3003 
Q 3038 2828 3088 2588 
Q 3119 2431 3119 2041 
L 3119 0 
L 2556 0 
L 2556 2019 
Q 2556 2363 2490 2533 
Q 2425 2703 2258 2804 
Q 2091 2906 1866 2906 
Q 1506 2906 1245 2678 
Q 984 2450 984 1813 
L 984 0 
L 422 0 
z
" transform="scale(0.015625)"/>
       <path id="ArialMT-74" d="M 1650 503 
L 1731 6 
Q 1494 -44 1306 -44 
Q 1000 -44 831 53 
Q 663 150 594 308 
Q 525 466 525 972 
L 525 2881 
L 113 2881 
L 113 3319 
L 525 3319 
L 525 4141 
L 1084 4478 
L 1084 3319 
L 1650 3319 
L 1650 2881 
L 1084 2881 
L 1084 941 
Q 1084 700 1114 631 
Q 1144 563 1211 522 
Q 1278 481 1403 481 
Q 1497 481 1650 503 
z
" transform="scale(0.015625)"/>
      </defs>
      <use xlink:href="#ArialMT-4d"/>
      <use xlink:href="#ArialMT-6f" x="83.300781"/>
      <use xlink:href="#ArialMT-6d" x="138.916016"/>
      <use xlink:href="#ArialMT-65" x="222.216797"/>
      <use xlink:href="#ArialMT-6e" x="277.832031"/>
      <use xlink:href="#ArialMT-74" x="333.447266"/>
      <use xlink:href="#ArialMT-73" x="361.230469"/>
     </g>
    </g>
   </g>
   <g id="line2d_21">
    <path d="M 136.577153 555.705 
L 168.103333 555.594217 
L 168.698166 555.257992 
L 169.353697 554.62619 
L 170.094204 553.582742 
L 170.913618 552.020858 
L 171.957612 549.471094 
L 225.061682 414.102967 
L 225.953933 412.633422 
L 226.70051 411.7938 
L 227.404598 411.327878 
L 228.005502 411.180207 
L 228.588196 411.256803 
L 229.207308 411.575641 
L 229.862839 412.179483 
L 230.603346 413.191447 
L 231.41669 414.705752 
L 232.32715 416.884283 
L 346.699078 708.782382 
L 347.591329 710.251927 
L 348.337906 711.09155 
L 349.041994 711.557472 
L 349.642898 711.705143 
L 351.60342 711.707727 
L 398.510297 711.596945 
L 399.10513 711.26072 
L 399.760661 710.628918 
L 400.501168 709.585469 
L 401.320582 708.023586 
L 402.364575 705.473821 
L 516.530133 414.102967 
L 517.422384 412.633422 
L 518.16896 411.7938 
L 518.873049 411.327878 
L 519.473952 411.180207 
L 520.056647 411.256803 
L 520.675759 411.575641 
L 521.33129 412.179483 
L 522.071797 413.191447 
L 522.885141 414.705752 
L 523.7956 416.884283 
L 577.106042 552.779655 
L 577.998292 554.2492 
L 578.744869 555.088822 
L 579.448958 555.554744 
L 580.049861 555.702415 
L 582.004314 555.704882 
L 634.288972 555.704882 
L 634.288972 555.704882 
" clip-path="url(#p3c01dbfaaa)" style="fill: none; stroke: #4c72b0; stroke-width: 5; stroke-linecap: round"/>
   </g>
   <g id="line2d_22">
    <path d="M 136.577153 555.705 
L 169.547929 555.594062 
L 171.472033 555.268159 
L 177.068325 553.864301 
L 182.949893 552.164154 
L 188.861811 550.223232 
L 194.810146 548.0356 
L 200.7949 545.596932 
L 206.822143 542.90004 
L 212.891873 539.93981 
L 219.010161 536.707765 
L 226.075327 532.958105 
L 227.313552 532.699571 
L 228.545708 532.669777 
L 229.741444 532.863635 
L 230.95539 533.290891 
L 232.199685 533.975062 
L 238.487926 538.108451 
L 244.836864 542.548714 
L 251.252569 547.308179 
L 257.735041 552.395397 
L 264.28428 557.819009 
L 270.906356 563.593173 
L 277.601268 569.727518 
L 284.369017 576.23178 
L 291.215673 583.122046 
L 298.135166 590.402577 
L 305.139635 598.097054 
L 312.22301 606.210263 
L 319.391362 614.760749 
L 326.644689 623.760674 
L 333.982993 633.222343 
L 341.406273 643.158207 
L 347.014704 650.616436 
L 347.961582 651.359476 
L 348.799205 651.756462 
L 349.600409 651.905916 
L 351.724815 651.90885 
L 398.631691 651.799003 
L 399.347919 651.465368 
L 400.118775 650.854793 
L 400.968537 649.877596 
L 401.897206 648.442623 
L 408.34326 636.922666 
L 416.652721 621.664038 
L 425.059297 605.759474 
L 433.562989 589.192677 
L 442.163797 571.947156 
L 450.861721 554.006237 
L 459.66283 535.340003 
L 468.561054 515.943733 
L 477.562464 495.786401 
L 486.66099 474.863605 
L 495.862701 453.143188 
L 505.167598 430.606196 
L 514.57568 407.233458 
L 516.548342 402.570769 
L 517.422384 401.149224 
L 518.17503 400.310249 
L 518.873049 399.851994 
L 519.473952 399.704851 
L 520.056647 399.781334 
L 520.675759 400.10012 
L 521.33129 400.704844 
L 522.071797 401.720115 
L 522.885141 403.242424 
L 523.789531 405.4217 
L 533.397914 430.489226 
L 543.109482 456.450292 
L 552.924236 483.324904 
L 562.842176 511.133282 
L 572.863301 539.895858 
L 577.172809 552.071701 
L 578.040781 553.679173 
L 578.787357 554.622216 
L 579.418609 555.101035 
L 580.019513 555.285029 
L 581.749386 555.289915 
L 634.288972 555.289915 
L 634.288972 555.289915 
" clip-path="url(#p3c01dbfaaa)" style="fill: none; stroke: #dd8452; stroke-width: 5; stroke-linecap: round"/>
   </g>
   <g id="line2d_23">
    <path d="M 136.577153 555.705 
L 174.974268 555.593896 
L 187.708562 555.18096 
L 198.937563 554.597867 
L 209.201477 553.844921 
L 218.767372 552.922472 
L 227.786991 552.054407 
L 230.354487 552.141861 
L 232.903774 552.457865 
L 241.298211 553.822055 
L 249.383092 555.359965 
L 257.200904 557.0723 
L 264.794137 558.962172 
L 272.193138 561.032178 
L 279.422187 563.285032 
L 286.499493 565.722969 
L 293.449334 568.351833 
L 300.28385 571.174544 
L 307.021251 574.197686 
L 313.667606 577.423611 
L 320.241124 580.861489 
L 326.747875 584.515652 
L 333.193928 588.390897 
L 339.591424 592.496579 
L 347.706654 597.739877 
L 348.847763 598.037301 
L 349.994942 598.107594 
L 398.813783 597.997914 
L 399.706033 597.667182 
L 400.646842 597.075712 
L 401.605859 596.212503 
L 403.323593 594.27543 
L 409.575415 586.956979 
L 415.839377 579.280328 
L 422.115478 571.235551 
L 428.409788 562.804321 
L 434.722308 553.97543 
L 441.059106 544.728479 
L 447.420184 535.050818 
L 453.80554 524.929591 
L 460.221245 514.341517 
L 466.667299 503.272091 
L 473.143701 491.706536 
L 479.656521 479.618321 
L 486.199691 467.002717 
L 492.779278 453.83171 
L 499.395285 440.087989 
L 506.053779 425.740575 
L 512.748691 410.783794 
L 516.681877 402.113671 
L 517.543778 400.888897 
L 518.296425 400.169365 
L 519.000514 399.794017 
L 519.613556 399.703248 
L 520.20232 399.824603 
L 520.827502 400.177961 
L 521.483033 400.799102 
L 522.217471 401.801313 
L 523.024745 403.279408 
L 524.117296 405.821609 
L 530.927534 422.550936 
L 537.780259 439.978074 
L 544.675473 458.124536 
L 551.613175 477.012291 
L 558.593365 496.663774 
L 565.622112 517.119842 
L 572.699418 538.405665 
L 577.263855 552.004158 
L 578.089338 553.588029 
L 578.829845 554.559659 
L 579.467167 555.053922 
L 580.055931 555.226743 
L 581.640131 555.22936 
L 634.288972 555.22936 
L 634.288972 555.22936 
" clip-path="url(#p3c01dbfaaa)" style="fill: none; stroke: #55a868; stroke-width: 5; stroke-linecap: round"/>
   </g>
   <g id="line2d_24">
    <path d="M 111.691563 555.705 
L 659.174563 555.705 
" clip-path="url(#p3c01dbfaaa)" style="fill: none; stroke: #1a1a1a; stroke-width: 3; stroke-linecap: round"/>
   </g>
   <g id="patch_9">
    <path d="M 111.691563 727.308 
L 111.691563 384.102 
" style="fill: none; stroke: #ffffff; stroke-width: 2.5; stroke-linejoin: miter; stroke-linecap: square"/>
   </g>
   <g id="patch_10">
    <path d="M 659.174563 727.308 
L 659.174563 384.102 
" style="fill: none; stroke: #ffffff; stroke-width: 2.5; stroke-linejoin: miter; stroke-linecap: square"/>
   </g>
   <g id="patch_11">
    <path d="M 111.691563 727.308 
L 659.174562 727.308 
" style="fill: none; stroke: #ffffff; stroke-width: 2.5; stroke-linejoin: miter; stroke-linecap: square"/>
   </g>
   <g id="patch_12">
    <path d="M 111.691563 384.102 
L 659.174562 384.102 
" style="fill: none; stroke: #ffffff; stroke-width: 2.5; stroke-linejoin: miter; stroke-linecap: square"/>
   </g>
   <g id="legend_1">
    <g id="patch_13">
     <path d="M 464.174563 714.808 
L 641.674563 714.808 
Q 646.674563 714.808 646.674563 709.808 
L 646.674563 606.218156 
Q 646.674563 601.218156 641.674563 601.218156 
L 464.174563 601.218156 
Q 459.174563 601.218156 459.174563 606.218156 
L 459.174563 709.808 
Q 459.174563 714.808 464.174563 714.808 
z
" style="fill: #eaeaf2; opacity: 0.8; stroke: #cccccc; stroke-width: 2; stroke-linejoin: miter"/>
    </g>
    <g id="line2d_25">
     <path d="M 469.174563 620.362687 
L 494.174563 620.362687 
L 519.174563 620.362687 
" style="fill: none; stroke: #4c72b0; stroke-width: 5; stroke-linecap: round"/>
    </g>
    <g id="text_18">
     <!-- $M_0$ -->
     <g style="fill: #262626" transform="translate(539.174563 629.112687) scale(0.25 -0.25)">
      <defs>
       <path id="DejaVuSans-Oblique-4d" d="M 1081 4666 
L 2028 4666 
L 2572 1522 
L 4378 4666 
L 5350 4666 
L 4441 0 
L 3828 0 
L 4622 4091 
L 2791 897 
L 2175 897 
L 1581 4103 
L 788 0 
L 172 0 
L 1081 4666 
z
" transform="scale(0.015625)"/>
       <path id="DejaVuSans-30" d="M 2034 4250 
Q 1547 4250 1301 3770 
Q 1056 3291 1056 2328 
Q 1056 1369 1301 889 
Q 1547 409 2034 409 
Q 2525 409 2770 889 
Q 3016 1369 3016 2328 
Q 3016 3291 2770 3770 
Q 2525 4250 2034 4250 
z
M 2034 4750 
Q 2819 4750 3233 4129 
Q 3647 3509 3647 2328 
Q 3647 1150 3233 529 
Q 2819 -91 2034 -91 
Q 1250 -91 836 529 
Q 422 1150 422 2328 
Q 422 3509 836 4129 
Q 1250 4750 2034 4750 
z
" transform="scale(0.015625)"/>
      </defs>
      <use xlink:href="#DejaVuSans-Oblique-4d" transform="translate(0 0.09375)"/>
      <use xlink:href="#DejaVuSans-30" transform="translate(86.279297 -16.3125) scale(0.7)"/>
     </g>
    </g>
    <g id="line2d_26">
     <path d="M 469.174563 655.725969 
L 494.174563 655.725969 
L 519.174563 655.725969 
" style="fill: none; stroke: #dd8452; stroke-width: 5; stroke-linecap: round"/>
    </g>
    <g id="text_19">
     <!-- $M_1$ -->
     <g style="fill: #262626" transform="translate(539.174563 664.475969) scale(0.25 -0.25)">
      <defs>
       <path id="DejaVuSans-31" d="M 794 531 
L 1825 531 
L 1825 4091 
L 703 3866 
L 703 4441 
L 1819 4666 
L 2450 4666 
L 2450 531 
L 3481 531 
L 3481 0 
L 794 0 
L 794 531 
z
" transform="scale(0.015625)"/>
      </defs>
      <use xlink:href="#DejaVuSans-Oblique-4d" transform="translate(0 0.09375)"/>
      <use xlink:href="#DejaVuSans-31" transform="translate(86.279297 -16.3125) scale(0.7)"/>
     </g>
    </g>
    <g id="line2d_27">
     <path d="M 469.174563 691.08925 
L 494.174563 691.08925 
L 519.174563 691.08925 
" style="fill: none; stroke: #55a868; stroke-width: 5; stroke-linecap: round"/>
    </g>
    <g id="text_20">
     <!-- $M_1+M_2$ -->
     <g style="fill: #262626" transform="translate(539.174563 699.83925) scale(0.25 -0.25)">
      <defs>
       <path id="DejaVuSans-2b" d="M 2944 4013 
L 2944 2272 
L 4684 2272 
L 4684 1741 
L 2944 1741 
L 2944 0 
L 2419 0 
L 2419 1741 
L 678 1741 
L 678 2272 
L 2419 2272 
L 2419 4013 
L 2944 4013 
z
" transform="scale(0.015625)"/>
       <path id="DejaVuSans-32" d="M 1228 531 
L 3431 531 
L 3431 0 
L 469 0 
L 469 531 
Q 828 903 1448 1529 
Q 2069 2156 2228 2338 
Q 2531 2678 2651 2914 
Q 2772 3150 2772 3378 
Q 2772 3750 2511 3984 
Q 2250 4219 1831 4219 
Q 1534 4219 1204 4116 
Q 875 4013 500 3803 
L 500 4441 
Q 881 4594 1212 4672 
Q 1544 4750 1819 4750 
Q 2544 4750 2975 4387 
Q 3406 4025 3406 3419 
Q 3406 3131 3298 2873 
Q 3191 2616 2906 2266 
Q 2828 2175 2409 1742 
Q 1991 1309 1228 531 
z
" transform="scale(0.015625)"/>
      </defs>
      <use xlink:href="#DejaVuSans-Oblique-4d" transform="translate(0 0.09375)"/>
      <use xlink:href="#DejaVuSans-31" transform="translate(86.279297 -16.3125) scale(0.7)"/>
      <use xlink:href="#DejaVuSans-2b" transform="translate(153.032227 0.09375)"/>
      <use xlink:href="#DejaVuSans-Oblique-4d" transform="translate(256.303711 0.09375)"/>
      <use xlink:href="#DejaVuSans-32" transform="translate(342.583008 -16.3125) scale(0.7)"/>
     </g>
    </g>
   </g>
  </g>
 </g>
 <defs>
  <clipPath id="pe0c2923386">
   <rect x="111.691563" y="7.2" width="547.483" height="343.206"/>
  </clipPath>
  <clipPath id="p3c01dbfaaa">
   <rect x="111.691563" y="384.102" width="547.483" height="343.206"/>
  </clipPath>
 </defs>
</svg>
