<?xml version="1.0" encoding="utf-8" standalone="no"?>
<!DOCTYPE svg PUBLIC "-//W3C//DTD SVG 1.1//EN"
  "http://www.w3.org/Graphics/SVG/1.1/DTD/svg11.dtd">
<svg xmlns:xlink="http://www.w3.org/1999/xlink" width="663.481188pt" height="806.986054pt" viewBox="0 0 663.481188 806.986054" xmlns="http://www.w3.org/2000/svg" version="1.1">
 <metadata>
  <rdf:RDF xmlns:dc="http://purl.org/dc/elements/1.1/" xmlns:cc="http://creativecommons.org/ns#" xmlns:rdf="http://www.w3.org/1999/02/22-rdf-syntax-ns#">
   <cc:Work>
    <dc:type rdf:resource="http://purl.org/dc/dcmitype/StillImage"/>
    <dc:date>2024-03-06T08:54:38.376532</dc:date>
    <dc:format>image/svg+xml</dc:format>
    <dc:creator>
     <cc:Agent>
      <dc:title>Matplotlib v3.7.1, https://matplotlib.org/</dc:title>
     </cc:Agent>
    </dc:creator>
   </cc:Work>
  </rdf:RDF>
 </metadata>
 <defs>
  <style type="text/css">*{stroke-linejoin: round; stroke-linecap: butt}</style>
 </defs>
 <g id="figure_1">
  <g id="patch_1">
   <path d="M -0 806.986054 
L 663.481188 806.986054 
L 663.481188 0 
L -0 0 
z
" style="fill: #ffffff"/>
  </g>
  <g id="axes_1">
   <g id="patch_2">
    <path d="M 112.798188 345.695085 
L 656.281188 345.695085 
L 656.281188 9.429345 
L 112.798188 9.429345 
z
" style="fill: #eaeaf2"/>
   </g>
   <g id="matplotlib.axis_1">
    <g id="xtick_1">
     <g id="line2d_1">
      <path d="M 137.50196 345.695085 
L 137.50196 9.429345 
" clip-path="url(#p85b6d998d5)" style="fill: none; stroke: #ffffff; stroke-width: 2; stroke-linecap: round"/>
     </g>
    </g>
    <g id="xtick_2">
     <g id="line2d_2">
      <path d="M 258.009638 345.695085 
L 258.009638 9.429345 
" clip-path="url(#p85b6d998d5)" style="fill: none; stroke: #ffffff; stroke-width: 2; stroke-linecap: round"/>
     </g>
    </g>
    <g id="xtick_3">
     <g id="line2d_3">
      <path d="M 378.517316 345.695085 
L 378.517316 9.429345 
" clip-path="url(#p85b6d998d5)" style="fill: none; stroke: #ffffff; stroke-width: 2; stroke-linecap: round"/>
     </g>
    </g>
    <g id="xtick_4">
     <g id="line2d_4">
      <path d="M 499.024994 345.695085 
L 499.024994 9.429345 
" clip-path="url(#p85b6d998d5)" style="fill: none; stroke: #ffffff; stroke-width: 2; stroke-linecap: round"/>
     </g>
    </g>
    <g id="xtick_5">
     <g id="line2d_5">
      <path d="M 619.532672 345.695085 
L 619.532672 9.429345 
" clip-path="url(#p85b6d998d5)" style="fill: none; stroke: #ffffff; stroke-width: 2; stroke-linecap: round"/>
     </g>
    </g>
   </g>
   <g id="matplotlib.axis_2">
    <g id="ytick_1">
     <g id="line2d_6">
      <path d="M 112.798188 337.688758 
L 656.281188 337.688758 
" clip-path="url(#p85b6d998d5)" style="fill: none; stroke: #ffffff; stroke-width: 2; stroke-linecap: round"/>
     </g>
     <g id="text_1">
      <!-- −40 -->
      <g style="fill: #262626" transform="translate(48.785438 347.92443) scale(0.286 -0.286)">
       <defs>
        <path id="ArialMT-2212" d="M 3381 1997 
L 356 1997 
L 356 2522 
L 3381 2522 
L 3381 1997 
z
" transform="scale(0.015625)"/>
        <path id="ArialMT-34" d="M 2069 0 
L 2069 1097 
L 81 1097 
L 81 1613 
L 2172 4581 
L 2631 4581 
L 2631 1613 
L 3250 1613 
L 3250 1097 
L 2631 1097 
L 2631 0 
L 2069 0 
z
M 2069 1613 
L 2069 3678 
L 634 1613 
L 2069 1613 
z
" transform="scale(0.015625)"/>
        <path id="ArialMT-30" d="M 266 2259 
Q 266 3072 433 3567 
Q 600 4063 929 4331 
Q 1259 4600 1759 4600 
Q 2128 4600 2406 4451 
Q 2684 4303 2865 4023 
Q 3047 3744 3150 3342 
Q 3253 2941 3253 2259 
Q 3253 1453 3087 958 
Q 2922 463 2592 192 
Q 2263 -78 1759 -78 
Q 1097 -78 719 397 
Q 266 969 266 2259 
z
M 844 2259 
Q 844 1131 1108 757 
Q 1372 384 1759 384 
Q 2147 384 2411 759 
Q 2675 1134 2675 2259 
Q 2675 3391 2411 3762 
Q 2147 4134 1753 4134 
Q 1366 4134 1134 3806 
Q 844 3388 844 2259 
z
" transform="scale(0.015625)"/>
       </defs>
       <use xlink:href="#ArialMT-2212"/>
       <use xlink:href="#ArialMT-34" x="58.398438"/>
       <use xlink:href="#ArialMT-30" x="114.013672"/>
      </g>
     </g>
    </g>
    <g id="ytick_2">
     <g id="line2d_7">
      <path d="M 112.798188 257.625486 
L 656.281188 257.625486 
" clip-path="url(#p85b6d998d5)" style="fill: none; stroke: #ffffff; stroke-width: 2; stroke-linecap: round"/>
     </g>
     <g id="text_2">
      <!-- −20 -->
      <g style="fill: #262626" transform="translate(48.785438 267.861158) scale(0.286 -0.286)">
       <defs>
        <path id="ArialMT-32" d="M 3222 541 
L 3222 0 
L 194 0 
Q 188 203 259 391 
Q 375 700 629 1000 
Q 884 1300 1366 1694 
Q 2113 2306 2375 2664 
Q 2638 3022 2638 3341 
Q 2638 3675 2398 3904 
Q 2159 4134 1775 4134 
Q 1369 4134 1125 3890 
Q 881 3647 878 3216 
L 300 3275 
Q 359 3922 746 4261 
Q 1134 4600 1788 4600 
Q 2447 4600 2831 4234 
Q 3216 3869 3216 3328 
Q 3216 3053 3103 2787 
Q 2991 2522 2730 2228 
Q 2469 1934 1863 1422 
Q 1356 997 1212 845 
Q 1069 694 975 541 
L 3222 541 
z
" transform="scale(0.015625)"/>
       </defs>
       <use xlink:href="#ArialMT-2212"/>
       <use xlink:href="#ArialMT-32" x="58.398438"/>
       <use xlink:href="#ArialMT-30" x="114.013672"/>
      </g>
     </g>
    </g>
    <g id="ytick_3">
     <g id="line2d_8">
      <path d="M 112.798188 177.562215 
L 656.281188 177.562215 
" clip-path="url(#p85b6d998d5)" style="fill: none; stroke: #ffffff; stroke-width: 2; stroke-linecap: round"/>
     </g>
     <g id="text_3">
      <!-- 0 -->
      <g style="fill: #262626" transform="translate(81.393906 187.797887) scale(0.286 -0.286)">
       <use xlink:href="#ArialMT-30"/>
      </g>
     </g>
    </g>
    <g id="ytick_4">
     <g id="line2d_9">
      <path d="M 112.798188 97.498943 
L 656.281188 97.498943 
" clip-path="url(#p85b6d998d5)" style="fill: none; stroke: #ffffff; stroke-width: 2; stroke-linecap: round"/>
     </g>
     <g id="text_4">
      <!-- 20 -->
      <g style="fill: #262626" transform="translate(65.489625 107.734615) scale(0.286 -0.286)">
       <use xlink:href="#ArialMT-32"/>
       <use xlink:href="#ArialMT-30" x="55.615234"/>
      </g>
     </g>
    </g>
    <g id="ytick_5">
     <g id="line2d_10">
      <path d="M 112.798188 17.435672 
L 656.281188 17.435672 
" clip-path="url(#p85b6d998d5)" style="fill: none; stroke: #ffffff; stroke-width: 2; stroke-linecap: round"/>
     </g>
     <g id="text_5">
      <!-- 40 -->
      <g style="fill: #262626" transform="translate(65.489625 27.671344) scale(0.286 -0.286)">
       <use xlink:href="#ArialMT-34"/>
       <use xlink:href="#ArialMT-30" x="55.615234"/>
      </g>
     </g>
    </g>
    <g id="text_6">
     <!-- G(t) [mT/m] -->
     <g style="fill: #262626" transform="translate(38.218812 257.270902) rotate(-90) scale(0.312 -0.312)">
      <defs>
       <path id="ArialMT-47" d="M 2638 1797 
L 2638 2334 
L 4578 2338 
L 4578 638 
Q 4131 281 3656 101 
Q 3181 -78 2681 -78 
Q 2006 -78 1454 211 
Q 903 500 622 1047 
Q 341 1594 341 2269 
Q 341 2938 620 3517 
Q 900 4097 1425 4378 
Q 1950 4659 2634 4659 
Q 3131 4659 3532 4498 
Q 3934 4338 4162 4050 
Q 4391 3763 4509 3300 
L 3963 3150 
Q 3859 3500 3706 3700 
Q 3553 3900 3268 4020 
Q 2984 4141 2638 4141 
Q 2222 4141 1919 4014 
Q 1616 3888 1430 3681 
Q 1244 3475 1141 3228 
Q 966 2803 966 2306 
Q 966 1694 1177 1281 
Q 1388 869 1791 669 
Q 2194 469 2647 469 
Q 3041 469 3416 620 
Q 3791 772 3984 944 
L 3984 1797 
L 2638 1797 
z
" transform="scale(0.015625)"/>
       <path id="ArialMT-28" d="M 1497 -1347 
Q 1031 -759 709 28 
Q 388 816 388 1659 
Q 388 2403 628 3084 
Q 909 3875 1497 4659 
L 1900 4659 
Q 1522 4009 1400 3731 
Q 1209 3300 1100 2831 
Q 966 2247 966 1656 
Q 966 153 1900 -1347 
L 1497 -1347 
z
" transform="scale(0.015625)"/>
       <path id="ArialMT-74" d="M 1650 503 
L 1731 6 
Q 1494 -44 1306 -44 
Q 1000 -44 831 53 
Q 663 150 594 308 
Q 525 466 525 972 
L 525 2881 
L 113 2881 
L 113 3319 
L 525 3319 
L 525 4141 
L 1084 4478 
L 1084 3319 
L 1650 3319 
L 1650 2881 
L 1084 2881 
L 1084 941 
Q 1084 700 1114 631 
Q 1144 563 1211 522 
Q 1278 481 1403 481 
Q 1497 481 1650 503 
z
" transform="scale(0.015625)"/>
       <path id="ArialMT-29" d="M 791 -1347 
L 388 -1347 
Q 1322 153 1322 1656 
Q 1322 2244 1188 2822 
Q 1081 3291 891 3722 
Q 769 4003 388 4659 
L 791 4659 
Q 1378 3875 1659 3084 
Q 1900 2403 1900 1659 
Q 1900 816 1576 28 
Q 1253 -759 791 -1347 
z
" transform="scale(0.015625)"/>
       <path id="ArialMT-20" transform="scale(0.015625)"/>
       <path id="ArialMT-5b" d="M 434 -1272 
L 434 4581 
L 1675 4581 
L 1675 4116 
L 997 4116 
L 997 -806 
L 1675 -806 
L 1675 -1272 
L 434 -1272 
z
" transform="scale(0.015625)"/>
       <path id="ArialMT-6d" d="M 422 0 
L 422 3319 
L 925 3319 
L 925 2853 
Q 1081 3097 1340 3245 
Q 1600 3394 1931 3394 
Q 2300 3394 2536 3241 
Q 2772 3088 2869 2813 
Q 3263 3394 3894 3394 
Q 4388 3394 4653 3120 
Q 4919 2847 4919 2278 
L 4919 0 
L 4359 0 
L 4359 2091 
Q 4359 2428 4304 2576 
Q 4250 2725 4106 2815 
Q 3963 2906 3769 2906 
Q 3419 2906 3187 2673 
Q 2956 2441 2956 1928 
L 2956 0 
L 2394 0 
L 2394 2156 
Q 2394 2531 2256 2718 
Q 2119 2906 1806 2906 
Q 1569 2906 1367 2781 
Q 1166 2656 1075 2415 
Q 984 2175 984 1722 
L 984 0 
L 422 0 
z
" transform="scale(0.015625)"/>
       <path id="ArialMT-54" d="M 1659 0 
L 1659 4041 
L 150 4041 
L 150 4581 
L 3781 4581 
L 3781 4041 
L 2266 4041 
L 2266 0 
L 1659 0 
z
" transform="scale(0.015625)"/>
       <path id="ArialMT-2f" d="M 0 -78 
L 1328 4659 
L 1778 4659 
L 453 -78 
L 0 -78 
z
" transform="scale(0.015625)"/>
       <path id="ArialMT-5d" d="M 1363 -1272 
L 122 -1272 
L 122 -806 
L 800 -806 
L 800 4116 
L 122 4116 
L 122 4581 
L 1363 4581 
L 1363 -1272 
z
" transform="scale(0.015625)"/>
      </defs>
      <use xlink:href="#ArialMT-47"/>
      <use xlink:href="#ArialMT-28" x="77.783203"/>
      <use xlink:href="#ArialMT-74" x="111.083984"/>
      <use xlink:href="#ArialMT-29" x="138.867188"/>
      <use xlink:href="#ArialMT-20" x="172.167969"/>
      <use xlink:href="#ArialMT-5b" x="199.951172"/>
      <use xlink:href="#ArialMT-6d" x="227.734375"/>
      <use xlink:href="#ArialMT-54" x="311.035156"/>
      <use xlink:href="#ArialMT-2f" x="372.119141"/>
      <use xlink:href="#ArialMT-6d" x="399.902344"/>
      <use xlink:href="#ArialMT-5d" x="483.203125"/>
     </g>
    </g>
   </g>
   <g id="line2d_11">
    <path d="M 137.50196 177.562215 
L 168.213342 177.562215 
L 168.351926 172.148857 
L 168.394103 172.148857 
L 168.520637 165.652819 
L 168.574865 165.652819 
L 168.701398 159.15679 
L 168.755627 159.15679 
L 168.88216 152.660752 
L 168.936388 152.660752 
L 169.062921 146.164722 
L 169.11715 146.164722 
L 169.243683 139.668685 
L 169.297911 139.668685 
L 169.424444 133.172647 
L 169.478673 133.172647 
L 169.605206 126.676618 
L 169.659434 126.676618 
L 169.785967 120.18058 
L 169.840196 120.18058 
L 169.966729 113.68455 
L 170.020957 113.68455 
L 170.14749 107.188513 
L 170.201719 107.188513 
L 170.328252 100.692475 
L 170.38248 100.692475 
L 170.509013 94.196446 
L 170.563242 94.196446 
L 170.689775 87.700408 
L 170.744003 87.700408 
L 170.870536 81.204378 
L 170.924765 81.204378 
L 171.051298 74.708341 
L 171.105526 74.708341 
L 171.232059 68.212303 
L 171.286288 68.212303 
L 171.412821 61.716273 
L 171.467049 61.716273 
L 171.593582 55.220236 
L 171.647811 55.220236 
L 171.774344 48.724206 
L 171.828572 48.724206 
L 171.955105 42.228169 
L 172.009334 42.228169 
L 172.135867 35.732131 
L 172.190095 35.732131 
L 172.304578 34.649459 
L 224.36992 34.649459 
L 224.508504 40.062817 
L 224.550681 40.062817 
L 224.677215 46.558855 
L 224.731443 46.558855 
L 224.857976 53.054885 
L 224.912204 53.054885 
L 225.038738 59.550922 
L 225.092966 59.550922 
L 225.219499 66.046952 
L 225.273728 66.046952 
L 225.400261 72.542989 
L 225.454489 72.542989 
L 225.581022 79.039027 
L 225.635251 79.039027 
L 225.761784 85.535057 
L 225.816012 85.535057 
L 225.942545 92.031094 
L 225.996774 92.031094 
L 226.123307 98.527124 
L 226.177535 98.527124 
L 226.304068 105.023162 
L 226.358297 105.023162 
L 226.48483 111.519199 
L 226.539058 111.519199 
L 226.665591 118.015229 
L 226.71982 118.015229 
L 226.846353 124.511266 
L 226.900581 124.511266 
L 227.027114 131.007296 
L 227.081343 131.007296 
L 227.207876 137.503334 
L 227.262104 137.503334 
L 227.388637 143.999371 
L 227.442866 143.999371 
L 227.569399 150.495401 
L 227.623627 150.495401 
L 227.75016 156.991438 
L 227.804389 156.991438 
L 227.930922 163.487468 
L 227.98515 163.487468 
L 228.111683 169.983506 
L 228.165912 169.983506 
L 228.292445 176.479543 
L 228.346673 176.479543 
L 228.473206 182.975573 
L 228.527435 182.975573 
L 228.653968 189.47161 
L 228.708196 189.47161 
L 228.834729 195.96764 
L 228.888958 195.96764 
L 229.015491 202.463678 
L 229.069719 202.463678 
L 229.196252 208.959707 
L 229.250481 208.959707 
L 229.377014 215.455745 
L 229.431242 215.455745 
L 229.557775 221.951783 
L 229.612004 221.951783 
L 229.738537 228.447812 
L 229.792765 228.447812 
L 229.919299 234.94385 
L 229.973527 234.94385 
L 230.10006 241.439879 
L 230.154288 241.439879 
L 230.280822 247.935917 
L 230.33505 247.935917 
L 230.461583 254.431955 
L 230.515812 254.431955 
L 230.642345 260.927984 
L 230.696573 260.927984 
L 230.823106 267.424022 
L 230.877335 267.424022 
L 231.003868 273.920051 
L 231.058096 273.920051 
L 231.184629 280.416089 
L 231.238858 280.416089 
L 231.365391 286.912127 
L 231.419619 286.912127 
L 231.546152 293.408156 
L 231.600381 293.408156 
L 231.726914 299.904194 
L 231.781142 299.904194 
L 231.907675 306.400223 
L 231.961904 306.400223 
L 232.088437 312.896261 
L 232.142665 312.896261 
L 232.269198 319.392291 
L 232.323427 319.392291 
L 232.437909 320.47497 
L 345.118613 320.47497 
L 345.257197 315.061612 
L 345.299375 315.061612 
L 345.425908 308.565575 
L 345.480136 308.565575 
L 345.606669 302.069545 
L 345.660898 302.069545 
L 345.787431 295.573507 
L 345.841659 295.573507 
L 345.968192 289.077478 
L 346.022421 289.077478 
L 346.148954 282.58144 
L 346.203182 282.58144 
L 346.329715 276.085403 
L 346.383944 276.085403 
L 346.510477 269.589373 
L 346.564705 269.589373 
L 346.691239 263.093335 
L 346.745467 263.093335 
L 346.872 256.597306 
L 346.926228 256.597306 
L 347.052762 250.101268 
L 347.10699 250.101268 
L 347.233523 243.605231 
L 347.287752 243.605231 
L 347.414285 237.109201 
L 347.468513 237.109201 
L 347.595046 230.613163 
L 347.649275 230.613163 
L 347.775808 224.117134 
L 347.830036 224.117134 
L 347.956569 217.621096 
L 348.010798 217.621096 
L 348.137331 211.125059 
L 348.191559 211.125059 
L 348.318092 204.629029 
L 348.372321 204.629029 
L 348.498854 198.132991 
L 348.553082 198.132991 
L 348.679615 191.636962 
L 348.733844 191.636962 
L 348.860377 185.140924 
L 348.914605 185.140924 
L 349.041138 178.644886 
L 349.095367 178.644886 
L 349.209849 177.562215 
L 396.936915 177.562215 
L 397.075499 182.975573 
L 397.117676 182.975573 
L 397.244209 189.47161 
L 397.298438 189.47161 
L 397.424971 195.96764 
L 397.479199 195.96764 
L 397.605732 202.463678 
L 397.659961 202.463678 
L 397.786494 208.959707 
L 397.840722 208.959707 
L 397.967256 215.455745 
L 398.021484 215.455745 
L 398.148017 221.951783 
L 398.202245 221.951783 
L 398.328779 228.447812 
L 398.383007 228.447812 
L 398.50954 234.94385 
L 398.563769 234.94385 
L 398.690302 241.439879 
L 398.74453 241.439879 
L 398.871063 247.935917 
L 398.925292 247.935917 
L 399.051825 254.431955 
L 399.106053 254.431955 
L 399.232586 260.927984 
L 399.286815 260.927984 
L 399.413348 267.424022 
L 399.467576 267.424022 
L 399.594109 273.920051 
L 399.648338 273.920051 
L 399.774871 280.416089 
L 399.829099 280.416089 
L 399.955632 286.912127 
L 400.009861 286.912127 
L 400.136394 293.408156 
L 400.190622 293.408156 
L 400.317155 299.904194 
L 400.371384 299.904194 
L 400.497917 306.400223 
L 400.552145 306.400223 
L 400.678678 312.896261 
L 400.732907 312.896261 
L 400.85944 319.392299 
L 400.913668 319.392299 
L 401.028151 320.47497 
L 513.708855 320.47497 
L 513.847439 315.061612 
L 513.889616 315.061612 
L 514.016149 308.565575 
L 514.070378 308.565575 
L 514.196911 302.069545 
L 514.251139 302.069545 
L 514.377673 295.573507 
L 514.431901 295.573507 
L 514.558434 289.077478 
L 514.612662 289.077478 
L 514.739196 282.58144 
L 514.793424 282.58144 
L 514.919957 276.085403 
L 514.974186 276.085403 
L 515.100719 269.589373 
L 515.154947 269.589373 
L 515.28148 263.093335 
L 515.335709 263.093335 
L 515.462242 256.597306 
L 515.51647 256.597306 
L 515.643003 250.101268 
L 515.697232 250.101268 
L 515.823765 243.605231 
L 515.877993 243.605231 
L 516.004526 237.109201 
L 516.058755 237.109201 
L 516.185288 230.613163 
L 516.239516 230.613163 
L 516.366049 224.117134 
L 516.420278 224.117134 
L 516.546811 217.621096 
L 516.601039 217.621096 
L 516.727572 211.125059 
L 516.781801 211.125059 
L 516.908334 204.629029 
L 516.962562 204.629029 
L 517.089095 198.132991 
L 517.143324 198.132991 
L 517.269857 191.636962 
L 517.324085 191.636962 
L 517.450618 185.140924 
L 517.504847 185.140924 
L 517.63138 178.644886 
L 517.685608 178.644886 
L 517.812141 172.148857 
L 517.86637 172.148857 
L 517.992903 165.652819 
L 518.047131 165.652819 
L 518.173664 159.15679 
L 518.227893 159.15679 
L 518.354426 152.660752 
L 518.408654 152.660752 
L 518.535187 146.164722 
L 518.589416 146.164722 
L 518.715949 139.668685 
L 518.770177 139.668685 
L 518.89671 133.172647 
L 518.950939 133.172647 
L 519.077472 126.676618 
L 519.1317 126.676618 
L 519.258233 120.18058 
L 519.312462 120.18058 
L 519.438995 113.68455 
L 519.493223 113.68455 
L 519.619756 107.188513 
L 519.673985 107.188513 
L 519.800518 100.692475 
L 519.854746 100.692475 
L 519.98128 94.196446 
L 520.035508 94.196446 
L 520.162041 87.700408 
L 520.21627 87.700408 
L 520.342803 81.204378 
L 520.397031 81.204378 
L 520.523564 74.708341 
L 520.577793 74.708341 
L 520.704326 68.212303 
L 520.758554 68.212303 
L 520.885087 61.716273 
L 520.939316 61.716273 
L 521.065849 55.220236 
L 521.120077 55.220236 
L 521.24661 48.724206 
L 521.300839 48.724206 
L 521.427372 42.228169 
L 521.4816 42.228169 
L 521.608133 35.732139 
L 521.662362 35.732139 
L 521.776844 34.649459 
L 573.842186 34.649459 
L 573.98077 40.062817 
L 574.022948 40.062817 
L 574.149481 46.558855 
L 574.203709 46.558855 
L 574.330242 53.054885 
L 574.384471 53.054885 
L 574.511004 59.550922 
L 574.565232 59.550922 
L 574.691765 66.046952 
L 574.745994 66.046952 
L 574.872527 72.542989 
L 574.926755 72.542989 
L 575.053288 79.039027 
L 575.107517 79.039027 
L 575.23405 85.535057 
L 575.288278 85.535057 
L 575.414811 92.031094 
L 575.46904 92.031094 
L 575.595573 98.527124 
L 575.649801 98.527124 
L 575.776334 105.023162 
L 575.830563 105.023162 
L 575.957096 111.519199 
L 576.011324 111.519199 
L 576.137857 118.015229 
L 576.192086 118.015229 
L 576.318619 124.511266 
L 576.372847 124.511266 
L 576.499381 131.007296 
L 576.553609 131.007296 
L 576.680142 137.503334 
L 576.734371 137.503334 
L 576.860904 143.999371 
L 576.915132 143.999371 
L 577.041665 150.495401 
L 577.095894 150.495401 
L 577.222427 156.991438 
L 577.276655 156.991438 
L 577.403188 163.487468 
L 577.457417 163.487468 
L 577.58395 169.983506 
L 577.638178 169.983506 
L 577.764711 176.479543 
L 577.812914 176.479543 
L 577.927397 177.562215 
L 631.577415 177.562215 
L 631.577415 177.562215 
" clip-path="url(#p85b6d998d5)" style="fill: none; stroke: #808080; stroke-width: 5; stroke-linecap: round"/>
   </g>
   <g id="line2d_12">
    <path d="M 112.798188 177.562215 
L 656.281188 177.562215 
" clip-path="url(#p85b6d998d5)" style="fill: none; stroke: #000000; stroke-width: 3; stroke-linecap: round"/>
   </g>
   <g id="patch_3">
    <path d="M 112.798188 345.695085 
L 112.798188 9.429345 
" style="fill: none; stroke: #ffffff; stroke-width: 2.5; stroke-linejoin: miter; stroke-linecap: square"/>
   </g>
   <g id="patch_4">
    <path d="M 656.281188 345.695085 
L 656.281188 9.429345 
" style="fill: none; stroke: #ffffff; stroke-width: 2.5; stroke-linejoin: miter; stroke-linecap: square"/>
   </g>
   <g id="patch_5">
    <path d="M 112.798188 345.695085 
L 656.281188 345.695085 
" style="fill: none; stroke: #ffffff; stroke-width: 2.5; stroke-linejoin: miter; stroke-linecap: square"/>
   </g>
   <g id="patch_6">
    <path d="M 112.798188 9.429345 
L 656.281188 9.429345 
" style="fill: none; stroke: #ffffff; stroke-width: 2.5; stroke-linejoin: miter; stroke-linecap: square"/>
   </g>
   <g id="text_7">
    <g id="patch_7">
     <path d="M 433.726698 324.568511 
L 639.976698 324.568511 
Q 652.476698 324.568511 652.476698 312.068511 
L 652.476698 288.818511 
Q 652.476698 276.318511 639.976698 276.318511 
L 433.726698 276.318511 
Q 421.226698 276.318511 421.226698 288.818511 
L 421.226698 312.068511 
Q 421.226698 324.568511 433.726698 324.568511 
z
" style="fill: #eaeaf2; opacity: 0.9; stroke: #d3d3d3; stroke-width: 2; stroke-linejoin: miter"/>
    </g>
    <!-- $G_{max}$ = 35.7 mT/m -->
    <g style="fill: #262626" transform="translate(433.726698 307.099761) scale(0.25 -0.25)">
     <defs>
      <path id="DejaVuSans-Oblique-47" d="M 3494 697 
L 3738 1919 
L 2700 1919 
L 2797 2438 
L 4453 2438 
L 4050 384 
Q 3634 156 3143 32 
Q 2653 -91 2156 -91 
Q 1278 -91 783 396 
Q 288 884 288 1753 
Q 288 2475 589 3126 
Q 891 3778 1422 4213 
Q 1756 4484 2153 4617 
Q 2550 4750 3034 4750 
Q 3472 4750 3873 4639 
Q 4275 4528 4641 4306 
L 4513 3634 
Q 4231 3928 3853 4083 
Q 3475 4238 3047 4238 
Q 2550 4238 2172 4048 
Q 1794 3859 1497 3463 
Q 1244 3125 1098 2667 
Q 953 2209 953 1734 
Q 953 1081 1287 751 
Q 1622 422 2284 422 
Q 2616 422 2925 492 
Q 3234 563 3494 697 
z
" transform="scale(0.015625)"/>
      <path id="DejaVuSans-Oblique-6d" d="M 5747 2113 
L 5338 0 
L 4763 0 
L 5166 2094 
Q 5191 2228 5203 2325 
Q 5216 2422 5216 2491 
Q 5216 2772 5059 2928 
Q 4903 3084 4622 3084 
Q 4203 3084 3875 2770 
Q 3547 2456 3450 1953 
L 3066 0 
L 2491 0 
L 2900 2094 
Q 2925 2209 2937 2307 
Q 2950 2406 2950 2484 
Q 2950 2769 2794 2926 
Q 2638 3084 2363 3084 
Q 1938 3084 1609 2770 
Q 1281 2456 1184 1953 
L 800 0 
L 225 0 
L 909 3500 
L 1484 3500 
L 1375 2956 
Q 1609 3263 1923 3423 
Q 2238 3584 2597 3584 
Q 2978 3584 3223 3384 
Q 3469 3184 3519 2828 
Q 3781 3197 4126 3390 
Q 4472 3584 4856 3584 
Q 5306 3584 5551 3325 
Q 5797 3066 5797 2591 
Q 5797 2488 5784 2364 
Q 5772 2241 5747 2113 
z
" transform="scale(0.015625)"/>
      <path id="DejaVuSans-Oblique-61" d="M 3438 1997 
L 3047 0 
L 2472 0 
L 2578 531 
Q 2325 219 2001 64 
Q 1678 -91 1281 -91 
Q 834 -91 548 182 
Q 263 456 263 884 
Q 263 1497 752 1853 
Q 1241 2209 2100 2209 
L 2900 2209 
L 2931 2363 
Q 2938 2388 2941 2417 
Q 2944 2447 2944 2509 
Q 2944 2788 2717 2942 
Q 2491 3097 2081 3097 
Q 1800 3097 1504 3025 
Q 1209 2953 897 2809 
L 997 3341 
Q 1322 3463 1633 3523 
Q 1944 3584 2234 3584 
Q 2853 3584 3176 3315 
Q 3500 3047 3500 2534 
Q 3500 2431 3484 2292 
Q 3469 2153 3438 1997 
z
M 2816 1759 
L 2241 1759 
Q 1534 1759 1195 1570 
Q 856 1381 856 984 
Q 856 709 1029 553 
Q 1203 397 1509 397 
Q 1978 397 2328 733 
Q 2678 1069 2791 1631 
L 2816 1759 
z
" transform="scale(0.015625)"/>
      <path id="DejaVuSans-Oblique-78" d="M 3841 3500 
L 2234 1784 
L 3219 0 
L 2559 0 
L 1819 1388 
L 531 0 
L -166 0 
L 1556 1844 
L 641 3500 
L 1300 3500 
L 1972 2234 
L 3144 3500 
L 3841 3500 
z
" transform="scale(0.015625)"/>
      <path id="ArialMT-3d" d="M 3381 2694 
L 356 2694 
L 356 3219 
L 3381 3219 
L 3381 2694 
z
M 3381 1303 
L 356 1303 
L 356 1828 
L 3381 1828 
L 3381 1303 
z
" transform="scale(0.015625)"/>
      <path id="ArialMT-33" d="M 269 1209 
L 831 1284 
Q 928 806 1161 595 
Q 1394 384 1728 384 
Q 2125 384 2398 659 
Q 2672 934 2672 1341 
Q 2672 1728 2419 1979 
Q 2166 2231 1775 2231 
Q 1616 2231 1378 2169 
L 1441 2663 
Q 1497 2656 1531 2656 
Q 1891 2656 2178 2843 
Q 2466 3031 2466 3422 
Q 2466 3731 2256 3934 
Q 2047 4138 1716 4138 
Q 1388 4138 1169 3931 
Q 950 3725 888 3313 
L 325 3413 
Q 428 3978 793 4289 
Q 1159 4600 1703 4600 
Q 2078 4600 2393 4439 
Q 2709 4278 2876 4000 
Q 3044 3722 3044 3409 
Q 3044 3113 2884 2869 
Q 2725 2625 2413 2481 
Q 2819 2388 3044 2092 
Q 3269 1797 3269 1353 
Q 3269 753 2831 336 
Q 2394 -81 1725 -81 
Q 1122 -81 723 278 
Q 325 638 269 1209 
z
" transform="scale(0.015625)"/>
      <path id="ArialMT-35" d="M 266 1200 
L 856 1250 
Q 922 819 1161 601 
Q 1400 384 1738 384 
Q 2144 384 2425 690 
Q 2706 997 2706 1503 
Q 2706 1984 2436 2262 
Q 2166 2541 1728 2541 
Q 1456 2541 1237 2417 
Q 1019 2294 894 2097 
L 366 2166 
L 809 4519 
L 3088 4519 
L 3088 3981 
L 1259 3981 
L 1013 2750 
Q 1425 3038 1878 3038 
Q 2478 3038 2890 2622 
Q 3303 2206 3303 1553 
Q 3303 931 2941 478 
Q 2500 -78 1738 -78 
Q 1113 -78 717 272 
Q 322 622 266 1200 
z
" transform="scale(0.015625)"/>
      <path id="ArialMT-2e" d="M 581 0 
L 581 641 
L 1222 641 
L 1222 0 
L 581 0 
z
" transform="scale(0.015625)"/>
      <path id="ArialMT-37" d="M 303 3981 
L 303 4522 
L 3269 4522 
L 3269 4084 
Q 2831 3619 2401 2847 
Q 1972 2075 1738 1259 
Q 1569 684 1522 0 
L 944 0 
Q 953 541 1156 1306 
Q 1359 2072 1739 2783 
Q 2119 3494 2547 3981 
L 303 3981 
z
" transform="scale(0.015625)"/>
     </defs>
     <use xlink:href="#DejaVuSans-Oblique-47" transform="translate(0 0.78125)"/>
     <use xlink:href="#DejaVuSans-Oblique-6d" transform="translate(77.490234 -15.625) scale(0.7)"/>
     <use xlink:href="#DejaVuSans-Oblique-61" transform="translate(145.678711 -15.625) scale(0.7)"/>
     <use xlink:href="#DejaVuSans-Oblique-78" transform="translate(188.574219 -15.625) scale(0.7)"/>
     <use xlink:href="#ArialMT-20" transform="translate(232.734375 0.78125)"/>
     <use xlink:href="#ArialMT-3d" transform="translate(260.517578 0.78125)"/>
     <use xlink:href="#ArialMT-20" transform="translate(318.916016 0.78125)"/>
     <use xlink:href="#ArialMT-33" transform="translate(346.699219 0.78125)"/>
     <use xlink:href="#ArialMT-35" transform="translate(402.314453 0.78125)"/>
     <use xlink:href="#ArialMT-2e" transform="translate(457.929688 0.78125)"/>
     <use xlink:href="#ArialMT-37" transform="translate(485.712891 0.78125)"/>
     <use xlink:href="#ArialMT-20" transform="translate(541.328125 0.78125)"/>
     <use xlink:href="#ArialMT-6d" transform="translate(569.111328 0.78125)"/>
     <use xlink:href="#ArialMT-54" transform="translate(652.412109 0.78125)"/>
     <use xlink:href="#ArialMT-2f" transform="translate(713.496094 0.78125)"/>
     <use xlink:href="#ArialMT-6d" transform="translate(741.279297 0.78125)"/>
    </g>
   </g>
  </g>
  <g id="axes_2">
   <g id="patch_8">
    <path d="M 112.798188 725.597085 
L 656.281188 725.597085 
L 656.281188 389.331345 
L 112.798188 389.331345 
z
" style="fill: #eaeaf2"/>
   </g>
   <g id="matplotlib.axis_3">
    <g id="xtick_6">
     <g id="line2d_13">
      <path d="M 137.50196 725.597085 
L 137.50196 389.331345 
" clip-path="url(#p6e5e7af240)" style="fill: none; stroke: #ffffff; stroke-width: 2; stroke-linecap: round"/>
     </g>
     <g id="text_8">
      <!-- 0 -->
      <g style="fill: #262626" transform="translate(129.54982 761.568429) scale(0.286 -0.286)">
       <use xlink:href="#ArialMT-30"/>
      </g>
     </g>
    </g>
    <g id="xtick_7">
     <g id="line2d_14">
      <path d="M 258.009638 725.597085 
L 258.009638 389.331345 
" clip-path="url(#p6e5e7af240)" style="fill: none; stroke: #ffffff; stroke-width: 2; stroke-linecap: round"/>
     </g>
     <g id="text_9">
      <!-- 20 -->
      <g style="fill: #262626" transform="translate(242.105357 761.568429) scale(0.286 -0.286)">
       <use xlink:href="#ArialMT-32"/>
       <use xlink:href="#ArialMT-30" x="55.615234"/>
      </g>
     </g>
    </g>
    <g id="xtick_8">
     <g id="line2d_15">
      <path d="M 378.517316 725.597085 
L 378.517316 389.331345 
" clip-path="url(#p6e5e7af240)" style="fill: none; stroke: #ffffff; stroke-width: 2; stroke-linecap: round"/>
     </g>
     <g id="text_10">
      <!-- 40 -->
      <g style="fill: #262626" transform="translate(362.613035 761.568429) scale(0.286 -0.286)">
       <use xlink:href="#ArialMT-34"/>
       <use xlink:href="#ArialMT-30" x="55.615234"/>
      </g>
     </g>
    </g>
    <g id="xtick_9">
     <g id="line2d_16">
      <path d="M 499.024994 725.597085 
L 499.024994 389.331345 
" clip-path="url(#p6e5e7af240)" style="fill: none; stroke: #ffffff; stroke-width: 2; stroke-linecap: round"/>
     </g>
     <g id="text_11">
      <!-- 60 -->
      <g style="fill: #262626" transform="translate(483.120713 761.568429) scale(0.286 -0.286)">
       <defs>
        <path id="ArialMT-36" d="M 3184 3459 
L 2625 3416 
Q 2550 3747 2413 3897 
Q 2184 4138 1850 4138 
Q 1581 4138 1378 3988 
Q 1113 3794 959 3422 
Q 806 3050 800 2363 
Q 1003 2672 1297 2822 
Q 1591 2972 1913 2972 
Q 2475 2972 2870 2558 
Q 3266 2144 3266 1488 
Q 3266 1056 3080 686 
Q 2894 316 2569 119 
Q 2244 -78 1831 -78 
Q 1128 -78 684 439 
Q 241 956 241 2144 
Q 241 3472 731 4075 
Q 1159 4600 1884 4600 
Q 2425 4600 2770 4297 
Q 3116 3994 3184 3459 
z
M 888 1484 
Q 888 1194 1011 928 
Q 1134 663 1356 523 
Q 1578 384 1822 384 
Q 2178 384 2434 671 
Q 2691 959 2691 1453 
Q 2691 1928 2437 2201 
Q 2184 2475 1800 2475 
Q 1419 2475 1153 2201 
Q 888 1928 888 1484 
z
" transform="scale(0.015625)"/>
       </defs>
       <use xlink:href="#ArialMT-36"/>
       <use xlink:href="#ArialMT-30" x="55.615234"/>
      </g>
     </g>
    </g>
    <g id="xtick_10">
     <g id="line2d_17">
      <path d="M 619.532672 725.597085 
L 619.532672 389.331345 
" clip-path="url(#p6e5e7af240)" style="fill: none; stroke: #ffffff; stroke-width: 2; stroke-linecap: round"/>
     </g>
     <g id="text_12">
      <!-- 80 -->
      <g style="fill: #262626" transform="translate(603.628391 761.568429) scale(0.286 -0.286)">
       <defs>
        <path id="ArialMT-38" d="M 1131 2484 
Q 781 2613 612 2850 
Q 444 3088 444 3419 
Q 444 3919 803 4259 
Q 1163 4600 1759 4600 
Q 2359 4600 2725 4251 
Q 3091 3903 3091 3403 
Q 3091 3084 2923 2848 
Q 2756 2613 2416 2484 
Q 2838 2347 3058 2040 
Q 3278 1734 3278 1309 
Q 3278 722 2862 322 
Q 2447 -78 1769 -78 
Q 1091 -78 675 323 
Q 259 725 259 1325 
Q 259 1772 486 2073 
Q 713 2375 1131 2484 
z
M 1019 3438 
Q 1019 3113 1228 2906 
Q 1438 2700 1772 2700 
Q 2097 2700 2305 2904 
Q 2513 3109 2513 3406 
Q 2513 3716 2298 3927 
Q 2084 4138 1766 4138 
Q 1444 4138 1231 3931 
Q 1019 3725 1019 3438 
z
M 838 1322 
Q 838 1081 952 856 
Q 1066 631 1291 507 
Q 1516 384 1775 384 
Q 2178 384 2440 643 
Q 2703 903 2703 1303 
Q 2703 1709 2433 1975 
Q 2163 2241 1756 2241 
Q 1359 2241 1098 1978 
Q 838 1716 838 1322 
z
" transform="scale(0.015625)"/>
       </defs>
       <use xlink:href="#ArialMT-38"/>
       <use xlink:href="#ArialMT-30" x="55.615234"/>
      </g>
     </g>
    </g>
    <g id="text_13">
     <!-- Time [ms] -->
     <g style="fill: #262626" transform="translate(316.665062 793.585054) scale(0.312 -0.312)">
      <defs>
       <path id="ArialMT-69" d="M 425 3934 
L 425 4581 
L 988 4581 
L 988 3934 
L 425 3934 
z
M 425 0 
L 425 3319 
L 988 3319 
L 988 0 
L 425 0 
z
" transform="scale(0.015625)"/>
       <path id="ArialMT-65" d="M 2694 1069 
L 3275 997 
Q 3138 488 2766 206 
Q 2394 -75 1816 -75 
Q 1088 -75 661 373 
Q 234 822 234 1631 
Q 234 2469 665 2931 
Q 1097 3394 1784 3394 
Q 2450 3394 2872 2941 
Q 3294 2488 3294 1666 
Q 3294 1616 3291 1516 
L 816 1516 
Q 847 969 1125 678 
Q 1403 388 1819 388 
Q 2128 388 2347 550 
Q 2566 713 2694 1069 
z
M 847 1978 
L 2700 1978 
Q 2663 2397 2488 2606 
Q 2219 2931 1791 2931 
Q 1403 2931 1139 2672 
Q 875 2413 847 1978 
z
" transform="scale(0.015625)"/>
       <path id="ArialMT-73" d="M 197 991 
L 753 1078 
Q 800 744 1014 566 
Q 1228 388 1613 388 
Q 2000 388 2187 545 
Q 2375 703 2375 916 
Q 2375 1106 2209 1216 
Q 2094 1291 1634 1406 
Q 1016 1563 777 1677 
Q 538 1791 414 1992 
Q 291 2194 291 2438 
Q 291 2659 392 2848 
Q 494 3038 669 3163 
Q 800 3259 1026 3326 
Q 1253 3394 1513 3394 
Q 1903 3394 2198 3281 
Q 2494 3169 2634 2976 
Q 2775 2784 2828 2463 
L 2278 2388 
Q 2241 2644 2061 2787 
Q 1881 2931 1553 2931 
Q 1166 2931 1000 2803 
Q 834 2675 834 2503 
Q 834 2394 903 2306 
Q 972 2216 1119 2156 
Q 1203 2125 1616 2013 
Q 2213 1853 2448 1751 
Q 2684 1650 2818 1456 
Q 2953 1263 2953 975 
Q 2953 694 2789 445 
Q 2625 197 2315 61 
Q 2006 -75 1616 -75 
Q 969 -75 630 194 
Q 291 463 197 991 
z
" transform="scale(0.015625)"/>
      </defs>
      <use xlink:href="#ArialMT-54"/>
      <use xlink:href="#ArialMT-69" x="57.333984"/>
      <use xlink:href="#ArialMT-6d" x="79.550781"/>
      <use xlink:href="#ArialMT-65" x="162.851562"/>
      <use xlink:href="#ArialMT-20" x="218.466797"/>
      <use xlink:href="#ArialMT-5b" x="246.25"/>
      <use xlink:href="#ArialMT-6d" x="274.033203"/>
      <use xlink:href="#ArialMT-73" x="357.333984"/>
      <use xlink:href="#ArialMT-5d" x="407.333984"/>
     </g>
    </g>
   </g>
   <g id="matplotlib.axis_4">
    <g id="ytick_6">
     <g id="line2d_18">
      <path d="M 112.798188 710.312279 
L 656.281188 710.312279 
" clip-path="url(#p6e5e7af240)" style="fill: none; stroke: #ffffff; stroke-width: 2; stroke-linecap: round"/>
     </g>
     <g id="text_14">
      <!-- −1.0 -->
      <g style="fill: #262626" transform="translate(40.84 720.54795) scale(0.286 -0.286)">
       <defs>
        <path id="ArialMT-31" d="M 2384 0 
L 1822 0 
L 1822 3584 
Q 1619 3391 1289 3197 
Q 959 3003 697 2906 
L 697 3450 
Q 1169 3672 1522 3987 
Q 1875 4303 2022 4600 
L 2384 4600 
L 2384 0 
z
" transform="scale(0.015625)"/>
       </defs>
       <use xlink:href="#ArialMT-2212"/>
       <use xlink:href="#ArialMT-31" x="58.398438"/>
       <use xlink:href="#ArialMT-2e" x="114.013672"/>
       <use xlink:href="#ArialMT-30" x="141.796875"/>
      </g>
     </g>
    </g>
    <g id="ytick_7">
     <g id="line2d_19">
      <path d="M 112.798188 633.888247 
L 656.281188 633.888247 
" clip-path="url(#p6e5e7af240)" style="fill: none; stroke: #ffffff; stroke-width: 2; stroke-linecap: round"/>
     </g>
     <g id="text_15">
      <!-- −0.5 -->
      <g style="fill: #262626" transform="translate(40.84 644.123919) scale(0.286 -0.286)">
       <use xlink:href="#ArialMT-2212"/>
       <use xlink:href="#ArialMT-30" x="58.398438"/>
       <use xlink:href="#ArialMT-2e" x="114.013672"/>
       <use xlink:href="#ArialMT-35" x="141.796875"/>
      </g>
     </g>
    </g>
    <g id="ytick_8">
     <g id="line2d_20">
      <path d="M 112.798188 557.464215 
L 656.281188 557.464215 
" clip-path="url(#p6e5e7af240)" style="fill: none; stroke: #ffffff; stroke-width: 2; stroke-linecap: round"/>
     </g>
     <g id="text_16">
      <!-- 0.0 -->
      <g style="fill: #262626" transform="translate(57.544188 567.699887) scale(0.286 -0.286)">
       <use xlink:href="#ArialMT-30"/>
       <use xlink:href="#ArialMT-2e" x="55.615234"/>
       <use xlink:href="#ArialMT-30" x="83.398438"/>
      </g>
     </g>
    </g>
    <g id="ytick_9">
     <g id="line2d_21">
      <path d="M 112.798188 481.040183 
L 656.281188 481.040183 
" clip-path="url(#p6e5e7af240)" style="fill: none; stroke: #ffffff; stroke-width: 2; stroke-linecap: round"/>
     </g>
     <g id="text_17">
      <!-- 0.5 -->
      <g style="fill: #262626" transform="translate(57.544188 491.275855) scale(0.286 -0.286)">
       <use xlink:href="#ArialMT-30"/>
       <use xlink:href="#ArialMT-2e" x="55.615234"/>
       <use xlink:href="#ArialMT-35" x="83.398438"/>
      </g>
     </g>
    </g>
    <g id="ytick_10">
     <g id="line2d_22">
      <path d="M 112.798188 404.616151 
L 656.281188 404.616151 
" clip-path="url(#p6e5e7af240)" style="fill: none; stroke: #ffffff; stroke-width: 2; stroke-linecap: round"/>
     </g>
     <g id="text_18">
      <!-- 1.0 -->
      <g style="fill: #262626" transform="translate(57.544188 414.851823) scale(0.286 -0.286)">
       <use xlink:href="#ArialMT-31"/>
       <use xlink:href="#ArialMT-2e" x="55.615234"/>
       <use xlink:href="#ArialMT-30" x="83.398438"/>
      </g>
     </g>
    </g>
    <g id="text_19">
     <!-- $M_n$(t) [AU] -->
     <g style="fill: #262626" transform="translate(29.976 627.820215) rotate(-90) scale(0.312 -0.312)">
      <defs>
       <path id="DejaVuSans-Oblique-4d" d="M 1081 4666 
L 2028 4666 
L 2572 1522 
L 4378 4666 
L 5350 4666 
L 4441 0 
L 3828 0 
L 4622 4091 
L 2791 897 
L 2175 897 
L 1581 4103 
L 788 0 
L 172 0 
L 1081 4666 
z
" transform="scale(0.015625)"/>
       <path id="DejaVuSans-Oblique-6e" d="M 3566 2113 
L 3156 0 
L 2578 0 
L 2988 2091 
Q 3016 2238 3031 2350 
Q 3047 2463 3047 2528 
Q 3047 2791 2881 2937 
Q 2716 3084 2419 3084 
Q 1956 3084 1622 2776 
Q 1288 2469 1184 1941 
L 800 0 
L 225 0 
L 903 3500 
L 1478 3500 
L 1363 2950 
Q 1603 3253 1940 3418 
Q 2278 3584 2650 3584 
Q 3113 3584 3367 3334 
Q 3622 3084 3622 2631 
Q 3622 2519 3608 2391 
Q 3594 2263 3566 2113 
z
" transform="scale(0.015625)"/>
       <path id="ArialMT-41" d="M -9 0 
L 1750 4581 
L 2403 4581 
L 4278 0 
L 3588 0 
L 3053 1388 
L 1138 1388 
L 634 0 
L -9 0 
z
M 1313 1881 
L 2866 1881 
L 2388 3150 
Q 2169 3728 2063 4100 
Q 1975 3659 1816 3225 
L 1313 1881 
z
" transform="scale(0.015625)"/>
       <path id="ArialMT-55" d="M 3500 4581 
L 4106 4581 
L 4106 1934 
Q 4106 1244 3950 837 
Q 3794 431 3386 176 
Q 2978 -78 2316 -78 
Q 1672 -78 1262 144 
Q 853 366 678 786 
Q 503 1206 503 1934 
L 503 4581 
L 1109 4581 
L 1109 1938 
Q 1109 1341 1220 1058 
Q 1331 775 1601 622 
Q 1872 469 2263 469 
Q 2931 469 3215 772 
Q 3500 1075 3500 1938 
L 3500 4581 
z
" transform="scale(0.015625)"/>
      </defs>
      <use xlink:href="#DejaVuSans-Oblique-4d" transform="translate(0 0.09375)"/>
      <use xlink:href="#DejaVuSans-Oblique-6e" transform="translate(86.279297 -16.3125) scale(0.7)"/>
      <use xlink:href="#ArialMT-28" transform="translate(133.378906 0.09375)"/>
      <use xlink:href="#ArialMT-74" transform="translate(166.679688 0.09375)"/>
      <use xlink:href="#ArialMT-29" transform="translate(194.462891 0.09375)"/>
      <use xlink:href="#ArialMT-20" transform="translate(227.763672 0.09375)"/>
      <use xlink:href="#ArialMT-5b" transform="translate(255.546875 0.09375)"/>
      <use xlink:href="#ArialMT-41" transform="translate(283.330078 0.09375)"/>
      <use xlink:href="#ArialMT-55" transform="translate(350.029297 0.09375)"/>
      <use xlink:href="#ArialMT-5d" transform="translate(422.246094 0.09375)"/>
     </g>
    </g>
   </g>
   <g id="line2d_23">
    <path d="M 137.50196 557.464215 
L 168.80383 557.353485 
L 169.394317 557.021758 
L 170.045059 556.400199 
L 170.780156 555.375089 
L 171.587557 553.854573 
L 172.629948 551.341176 
L 225.340007 418.725637 
L 226.225738 417.285809 
L 226.972886 416.457986 
L 227.665805 416.006665 
L 228.268343 415.861635 
L 228.84678 415.938984 
L 229.461369 416.253677 
L 230.112111 416.847841 
L 230.847208 417.842103 
L 231.654609 419.328778 
L 232.558417 421.465903 
L 346.0887 707.446089 
L 346.974432 708.885918 
L 347.721579 709.713741 
L 348.414498 710.165061 
L 349.017037 710.310092 
L 350.993363 710.312279 
L 397.527402 710.201549 
L 398.11789 709.869821 
L 398.768632 709.248263 
L 399.503728 708.223153 
L 400.31113 706.702637 
L 401.353521 704.18924 
L 514.678942 418.725637 
L 515.564673 417.285809 
L 516.311821 416.457986 
L 517.00474 416.006665 
L 517.607278 415.861635 
L 518.185715 415.938984 
L 518.800304 416.253677 
L 519.451046 416.847841 
L 520.186143 417.842103 
L 520.993544 419.328778 
L 521.897352 421.465903 
L 574.812273 554.598026 
L 575.698004 556.037854 
L 576.445152 556.865677 
L 577.138071 557.316998 
L 577.74061 557.462028 
L 579.716936 557.4641 
L 631.577415 557.4641 
L 631.577415 557.4641 
" clip-path="url(#p6e5e7af240)" style="fill: none; stroke: #1f77b4; stroke-width: 5; stroke-linecap: round"/>
   </g>
   <g id="line2d_24">
    <path d="M 137.50196 557.464215 
L 170.249922 557.353532 
L 172.159968 557.032094 
L 177.775626 555.639883 
L 183.668452 553.954534 
L 189.591404 552.029031 
L 195.550509 549.857518 
L 201.545766 547.435718 
L 207.5832 544.756536 
L 213.668838 541.811878 
L 219.802679 538.595923 
L 226.267916 535.200936 
L 227.527221 534.929764 
L 228.750374 534.891663 
L 229.937375 535.072792 
L 231.142451 535.482198 
L 232.37163 536.139645 
L 238.668156 540.2235 
L 245.024936 544.612546 
L 251.447995 549.318928 
L 257.931308 554.346296 
L 264.486926 559.712529 
L 271.108823 565.421709 
L 277.803024 571.488142 
L 284.575556 577.9273 
L 291.420392 584.743577 
L 298.343558 591.95321 
L 305.345054 599.566963 
L 312.430906 607.602697 
L 319.601113 616.072277 
L 326.855675 624.98771 
L 334.194592 634.361144 
L 341.617865 644.204868 
L 346.341766 650.399335 
L 347.293777 651.154468 
L 348.185534 651.577284 
L 348.974859 651.72009 
L 352.547912 651.722646 
L 397.64791 651.613212 
L 398.358905 651.284428 
L 399.124129 650.684135 
L 399.967683 649.72446 
L 400.889567 648.316091 
L 407.330702 636.953454 
L 415.62163 621.923139 
L 424.008965 606.25525 
L 432.492705 589.933738 
L 441.072852 572.942366 
L 449.75543 555.252265 
L 458.534415 536.858581 
L 467.41583 517.731359 
L 476.393652 497.866053 
L 485.473906 477.231607 
L 494.656591 455.80956 
L 503.941708 433.58124 
L 513.329256 410.527766 
L 514.690992 407.43792 
L 515.570699 406.025735 
L 516.311821 405.211833 
L 517.010765 404.760208 
L 517.607278 404.618333 
L 518.185715 404.695569 
L 518.800304 405.010215 
L 519.451046 405.605255 
L 520.186143 406.602783 
L 520.987519 408.084714 
L 521.891326 410.235246 
L 531.471687 434.906186 
L 541.154479 460.457993 
L 550.939702 486.910356 
L 560.827357 514.283171 
L 570.823469 542.613818 
L 574.878552 553.904388 
L 575.740182 555.479354 
L 576.481304 556.403327 
L 577.11397 556.875517 
L 577.704457 557.052736 
L 579.457844 557.057523 
L 631.577415 557.057523 
L 631.577415 557.057523 
" clip-path="url(#p6e5e7af240)" style="fill: none; stroke: #ff7f0e; stroke-width: 5; stroke-linecap: round"/>
   </g>
   <g id="line2d_25">
    <path d="M 137.50196 557.464215 
L 175.70892 557.353238 
L 188.458632 556.942493 
L 199.695973 556.361544 
L 209.963227 555.610839 
L 219.531537 554.690564 
L 227.967074 553.88834 
L 230.503761 553.96615 
L 232.99827 554.264143 
L 241.421756 555.61306 
L 249.525898 557.134674 
L 257.364922 558.831709 
L 264.974982 560.70588 
L 272.386204 562.759404 
L 279.62269 564.994566 
L 286.708542 567.415296 
L 293.661835 570.025135 
L 300.500646 572.82905 
L 307.24305 575.833658 
L 313.895074 579.041402 
L 320.468768 582.458207 
L 326.976182 586.091246 
L 333.423343 589.94536 
L 339.822301 594.029885 
L 346.962381 598.602521 
L 348.119255 598.923489 
L 349.227925 599.00935 
L 397.834697 598.898999 
L 398.714403 598.574886 
L 399.648338 597.99384 
L 400.666628 597.077795 
L 402.66103 594.846064 
L 408.909353 587.606235 
L 415.163701 580.01779 
L 421.436126 572.056213 
L 427.726627 563.710486 
L 434.035204 554.969442 
L 440.361857 545.821765 
L 446.712611 536.246721 
L 453.093493 526.221877 
L 459.498476 515.743127 
L 465.933586 504.786794 
L 472.398823 493.338211 
L 478.900212 481.371132 
L 485.437754 468.869034 
L 492.011447 455.815053 
L 498.621294 442.191982 
L 505.267292 427.982264 
L 511.955468 413.154392 
L 514.763297 407.089138 
L 515.636978 405.835102 
L 516.438354 405.069472 
L 517.137298 404.704028 
L 517.745862 404.617213 
L 518.390578 404.762121 
L 519.011193 405.132584 
L 519.728213 405.845547 
L 520.46331 406.895414 
L 521.330966 408.553735 
L 522.777058 411.963103 
L 529.567665 428.476549 
L 536.400451 445.680065 
L 543.281439 463.6109 
L 550.204605 482.275912 
L 557.169949 501.697326 
L 564.183496 521.915489 
L 571.23922 542.93708 
L 574.914705 553.717431 
L 575.740182 555.312993 
L 576.475279 556.292472 
L 577.107944 556.800172 
L 577.692407 556.991927 
L 578.686595 556.998193 
L 631.577415 556.998193 
L 631.577415 556.998193 
" clip-path="url(#p6e5e7af240)" style="fill: none; stroke: #2ca02c; stroke-width: 5; stroke-linecap: round"/>
   </g>
   <g id="line2d_26">
    <path d="M 112.798188 557.464215 
L 656.281188 557.464215 
" clip-path="url(#p6e5e7af240)" style="fill: none; stroke: #000000; stroke-width: 3; stroke-linecap: round"/>
   </g>
   <g id="patch_9">
    <path d="M 112.798188 725.597085 
L 112.798188 389.331345 
" style="fill: none; stroke: #ffffff; stroke-width: 2.5; stroke-linejoin: miter; stroke-linecap: square"/>
   </g>
   <g id="patch_10">
    <path d="M 656.281188 725.597085 
L 656.281188 389.331345 
" style="fill: none; stroke: #ffffff; stroke-width: 2.5; stroke-linejoin: miter; stroke-linecap: square"/>
   </g>
   <g id="patch_11">
    <path d="M 112.798188 725.597085 
L 656.281188 725.597085 
" style="fill: none; stroke: #ffffff; stroke-width: 2.5; stroke-linejoin: miter; stroke-linecap: square"/>
   </g>
   <g id="patch_12">
    <path d="M 112.798188 389.331345 
L 656.281188 389.331345 
" style="fill: none; stroke: #ffffff; stroke-width: 2.5; stroke-linejoin: miter; stroke-linecap: square"/>
   </g>
   <g id="legend_1">
    <g id="patch_13">
     <path d="M 525.281188 713.097085 
L 638.781188 713.097085 
Q 643.781188 713.097085 643.781188 708.097085 
L 643.781188 604.507241 
Q 643.781188 599.507241 638.781188 599.507241 
L 525.281188 599.507241 
Q 520.281188 599.507241 520.281188 604.507241 
L 520.281188 708.097085 
Q 520.281188 713.097085 525.281188 713.097085 
z
" style="fill: #eaeaf2; opacity: 0.8; stroke: #cccccc; stroke-width: 2; stroke-linejoin: miter"/>
    </g>
    <g id="line2d_27">
     <path d="M 530.281188 618.651772 
L 555.281188 618.651772 
L 580.281188 618.651772 
" style="fill: none; stroke: #1f77b4; stroke-width: 5; stroke-linecap: round"/>
    </g>
    <g id="text_20">
     <!-- $M_0$ -->
     <g style="fill: #262626" transform="translate(600.281188 627.401772) scale(0.25 -0.25)">
      <defs>
       <path id="DejaVuSans-30" d="M 2034 4250 
Q 1547 4250 1301 3770 
Q 1056 3291 1056 2328 
Q 1056 1369 1301 889 
Q 1547 409 2034 409 
Q 2525 409 2770 889 
Q 3016 1369 3016 2328 
Q 3016 3291 2770 3770 
Q 2525 4250 2034 4250 
z
M 2034 4750 
Q 2819 4750 3233 4129 
Q 3647 3509 3647 2328 
Q 3647 1150 3233 529 
Q 2819 -91 2034 -91 
Q 1250 -91 836 529 
Q 422 1150 422 2328 
Q 422 3509 836 4129 
Q 1250 4750 2034 4750 
z
" transform="scale(0.015625)"/>
      </defs>
      <use xlink:href="#DejaVuSans-Oblique-4d" transform="translate(0 0.09375)"/>
      <use xlink:href="#DejaVuSans-30" transform="translate(86.279297 -16.3125) scale(0.7)"/>
     </g>
    </g>
    <g id="line2d_28">
     <path d="M 530.281188 654.015054 
L 555.281188 654.015054 
L 580.281188 654.015054 
" style="fill: none; stroke: #ff7f0e; stroke-width: 5; stroke-linecap: round"/>
    </g>
    <g id="text_21">
     <!-- $M_1$ -->
     <g style="fill: #262626" transform="translate(600.281188 662.765054) scale(0.25 -0.25)">
      <defs>
       <path id="DejaVuSans-31" d="M 794 531 
L 1825 531 
L 1825 4091 
L 703 3866 
L 703 4441 
L 1819 4666 
L 2450 4666 
L 2450 531 
L 3481 531 
L 3481 0 
L 794 0 
L 794 531 
z
" transform="scale(0.015625)"/>
      </defs>
      <use xlink:href="#DejaVuSans-Oblique-4d" transform="translate(0 0.09375)"/>
      <use xlink:href="#DejaVuSans-31" transform="translate(86.279297 -16.3125) scale(0.7)"/>
     </g>
    </g>
    <g id="line2d_29">
     <path d="M 530.281188 689.378335 
L 555.281188 689.378335 
L 580.281188 689.378335 
" style="fill: none; stroke: #2ca02c; stroke-width: 5; stroke-linecap: round"/>
    </g>
    <g id="text_22">
     <!-- $M_2$ -->
     <g style="fill: #262626" transform="translate(600.281188 698.128335) scale(0.25 -0.25)">
      <defs>
       <path id="DejaVuSans-32" d="M 1228 531 
L 3431 531 
L 3431 0 
L 469 0 
L 469 531 
Q 828 903 1448 1529 
Q 2069 2156 2228 2338 
Q 2531 2678 2651 2914 
Q 2772 3150 2772 3378 
Q 2772 3750 2511 3984 
Q 2250 4219 1831 4219 
Q 1534 4219 1204 4116 
Q 875 4013 500 3803 
L 500 4441 
Q 881 4594 1212 4672 
Q 1544 4750 1819 4750 
Q 2544 4750 2975 4387 
Q 3406 4025 3406 3419 
Q 3406 3131 3298 2873 
Q 3191 2616 2906 2266 
Q 2828 2175 2409 1742 
Q 1991 1309 1228 531 
z
" transform="scale(0.015625)"/>
      </defs>
      <use xlink:href="#DejaVuSans-Oblique-4d" transform="translate(0 0.09375)"/>
      <use xlink:href="#DejaVuSans-32" transform="translate(86.279297 -16.3125) scale(0.7)"/>
     </g>
    </g>
   </g>
  </g>
 </g>
 <defs>
  <clipPath id="p85b6d998d5">
   <rect x="112.798188" y="9.429345" width="543.483" height="336.26574"/>
  </clipPath>
  <clipPath id="p6e5e7af240">
   <rect x="112.798188" y="389.331345" width="543.483" height="336.26574"/>
  </clipPath>
 </defs>
</svg>
