<?xml version="1.0" encoding="utf-8" standalone="no"?>
<!DOCTYPE svg PUBLIC "-//W3C//DTD SVG 1.1//EN"
  "http://www.w3.org/Graphics/SVG/1.1/DTD/svg11.dtd">
<svg xmlns:xlink="http://www.w3.org/1999/xlink" width="663.481188pt" height="806.986054pt" viewBox="0 0 663.481188 806.986054" xmlns="http://www.w3.org/2000/svg" version="1.1">
 <metadata>
  <rdf:RDF xmlns:dc="http://purl.org/dc/elements/1.1/" xmlns:cc="http://creativecommons.org/ns#" xmlns:rdf="http://www.w3.org/1999/02/22-rdf-syntax-ns#">
   <cc:Work>
    <dc:type rdf:resource="http://purl.org/dc/dcmitype/StillImage"/>
    <dc:date>2024-03-06T08:54:48.944289</dc:date>
    <dc:format>image/svg+xml</dc:format>
    <dc:creator>
     <cc:Agent>
      <dc:title>Matplotlib v3.7.1, https://matplotlib.org/</dc:title>
     </cc:Agent>
    </dc:creator>
   </cc:Work>
  </rdf:RDF>
 </metadata>
 <defs>
  <style type="text/css">*{stroke-linejoin: round; stroke-linecap: butt}</style>
 </defs>
 <g id="figure_1">
  <g id="patch_1">
   <path d="M -0 806.986054 
L 663.481188 806.986054 
L 663.481188 0 
L -0 0 
z
" style="fill: #ffffff"/>
  </g>
  <g id="axes_1">
   <g id="patch_2">
    <path d="M 112.798188 345.695085 
L 656.281188 345.695085 
L 656.281188 9.429345 
L 112.798188 9.429345 
z
" style="fill: #eaeaf2"/>
   </g>
   <g id="matplotlib.axis_1">
    <g id="xtick_1">
     <g id="line2d_1">
      <path d="M 137.50196 345.695085 
L 137.50196 9.429345 
" clip-path="url(#p41fd0b1eb1)" style="fill: none; stroke: #ffffff; stroke-width: 2; stroke-linecap: round"/>
     </g>
    </g>
    <g id="xtick_2">
     <g id="line2d_2">
      <path d="M 230.724624 345.695085 
L 230.724624 9.429345 
" clip-path="url(#p41fd0b1eb1)" style="fill: none; stroke: #ffffff; stroke-width: 2; stroke-linecap: round"/>
     </g>
    </g>
    <g id="xtick_3">
     <g id="line2d_3">
      <path d="M 323.947287 345.695085 
L 323.947287 9.429345 
" clip-path="url(#p41fd0b1eb1)" style="fill: none; stroke: #ffffff; stroke-width: 2; stroke-linecap: round"/>
     </g>
    </g>
    <g id="xtick_4">
     <g id="line2d_4">
      <path d="M 417.16995 345.695085 
L 417.16995 9.429345 
" clip-path="url(#p41fd0b1eb1)" style="fill: none; stroke: #ffffff; stroke-width: 2; stroke-linecap: round"/>
     </g>
    </g>
    <g id="xtick_5">
     <g id="line2d_5">
      <path d="M 510.392614 345.695085 
L 510.392614 9.429345 
" clip-path="url(#p41fd0b1eb1)" style="fill: none; stroke: #ffffff; stroke-width: 2; stroke-linecap: round"/>
     </g>
    </g>
    <g id="xtick_6">
     <g id="line2d_6">
      <path d="M 603.615277 345.695085 
L 603.615277 9.429345 
" clip-path="url(#p41fd0b1eb1)" style="fill: none; stroke: #ffffff; stroke-width: 2; stroke-linecap: round"/>
     </g>
    </g>
   </g>
   <g id="matplotlib.axis_2">
    <g id="ytick_1">
     <g id="line2d_7">
      <path d="M 112.798188 337.688758 
L 656.281188 337.688758 
" clip-path="url(#p41fd0b1eb1)" style="fill: none; stroke: #ffffff; stroke-width: 2; stroke-linecap: round"/>
     </g>
     <g id="text_1">
      <!-- −40 -->
      <g style="fill: #262626" transform="translate(48.785438 347.92443) scale(0.286 -0.286)">
       <defs>
        <path id="ArialMT-2212" d="M 3381 1997 
L 356 1997 
L 356 2522 
L 3381 2522 
L 3381 1997 
z
" transform="scale(0.015625)"/>
        <path id="ArialMT-34" d="M 2069 0 
L 2069 1097 
L 81 1097 
L 81 1613 
L 2172 4581 
L 2631 4581 
L 2631 1613 
L 3250 1613 
L 3250 1097 
L 2631 1097 
L 2631 0 
L 2069 0 
z
M 2069 1613 
L 2069 3678 
L 634 1613 
L 2069 1613 
z
" transform="scale(0.015625)"/>
        <path id="ArialMT-30" d="M 266 2259 
Q 266 3072 433 3567 
Q 600 4063 929 4331 
Q 1259 4600 1759 4600 
Q 2128 4600 2406 4451 
Q 2684 4303 2865 4023 
Q 3047 3744 3150 3342 
Q 3253 2941 3253 2259 
Q 3253 1453 3087 958 
Q 2922 463 2592 192 
Q 2263 -78 1759 -78 
Q 1097 -78 719 397 
Q 266 969 266 2259 
z
M 844 2259 
Q 844 1131 1108 757 
Q 1372 384 1759 384 
Q 2147 384 2411 759 
Q 2675 1134 2675 2259 
Q 2675 3391 2411 3762 
Q 2147 4134 1753 4134 
Q 1366 4134 1134 3806 
Q 844 3388 844 2259 
z
" transform="scale(0.015625)"/>
       </defs>
       <use xlink:href="#ArialMT-2212"/>
       <use xlink:href="#ArialMT-34" x="58.398438"/>
       <use xlink:href="#ArialMT-30" x="114.013672"/>
      </g>
     </g>
    </g>
    <g id="ytick_2">
     <g id="line2d_8">
      <path d="M 112.798188 257.625486 
L 656.281188 257.625486 
" clip-path="url(#p41fd0b1eb1)" style="fill: none; stroke: #ffffff; stroke-width: 2; stroke-linecap: round"/>
     </g>
     <g id="text_2">
      <!-- −20 -->
      <g style="fill: #262626" transform="translate(48.785438 267.861158) scale(0.286 -0.286)">
       <defs>
        <path id="ArialMT-32" d="M 3222 541 
L 3222 0 
L 194 0 
Q 188 203 259 391 
Q 375 700 629 1000 
Q 884 1300 1366 1694 
Q 2113 2306 2375 2664 
Q 2638 3022 2638 3341 
Q 2638 3675 2398 3904 
Q 2159 4134 1775 4134 
Q 1369 4134 1125 3890 
Q 881 3647 878 3216 
L 300 3275 
Q 359 3922 746 4261 
Q 1134 4600 1788 4600 
Q 2447 4600 2831 4234 
Q 3216 3869 3216 3328 
Q 3216 3053 3103 2787 
Q 2991 2522 2730 2228 
Q 2469 1934 1863 1422 
Q 1356 997 1212 845 
Q 1069 694 975 541 
L 3222 541 
z
" transform="scale(0.015625)"/>
       </defs>
       <use xlink:href="#ArialMT-2212"/>
       <use xlink:href="#ArialMT-32" x="58.398438"/>
       <use xlink:href="#ArialMT-30" x="114.013672"/>
      </g>
     </g>
    </g>
    <g id="ytick_3">
     <g id="line2d_9">
      <path d="M 112.798188 177.562215 
L 656.281188 177.562215 
" clip-path="url(#p41fd0b1eb1)" style="fill: none; stroke: #ffffff; stroke-width: 2; stroke-linecap: round"/>
     </g>
     <g id="text_3">
      <!-- 0 -->
      <g style="fill: #262626" transform="translate(81.393906 187.797887) scale(0.286 -0.286)">
       <use xlink:href="#ArialMT-30"/>
      </g>
     </g>
    </g>
    <g id="ytick_4">
     <g id="line2d_10">
      <path d="M 112.798188 97.498943 
L 656.281188 97.498943 
" clip-path="url(#p41fd0b1eb1)" style="fill: none; stroke: #ffffff; stroke-width: 2; stroke-linecap: round"/>
     </g>
     <g id="text_4">
      <!-- 20 -->
      <g style="fill: #262626" transform="translate(65.489625 107.734615) scale(0.286 -0.286)">
       <use xlink:href="#ArialMT-32"/>
       <use xlink:href="#ArialMT-30" x="55.615234"/>
      </g>
     </g>
    </g>
    <g id="ytick_5">
     <g id="line2d_11">
      <path d="M 112.798188 17.435672 
L 656.281188 17.435672 
" clip-path="url(#p41fd0b1eb1)" style="fill: none; stroke: #ffffff; stroke-width: 2; stroke-linecap: round"/>
     </g>
     <g id="text_5">
      <!-- 40 -->
      <g style="fill: #262626" transform="translate(65.489625 27.671344) scale(0.286 -0.286)">
       <use xlink:href="#ArialMT-34"/>
       <use xlink:href="#ArialMT-30" x="55.615234"/>
      </g>
     </g>
    </g>
    <g id="text_6">
     <!-- G(t) [mT/m] -->
     <g style="fill: #262626" transform="translate(38.218812 257.270902) rotate(-90) scale(0.312 -0.312)">
      <defs>
       <path id="ArialMT-47" d="M 2638 1797 
L 2638 2334 
L 4578 2338 
L 4578 638 
Q 4131 281 3656 101 
Q 3181 -78 2681 -78 
Q 2006 -78 1454 211 
Q 903 500 622 1047 
Q 341 1594 341 2269 
Q 341 2938 620 3517 
Q 900 4097 1425 4378 
Q 1950 4659 2634 4659 
Q 3131 4659 3532 4498 
Q 3934 4338 4162 4050 
Q 4391 3763 4509 3300 
L 3963 3150 
Q 3859 3500 3706 3700 
Q 3553 3900 3268 4020 
Q 2984 4141 2638 4141 
Q 2222 4141 1919 4014 
Q 1616 3888 1430 3681 
Q 1244 3475 1141 3228 
Q 966 2803 966 2306 
Q 966 1694 1177 1281 
Q 1388 869 1791 669 
Q 2194 469 2647 469 
Q 3041 469 3416 620 
Q 3791 772 3984 944 
L 3984 1797 
L 2638 1797 
z
" transform="scale(0.015625)"/>
       <path id="ArialMT-28" d="M 1497 -1347 
Q 1031 -759 709 28 
Q 388 816 388 1659 
Q 388 2403 628 3084 
Q 909 3875 1497 4659 
L 1900 4659 
Q 1522 4009 1400 3731 
Q 1209 3300 1100 2831 
Q 966 2247 966 1656 
Q 966 153 1900 -1347 
L 1497 -1347 
z
" transform="scale(0.015625)"/>
       <path id="ArialMT-74" d="M 1650 503 
L 1731 6 
Q 1494 -44 1306 -44 
Q 1000 -44 831 53 
Q 663 150 594 308 
Q 525 466 525 972 
L 525 2881 
L 113 2881 
L 113 3319 
L 525 3319 
L 525 4141 
L 1084 4478 
L 1084 3319 
L 1650 3319 
L 1650 2881 
L 1084 2881 
L 1084 941 
Q 1084 700 1114 631 
Q 1144 563 1211 522 
Q 1278 481 1403 481 
Q 1497 481 1650 503 
z
" transform="scale(0.015625)"/>
       <path id="ArialMT-29" d="M 791 -1347 
L 388 -1347 
Q 1322 153 1322 1656 
Q 1322 2244 1188 2822 
Q 1081 3291 891 3722 
Q 769 4003 388 4659 
L 791 4659 
Q 1378 3875 1659 3084 
Q 1900 2403 1900 1659 
Q 1900 816 1576 28 
Q 1253 -759 791 -1347 
z
" transform="scale(0.015625)"/>
       <path id="ArialMT-20" transform="scale(0.015625)"/>
       <path id="ArialMT-5b" d="M 434 -1272 
L 434 4581 
L 1675 4581 
L 1675 4116 
L 997 4116 
L 997 -806 
L 1675 -806 
L 1675 -1272 
L 434 -1272 
z
" transform="scale(0.015625)"/>
       <path id="ArialMT-6d" d="M 422 0 
L 422 3319 
L 925 3319 
L 925 2853 
Q 1081 3097 1340 3245 
Q 1600 3394 1931 3394 
Q 2300 3394 2536 3241 
Q 2772 3088 2869 2813 
Q 3263 3394 3894 3394 
Q 4388 3394 4653 3120 
Q 4919 2847 4919 2278 
L 4919 0 
L 4359 0 
L 4359 2091 
Q 4359 2428 4304 2576 
Q 4250 2725 4106 2815 
Q 3963 2906 3769 2906 
Q 3419 2906 3187 2673 
Q 2956 2441 2956 1928 
L 2956 0 
L 2394 0 
L 2394 2156 
Q 2394 2531 2256 2718 
Q 2119 2906 1806 2906 
Q 1569 2906 1367 2781 
Q 1166 2656 1075 2415 
Q 984 2175 984 1722 
L 984 0 
L 422 0 
z
" transform="scale(0.015625)"/>
       <path id="ArialMT-54" d="M 1659 0 
L 1659 4041 
L 150 4041 
L 150 4581 
L 3781 4581 
L 3781 4041 
L 2266 4041 
L 2266 0 
L 1659 0 
z
" transform="scale(0.015625)"/>
       <path id="ArialMT-2f" d="M 0 -78 
L 1328 4659 
L 1778 4659 
L 453 -78 
L 0 -78 
z
" transform="scale(0.015625)"/>
       <path id="ArialMT-5d" d="M 1363 -1272 
L 122 -1272 
L 122 -806 
L 800 -806 
L 800 4116 
L 122 4116 
L 122 4581 
L 1363 4581 
L 1363 -1272 
z
" transform="scale(0.015625)"/>
      </defs>
      <use xlink:href="#ArialMT-47"/>
      <use xlink:href="#ArialMT-28" x="77.783203"/>
      <use xlink:href="#ArialMT-74" x="111.083984"/>
      <use xlink:href="#ArialMT-29" x="138.867188"/>
      <use xlink:href="#ArialMT-20" x="172.167969"/>
      <use xlink:href="#ArialMT-5b" x="199.951172"/>
      <use xlink:href="#ArialMT-6d" x="227.734375"/>
      <use xlink:href="#ArialMT-54" x="311.035156"/>
      <use xlink:href="#ArialMT-2f" x="372.119141"/>
      <use xlink:href="#ArialMT-6d" x="399.902344"/>
      <use xlink:href="#ArialMT-5d" x="483.203125"/>
     </g>
    </g>
   </g>
   <g id="line2d_12">
    <path d="M 137.50196 177.562215 
L 162.285205 177.562215 
L 162.415717 183.591468 
L 162.425039 183.591468 
L 162.546229 190.826581 
L 162.564873 190.826581 
L 162.686063 198.061687 
L 162.704707 198.061687 
L 162.825897 205.296793 
L 162.844541 205.296793 
L 162.965731 212.531906 
L 162.984375 212.531906 
L 163.105565 219.767012 
L 163.124209 219.767012 
L 163.245399 227.002126 
L 163.264043 227.002126 
L 163.385233 234.237231 
L 163.403877 234.237231 
L 163.525067 241.472345 
L 163.543711 241.472345 
L 163.664901 248.707451 
L 163.683545 248.707451 
L 163.804735 255.942564 
L 163.823379 255.942564 
L 163.944569 263.17767 
L 163.963213 263.17767 
L 164.084403 270.412776 
L 164.103047 270.412776 
L 164.224237 277.647889 
L 164.242881 277.647889 
L 164.364071 284.882995 
L 164.382715 284.882995 
L 164.503905 292.118109 
L 164.522549 292.118109 
L 164.643739 299.353214 
L 164.662383 299.353214 
L 164.783573 306.588328 
L 164.802217 306.588328 
L 164.923407 313.823434 
L 164.942051 313.823434 
L 165.063241 321.058548 
L 165.081885 321.058548 
L 165.203075 328.293653 
L 165.221719 328.293653 
L 165.342909 335.528759 
L 165.361553 335.528759 
L 165.47342 336.734616 
L 248.329724 336.734616 
L 248.460235 330.705351 
L 248.469558 330.705351 
L 248.590747 323.470237 
L 248.609392 323.470237 
L 248.730581 316.235132 
L 248.749226 316.235132 
L 248.870415 309.000026 
L 248.88906 309.000026 
L 249.010249 301.764912 
L 249.028894 301.764912 
L 249.150083 294.529807 
L 249.168728 294.529807 
L 249.289917 287.294693 
L 249.308561 287.294693 
L 249.429751 280.059587 
L 249.448395 280.059587 
L 249.569585 272.824474 
L 249.588229 272.824474 
L 249.709419 265.589368 
L 249.728063 265.589368 
L 249.849253 258.354254 
L 249.867897 258.354254 
L 249.989087 251.119149 
L 250.007731 251.119149 
L 250.128921 243.884043 
L 250.147565 243.884043 
L 250.268755 236.648929 
L 250.287399 236.648929 
L 250.408589 229.413824 
L 250.427233 229.413824 
L 250.548423 222.17871 
L 250.567067 222.17871 
L 250.688257 214.943604 
L 250.706901 214.943604 
L 250.828091 207.708491 
L 250.846735 207.708491 
L 250.967925 200.473385 
L 250.986569 200.473385 
L 251.107759 193.238271 
L 251.126403 193.238271 
L 251.247593 186.003165 
L 251.266237 186.003165 
L 251.387427 178.768052 
L 251.406071 178.768052 
L 251.527261 171.532962 
L 251.545905 171.532962 
L 251.667095 164.297848 
L 251.685739 164.297848 
L 251.806929 157.062743 
L 251.825573 157.062743 
L 251.946763 149.827637 
L 251.965407 149.827637 
L 252.086597 142.592523 
L 252.105241 142.592523 
L 252.226431 135.357418 
L 252.245075 135.357418 
L 252.366265 128.122304 
L 252.384909 128.122304 
L 252.506099 120.887198 
L 252.524743 120.887198 
L 252.645933 113.652085 
L 252.664577 113.652085 
L 252.785767 106.416979 
L 252.804411 106.416979 
L 252.925601 99.181865 
L 252.944245 99.181865 
L 253.065435 91.94676 
L 253.084079 91.94676 
L 253.205269 84.711654 
L 253.223913 84.711654 
L 253.345103 77.47654 
L 253.363747 77.47654 
L 253.484937 70.241435 
L 253.503581 70.241435 
L 253.624771 63.006321 
L 253.643415 63.006321 
L 253.764605 55.771215 
L 253.783249 55.771215 
L 253.904439 48.536102 
L 253.923083 48.536102 
L 254.044273 41.300996 
L 254.062917 41.300996 
L 254.184107 34.065882 
L 254.202751 34.065882 
L 254.323941 26.830777 
L 254.342585 26.830777 
L 254.463775 19.595663 
L 254.482419 19.595663 
L 254.594287 18.389814 
L 337.45059 18.389814 
L 337.581101 24.419079 
L 337.590424 24.419079 
L 337.711613 31.654192 
L 337.730258 31.654192 
L 337.851447 38.889298 
L 337.870092 38.889298 
L 337.991281 46.124404 
L 338.009926 46.124404 
L 338.131115 53.359517 
L 338.14976 53.359517 
L 338.270949 60.594623 
L 338.289594 60.594623 
L 338.410783 67.829737 
L 338.429428 67.829737 
L 338.550617 75.064842 
L 338.569262 75.064842 
L 338.690451 82.299956 
L 338.709096 82.299956 
L 338.830285 89.535062 
L 338.84893 89.535062 
L 338.970119 96.770175 
L 338.988764 96.770175 
L 339.109953 104.005281 
L 339.128598 104.005281 
L 339.249787 111.240387 
L 339.268432 111.240387 
L 339.389621 118.4755 
L 339.408266 118.4755 
L 339.529455 125.710606 
L 339.5481 125.710606 
L 339.669289 132.94572 
L 339.687934 132.94572 
L 339.809123 140.180826 
L 339.827768 140.180826 
L 339.948957 147.415939 
L 339.967602 147.415939 
L 340.088791 154.651045 
L 340.107436 154.651045 
L 340.228625 161.886159 
L 340.24727 161.886159 
L 340.368459 169.121264 
L 340.387104 169.121264 
L 340.508293 176.356378 
L 340.522276 176.356378 
L 340.634144 177.562215 
L 403.447574 177.562215 
L 403.564103 227.002126 
L 403.592069 227.002126 
L 403.713259 234.237231 
L 403.731903 234.237231 
L 403.853093 241.472345 
L 403.871737 241.472345 
L 403.992927 248.707451 
L 404.011571 248.707451 
L 404.132761 255.942564 
L 404.151405 255.942564 
L 404.272595 263.17767 
L 404.291239 263.17767 
L 404.412429 270.412776 
L 404.431073 270.412776 
L 404.552263 277.647889 
L 404.570907 277.647889 
L 404.692097 284.882995 
L 404.710741 284.882995 
L 404.831931 292.118109 
L 404.850575 292.118109 
L 404.971765 299.353214 
L 404.990409 299.353214 
L 405.111599 306.588328 
L 405.130243 306.588328 
L 405.251433 313.823434 
L 405.270077 313.823434 
L 405.391267 321.058548 
L 405.409911 321.058548 
L 405.531101 328.293653 
L 405.549745 328.293653 
L 405.670935 335.528767 
L 405.689579 335.528767 
L 405.801446 336.734616 
L 488.65775 336.734616 
L 488.788261 330.705351 
L 488.797584 330.705351 
L 488.918773 323.470237 
L 488.937418 323.470237 
L 489.058607 316.235132 
L 489.077252 316.235132 
L 489.198441 309.000026 
L 489.217086 309.000026 
L 489.338275 301.764912 
L 489.35692 301.764912 
L 489.478109 294.529807 
L 489.496754 294.529807 
L 489.617943 287.294693 
L 489.636588 287.294693 
L 489.757777 280.059587 
L 489.776422 280.059587 
L 489.897611 272.824474 
L 489.916256 272.824474 
L 490.037445 265.589368 
L 490.05609 265.589368 
L 490.177279 258.354254 
L 490.195924 258.354254 
L 490.317113 251.119149 
L 490.335758 251.119149 
L 490.456947 243.884043 
L 490.475592 243.884043 
L 490.596781 236.648929 
L 490.615426 236.648929 
L 490.736615 229.413824 
L 490.75526 229.413824 
L 490.876449 222.17871 
L 490.895094 222.17871 
L 491.016283 214.943604 
L 491.034928 214.943604 
L 491.156117 207.708491 
L 491.174762 207.708491 
L 491.295951 200.473385 
L 491.314596 200.473385 
L 491.435785 193.238271 
L 491.45443 193.238271 
L 491.575619 186.003165 
L 491.594264 186.003165 
L 491.715453 178.768052 
L 491.734098 178.768052 
L 491.855287 171.532962 
L 491.873931 171.532962 
L 491.995121 164.297848 
L 492.013765 164.297848 
L 492.134955 157.062743 
L 492.153599 157.062743 
L 492.274789 149.827637 
L 492.293433 149.827637 
L 492.414623 142.592523 
L 492.433267 142.592523 
L 492.554457 135.357418 
L 492.573101 135.357418 
L 492.694291 128.122304 
L 492.712935 128.122304 
L 492.834125 120.887198 
L 492.852769 120.887198 
L 492.973959 113.652085 
L 492.992603 113.652085 
L 493.113793 106.416979 
L 493.132437 106.416979 
L 493.253627 99.181865 
L 493.272271 99.181865 
L 493.393461 91.94676 
L 493.412105 91.94676 
L 493.533295 84.711654 
L 493.551939 84.711654 
L 493.673129 77.47654 
L 493.691773 77.47654 
L 493.812963 70.241435 
L 493.831607 70.241435 
L 493.952797 63.006321 
L 493.971441 63.006321 
L 494.092631 55.771215 
L 494.111275 55.771215 
L 494.232465 48.536102 
L 494.251109 48.536102 
L 494.372299 41.300996 
L 494.390943 41.300996 
L 494.512133 34.065882 
L 494.530777 34.065882 
L 494.651967 26.830777 
L 494.670611 26.830777 
L 494.791801 19.595663 
L 494.810445 19.595663 
L 494.922313 18.389814 
L 577.778616 18.389814 
L 577.909127 24.419079 
L 577.91845 24.419079 
L 578.039639 31.654192 
L 578.058284 31.654192 
L 578.179473 38.889298 
L 578.198118 38.889298 
L 578.319307 46.124404 
L 578.337952 46.124404 
L 578.459141 53.359517 
L 578.477786 53.359517 
L 578.598975 60.594623 
L 578.61762 60.594623 
L 578.738809 67.829737 
L 578.757454 67.829737 
L 578.878643 75.064842 
L 578.897288 75.064842 
L 579.018477 82.299956 
L 579.037122 82.299956 
L 579.158311 89.535062 
L 579.176956 89.535062 
L 579.298145 96.770175 
L 579.31679 96.770175 
L 579.437979 104.005281 
L 579.456624 104.005281 
L 579.577813 111.240387 
L 579.596458 111.240387 
L 579.717647 118.4755 
L 579.736292 118.4755 
L 579.857481 125.710606 
L 579.876126 125.710606 
L 579.997315 132.94572 
L 580.01596 132.94572 
L 580.137149 140.180826 
L 580.155794 140.180826 
L 580.276983 147.415939 
L 580.295628 147.415939 
L 580.416817 154.651045 
L 580.435462 154.651045 
L 580.556651 161.886159 
L 580.575296 161.886159 
L 580.696485 169.121264 
L 580.71513 169.121264 
L 580.836319 176.356378 
L 580.850303 176.356378 
L 580.96217 177.562215 
L 631.577415 177.562215 
L 631.577415 177.562215 
" clip-path="url(#p41fd0b1eb1)" style="fill: none; stroke: #808080; stroke-width: 5; stroke-linecap: round"/>
   </g>
   <g id="line2d_13">
    <path d="M 112.798188 177.562215 
L 656.281188 177.562215 
" clip-path="url(#p41fd0b1eb1)" style="fill: none; stroke: #000000; stroke-width: 3; stroke-linecap: round"/>
   </g>
   <g id="patch_3">
    <path d="M 112.798188 345.695085 
L 112.798188 9.429345 
" style="fill: none; stroke: #ffffff; stroke-width: 2.5; stroke-linejoin: miter; stroke-linecap: square"/>
   </g>
   <g id="patch_4">
    <path d="M 656.281188 345.695085 
L 656.281188 9.429345 
" style="fill: none; stroke: #ffffff; stroke-width: 2.5; stroke-linejoin: miter; stroke-linecap: square"/>
   </g>
   <g id="patch_5">
    <path d="M 112.798188 345.695085 
L 656.281188 345.695085 
" style="fill: none; stroke: #ffffff; stroke-width: 2.5; stroke-linejoin: miter; stroke-linecap: square"/>
   </g>
   <g id="patch_6">
    <path d="M 112.798188 9.429345 
L 656.281188 9.429345 
" style="fill: none; stroke: #ffffff; stroke-width: 2.5; stroke-linejoin: miter; stroke-linecap: square"/>
   </g>
   <g id="text_7">
    <g id="patch_7">
     <path d="M 433.726698 324.568511 
L 639.976698 324.568511 
Q 652.476698 324.568511 652.476698 312.068511 
L 652.476698 288.818511 
Q 652.476698 276.318511 639.976698 276.318511 
L 433.726698 276.318511 
Q 421.226698 276.318511 421.226698 288.818511 
L 421.226698 312.068511 
Q 421.226698 324.568511 433.726698 324.568511 
z
" style="fill: #eaeaf2; opacity: 0.9; stroke: #d3d3d3; stroke-width: 2; stroke-linejoin: miter"/>
    </g>
    <!-- $G_{max}$ = 39.8 mT/m -->
    <g style="fill: #262626" transform="translate(433.726698 307.099761) scale(0.25 -0.25)">
     <defs>
      <path id="DejaVuSans-Oblique-47" d="M 3494 697 
L 3738 1919 
L 2700 1919 
L 2797 2438 
L 4453 2438 
L 4050 384 
Q 3634 156 3143 32 
Q 2653 -91 2156 -91 
Q 1278 -91 783 396 
Q 288 884 288 1753 
Q 288 2475 589 3126 
Q 891 3778 1422 4213 
Q 1756 4484 2153 4617 
Q 2550 4750 3034 4750 
Q 3472 4750 3873 4639 
Q 4275 4528 4641 4306 
L 4513 3634 
Q 4231 3928 3853 4083 
Q 3475 4238 3047 4238 
Q 2550 4238 2172 4048 
Q 1794 3859 1497 3463 
Q 1244 3125 1098 2667 
Q 953 2209 953 1734 
Q 953 1081 1287 751 
Q 1622 422 2284 422 
Q 2616 422 2925 492 
Q 3234 563 3494 697 
z
" transform="scale(0.015625)"/>
      <path id="DejaVuSans-Oblique-6d" d="M 5747 2113 
L 5338 0 
L 4763 0 
L 5166 2094 
Q 5191 2228 5203 2325 
Q 5216 2422 5216 2491 
Q 5216 2772 5059 2928 
Q 4903 3084 4622 3084 
Q 4203 3084 3875 2770 
Q 3547 2456 3450 1953 
L 3066 0 
L 2491 0 
L 2900 2094 
Q 2925 2209 2937 2307 
Q 2950 2406 2950 2484 
Q 2950 2769 2794 2926 
Q 2638 3084 2363 3084 
Q 1938 3084 1609 2770 
Q 1281 2456 1184 1953 
L 800 0 
L 225 0 
L 909 3500 
L 1484 3500 
L 1375 2956 
Q 1609 3263 1923 3423 
Q 2238 3584 2597 3584 
Q 2978 3584 3223 3384 
Q 3469 3184 3519 2828 
Q 3781 3197 4126 3390 
Q 4472 3584 4856 3584 
Q 5306 3584 5551 3325 
Q 5797 3066 5797 2591 
Q 5797 2488 5784 2364 
Q 5772 2241 5747 2113 
z
" transform="scale(0.015625)"/>
      <path id="DejaVuSans-Oblique-61" d="M 3438 1997 
L 3047 0 
L 2472 0 
L 2578 531 
Q 2325 219 2001 64 
Q 1678 -91 1281 -91 
Q 834 -91 548 182 
Q 263 456 263 884 
Q 263 1497 752 1853 
Q 1241 2209 2100 2209 
L 2900 2209 
L 2931 2363 
Q 2938 2388 2941 2417 
Q 2944 2447 2944 2509 
Q 2944 2788 2717 2942 
Q 2491 3097 2081 3097 
Q 1800 3097 1504 3025 
Q 1209 2953 897 2809 
L 997 3341 
Q 1322 3463 1633 3523 
Q 1944 3584 2234 3584 
Q 2853 3584 3176 3315 
Q 3500 3047 3500 2534 
Q 3500 2431 3484 2292 
Q 3469 2153 3438 1997 
z
M 2816 1759 
L 2241 1759 
Q 1534 1759 1195 1570 
Q 856 1381 856 984 
Q 856 709 1029 553 
Q 1203 397 1509 397 
Q 1978 397 2328 733 
Q 2678 1069 2791 1631 
L 2816 1759 
z
" transform="scale(0.015625)"/>
      <path id="DejaVuSans-Oblique-78" d="M 3841 3500 
L 2234 1784 
L 3219 0 
L 2559 0 
L 1819 1388 
L 531 0 
L -166 0 
L 1556 1844 
L 641 3500 
L 1300 3500 
L 1972 2234 
L 3144 3500 
L 3841 3500 
z
" transform="scale(0.015625)"/>
      <path id="ArialMT-3d" d="M 3381 2694 
L 356 2694 
L 356 3219 
L 3381 3219 
L 3381 2694 
z
M 3381 1303 
L 356 1303 
L 356 1828 
L 3381 1828 
L 3381 1303 
z
" transform="scale(0.015625)"/>
      <path id="ArialMT-33" d="M 269 1209 
L 831 1284 
Q 928 806 1161 595 
Q 1394 384 1728 384 
Q 2125 384 2398 659 
Q 2672 934 2672 1341 
Q 2672 1728 2419 1979 
Q 2166 2231 1775 2231 
Q 1616 2231 1378 2169 
L 1441 2663 
Q 1497 2656 1531 2656 
Q 1891 2656 2178 2843 
Q 2466 3031 2466 3422 
Q 2466 3731 2256 3934 
Q 2047 4138 1716 4138 
Q 1388 4138 1169 3931 
Q 950 3725 888 3313 
L 325 3413 
Q 428 3978 793 4289 
Q 1159 4600 1703 4600 
Q 2078 4600 2393 4439 
Q 2709 4278 2876 4000 
Q 3044 3722 3044 3409 
Q 3044 3113 2884 2869 
Q 2725 2625 2413 2481 
Q 2819 2388 3044 2092 
Q 3269 1797 3269 1353 
Q 3269 753 2831 336 
Q 2394 -81 1725 -81 
Q 1122 -81 723 278 
Q 325 638 269 1209 
z
" transform="scale(0.015625)"/>
      <path id="ArialMT-39" d="M 350 1059 
L 891 1109 
Q 959 728 1153 556 
Q 1347 384 1650 384 
Q 1909 384 2104 503 
Q 2300 622 2425 820 
Q 2550 1019 2634 1356 
Q 2719 1694 2719 2044 
Q 2719 2081 2716 2156 
Q 2547 1888 2255 1720 
Q 1963 1553 1622 1553 
Q 1053 1553 659 1965 
Q 266 2378 266 3053 
Q 266 3750 677 4175 
Q 1088 4600 1706 4600 
Q 2153 4600 2523 4359 
Q 2894 4119 3086 3673 
Q 3278 3228 3278 2384 
Q 3278 1506 3087 986 
Q 2897 466 2520 194 
Q 2144 -78 1638 -78 
Q 1100 -78 759 220 
Q 419 519 350 1059 
z
M 2653 3081 
Q 2653 3566 2395 3850 
Q 2138 4134 1775 4134 
Q 1400 4134 1122 3828 
Q 844 3522 844 3034 
Q 844 2597 1108 2323 
Q 1372 2050 1759 2050 
Q 2150 2050 2401 2323 
Q 2653 2597 2653 3081 
z
" transform="scale(0.015625)"/>
      <path id="ArialMT-2e" d="M 581 0 
L 581 641 
L 1222 641 
L 1222 0 
L 581 0 
z
" transform="scale(0.015625)"/>
      <path id="ArialMT-38" d="M 1131 2484 
Q 781 2613 612 2850 
Q 444 3088 444 3419 
Q 444 3919 803 4259 
Q 1163 4600 1759 4600 
Q 2359 4600 2725 4251 
Q 3091 3903 3091 3403 
Q 3091 3084 2923 2848 
Q 2756 2613 2416 2484 
Q 2838 2347 3058 2040 
Q 3278 1734 3278 1309 
Q 3278 722 2862 322 
Q 2447 -78 1769 -78 
Q 1091 -78 675 323 
Q 259 725 259 1325 
Q 259 1772 486 2073 
Q 713 2375 1131 2484 
z
M 1019 3438 
Q 1019 3113 1228 2906 
Q 1438 2700 1772 2700 
Q 2097 2700 2305 2904 
Q 2513 3109 2513 3406 
Q 2513 3716 2298 3927 
Q 2084 4138 1766 4138 
Q 1444 4138 1231 3931 
Q 1019 3725 1019 3438 
z
M 838 1322 
Q 838 1081 952 856 
Q 1066 631 1291 507 
Q 1516 384 1775 384 
Q 2178 384 2440 643 
Q 2703 903 2703 1303 
Q 2703 1709 2433 1975 
Q 2163 2241 1756 2241 
Q 1359 2241 1098 1978 
Q 838 1716 838 1322 
z
" transform="scale(0.015625)"/>
     </defs>
     <use xlink:href="#DejaVuSans-Oblique-47" transform="translate(0 0.78125)"/>
     <use xlink:href="#DejaVuSans-Oblique-6d" transform="translate(77.490234 -15.625) scale(0.7)"/>
     <use xlink:href="#DejaVuSans-Oblique-61" transform="translate(145.678711 -15.625) scale(0.7)"/>
     <use xlink:href="#DejaVuSans-Oblique-78" transform="translate(188.574219 -15.625) scale(0.7)"/>
     <use xlink:href="#ArialMT-20" transform="translate(232.734375 0.78125)"/>
     <use xlink:href="#ArialMT-3d" transform="translate(260.517578 0.78125)"/>
     <use xlink:href="#ArialMT-20" transform="translate(318.916016 0.78125)"/>
     <use xlink:href="#ArialMT-33" transform="translate(346.699219 0.78125)"/>
     <use xlink:href="#ArialMT-39" transform="translate(402.314453 0.78125)"/>
     <use xlink:href="#ArialMT-2e" transform="translate(457.929688 0.78125)"/>
     <use xlink:href="#ArialMT-38" transform="translate(485.712891 0.78125)"/>
     <use xlink:href="#ArialMT-20" transform="translate(541.328125 0.78125)"/>
     <use xlink:href="#ArialMT-6d" transform="translate(569.111328 0.78125)"/>
     <use xlink:href="#ArialMT-54" transform="translate(652.412109 0.78125)"/>
     <use xlink:href="#ArialMT-2f" transform="translate(713.496094 0.78125)"/>
     <use xlink:href="#ArialMT-6d" transform="translate(741.279297 0.78125)"/>
    </g>
   </g>
  </g>
  <g id="axes_2">
   <g id="patch_8">
    <path d="M 112.798188 725.597085 
L 656.281188 725.597085 
L 656.281188 389.331345 
L 112.798188 389.331345 
z
" style="fill: #eaeaf2"/>
   </g>
   <g id="matplotlib.axis_3">
    <g id="xtick_7">
     <g id="line2d_14">
      <path d="M 137.50196 725.597085 
L 137.50196 389.331345 
" clip-path="url(#p789f4263ed)" style="fill: none; stroke: #ffffff; stroke-width: 2; stroke-linecap: round"/>
     </g>
     <g id="text_8">
      <!-- 0 -->
      <g style="fill: #262626" transform="translate(129.54982 761.568429) scale(0.286 -0.286)">
       <use xlink:href="#ArialMT-30"/>
      </g>
     </g>
    </g>
    <g id="xtick_8">
     <g id="line2d_15">
      <path d="M 230.724624 725.597085 
L 230.724624 389.331345 
" clip-path="url(#p789f4263ed)" style="fill: none; stroke: #ffffff; stroke-width: 2; stroke-linecap: round"/>
     </g>
     <g id="text_9">
      <!-- 20 -->
      <g style="fill: #262626" transform="translate(214.820342 761.568429) scale(0.286 -0.286)">
       <use xlink:href="#ArialMT-32"/>
       <use xlink:href="#ArialMT-30" x="55.615234"/>
      </g>
     </g>
    </g>
    <g id="xtick_9">
     <g id="line2d_16">
      <path d="M 323.947287 725.597085 
L 323.947287 389.331345 
" clip-path="url(#p789f4263ed)" style="fill: none; stroke: #ffffff; stroke-width: 2; stroke-linecap: round"/>
     </g>
     <g id="text_10">
      <!-- 40 -->
      <g style="fill: #262626" transform="translate(308.043006 761.568429) scale(0.286 -0.286)">
       <use xlink:href="#ArialMT-34"/>
       <use xlink:href="#ArialMT-30" x="55.615234"/>
      </g>
     </g>
    </g>
    <g id="xtick_10">
     <g id="line2d_17">
      <path d="M 417.16995 725.597085 
L 417.16995 389.331345 
" clip-path="url(#p789f4263ed)" style="fill: none; stroke: #ffffff; stroke-width: 2; stroke-linecap: round"/>
     </g>
     <g id="text_11">
      <!-- 60 -->
      <g style="fill: #262626" transform="translate(401.265669 761.568429) scale(0.286 -0.286)">
       <defs>
        <path id="ArialMT-36" d="M 3184 3459 
L 2625 3416 
Q 2550 3747 2413 3897 
Q 2184 4138 1850 4138 
Q 1581 4138 1378 3988 
Q 1113 3794 959 3422 
Q 806 3050 800 2363 
Q 1003 2672 1297 2822 
Q 1591 2972 1913 2972 
Q 2475 2972 2870 2558 
Q 3266 2144 3266 1488 
Q 3266 1056 3080 686 
Q 2894 316 2569 119 
Q 2244 -78 1831 -78 
Q 1128 -78 684 439 
Q 241 956 241 2144 
Q 241 3472 731 4075 
Q 1159 4600 1884 4600 
Q 2425 4600 2770 4297 
Q 3116 3994 3184 3459 
z
M 888 1484 
Q 888 1194 1011 928 
Q 1134 663 1356 523 
Q 1578 384 1822 384 
Q 2178 384 2434 671 
Q 2691 959 2691 1453 
Q 2691 1928 2437 2201 
Q 2184 2475 1800 2475 
Q 1419 2475 1153 2201 
Q 888 1928 888 1484 
z
" transform="scale(0.015625)"/>
       </defs>
       <use xlink:href="#ArialMT-36"/>
       <use xlink:href="#ArialMT-30" x="55.615234"/>
      </g>
     </g>
    </g>
    <g id="xtick_11">
     <g id="line2d_18">
      <path d="M 510.392614 725.597085 
L 510.392614 389.331345 
" clip-path="url(#p789f4263ed)" style="fill: none; stroke: #ffffff; stroke-width: 2; stroke-linecap: round"/>
     </g>
     <g id="text_12">
      <!-- 80 -->
      <g style="fill: #262626" transform="translate(494.488332 761.568429) scale(0.286 -0.286)">
       <use xlink:href="#ArialMT-38"/>
       <use xlink:href="#ArialMT-30" x="55.615234"/>
      </g>
     </g>
    </g>
    <g id="xtick_12">
     <g id="line2d_19">
      <path d="M 603.615277 725.597085 
L 603.615277 389.331345 
" clip-path="url(#p789f4263ed)" style="fill: none; stroke: #ffffff; stroke-width: 2; stroke-linecap: round"/>
     </g>
     <g id="text_13">
      <!-- 100 -->
      <g style="fill: #262626" transform="translate(579.758855 761.568429) scale(0.286 -0.286)">
       <defs>
        <path id="ArialMT-31" d="M 2384 0 
L 1822 0 
L 1822 3584 
Q 1619 3391 1289 3197 
Q 959 3003 697 2906 
L 697 3450 
Q 1169 3672 1522 3987 
Q 1875 4303 2022 4600 
L 2384 4600 
L 2384 0 
z
" transform="scale(0.015625)"/>
       </defs>
       <use xlink:href="#ArialMT-31"/>
       <use xlink:href="#ArialMT-30" x="55.615234"/>
       <use xlink:href="#ArialMT-30" x="111.230469"/>
      </g>
     </g>
    </g>
    <g id="text_14">
     <!-- Time [ms] -->
     <g style="fill: #262626" transform="translate(316.665062 793.585054) scale(0.312 -0.312)">
      <defs>
       <path id="ArialMT-69" d="M 425 3934 
L 425 4581 
L 988 4581 
L 988 3934 
L 425 3934 
z
M 425 0 
L 425 3319 
L 988 3319 
L 988 0 
L 425 0 
z
" transform="scale(0.015625)"/>
       <path id="ArialMT-65" d="M 2694 1069 
L 3275 997 
Q 3138 488 2766 206 
Q 2394 -75 1816 -75 
Q 1088 -75 661 373 
Q 234 822 234 1631 
Q 234 2469 665 2931 
Q 1097 3394 1784 3394 
Q 2450 3394 2872 2941 
Q 3294 2488 3294 1666 
Q 3294 1616 3291 1516 
L 816 1516 
Q 847 969 1125 678 
Q 1403 388 1819 388 
Q 2128 388 2347 550 
Q 2566 713 2694 1069 
z
M 847 1978 
L 2700 1978 
Q 2663 2397 2488 2606 
Q 2219 2931 1791 2931 
Q 1403 2931 1139 2672 
Q 875 2413 847 1978 
z
" transform="scale(0.015625)"/>
       <path id="ArialMT-73" d="M 197 991 
L 753 1078 
Q 800 744 1014 566 
Q 1228 388 1613 388 
Q 2000 388 2187 545 
Q 2375 703 2375 916 
Q 2375 1106 2209 1216 
Q 2094 1291 1634 1406 
Q 1016 1563 777 1677 
Q 538 1791 414 1992 
Q 291 2194 291 2438 
Q 291 2659 392 2848 
Q 494 3038 669 3163 
Q 800 3259 1026 3326 
Q 1253 3394 1513 3394 
Q 1903 3394 2198 3281 
Q 2494 3169 2634 2976 
Q 2775 2784 2828 2463 
L 2278 2388 
Q 2241 2644 2061 2787 
Q 1881 2931 1553 2931 
Q 1166 2931 1000 2803 
Q 834 2675 834 2503 
Q 834 2394 903 2306 
Q 972 2216 1119 2156 
Q 1203 2125 1616 2013 
Q 2213 1853 2448 1751 
Q 2684 1650 2818 1456 
Q 2953 1263 2953 975 
Q 2953 694 2789 445 
Q 2625 197 2315 61 
Q 2006 -75 1616 -75 
Q 969 -75 630 194 
Q 291 463 197 991 
z
" transform="scale(0.015625)"/>
      </defs>
      <use xlink:href="#ArialMT-54"/>
      <use xlink:href="#ArialMT-69" x="57.333984"/>
      <use xlink:href="#ArialMT-6d" x="79.550781"/>
      <use xlink:href="#ArialMT-65" x="162.851562"/>
      <use xlink:href="#ArialMT-20" x="218.466797"/>
      <use xlink:href="#ArialMT-5b" x="246.25"/>
      <use xlink:href="#ArialMT-6d" x="274.033203"/>
      <use xlink:href="#ArialMT-73" x="357.333984"/>
      <use xlink:href="#ArialMT-5d" x="407.333984"/>
     </g>
    </g>
   </g>
   <g id="matplotlib.axis_4">
    <g id="ytick_6">
     <g id="line2d_20">
      <path d="M 112.798188 710.312279 
L 656.281188 710.312279 
" clip-path="url(#p789f4263ed)" style="fill: none; stroke: #ffffff; stroke-width: 2; stroke-linecap: round"/>
     </g>
     <g id="text_15">
      <!-- −1.0 -->
      <g style="fill: #262626" transform="translate(40.84 720.54795) scale(0.286 -0.286)">
       <use xlink:href="#ArialMT-2212"/>
       <use xlink:href="#ArialMT-31" x="58.398438"/>
       <use xlink:href="#ArialMT-2e" x="114.013672"/>
       <use xlink:href="#ArialMT-30" x="141.796875"/>
      </g>
     </g>
    </g>
    <g id="ytick_7">
     <g id="line2d_21">
      <path d="M 112.798188 633.888247 
L 656.281188 633.888247 
" clip-path="url(#p789f4263ed)" style="fill: none; stroke: #ffffff; stroke-width: 2; stroke-linecap: round"/>
     </g>
     <g id="text_16">
      <!-- −0.5 -->
      <g style="fill: #262626" transform="translate(40.84 644.123919) scale(0.286 -0.286)">
       <defs>
        <path id="ArialMT-35" d="M 266 1200 
L 856 1250 
Q 922 819 1161 601 
Q 1400 384 1738 384 
Q 2144 384 2425 690 
Q 2706 997 2706 1503 
Q 2706 1984 2436 2262 
Q 2166 2541 1728 2541 
Q 1456 2541 1237 2417 
Q 1019 2294 894 2097 
L 366 2166 
L 809 4519 
L 3088 4519 
L 3088 3981 
L 1259 3981 
L 1013 2750 
Q 1425 3038 1878 3038 
Q 2478 3038 2890 2622 
Q 3303 2206 3303 1553 
Q 3303 931 2941 478 
Q 2500 -78 1738 -78 
Q 1113 -78 717 272 
Q 322 622 266 1200 
z
" transform="scale(0.015625)"/>
       </defs>
       <use xlink:href="#ArialMT-2212"/>
       <use xlink:href="#ArialMT-30" x="58.398438"/>
       <use xlink:href="#ArialMT-2e" x="114.013672"/>
       <use xlink:href="#ArialMT-35" x="141.796875"/>
      </g>
     </g>
    </g>
    <g id="ytick_8">
     <g id="line2d_22">
      <path d="M 112.798188 557.464215 
L 656.281188 557.464215 
" clip-path="url(#p789f4263ed)" style="fill: none; stroke: #ffffff; stroke-width: 2; stroke-linecap: round"/>
     </g>
     <g id="text_17">
      <!-- 0.0 -->
      <g style="fill: #262626" transform="translate(57.544188 567.699887) scale(0.286 -0.286)">
       <use xlink:href="#ArialMT-30"/>
       <use xlink:href="#ArialMT-2e" x="55.615234"/>
       <use xlink:href="#ArialMT-30" x="83.398438"/>
      </g>
     </g>
    </g>
    <g id="ytick_9">
     <g id="line2d_23">
      <path d="M 112.798188 481.040183 
L 656.281188 481.040183 
" clip-path="url(#p789f4263ed)" style="fill: none; stroke: #ffffff; stroke-width: 2; stroke-linecap: round"/>
     </g>
     <g id="text_18">
      <!-- 0.5 -->
      <g style="fill: #262626" transform="translate(57.544188 491.275855) scale(0.286 -0.286)">
       <use xlink:href="#ArialMT-30"/>
       <use xlink:href="#ArialMT-2e" x="55.615234"/>
       <use xlink:href="#ArialMT-35" x="83.398438"/>
      </g>
     </g>
    </g>
    <g id="ytick_10">
     <g id="line2d_24">
      <path d="M 112.798188 404.616151 
L 656.281188 404.616151 
" clip-path="url(#p789f4263ed)" style="fill: none; stroke: #ffffff; stroke-width: 2; stroke-linecap: round"/>
     </g>
     <g id="text_19">
      <!-- 1.0 -->
      <g style="fill: #262626" transform="translate(57.544188 414.851823) scale(0.286 -0.286)">
       <use xlink:href="#ArialMT-31"/>
       <use xlink:href="#ArialMT-2e" x="55.615234"/>
       <use xlink:href="#ArialMT-30" x="83.398438"/>
      </g>
     </g>
    </g>
    <g id="text_20">
     <!-- $M_n$(t) [AU] -->
     <g style="fill: #262626" transform="translate(29.976 627.820215) rotate(-90) scale(0.312 -0.312)">
      <defs>
       <path id="DejaVuSans-Oblique-4d" d="M 1081 4666 
L 2028 4666 
L 2572 1522 
L 4378 4666 
L 5350 4666 
L 4441 0 
L 3828 0 
L 4622 4091 
L 2791 897 
L 2175 897 
L 1581 4103 
L 788 0 
L 172 0 
L 1081 4666 
z
" transform="scale(0.015625)"/>
       <path id="DejaVuSans-Oblique-6e" d="M 3566 2113 
L 3156 0 
L 2578 0 
L 2988 2091 
Q 3016 2238 3031 2350 
Q 3047 2463 3047 2528 
Q 3047 2791 2881 2937 
Q 2716 3084 2419 3084 
Q 1956 3084 1622 2776 
Q 1288 2469 1184 1941 
L 800 0 
L 225 0 
L 903 3500 
L 1478 3500 
L 1363 2950 
Q 1603 3253 1940 3418 
Q 2278 3584 2650 3584 
Q 3113 3584 3367 3334 
Q 3622 3084 3622 2631 
Q 3622 2519 3608 2391 
Q 3594 2263 3566 2113 
z
" transform="scale(0.015625)"/>
       <path id="ArialMT-41" d="M -9 0 
L 1750 4581 
L 2403 4581 
L 4278 0 
L 3588 0 
L 3053 1388 
L 1138 1388 
L 634 0 
L -9 0 
z
M 1313 1881 
L 2866 1881 
L 2388 3150 
Q 2169 3728 2063 4100 
Q 1975 3659 1816 3225 
L 1313 1881 
z
" transform="scale(0.015625)"/>
       <path id="ArialMT-55" d="M 3500 4581 
L 4106 4581 
L 4106 1934 
Q 4106 1244 3950 837 
Q 3794 431 3386 176 
Q 2978 -78 2316 -78 
Q 1672 -78 1262 144 
Q 853 366 678 786 
Q 503 1206 503 1934 
L 503 4581 
L 1109 4581 
L 1109 1938 
Q 1109 1341 1220 1058 
Q 1331 775 1601 622 
Q 1872 469 2263 469 
Q 2931 469 3215 772 
Q 3500 1075 3500 1938 
L 3500 4581 
z
" transform="scale(0.015625)"/>
      </defs>
      <use xlink:href="#DejaVuSans-Oblique-4d" transform="translate(0 0.09375)"/>
      <use xlink:href="#DejaVuSans-Oblique-6e" transform="translate(86.279297 -16.3125) scale(0.7)"/>
      <use xlink:href="#ArialMT-28" transform="translate(133.378906 0.09375)"/>
      <use xlink:href="#ArialMT-74" transform="translate(166.679688 0.09375)"/>
      <use xlink:href="#ArialMT-29" transform="translate(194.462891 0.09375)"/>
      <use xlink:href="#ArialMT-20" transform="translate(227.763672 0.09375)"/>
      <use xlink:href="#ArialMT-5b" transform="translate(255.546875 0.09375)"/>
      <use xlink:href="#ArialMT-41" transform="translate(283.330078 0.09375)"/>
      <use xlink:href="#ArialMT-55" transform="translate(350.029297 0.09375)"/>
      <use xlink:href="#ArialMT-5d" transform="translate(422.246094 0.09375)"/>
     </g>
    </g>
   </g>
   <g id="line2d_25">
    <path d="M 137.50196 557.464215 
L 162.905136 557.575304 
L 163.553033 557.928394 
L 164.256865 558.586714 
L 165.030613 559.640402 
L 166.209879 561.703554 
L 249.215339 708.92664 
L 250.021715 709.758839 
L 250.730207 710.180238 
L 251.368782 710.311777 
L 252.002696 710.209406 
L 252.622627 709.88492 
L 253.326458 709.247426 
L 254.095545 708.223784 
L 255.176928 706.346178 
L 338.336205 558.849853 
L 339.142581 558.017655 
L 339.851073 557.596255 
L 340.489649 557.464717 
L 348.777143 557.464278 
L 403.652664 557.353251 
L 404.328528 556.815743 
L 405.046343 555.956008 
L 405.903991 554.552053 
L 489.543365 406.202892 
L 490.349741 405.370694 
L 491.058233 404.949294 
L 491.696808 404.817756 
L 492.330723 404.920126 
L 492.950653 405.244612 
L 493.654484 405.882107 
L 494.423571 406.905748 
L 495.504954 408.783355 
L 578.664231 556.279679 
L 579.470607 557.111878 
L 580.179099 557.533277 
L 580.817675 557.664816 
L 589.105169 557.665255 
L 631.577415 557.665255 
L 631.577415 557.665255 
" clip-path="url(#p789f4263ed)" style="fill: none; stroke: #1f77b4; stroke-width: 5; stroke-linecap: round"/>
   </g>
   <g id="line2d_26">
    <path d="M 137.50196 557.464215 
L 164.695011 557.575279 
L 168.190861 558.017539 
L 175.285106 559.100436 
L 182.393334 560.410509 
L 189.524868 561.951249 
L 196.679707 563.724881 
L 203.857852 565.733633 
L 211.068625 567.982801 
L 218.312026 570.475532 
L 225.592716 573.216818 
L 232.910695 576.210288 
L 240.270624 579.46173 
L 247.677165 582.977561 
L 249.606874 583.8017 
L 250.809446 584.036806 
L 251.984052 584.038403 
L 253.140013 583.815412 
L 254.314619 583.355945 
L 257.866402 581.480503 
L 265.389471 577.317241 
L 272.963812 572.870695 
L 280.594087 568.132698 
L 288.284957 563.094409 
L 296.036421 557.749594 
L 303.848481 552.091971 
L 311.725796 546.111589 
L 319.668367 539.801572 
L 327.680855 533.151036 
L 335.763259 526.152488 
L 338.513328 523.869066 
L 339.440894 523.449432 
L 340.321848 523.282724 
L 342.228251 523.276495 
L 403.736564 523.167409 
L 404.54294 522.691621 
L 405.386606 521.922551 
L 406.882829 520.148526 
L 415.711016 509.372253 
L 424.623102 498.141132 
L 433.619089 486.445162 
L 442.703638 474.267906 
L 451.876748 461.598603 
L 461.138419 448.426388 
L 470.493314 434.73337 
L 479.936769 420.515001 
L 489.948884 405.431558 
L 490.708648 404.885542 
L 491.426463 404.640563 
L 492.093005 404.649355 
L 492.745563 404.879369 
L 493.43075 405.357533 
L 494.185854 406.16634 
L 495.038841 407.423369 
L 504.724676 423.071834 
L 514.503733 439.295224 
L 524.376013 456.105732 
L 534.346177 473.523912 
L 544.409563 491.554363 
L 554.570834 510.218298 
L 564.829988 529.52902 
L 575.187026 549.499961 
L 578.696859 556.106769 
L 579.456624 556.97144 
L 580.160455 557.443436 
L 580.789708 557.596758 
L 583.297397 557.598223 
L 631.577415 557.598223 
L 631.577415 557.598223 
" clip-path="url(#p789f4263ed)" style="fill: none; stroke: #ff7f0e; stroke-width: 5; stroke-linecap: round"/>
   </g>
   <g id="line2d_27">
    <path d="M 137.50196 557.464215 
L 171.756628 557.575304 
L 185.469682 557.93133 
L 197.332266 558.45795 
L 208.071516 559.154336 
L 218.027697 560.020419 
L 227.391913 561.056183 
L 236.290017 562.262311 
L 244.810568 563.640112 
L 250.655629 564.552262 
L 252.501438 564.531165 
L 254.309957 564.290261 
L 259.777467 563.101982 
L 267.519609 561.226408 
L 275.061322 559.171427 
L 282.425913 556.93499 
L 289.636686 554.513542 
L 296.716947 551.901718 
L 303.676019 549.097926 
L 310.532546 546.09594 
L 317.29585 542.892247 
L 323.979915 539.480185 
L 330.598724 535.851586 
L 337.156938 532.00228 
L 338.620534 531.244296 
L 339.734545 530.942036 
L 340.862539 530.878374 
L 403.764531 530.768087 
L 404.575568 530.323831 
L 405.461184 529.569577 
L 407.488777 527.346453 
L 413.818595 520.158654 
L 420.157737 512.62255 
L 426.510861 504.722953 
L 432.877969 496.44974 
L 439.263721 487.78622 
L 445.67278 478.714484 
L 452.105143 469.222361 
L 458.560813 459.297486 
L 465.044449 448.919695 
L 471.556052 438.075322 
L 478.095622 426.750463 
L 484.66782 414.922421 
L 489.753116 405.825255 
L 490.508219 405.080567 
L 491.1701 404.71473 
L 491.766725 404.616623 
L 492.354028 404.735853 
L 492.97862 405.099267 
L 493.63584 405.746818 
L 494.353654 406.767131 
L 495.341815 408.621592 
L 502.007235 421.854182 
L 508.709944 435.657865 
L 515.449943 450.050202 
L 522.227231 465.049107 
L 529.046469 480.683732 
L 535.907657 496.973867 
L 542.810795 513.939725 
L 549.755883 531.601944 
L 556.742922 549.981596 
L 563.776572 569.11308 
L 570.852172 589.006323 
L 579.051105 612.104894 
L 579.740953 613.07712 
L 580.337578 613.54853 
L 580.826997 613.677937 
L 585.753815 613.678465 
L 631.577415 613.678465 
L 631.577415 613.678465 
" clip-path="url(#p789f4263ed)" style="fill: none; stroke: #2ca02c; stroke-width: 5; stroke-linecap: round"/>
   </g>
   <g id="line2d_28">
    <path d="M 112.798188 557.464215 
L 656.281188 557.464215 
" clip-path="url(#p789f4263ed)" style="fill: none; stroke: #000000; stroke-width: 3; stroke-linecap: round"/>
   </g>
   <g id="patch_9">
    <path d="M 112.798188 725.597085 
L 112.798188 389.331345 
" style="fill: none; stroke: #ffffff; stroke-width: 2.5; stroke-linejoin: miter; stroke-linecap: square"/>
   </g>
   <g id="patch_10">
    <path d="M 656.281188 725.597085 
L 656.281188 389.331345 
" style="fill: none; stroke: #ffffff; stroke-width: 2.5; stroke-linejoin: miter; stroke-linecap: square"/>
   </g>
   <g id="patch_11">
    <path d="M 112.798188 725.597085 
L 656.281188 725.597085 
" style="fill: none; stroke: #ffffff; stroke-width: 2.5; stroke-linejoin: miter; stroke-linecap: square"/>
   </g>
   <g id="patch_12">
    <path d="M 112.798188 389.331345 
L 656.281188 389.331345 
" style="fill: none; stroke: #ffffff; stroke-width: 2.5; stroke-linejoin: miter; stroke-linecap: square"/>
   </g>
   <g id="legend_1">
    <g id="patch_13">
     <path d="M 525.281188 713.097085 
L 638.781188 713.097085 
Q 643.781188 713.097085 643.781188 708.097085 
L 643.781188 604.507241 
Q 643.781188 599.507241 638.781188 599.507241 
L 525.281188 599.507241 
Q 520.281188 599.507241 520.281188 604.507241 
L 520.281188 708.097085 
Q 520.281188 713.097085 525.281188 713.097085 
z
" style="fill: #eaeaf2; opacity: 0.8; stroke: #cccccc; stroke-width: 2; stroke-linejoin: miter"/>
    </g>
    <g id="line2d_29">
     <path d="M 530.281188 618.651772 
L 555.281188 618.651772 
L 580.281188 618.651772 
" style="fill: none; stroke: #1f77b4; stroke-width: 5; stroke-linecap: round"/>
    </g>
    <g id="text_21">
     <!-- $M_0$ -->
     <g style="fill: #262626" transform="translate(600.281188 627.401772) scale(0.25 -0.25)">
      <defs>
       <path id="DejaVuSans-30" d="M 2034 4250 
Q 1547 4250 1301 3770 
Q 1056 3291 1056 2328 
Q 1056 1369 1301 889 
Q 1547 409 2034 409 
Q 2525 409 2770 889 
Q 3016 1369 3016 2328 
Q 3016 3291 2770 3770 
Q 2525 4250 2034 4250 
z
M 2034 4750 
Q 2819 4750 3233 4129 
Q 3647 3509 3647 2328 
Q 3647 1150 3233 529 
Q 2819 -91 2034 -91 
Q 1250 -91 836 529 
Q 422 1150 422 2328 
Q 422 3509 836 4129 
Q 1250 4750 2034 4750 
z
" transform="scale(0.015625)"/>
      </defs>
      <use xlink:href="#DejaVuSans-Oblique-4d" transform="translate(0 0.09375)"/>
      <use xlink:href="#DejaVuSans-30" transform="translate(86.279297 -16.3125) scale(0.7)"/>
     </g>
    </g>
    <g id="line2d_30">
     <path d="M 530.281188 654.015054 
L 555.281188 654.015054 
L 580.281188 654.015054 
" style="fill: none; stroke: #ff7f0e; stroke-width: 5; stroke-linecap: round"/>
    </g>
    <g id="text_22">
     <!-- $M_1$ -->
     <g style="fill: #262626" transform="translate(600.281188 662.765054) scale(0.25 -0.25)">
      <defs>
       <path id="DejaVuSans-31" d="M 794 531 
L 1825 531 
L 1825 4091 
L 703 3866 
L 703 4441 
L 1819 4666 
L 2450 4666 
L 2450 531 
L 3481 531 
L 3481 0 
L 794 0 
L 794 531 
z
" transform="scale(0.015625)"/>
      </defs>
      <use xlink:href="#DejaVuSans-Oblique-4d" transform="translate(0 0.09375)"/>
      <use xlink:href="#DejaVuSans-31" transform="translate(86.279297 -16.3125) scale(0.7)"/>
     </g>
    </g>
    <g id="line2d_31">
     <path d="M 530.281188 689.378335 
L 555.281188 689.378335 
L 580.281188 689.378335 
" style="fill: none; stroke: #2ca02c; stroke-width: 5; stroke-linecap: round"/>
    </g>
    <g id="text_23">
     <!-- $M_2$ -->
     <g style="fill: #262626" transform="translate(600.281188 698.128335) scale(0.25 -0.25)">
      <defs>
       <path id="DejaVuSans-32" d="M 1228 531 
L 3431 531 
L 3431 0 
L 469 0 
L 469 531 
Q 828 903 1448 1529 
Q 2069 2156 2228 2338 
Q 2531 2678 2651 2914 
Q 2772 3150 2772 3378 
Q 2772 3750 2511 3984 
Q 2250 4219 1831 4219 
Q 1534 4219 1204 4116 
Q 875 4013 500 3803 
L 500 4441 
Q 881 4594 1212 4672 
Q 1544 4750 1819 4750 
Q 2544 4750 2975 4387 
Q 3406 4025 3406 3419 
Q 3406 3131 3298 2873 
Q 3191 2616 2906 2266 
Q 2828 2175 2409 1742 
Q 1991 1309 1228 531 
z
" transform="scale(0.015625)"/>
      </defs>
      <use xlink:href="#DejaVuSans-Oblique-4d" transform="translate(0 0.09375)"/>
      <use xlink:href="#DejaVuSans-32" transform="translate(86.279297 -16.3125) scale(0.7)"/>
     </g>
    </g>
   </g>
  </g>
 </g>
 <defs>
  <clipPath id="p41fd0b1eb1">
   <rect x="112.798188" y="9.429345" width="543.483" height="336.26574"/>
  </clipPath>
  <clipPath id="p789f4263ed">
   <rect x="112.798188" y="389.331345" width="543.483" height="336.26574"/>
  </clipPath>
 </defs>
</svg>
